<svg width="158" height="77" viewBox="0 0 158 77" fill="none" xmlns="http://www.w3.org/2000/svg">
<path d="M16.25 62.6562C7.625 62.6562 1.96875 55.75 1.96875 45.4688C1.96875 35.3125 7.71875 28.3438 16.1875 28.3438C20.4688 28.3438 24 30.0625 26.125 33.6875H26.1875V15.4375H34.0625V62H26.3125V56.9688H26.25C24.1875 60.7812 20.5625 62.6562 16.25 62.6562ZM18.0938 56.0625C23.25 56.0625 26.625 51.9062 26.625 45.4688C26.625 39.0625 23.25 34.875 18.0938 34.875C13.2188 34.875 9.9375 38.6562 9.9375 45.4688C9.9375 52.3125 13.2188 56.0625 18.0938 56.0625ZM52.8125 62.6562C45.9062 62.6562 41.0625 58.0938 41.0625 49.625V29H48.9375V48.375C48.9375 53.2188 51.375 55.75 55.5938 55.75C59.75 55.75 62.8125 53.2812 62.8125 47.6562V29H70.7188V62H62.9688V56.9375C60.7188 60.6562 57.375 62.6562 52.8125 62.6562ZM92.3125 62.75C82.4062 62.75 76.2188 55.5312 76.2188 45.5312C76.2188 35.5 82.75 28.25 92 28.25C101.5 28.25 107.812 35.2812 107.812 45.4062V47.5625H83.9375C84.125 52.9375 87.1875 56.5312 92.5 56.5312C96.4688 56.5312 99.125 54.625 100.031 51.8125H107.406C106.156 58.2812 100.031 62.75 92.3125 62.75ZM84 42.125H100.25C99.75 37.4062 96.6875 34.5 92.125 34.5C87.5625 34.5 84.5312 37.4062 84 42.125ZM108.875 62L120.844 45.1875L109.656 29H118.438L121.875 34.25C123.062 36.1875 124.188 38 125.312 39.8438C126.438 38 127.562 36.1875 128.781 34.25L132.281 29H140.938L129.656 45.0312L141.469 62H132.656L128.719 56.125C127.5 54.1875 126.375 52.3438 125.219 50.5312C124.062 52.3438 122.906 54.1875 121.656 56.125L117.656 62H108.875ZM149.625 62.5625C146.938 62.5625 144.781 60.4062 144.781 57.7188C144.781 55.0312 146.938 52.875 149.625 52.875C152.312 52.875 154.469 55.0312 154.469 57.7188C154.469 60.4062 152.312 62.5625 149.625 62.5625Z" fill="url(#paint0_linear_12_7)"/>
<defs>
<linearGradient id="paint0_linear_12_7" x1="79" y1="0" x2="79" y2="77" gradientUnits="userSpaceOnUse">
<stop stop-color="#FFC700"/>
<stop offset="1" stop-color="#FF6B00"/>
</linearGradient>
</defs>
</svg>
