<svg width="186" height="178" viewBox="0 0 186 178" fill="none" xmlns="http://www.w3.org/2000/svg">
<path d="M90.6489 1.70821C92.0508 0.689632 93.9492 0.689628 95.3511 1.7082L183.852 66.0081C185.254 67.0267 185.841 68.8322 185.305 70.4803L151.501 174.52C150.966 176.168 149.43 177.284 147.697 177.284H38.3032C36.5703 177.284 35.0345 176.168 34.499 174.52L0.694521 70.4803C0.159024 68.8322 0.745655 67.0267 2.1476 66.0081L90.6489 1.70821Z" fill="url(#paint0_linear_14_13)"/>
<path d="M94.7634 2.51722L183.265 66.8171C184.316 67.5811 184.756 68.9352 184.354 70.1713L150.55 174.211C150.148 175.447 148.996 176.284 147.697 176.284H38.3032C37.0035 176.284 35.8517 175.447 35.45 174.211L1.64558 70.1713C1.24395 68.9352 1.68393 67.5811 2.73539 66.8172L91.2366 2.51723C92.2881 1.75329 93.7119 1.75329 94.7634 2.51722Z" stroke="white" stroke-opacity="0.2" stroke-width="2"/>
<defs>
<linearGradient id="paint0_linear_14_13" x1="93" y1="0" x2="93" y2="196" gradientUnits="userSpaceOnUse">
<stop stop-color="#F7CAFD"/>
<stop offset="1" stop-color="#CEE1F1"/>
</linearGradient>
</defs>
</svg>
