<svg width="177" height="56" viewBox="0 0 177 56" fill="none" xmlns="http://www.w3.org/2000/svg">
<path d="M172 42.5625C169.312 42.5625 167.156 40.4062 167.156 37.7188C167.156 35.0312 169.312 32.875 172 32.875C174.688 32.875 176.844 35.0312 176.844 37.7188C176.844 40.4062 174.688 42.5625 172 42.5625Z" fill="url(#paint0_linear_14_23)"/>
<path d="M143.375 42.5312C136.812 42.5312 131.969 39.2188 131.969 32.625C131.969 25.125 138.125 23.2812 144.938 22.5625C151.062 21.875 153.156 21.7812 153.156 19.5312V19.2812C153.156 16.4688 150.906 14.4688 147.125 14.4688C143.281 14.4688 140.719 16.4688 140.5 19.25H132.906C133.281 12.6875 138.656 8.34375 147.281 8.34375C155.875 8.34375 160.969 12.625 160.969 19.5V42H153.219V37.3438H153.094C151.531 40.2812 148.75 42.5312 143.375 42.5312ZM145.312 36.6875C150.469 36.6875 153.188 33.625 153.188 29.7812V26.2188C152.219 26.8438 149.156 27.3438 145.906 27.8438C142.531 28.3438 139.656 29.5625 139.656 32.5625C139.656 35.1562 141.875 36.6875 145.312 36.6875Z" fill="url(#paint1_linear_14_23)"/>
<path d="M127.594 9V15.3438H120.875V32.5312C120.875 34.875 121.656 35.6562 124.219 35.6562H127.594V42H122.844C116.125 42 112.969 39.3438 112.969 33.6875V15.3438H107.219V9H112.969V0H120.875V9H127.594Z" fill="url(#paint2_linear_14_23)"/>
<path d="M81.375 23.3438V42H73.5V9H81.25V14.0625C83.5 10.3438 86.8438 8.34375 91.375 8.34375C98.2812 8.34375 103.156 12.9062 103.156 21.375V42H95.25V22.625C95.25 17.7812 92.8125 15.25 88.5938 15.25C84.4688 15.25 81.375 17.7188 81.375 23.3438Z" fill="url(#paint3_linear_14_23)"/>
<path d="M52.625 42.75C42.7188 42.75 36.5312 35.5312 36.5312 25.5312C36.5312 15.5 43.0625 8.25 52.3125 8.25C61.8125 8.25 68.125 15.2812 68.125 25.4062V27.5625H44.25C44.4375 32.9375 47.5 36.5312 52.8125 36.5312C56.7812 36.5312 59.4375 34.625 60.3438 31.8125H67.7188C66.4688 38.2812 60.3438 42.75 52.625 42.75ZM44.3125 22.125H60.5625C60.0625 17.4062 57 14.5 52.4375 14.5C47.875 14.5 44.8438 17.4062 44.3125 22.125Z" fill="url(#paint4_linear_14_23)"/>
<path d="M0.5 55.0625V9H8.25V13.5938H8.34375C10.4062 10.0938 14.0625 8.34375 18.3438 8.34375C26.8438 8.34375 32.5938 15.3125 32.5938 25.4688C32.5938 35.75 26.9375 42.6562 18.3125 42.6562C14 42.6562 10.5312 40.7812 8.46875 37.0312H8.375V55.0625H0.5ZM16.4688 36.0625C21.3438 36.0625 24.625 32.3125 24.625 25.4688C24.625 18.6562 21.3438 14.875 16.4688 14.875C11.3125 14.875 7.9375 19.0625 7.9375 25.4688C7.9375 31.9062 11.3125 36.0625 16.4688 36.0625Z" fill="url(#paint5_linear_14_23)"/>
<defs>
<linearGradient id="paint0_linear_14_23" x1="-1431.3" y1="-300.535" x2="-1431.3" y2="137.123" gradientUnits="userSpaceOnUse">
<stop stop-color="#F07DFF"/>
<stop offset="1" stop-color="#5FA7E3"/>
</linearGradient>
<linearGradient id="paint1_linear_14_23" x1="-263.826" y1="-45.6505" x2="-263.826" y2="78.3659" gradientUnits="userSpaceOnUse">
<stop stop-color="#F07DFF"/>
<stop offset="1" stop-color="#5FA7E3"/>
</linearGradient>
<linearGradient id="paint2_linear_14_23" x1="-161.509" y1="-26.2202" x2="-161.509" y2="74.7277" gradientUnits="userSpaceOnUse">
<stop stop-color="#F07DFF"/>
<stop offset="1" stop-color="#5FA7E3"/>
</linearGradient>
<linearGradient id="paint3_linear_14_23" x1="89.6939" y1="-46.3711" x2="89.6939" y2="79.6029" gradientUnits="userSpaceOnUse">
<stop stop-color="#F07DFF"/>
<stop offset="1" stop-color="#5FA7E3"/>
</linearGradient>
<linearGradient id="paint4_linear_14_23" x1="290.569" y1="-45.0874" x2="290.569" y2="77.8057" gradientUnits="userSpaceOnUse">
<stop stop-color="#F07DFF"/>
<stop offset="1" stop-color="#5FA7E3"/>
</linearGradient>
<linearGradient id="paint5_linear_14_23" x1="88.5" y1="-20" x2="88.5" y2="57" gradientUnits="userSpaceOnUse">
<stop stop-color="#F07DFF"/>
<stop offset="1" stop-color="#5FA7E3"/>
</linearGradient>
</defs>
</svg>
