<svg width="245" height="30" viewBox="0 0 245 30" fill="none" xmlns="http://www.w3.org/2000/svg"><g clip-path="url(#clip0_16_212)"><path d="M76.0728 12.6419H71.6907V21.087C71.6907 23.3388 73.1767 23.3024 76.0728 23.1626V26.5752C70.2077 27.2803 67.8738 25.6605 67.8738 21.087V12.6419H64.6222V8.98003H67.8738V4.25455L71.6907 3.13016V8.98003H76.0728V12.6419ZM92.7806 8.98003H96.5975V26.5752H92.7806V24.0408C91.4374 25.9067 89.3497 27.0341 86.5934 27.0341C81.7889 27.0341 77.7958 22.9863 77.7958 17.7776C77.7958 12.5355 81.7889 8.5242 86.5934 8.5242C89.3497 8.5242 91.4374 9.64859 92.7806 11.478V8.98003ZM87.1951 23.4087C90.3769 23.4087 92.7806 21.0505 92.7806 17.7776C92.7806 14.5048 90.3769 12.1466 87.1951 12.1466C84.0134 12.1466 81.6127 14.5048 81.6127 17.7776C81.6127 21.0505 84.0134 23.4087 87.1951 23.4087ZM102.958 6.34227C101.615 6.34227 100.518 5.21484 100.518 3.91419C100.521 3.59511 100.585 3.27906 100.706 2.98429C100.829 2.68955 101.009 2.42191 101.235 2.19665C101.461 1.97139 101.73 1.79294 102.025 1.67149C102.32 1.54993 102.639 1.48611 102.958 1.48611C103.277 1.48611 103.593 1.54993 103.891 1.67149C104.186 1.79304 104.453 1.97234 104.681 2.19722C104.906 2.42513 105.085 2.69256 105.21 2.98429C105.331 3.27906 105.395 3.59511 105.395 3.91419C105.395 5.21484 104.301 6.34227 102.958 6.34227ZM101.049 26.5752V8.98003H104.866V26.5752H101.049ZM109.285 26.5752V0.887451H113.102V26.5752H109.285ZM137.875 8.98003H141.904L136.355 26.5752H132.608L128.934 14.7175L125.224 26.5752H121.477L115.928 8.98003H119.957L123.385 21.1204L127.096 8.98003H130.736L134.41 21.1204L137.875 8.98003ZM146.639 6.34227C145.296 6.34227 144.202 5.21484 144.202 3.91419C144.202 3.59511 144.266 3.27906 144.387 2.98429C144.512 2.69256 144.691 2.42513 144.916 2.19722C145.144 1.97234 145.411 1.79304 145.706 1.67149C146.004 1.54993 146.32 1.48611 146.639 1.48611C147.285 1.48627 147.904 1.74191 148.362 2.19722C148.59 2.42513 148.769 2.69256 148.891 2.98429C149.015 3.27906 149.079 3.59511 149.079 3.91419C149.079 5.21484 147.982 6.34227 146.639 6.34227ZM144.731 26.5752V8.98003H148.547V26.5752H144.731ZM169.048 15.772V26.5752H165.231V16.1609C165.231 13.4837 163.675 12.0767 161.271 12.0767C158.761 12.0767 156.783 13.5566 156.783 17.1456V26.5752H152.966V8.98003H156.783V11.2319C157.95 9.40244 159.858 8.5242 162.262 8.5242C166.219 8.5242 169.048 11.1984 169.048 15.772ZM187.141 1.94195H190.958V26.5752H187.141V24.0408C185.798 25.9067 183.714 27.0341 180.957 27.0341C176.15 27.0341 172.157 22.9863 172.157 17.7776C172.157 12.5355 176.15 8.5242 180.957 8.5242C183.714 8.5242 185.798 9.64859 187.141 11.478V1.94195ZM181.559 23.4087C184.738 23.4087 187.141 21.0505 187.141 17.7776C187.141 14.5048 184.738 12.1466 181.559 12.1466C178.377 12.1466 175.973 14.5048 175.973 17.7776C175.973 21.0505 178.377 23.4087 181.559 23.4087ZM194.423 17.7776C194.423 12.5355 198.416 8.5242 203.752 8.5242C207.216 8.5242 210.219 10.3171 211.632 13.0643L208.347 14.9636C207.569 13.3105 205.837 12.2529 203.716 12.2529C200.607 12.2529 198.239 14.6111 198.239 17.7776C198.239 20.9442 200.607 23.3024 203.716 23.3024C205.837 23.3024 207.569 22.2114 208.417 20.5947L211.705 22.4575C210.219 25.2381 207.216 27.0341 203.752 27.0341C198.416 27.0341 194.423 22.9863 194.423 17.7776ZM227.501 21.6127C227.501 25.1318 224.426 27.0341 220.609 27.0341C217.075 27.0341 214.531 25.4478 213.401 22.9164L216.686 21.0141C217.254 22.6004 218.667 23.5485 220.609 23.5485C222.308 23.5485 223.614 22.9863 223.614 21.5793C223.614 18.4462 214.109 20.2057 214.109 13.9061C214.109 10.5998 216.971 8.5242 220.575 8.5242C223.471 8.5242 225.875 9.86132 227.112 12.183L223.897 13.979C223.262 12.6054 222.025 11.9733 220.575 11.9733C219.196 11.9733 217.995 12.569 217.995 13.8362C217.995 17.0392 227.501 15.1034 227.501 21.6127ZM243.796 21.6127C243.796 25.1318 240.72 27.0341 236.903 27.0341C233.369 27.0341 230.823 25.4478 229.692 22.9164L232.98 21.0141C233.545 22.6004 234.958 23.5485 236.903 23.5485C238.599 23.5485 239.906 22.9863 239.906 21.5793C239.906 18.4462 230.4 20.2057 230.4 13.9061C230.4 10.5998 233.263 8.5242 236.867 8.5242C239.766 8.5242 242.17 9.86132 243.407 12.183L240.188 13.979C239.553 12.6054 238.316 11.9733 236.867 11.9733C235.49 11.9733 234.287 12.569 234.287 13.8362C234.287 17.0392 243.796 15.1034 243.796 21.6127Z" fill="black"/><path d="M25.8549 0C19.1602 0 14.9726 3.33367 13.2982 10.001C15.8114 6.66734 18.7409 5.41532 22.0897 6.24797C23.9981 6.72508 25.3626 8.10474 26.876 9.63331C29.3375 12.1191 32.188 15 38.4116 15C45.1063 15 49.2909 11.6663 50.9653 4.99899C48.4552 8.33266 45.5257 9.58164 42.1768 8.74899C40.2684 8.27492 38.9009 6.89222 37.3906 5.36669C34.9291 2.87784 32.0786 0 25.8549 0ZM13.2982 15C6.6035 15 2.41894 18.3337 0.744507 25.001C3.25464 21.6673 6.18413 20.4184 9.533 21.251C11.4445 21.7251 12.8089 23.1078 14.3193 24.6333C16.7808 27.1222 19.6313 30 25.8549 30C32.5526 30 36.7372 26.6663 38.4116 19.999C35.8985 23.3327 32.969 24.5847 29.6231 23.752C27.7117 23.2749 26.3472 21.8953 24.8338 20.3667C22.3723 17.8809 19.5219 15 13.2982 15Z" fill="#000000" fill-opacity="0.56"/></g><defs><clipPath id="clip0_16_212"><rect width="243.506" height="30" fill="white" transform="translate(0.516846)"/></clipPath></defs></svg>