<svg width="242" height="355" viewBox="0 0 242 355" fill="none" xmlns="http://www.w3.org/2000/svg">
<path d="M126.28 0.759979C145.48 1.23998 162.52 5.15998 177.4 12.52C192.28 19.72 203.96 29.32 212.44 41.32C220.92 53.16 225.16 66.36 225.16 80.92C225 100.12 217.08 116.76 201.4 130.84C185.72 144.76 164.28 155.88 137.08 164.2L122.44 163.48C143.4 155.48 159.56 144.92 170.92 131.8C182.28 118.68 187.96 102.6 187.96 83.56C188.12 69.8 185.64 57.56 180.52 46.84C175.4 36.12 167.96 27.64 158.2 21.4C148.6 15.16 136.84 11.88 122.92 11.56C102.12 11.08 85.4 16.44 72.76 27.64C60.12 38.68 53.8 52.44 53.8 68.92C53.8 83.32 57.16 95.32 63.88 104.92C70.6 114.52 79.48 122.68 90.52 129.4C101.72 135.96 113.96 141.88 127.24 147.16C140.68 152.44 154.04 157.96 167.32 163.72C180.76 169.48 193.08 176.28 204.28 184.12C215.48 191.8 224.44 201.4 231.16 212.92C238.04 224.44 241.48 238.76 241.48 255.88C241.48 274.28 236.36 291 226.12 306.04C216.04 320.92 201.96 332.76 183.88 341.56C165.8 350.2 144.84 354.36 121 354.04C99.24 353.56 79.16 349.96 60.76 343.24C42.52 336.36 27.88 326.6 16.84 313.96C5.96 301.16 0.52 285.64 0.52 267.4C0.52 253 3.56 240.6 9.64 230.2C15.72 219.8 23.88 210.92 34.12 203.56C44.52 196.04 56.04 189.72 68.68 184.6C81.32 179.32 94.12 174.68 107.08 170.68L115.24 175C99.72 180.44 86.52 187 75.64 194.68C64.92 202.36 56.76 211.8 51.16 223C45.56 234.04 42.76 247.64 42.76 263.8C42.76 280.6 46.28 294.76 53.32 306.28C60.36 317.8 69.88 326.52 81.88 332.44C93.88 338.36 107.32 341.48 122.2 341.8C139.16 341.96 153.64 339.32 165.64 333.88C177.8 328.28 187.08 320.36 193.48 310.12C200.04 299.72 203.32 287.48 203.32 273.4C203.32 258.84 199.88 246.76 193 237.16C186.28 227.4 177.32 219.16 166.12 212.44C154.92 205.72 142.6 199.72 129.16 194.44C115.88 189.16 102.6 183.72 89.32 178.12C76.04 172.52 63.8 165.96 52.6 158.44C41.56 150.76 32.68 141.32 25.96 130.12C19.24 118.92 15.88 105 15.88 88.36C16.04 70.76 20.84 55.32 30.28 42.04C39.72 28.76 52.76 18.44 69.4 11.08C86.04 3.71997 105 0.279975 126.28 0.759979Z" fill="url(#paint0_linear_8_3)" fill-opacity="0.25"/>
<defs>
<linearGradient id="paint0_linear_8_3" x1="121" y1="-4" x2="121" y2="476" gradientUnits="userSpaceOnUse">
<stop stop-color="white" stop-opacity="0"/>
<stop offset="0.345" stop-color="#4F7CEC"/>
<stop offset="0.735" stop-color="#6366F1"/>
<stop offset="1" stop-color="white" stop-opacity="0"/>
</linearGradient>
</defs>
</svg>
