<svg width="153" height="38" viewBox="0 0 153 38" fill="none" xmlns="http://www.w3.org/2000/svg">
<path d="M15.824 36.072C17.8293 36.072 19.5253 35.5173 20.912 34.408C22.2987 33.2987 23.344 31.6347 24.048 29.416C24.7733 27.1973 25.136 24.4453 25.136 21.16C25.136 17.832 24.784 15.048 24.08 12.808C23.376 10.5467 22.3413 8.84 20.976 7.688C19.6107 6.536 17.936 5.96 15.952 5.96C13.968 5.96 12.2827 6.52533 10.896 7.656C9.50933 8.76533 8.45333 10.4293 7.728 12.648C7.024 14.8453 6.672 17.5867 6.672 20.872C6.672 24.1787 7.024 26.9627 7.728 29.224C8.432 31.4853 9.46667 33.192 10.832 34.344C12.1973 35.496 13.8613 36.072 15.824 36.072ZM15.76 37.64C12.88 37.64 10.2773 36.936 7.952 35.528C5.62667 34.12 3.77067 32.168 2.384 29.672C1.01867 27.1547 0.336 24.2747 0.336 21.032C0.336 17.7893 1.04 14.92 2.448 12.424C3.856 9.90667 5.744 7.944 8.112 6.536C10.48 5.10667 13.1253 4.392 16.048 4.392C18.9707 4.392 21.5947 5.10667 23.92 6.536C26.2453 7.944 28.08 9.896 29.424 12.392C30.7893 14.8667 31.472 17.736 31.472 21C31.472 24.264 30.7573 27.1547 29.328 29.672C27.8987 32.168 25.9893 34.12 23.6 35.528C21.232 36.936 18.6187 37.64 15.76 37.64ZM52.7245 4.392C54.7298 4.392 56.3618 4.60533 57.6205 5.032C58.9005 5.45867 59.8392 6.01333 60.4365 6.696C61.0338 7.37867 61.3325 8.11467 61.3325 8.904C61.3325 9.56533 61.1938 10.1413 60.9165 10.632C60.6605 11.1013 60.2978 11.464 59.8285 11.72C59.3592 11.976 58.7832 12.104 58.1005 12.104C57.8658 12.104 57.5565 11.912 57.1725 11.528C56.8098 11.1227 56.3725 10.632 55.8605 10.056C55.3485 9.48 54.7725 8.904 54.1325 8.328C53.5138 7.73067 52.8525 7.24 52.1485 6.856C51.4445 6.45067 50.6978 6.248 49.9085 6.248C48.4152 6.248 47.0712 6.68533 45.8765 7.56C44.7032 8.43467 43.7752 9.768 43.0925 11.56C42.4312 13.352 42.1005 15.656 42.1005 18.472C42.1005 21.8853 42.5272 24.68 43.3805 26.856C44.2338 29.032 45.4818 30.632 47.1245 31.656C48.7672 32.6587 50.7938 33.16 53.2045 33.16C54.8258 33.16 56.3938 32.8293 57.9085 32.168C59.4232 31.4853 60.7032 30.4507 61.7485 29.064L62.2605 29.512C61.0445 31.496 59.8072 33.0853 58.5485 34.28C57.2898 35.4747 55.9672 36.3387 54.5805 36.872C53.2152 37.384 51.7218 37.64 50.1005 37.64C47.4765 37.64 45.1085 37.0213 42.9965 35.784C40.9058 34.5467 39.2525 32.744 38.0365 30.376C36.8205 27.9867 36.2125 25.0747 36.2125 21.64C36.2125 19.144 36.6178 16.8507 37.4285 14.76C38.2392 12.6693 39.3805 10.856 40.8525 9.32C42.3245 7.76267 44.0632 6.55733 46.0685 5.704C48.0952 4.82933 50.3138 4.392 52.7245 4.392ZM74.4455 28.712C74.4455 30.2693 74.9362 31.4427 75.9175 32.232C76.8988 33.0213 78.1895 33.416 79.7895 33.416C80.7068 33.416 81.6668 33.3307 82.6695 33.16C83.6722 32.9893 84.8348 32.712 86.1575 32.328V33.32C84.2802 34.4507 82.7442 35.3253 81.5495 35.944C80.3762 36.5627 79.3628 37 78.5095 37.256C77.6562 37.512 76.7602 37.64 75.8215 37.64C74.5842 37.64 73.4215 37.3733 72.3335 36.84C71.2668 36.2853 70.4028 35.4107 69.7415 34.216C69.0802 33.0213 68.7495 31.464 68.7495 29.544V9.192L64.7815 6.696V6.216C65.0375 6.04533 65.3788 5.82133 65.8055 5.544C66.2322 5.26667 66.7228 4.936 67.2775 4.552C67.8535 4.168 68.4935 3.74133 69.1975 3.272C69.9228 2.80266 70.6908 2.30133 71.5015 1.768C72.3122 1.21333 73.1655 0.647998 74.0615 0.0719986H74.4455V6.184V28.712ZM72.4935 8.424V5.032H85.2295L84.7175 8.424H72.4935ZM108.268 16.264L108.62 17.736C105.697 18.632 103.318 19.4853 101.484 20.296C99.6702 21.1067 98.2728 21.928 97.2915 22.76C96.3315 23.5707 95.6702 24.424 95.3075 25.32C94.9448 26.216 94.7635 27.208 94.7635 28.296C94.7635 30.088 95.2755 31.4427 96.2995 32.36C97.3448 33.256 98.6142 33.704 100.108 33.704C101.302 33.704 102.348 33.4587 103.244 32.968C104.161 32.4773 104.876 31.7733 105.388 30.856C105.921 29.9387 106.188 28.84 106.188 27.56V13.352C106.188 11.24 105.665 9.64 104.62 8.552C103.596 7.44267 102.017 6.888 99.8835 6.888C98.8808 6.888 97.8675 6.97333 96.8435 7.144C95.8408 7.31466 95.0195 7.56 94.3795 7.88L96.0755 6.568C96.0115 7.31466 95.9048 8.09333 95.7555 8.904C95.6275 9.71467 95.4675 10.4507 95.2755 11.112C95.0835 11.752 94.8488 12.232 94.5715 12.552C94.2942 12.9147 93.8675 13.192 93.2915 13.384C92.7368 13.5547 92.1715 13.64 91.5955 13.64C90.8488 13.64 90.2515 13.4907 89.8035 13.192C89.3555 12.872 89.1315 12.4027 89.1315 11.784C89.1315 10.9093 89.5368 10.0453 90.3475 9.192C91.1795 8.31733 92.2462 7.528 93.5475 6.824C94.8702 6.09867 96.2995 5.52267 97.8355 5.096C99.3715 4.66933 100.844 4.456 102.252 4.456C104.577 4.456 106.444 4.79733 107.852 5.48C109.26 6.16266 110.284 7.13333 110.924 8.392C111.564 9.62933 111.884 11.0907 111.884 12.776V31.112C111.884 31.7947 111.99 32.3493 112.204 32.776C112.438 33.2027 112.748 33.5227 113.132 33.736C113.537 33.928 114.006 34.024 114.54 34.024C115.222 34.024 115.905 33.9173 116.588 33.704C117.292 33.4693 118.006 33.096 118.732 32.584V33.544C117.26 35.272 115.937 36.392 114.764 36.904C113.59 37.3947 112.396 37.64 111.18 37.64C109.942 37.64 108.961 37.3627 108.236 36.808C107.51 36.2533 106.988 35.464 106.668 34.44C106.348 33.3947 106.166 32.1467 106.124 30.696L106.22 30.664C105.878 32.008 105.302 33.2027 104.492 34.248C103.681 35.2933 102.71 36.1253 101.58 36.744C100.449 37.3413 99.2008 37.64 97.8355 37.64C95.2755 37.64 93.1315 36.9573 91.4035 35.592C89.6968 34.2053 88.8435 32.2 88.8435 29.576C88.8435 28.2107 89.0782 26.9947 89.5475 25.928C90.0382 24.8613 90.9555 23.848 92.2995 22.888C93.6648 21.928 95.6275 20.9253 98.1875 19.88C100.748 18.8133 104.108 17.608 108.268 16.264ZM148.126 34.76L152.542 35.912V37H136.926V35.912L141.502 34.792L133.278 22.92L132.958 22.472L122.59 7.464L118.142 6.152V5.032H133.534V6.152L129.086 7.272L136.638 18.248L136.926 18.6L148.126 34.76ZM135.069 21.48L124.542 34.952L128.478 35.912V37H117.694V35.912L121.822 34.952L134.302 19.848L134.814 19.688L144.766 7.08L140.606 6.152V5.032H151.262V6.152L147.422 7.08L135.614 21.32L135.069 21.48Z" fill="white"/>
</svg>
