<svg xmlns="http://www.w3.org/2000/svg" viewBox="0 0 500 500"><g id="freepik--Hourglass--inject-469"><path d="M140.88,193.43C108.54,199,83.28,209,84.44,215.79l.55,3.14h0c1.16,6.75,28.33,7.7,60.66,2.1s57.61-15.6,56.44-22.35l-.54-3.14C200.38,188.78,173.22,187.84,140.88,193.43Z" style="fill:#FFC100"></path><ellipse cx="143.54" cy="208.8" rx="59.42" ry="12.41" transform="translate(-33.48 27.51) rotate(-9.81)" style="fill:#fff;opacity:0.2"></ellipse><path d="M142.58,203.25c-29,5-51.58,14-50.53,20l.9,5.23h0c1,6.05,25.37,6.89,54.32,1.88s51.58-14,50.53-20h0l-.9-5.22C195.85,199.09,171.53,198.24,142.58,203.25Z" style="fill:#FFC100"></path><ellipse cx="145.38" cy="219.43" rx="53.2" ry="11.11" transform="translate(-35.27 27.98) rotate(-9.81)" style="fill:#fff;opacity:0.2"></ellipse><path d="M172.81,282.64a9.26,9.26,0,0,1-2.51-14.48c11.73-12.77,25.93-33.1,22.33-54-.78-4.47-22.34-4.48-48.16,0s-46.13,11.72-45.36,16.19c3.61,20.87,23.81,35.25,39.15,43.34a9.26,9.26,0,0,1,2.51,14.48c-11.74,12.76-25.94,33.09-22.33,54,.78,4.48,22.34,4.49,48.16,0S212.73,330.45,212,326C208.35,305.1,188.14,290.72,172.81,282.64Z" style="fill:#FFC100"></path><path d="M172.81,282.64a9.26,9.26,0,0,1-2.51-14.48c11.73-12.77,25.93-33.1,22.33-54-.78-4.47-22.34-4.48-48.16,0s-46.13,11.72-45.36,16.19c3.61,20.87,23.81,35.25,39.15,43.34a9.26,9.26,0,0,1,2.51,14.48c-11.74,12.76-25.94,33.09-22.33,54,.78,4.48,22.34,4.49,48.16,0S212.73,330.45,212,326C208.35,305.1,188.14,290.72,172.81,282.64Z" style="fill:#fff;opacity:0.8"></path><path d="M209.66,327.17c.46,4.69-82.72,20.88-88.25,13.69a5.84,5.84,0,0,1-.62-5.55,15.88,15.88,0,0,1,2.48-4.61c2.57-3.48,8.24-5,12.08-6.4,2.59-.95,5.2-1.82,7.81-2.72,2.8-1,5.68-.3,8.11-2.43,1.46-1.27,2.55-3.16,4.42-3.62,1.39-.34,2.88.21,4.25-.16,1.78-.48,3.05-2.4,4.89-2.43a11.56,11.56,0,0,1,2.67.65c1.6.34,3.24-.19,4.88-.34a20.53,20.53,0,0,1,4.82.35,146.72,146.72,0,0,0,15,2.07c3.71.2,7.82.11,11.44,1.13a6.9,6.9,0,0,1,3.68,3.24h0A17.38,17.38,0,0,1,209.66,327.17Z" style="fill:#263238"></path><path d="M182.08,317c.07,0,0,0-.17,0Z" style="fill:#fff;opacity:0.2"></path><path d="M207.35,320c-2.3-2.08-6.55-1.94-7.77-1.85s-1.65-.95-2.57-1.29-6.36.36-6.36.36,2,.39,2.42,1.05,2.7-.1,3-.19c-.31.18-3.09,1.64-4.4.76s-1.85.76-2.89,1.18-4.32,0-4.85-.17a41.42,41.42,0,0,0-4.7,0,6.69,6.69,0,0,1,2.68-1c.88.1,4.39-1.75,3.67-1.62s-2.36-.83-3.64-1.23a17.09,17.09,0,0,0-4.64.3,15.13,15.13,0,0,1,4.59.64,21.71,21.71,0,0,0-3,.95,9.8,9.8,0,0,1-2.76.47,3.86,3.86,0,0,0-1.86,1.44,28.59,28.59,0,0,1-3.47.6,8.42,8.42,0,0,1-3.41-.4l3.16-1-1.08-.31a12.58,12.58,0,0,0-2.28-.53c-1.27-.21-1.81,1-2.12,1.29s-3.09,0-3.87-.19-6.55,2.15-6.55,2.15l3.61-.62a8.83,8.83,0,0,0,2.95.69c2.41.32,2.76-.48,3.77-.41s4.36,1,4.36,1l-1.3.35a12.53,12.53,0,0,1-3.46,0c-2-.27-3.08.78-3.68.89a30.82,30.82,0,0,1-4.69.68c-.65-.14-2.36.66-3.3,1.62a4.11,4.11,0,0,1-4.16,1c-1.82-.47-4.89,1.75-4.89,1.75s1.61-2.13,2.45-2.28a22.9,22.9,0,0,0,3.75-1.88,7.14,7.14,0,0,0-1.34.11,3.39,3.39,0,0,1-2.49-.81c-1-.69-2-.15-3.47.6s-3.05,1.64-4.6.55-6.3,2.94-6.3,2.94a17.89,17.89,0,0,0,3.15-1.08c.44-.36.75,0,2.15.29s1.86-.69,2.55-1.06,2.76.25,2.76.25a3.11,3.11,0,0,1-1.57.29c-.76-.12-2,2.07-2.4,1.83s-3.31.14-4.56.79-3.09,2.82-4.94,2.15c-1.57-.57-5.11,4.24-8.22,4.3a15.88,15.88,0,0,1,2.48-4.61c2.57-3.48,8.24-5,12.08-6.4,2.59-.95,5.2-1.82,7.81-2.72,2.8-1,5.68-.3,8.11-2.43,1.46-1.27,2.55-3.16,4.42-3.62,1.39-.34,2.88.21,4.25-.16,1.78-.48,3.05-2.4,4.89-2.43a11.56,11.56,0,0,1,2.67.65c1.6.34,3.24-.19,4.88-.34a20.53,20.53,0,0,1,4.82.35,146.72,146.72,0,0,0,15,2.07c3.71.2,7.82.11,11.44,1.13A6.9,6.9,0,0,1,207.35,320Z" style="fill:#fff;opacity:0.2"></path><path d="M163.8,326c-29,5-51.58,14-50.54,20l.91,5.23h0c1,6,25.36,6.89,54.32,1.88s51.58-14,50.53-20h0l-.9-5.22C217.07,321.79,192.75,320.94,163.8,326Z" style="fill:#FFC100"></path><path d="M165.41,335.3c-32.33,5.59-57.6,15.6-56.43,22.36l.54,3.13h0c1.17,6.76,28.33,7.7,60.67,2.11s57.6-15.6,56.43-22.36l-.54-3.13C224.91,330.65,197.75,329.71,165.41,335.3Z" style="fill:#FFC100"></path><path d="M128.16,366.48l-2.34-.11Z" style="fill:#fff;opacity:0.2"></path><path d="M182.06,360.59l-.21,0Z" style="fill:#fff;opacity:0.2"></path><path d="M115.7,365c.32.09.66.17,1,.25C116.36,365.13,116,365.05,115.7,365Z" style="fill:#fff;opacity:0.2"></path><path d="M165.41,335.3c-32.33,5.59-57.6,15.6-56.43,22.36l.54,3.13a4.06,4.06,0,0,0,2.21,2.64,4.06,4.06,0,0,1-2.21-2.64C108.35,354,133.62,344,166,338.44s59.49-4.65,60.66,2.1h0l-.54-3.13C224.91,330.65,197.75,329.71,165.41,335.3Z" style="fill:#fff;opacity:0.2"></path><path d="M160.47,274.28c-.63,5-2.46,12.57-3.28,17.62s1.64,12.88,2.37,15.25,5.66,2,5.46,3.89,7.36,2.21,7.36,2.21-35.42,14-39,13.11,6.64-7.88,8.6-8.34,3-1.67,4.32-4.47,2.68-2.3,4.06-5.11a63.39,63.39,0,0,0,3.32-6.49c1.57-3.9,2.93-15.89,1.28-16.9s-.15,9.19-1.57,9.53,1.85-10.08-2.46-15.34S160.47,274.28,160.47,274.28Z" style="fill:#263238"></path><path d="M172.37,313.25s-35.41,14-39,13.11c-3.27-.81,5.09-6.8,8-8.11.19,2.06,5.74-.05,7.94-1.27s2.37-.33,3.18-.69,6.95-4.94,6.31-4.75-5.21,3.56-6.31,2.46-2.92,1-4.28,1.64c-1.18.57-1.48-.12-2.46-1,.19-.35.37-.73.56-1.13,1.29-2.8,2.67-2.3,4-5.11A60.79,60.79,0,0,0,153.7,302c1.58-3.9,2.94-15.89,1.3-16.9s-.16,9.19-1.57,9.52,1.83-10.07-2.47-15.33,9.51-5,9.51-5c-.63,5-2.46,12.57-3.28,17.62-.54,3.31.33,7.81,1.2,11.19-.23.82-.55,1.57-.93,1.69-.91.27-1.55,3.38-2.74,3.47s-.19,2.28,1.46,1.37c1.09-.6,2.81-1,4-1.52,1.54,1.37,5,1.35,4.82,2.94C164.83,312.94,172.37,313.25,172.37,313.25Z" style="fill:#fff;opacity:0.2"></path><path d="M179.68,251.42l-.42.69a84.83,84.83,0,0,1-4.52,7.18,44.46,44.46,0,0,1-5.43,6.87c-1.92,1.85-3.88,2.72-5,4.93a7.72,7.72,0,0,0-.65,1.73c-.42,1.67-.55,3.68-2,4.62a7.55,7.55,0,0,0-1,.61c-.73.63-.69,1.73-.88,2.67s-1.1,2-2,1.54-.94-1.61-1.75-1.57a3.12,3.12,0,0,0-.59.19c-.82.21-1.58-.43-2.21-1s-1.53-1.09-2.25-.65a40.15,40.15,0,0,0-7.14-5.23c-2.08-1.26-4.24-2.39-6.51-3.61-5-2.72-10.8-5.4-14.3-8.16a10.06,10.06,0,0,1-2.79-3.1,4,4,0,0,1-.4-1.29c-.58-4.94,14.71-6.41,20-10.09s13.55-1.32,17-2.09,7.38.32,11.05.05,5.93-1.33,8.07.23,4.51,1.09,5,2.28C181.2,249,180.3,250.44,179.68,251.42Z" style="fill:#263238"></path><path d="M175,249.86c-3.16-.61,3.29-.73,2.8-1.1s-2.07-1.57-5.59-1.45-6.46-.12-7.21,0,2.45,1.09,2.45,1.09H159.2c-2.68,0,1.83-1.09,1.83-1.09H147.14c.37,0,3.05,1.58,1.46,1.58s-3.29.85-5.48,1.7a37.31,37.31,0,0,1-5.35,1.71c-.36,0,5-4,5.33-4.26-.33.14-4.8,2-6.67,2.55s-7,2.32-7.44,2.44a21.6,21.6,0,0,0,2.81,0s-3.78,1.95-5.72,2.19c-1.46.18-5,1.38-5.86,3.92a10.06,10.06,0,0,0,2.79,3.1c3.5,2.76,9.28,5.44,14.3,8.16,2.27,1.22,4.43,2.35,6.51,3.61a40.15,40.15,0,0,1,7.14,5.23c.72-.44,1.63.1,2.25.65s1.39,1.2,2.21,1a3.12,3.12,0,0,1,.59-.19c.81,0,1,1.2,1.75,1.57s1.75-.6,2-1.54.15-2,.88-2.67a7.55,7.55,0,0,1,1-.61c1.46-.94,1.59-2.95,2-4.62a7.72,7.72,0,0,1,.65-1.73c1.15-2.21,3.11-3.08,5-4.93a44.46,44.46,0,0,0,5.43-6.87,84.83,84.83,0,0,0,4.52-7.18C178.14,250.21,178.19,250.47,175,249.86Zm-45.23,12.91c-1.06-.12,2.37-1.19,2.37-1.19A2.57,2.57,0,0,1,129.79,262.77Zm.64-4.11s1.73-1.37,2.46-1.28a15.37,15.37,0,0,0,2.11,0S132.26,259.21,130.43,258.66Zm13.79,10.69c-1.25-.24,1.32-1,1.94-.83S145.68,269.62,144.22,269.35Zm6.17-14s-5.3,1.56-4.23,1.56h2c-.37,0-5.85,1.19-6.12,1.14a25.77,25.77,0,0,1,3.26-1.84s-.39-.49-.37-.67,1.24-.55,1.24-.55c.43-.37,2.35-.91,3.08-.46a7,7,0,0,0,2.65.46Zm2.23,10.87c-1.48-1.35,2.91,0,2.91,0S153.62,267.15,152.62,266.24ZM155,251.72c2-1.37,2.5,0,2.5,0S154.35,252.16,155,251.72Zm6.93,5.3-1.54-.79a5.73,5.73,0,0,1,2.1-.76,4.9,4.9,0,0,1,2.83.76C165.86,256.56,162.46,257.29,161.92,257Zm3.94,6.72s-2.46-.06-2.7,0a21,21,0,0,1,2.7-.95Zm3.82-9.89s1.75-.38,2.57.53C173.36,255.6,169.68,253.85,169.68,253.85Z" style="fill:#fff;opacity:0.2"></path></g><g id="freepik--sheets-1--inject-469"><path d="M319,222.63l20.43-8s23.16,13.55,37.88,15.79l-25.46,5S324.3,230,319,222.63Z" style="fill:#FFC100"></path><path d="M195.25,288.27l15.52-14s26.53,4,47.23,14l-21.62,13.27S216,291.19,195.25,288.27Z" style="fill:#FFC100"></path><path d="M70.83,306.16l19.94-6.88s17.3,18.49,31.09,18.49L99,328.75S74.63,319.42,70.83,306.16Z" style="fill:#FFC100"></path><path d="M147.33,236.88s26-3,44.47,11.32l-9.51,11.71s-22.85-9.66-42.85-4Z" style="fill:#FFC100"></path><path d="M382.05,346.24l25.08,4.28S385.36,365,367,367.62l-19.79-6.41S371.07,358.72,382.05,346.24Z" style="fill:#FFC100"></path><path d="M374.09,302.81s24.11-1.3,41.16,5.77l10.23-9.76s-26.77-11.73-44-5.87Z" style="fill:#FFC100"></path><path d="M209.29,395s12.05-12.69,42.14-16l18.24,8.22s-27.21,5.91-39.6,11.66Z" style="fill:#FFC100"></path><path d="M319,222.63l20.43-8s23.16,13.55,37.88,15.79l-25.46,5S324.3,230,319,222.63Z" style="fill:#fff;opacity:0.6000000000000001"></path><path d="M195.25,288.27l15.52-14s26.53,4,47.23,14l-21.62,13.27S216,291.19,195.25,288.27Z" style="fill:#fff;opacity:0.6000000000000001"></path><path d="M70.83,306.16l19.94-6.88s17.3,18.49,31.09,18.49L99,328.75S74.63,319.42,70.83,306.16Z" style="fill:#fff;opacity:0.6000000000000001"></path><path d="M147.33,236.88s26-3,44.47,11.32l-9.51,11.71s-22.85-9.66-42.85-4Z" style="fill:#fff;opacity:0.4"></path><path d="M382.05,346.24l25.08,4.28S385.36,365,367,367.62l-19.79-6.41S371.07,358.72,382.05,346.24Z" style="fill:#fff;opacity:0.8"></path><path d="M374.09,302.81s24.11-1.3,41.16,5.77l10.23-9.76s-26.77-11.73-44-5.87Z" style="fill:#fff;opacity:0.4"></path><path d="M209.29,395s12.05-12.69,42.14-16l18.24,8.22s-27.21,5.91-39.6,11.66Z" style="fill:#fff;opacity:0.4"></path></g></svg>