<svg xmlns="http://www.w3.org/2000/svg" viewBox="0 0 500 500"><g id="freepik--background-complete--inject-696"><g style="opacity:0.6000000000000001"><path d="M202.36,263.15c4.65-5.22,10.86-16.11,14.09-20.28s17.22-12.05,21.1-17.13,8.87-20.55,8.87-20.55S235.55,217,233.71,217.9s-6,2.06-5.85,1.24S253,199.47,259.3,192.19s22.78-42.11,19.84-36.87S261.53,180.86,257.79,184s-22,13.15-29.44,18.66S213,221.08,211.48,222.33s-4-4-2.56-9,21.26-18.49,26.61-21.92,24.66-29.9,26.32-34.24-7-21.81-4.94-25.26,19-8.77,21-11.86,1.28-14,2.91-18.81,16.88-16.87,16.88-16.87-33.92,15.55-41.52,22.32-10.21,15.17-12,17.58-23,16.28-26.47,17-9.17.06-15.53.17-18,8.77-18,8.77c4.1-4.69,17-11.69,20.21-14.46s5.89-18.24,8.65-21.48c5.9-6.92,17.46-23.15,24.64-26.08,2.44-1-53.37,26.56-60,33.77S153,153.2,149.38,156.53s-22.4,19.69-26.53,25.3-7.54,29.28-7.79,34.08,3,6.79,3.86,10,9.56,23.43,9.56,23.43L134.4,255s26.81,17.28,39.41,16.92C178.35,271.75,197.71,268.34,202.36,263.15ZM166.31,159.29s-4.19,10.46-10.86,15.18-10.22,6.27-13,9.17S133,194.42,133,194.42c.11-.67,7-13.43,11.32-18.13C149.91,170.16,166.31,159.29,166.31,159.29ZM121,213.36c-.24-3.63.63-18.93,4.05-23.65s14.22-15.13,14.22-15.13-11.08,14-12.76,17.6-.33,12.62-1.28,17.07-2.48,13.06-2.48,13.06A54.68,54.68,0,0,1,121,213.36Zm60.29,38.38c-8.61,6.49-19.51,5.15-19.51,5.15s8.59-6.2,12.54-7.95,11-5.7,15.21-10.23c4.09-4.36,9.77-15.42,10.18-16.23C199.13,223.72,189.6,245.44,181.25,251.74Z" style="fill:#ebebeb"></path><path d="M260.56,96.7S265.71,78.41,273.92,72s29.61-12.51,36-18.16A89.46,89.46,0,0,0,321.39,41.3s-5,19.05-14.36,25.79-27.81,11.14-32,15S260.56,96.7,260.56,96.7Z" style="fill:#ebebeb"></path><path d="M255,178.39s3.63-9.73,6.1-13.1,8.19-6.73,8.19-6.73,0,4.49-4.64,9.67S255,178.39,255,178.39Z" style="fill:#ebebeb"></path><path d="M284,125.64a73.46,73.46,0,0,1,6.2-21.2c4.4-9,13.92-18.79,16.65-21.21s9.5-4.47,9.5-4.47-7.27,6-9.25,9.22-6.17,14-8.21,18S284,125.64,284,125.64Z" style="fill:#ebebeb"></path><path d="M224.47,117.67s2.15-8,7.17-11.78,15.33-6.63,17.62-8.5S258.93,86,258.93,86s-8.16,15.69-12.69,18.56-10.83,7.65-10.83,7.65,3.51-.19,5.35-1.35,4.74-3.35,4.74-3.35-3.06,8.73-8.12,12-17.94,6.33-17.94,6.33,2.57-2.29,3.88-3.74S223.32,120.89,224.47,117.67Z" style="fill:#ebebeb"></path></g><g style="opacity:0.6000000000000001"><path d="M131.05,251.62s-6.88-27.66,4.06-46.3c6.87-11.69,32.35-24.15,35.91-26.6s14.39-14.73,19.92-18.44,29.89-3.6,34.14-5.72,13.77-18,13.77-18-3.29,21.86-9,30.36-25.11,16.85-27.6,19.46-6.83,13.31-6.83,13.31,7.68-2.77,12.61-7.53,6-8.71,9.69-11.78,13.88-5.79,13.88-5.79-7.75,3.85-10.82,8.85S214.53,201,207.6,206.52s-26.79,14.36-30.24,18.77a36.94,36.94,0,0,0-5,8.47A138.61,138.61,0,0,0,184.12,226c4.39-3.43,10.1-8.11,10.1-8.11s-22.82,28.49-33,32.79S131.05,251.62,131.05,251.62Z" style="fill:#ebebeb"></path><path d="M268.43,83.22s4.83-9.1,9.44-11.78S297.22,66,297.22,66s-15.8,6.87-18.89,8.26S268.43,83.22,268.43,83.22Z" style="fill:#ebebeb"></path><path d="M159.57,262s15.3-.32,18.72-1,16.52-9.66,18.58-12,9.43-14.54,12.13-17.24,17.2-7.39,17.2-7.39-10.69,7.51-12.63,10-8.25,21.59-13.39,25.93-19.79,6.83-23.46,7S159.57,262,159.57,262Z" style="fill:#ebebeb"></path><path d="M157.24,158.62s16.59-26.55,22.75-31.79,33.51-21,33.51-21-18.82,18-22.18,20.41-10.79,12.57-10.79,12.57,8.09-4.54,10.73-6.53S201.52,120,201.52,120s-12.37,19.59-19.31,24.87S157.24,158.62,157.24,158.62Z" style="fill:#ebebeb"></path></g><circle cx="165.85" cy="221.73" r="44.48" style="fill:#ebebeb;opacity:0.6000000000000001"></circle><circle cx="165.85" cy="221.73" r="41.17" style="fill:#ebebeb;opacity:0.6000000000000001"></circle><circle cx="165.85" cy="221.73" r="39.15" style="fill:#ebebeb"></circle><circle cx="165.85" cy="221.73" r="39.15" style="fill:#fff;opacity:0.4"></circle><circle cx="162.63" cy="224.95" r="32.76" style="fill:#fff;opacity:0.4"></circle><path d="M265.68,172.74a1.6,1.6,0,1,0,2.26,0A1.61,1.61,0,0,0,265.68,172.74Z" style="fill:#dbdbdb"></path><path d="M309,113.84a1.6,1.6,0,1,0,2.26,0A1.61,1.61,0,0,0,309,113.84Z" style="fill:#dbdbdb"></path><path d="M218.29,137.52a1.59,1.59,0,1,0,1.37-1.78A1.59,1.59,0,0,0,218.29,137.52Z" style="fill:#dbdbdb"></path><path d="M129,168.1a1.59,1.59,0,1,0,2.26,0A1.59,1.59,0,0,0,129,168.1Z" style="fill:#dbdbdb"></path><path d="M216.15,257.53a1.59,1.59,0,0,0,2.25,2.25,1.59,1.59,0,0,0-2.25-2.25Z" style="fill:#dbdbdb"></path><path d="M256.77,178.59a2.16,2.16,0,1,0,3.06,0A2.17,2.17,0,0,0,256.77,178.59Z" style="fill:#dbdbdb"></path><path d="M236.58,103.59a2.16,2.16,0,1,0,1.86-2.42A2.14,2.14,0,0,0,236.58,103.59Z" style="fill:#dbdbdb"></path><path d="M178.46,147.75a2.16,2.16,0,1,0,3.06,0A2.17,2.17,0,0,0,178.46,147.75Z" style="fill:#dbdbdb"></path><path d="M256.53,174a1,1,0,0,0,0,1.33.94.94,0,1,0,0-1.33Z" style="fill:#dbdbdb"></path><path d="M231.69,190.66a.94.94,0,1,0,1.32,0A.94.94,0,0,0,231.69,190.66Z" style="fill:#dbdbdb"></path><path d="M227.34,256.59a.93.93,0,1,0,1.32,0A.92.92,0,0,0,227.34,256.59Z" style="fill:#dbdbdb"></path><path d="M174.61,136.23a.94.94,0,1,0,1.33,0A1,1,0,0,0,174.61,136.23Z" style="fill:#dbdbdb"></path><path d="M260.09,120.22a.93.93,0,1,0,1.32,0A.92.92,0,0,0,260.09,120.22Z" style="fill:#dbdbdb"></path><g style="opacity:0.6000000000000001"><path d="M283.38,420.52c-.13,4.74,6.37,14.84,6.37,14.84l2.11,2.23s7.6,3.25,8.82,3.59,1.95,1.56,3.77,1.46,10.72-1.38,12.83-2.93,8.27-8.64,9.53-10,8.88-21.91,7.84-20.7-3.68,6.06-5.45,7.61c0,0,3.26-4.39,3.3-6.79a50.16,50.16,0,0,1,.07-5.85c.27-1.3,5.5-9.3,6.4-10s4.07-1.64,6.62-4.5,8.4-15.63,8.4-15.63-4.53,5.74-6.35,6.35-5.92.35-7.09,1.1-3.15,7.11-4.46,7.9-7.87-2.49-9.51-1.86-11.61,7.89-12.89,9.9-6.36,9.48-8.25,10-3.88-.39-3.41-1,5.33-3.55,7.39-6.35,6.38-8,7.58-9.45,10.33-5.31,10.33-5.31-11.21.74-13.95,3.11-9.83,11.8-10.14,11.83.11-1.51.46-2.2a64.8,64.8,0,0,1,4.79-4.78s-5.84,1.88-7.74,3.34-4.88,6.72-6.45,7.94-5.67,3.55-7.63,5.3S283.43,418.81,283.38,420.52Zm36,11.1a39.44,39.44,0,0,1-6.83,4.26s3-2.49,4.06-3.54,1.67-2.4,3.45-4.91,5.72-4.09,5.72-4.09S321.68,429.52,319.37,431.62ZM302,439.76s3.24-.58,4.92-.94,5.08.16,6.42-.48a79.67,79.67,0,0,0,6.63-4.8,72.1,72.1,0,0,1-5.7,5.35c-1.77,1.29-7.53,1.62-8.9,1.53A20.52,20.52,0,0,1,302,439.76Zm-.06-29a35.49,35.49,0,0,0-6.11,3.83,19.42,19.42,0,0,0-3.85,5.72,41.47,41.47,0,0,1-3,4.73,11.22,11.22,0,0,1,1.94-7.35C293.33,414.58,301.51,411,302,410.79Z" style="fill:#ebebeb"></path><path d="M328.19,386.1a20.28,20.28,0,0,0,4.42.35,9.44,9.44,0,0,0,3-1.49,4,4,0,0,0-3.29-.21C330.26,385.36,328.19,386.1,328.19,386.1Z" style="fill:#ebebeb"></path></g><g style="opacity:0.6000000000000001"><path d="M291,436.62s10.41,2.59,17.43-1.53c4.4-2.58,9.09-12.18,10-13.52s5.55-5.41,6.94-7.5,1.36-11.25,2.16-12.85,6.79-5.18,6.79-5.18-8.23,1.23-11.43,3.39-6.35,9.46-7.33,10.4-5,2.57-5,2.57a15.41,15.41,0,0,1,2.84-4.75c1.79-1.86,3.27-2.27,4.43-3.65s2.18-5.22,2.18-5.22a11.82,11.82,0,0,1-3.33,4.07c-1.89,1.15-6.62,2.34-8.7,4.95s-5.41,10.09-7.07,11.38a13.89,13.89,0,0,1-3.19,1.89s1.64-2.77,2.93-4.43,3-3.8,3-3.8-10.72,8.59-12.35,12.41S291,436.62,291,436.62Z" style="fill:#ebebeb"></path><path d="M287.09,425.88s.11-5.76.37-7,3.64-6.23,4.51-7,5.48-3.55,6.5-4.57,2.78-6.47,2.78-6.47a42.57,42.57,0,0,1-3.77,4.75c-.93.73-8.13,3.11-9.76,5s-2.57,7.45-2.64,8.83S287.09,425.88,287.09,425.88Z" style="fill:#ebebeb"></path></g><path d="M315.39,435.62a16.47,16.47,0,1,1,0-23.29A16.47,16.47,0,0,1,315.39,435.62Z" style="fill:#ebebeb;opacity:0.6000000000000001"></path><path d="M314.52,434.75a15.24,15.24,0,1,1,0-21.56A15.24,15.24,0,0,1,314.52,434.75Z" style="fill:#ebebeb;opacity:0.6000000000000001"></path><circle cx="303.75" cy="423.97" r="14.5" style="fill:#ebebeb"></circle><circle cx="303.75" cy="423.97" r="14.5" style="fill:#fff;opacity:0.4"></circle><circle cx="302.55" cy="425.16" r="12.13" style="fill:#fff;opacity:0.4"></circle><path d="M321.48,377.37a.83.83,0,1,1,0-1.18A.85.85,0,0,1,321.48,377.37Z" style="fill:#dbdbdb"></path><path d="M352.16,354.83a.83.83,0,1,1,0-1.18A.85.85,0,0,1,352.16,354.83Z" style="fill:#dbdbdb"></path><path d="M339.82,402.06a.85.85,0,0,1-.72-.94.84.84,0,0,1,.94-.71.83.83,0,0,1,.71.93A.84.84,0,0,1,339.82,402.06Z" style="fill:#dbdbdb"></path><path d="M323.9,448.58a.83.83,0,1,1,0-1.18A.85.85,0,0,1,323.9,448.58Z" style="fill:#dbdbdb"></path><path d="M277.32,403.17a.85.85,0,0,1-1.18,0,.83.83,0,1,1,1.18,0Z" style="fill:#dbdbdb"></path><path d="M318.43,382a1.12,1.12,0,1,1,0-1.59A1.12,1.12,0,0,1,318.43,382Z" style="fill:#dbdbdb"></path><path d="M357.5,392.53a1.12,1.12,0,1,1,1.26-1A1.12,1.12,0,0,1,357.5,392.53Z" style="fill:#dbdbdb"></path><path d="M334.49,422.8a1.12,1.12,0,1,1,0-1.59A1.12,1.12,0,0,1,334.49,422.8Z" style="fill:#dbdbdb"></path><path d="M320.83,382.14a.49.49,0,1,1,0-.69A.49.49,0,0,1,320.83,382.14Z" style="fill:#dbdbdb"></path><path d="M312.14,395.07a.49.49,0,0,1-.69,0,.48.48,0,0,1,0-.68.47.47,0,0,1,.69,0A.48.48,0,0,1,312.14,395.07Z" style="fill:#dbdbdb"></path><path d="M277.81,397.34a.49.49,0,1,1,0-.69A.49.49,0,0,1,277.81,397.34Z" style="fill:#dbdbdb"></path><path d="M340.49,424.8a.49.49,0,1,1,0-.69A.49.49,0,0,1,340.49,424.8Z" style="fill:#dbdbdb"></path><path d="M348.83,380.28a.49.49,0,1,1,0-.69A.49.49,0,0,1,348.83,380.28Z" style="fill:#dbdbdb"></path><path d="M130.2,76.78a2.24,2.24,0,1,1,0-3.17A2.23,2.23,0,0,1,130.2,76.78Z" style="fill:#dbdbdb"></path><path d="M434.39,106.7a2.24,2.24,0,1,1,0-3.17A2.25,2.25,0,0,1,434.39,106.7Z" style="fill:#dbdbdb"></path><path d="M384.29,357.37a2.24,2.24,0,1,1,2.51-1.94A2.25,2.25,0,0,1,384.29,357.37Z" style="fill:#dbdbdb"></path><path d="M418.25,458a2.24,2.24,0,1,1,0-3.17A2.23,2.23,0,0,1,418.25,458Z" style="fill:#dbdbdb"></path><path d="M113.16,280.83a2.24,2.24,0,1,1,0-3.17A2.25,2.25,0,0,1,113.16,280.83Z" style="fill:#dbdbdb"></path><path d="M308.49,174.34a3,3,0,1,1,0-4.3A3.05,3.05,0,0,1,308.49,174.34Z" style="fill:#dbdbdb"></path><path d="M448.8,322.57a3,3,0,1,1,3.41-2.62A3,3,0,0,1,448.8,322.57Z" style="fill:#dbdbdb"></path><path d="M53,185.66a3,3,0,1,1,0-4.3A3,3,0,0,1,53,185.66Z" style="fill:#dbdbdb"></path><path d="M359.7,76.13a1.32,1.32,0,0,1-1.87-1.86,1.32,1.32,0,1,1,1.87,1.86Z" style="fill:#dbdbdb"></path><path d="M60.71,195a1.32,1.32,0,0,1-1.87-1.86A1.32,1.32,0,1,1,60.71,195Z" style="fill:#dbdbdb"></path><path d="M60.71,440.79a1.32,1.32,0,0,1-1.86,0,1.32,1.32,0,0,1,1.86-1.86A1.32,1.32,0,0,1,60.71,440.79Z" style="fill:#dbdbdb"></path><path d="M427.36,446.61a1.32,1.32,0,0,1-1.86-1.86,1.32,1.32,0,0,1,1.86,1.86Z" style="fill:#dbdbdb"></path><path d="M442.26,306.93a1.32,1.32,0,0,1-1.86-1.86,1.32,1.32,0,0,1,1.86,1.86Z" style="fill:#dbdbdb"></path></g><g id="freepik--Fireball--inject-696"><g style="opacity:0.6000000000000001"><path d="M250.67,430.87c4.5-6.14,28.81-14.33,34.19-21.84s18.38-28.51,18.38-28.51-23.65,16.62-26.45,17.82-11.85-2.46-11.85-3.78S322.19,369.34,331,358.7c8.6-10.35,12.68-76.49,12.9-80.34-.54,3.29-9.23,54.62-20.42,65.89-5,5.05-49.56,16.29-60.6,23.9s-21.56,27-23.82,28.74-7.14-7.15-5.69-15,31.08-26.14,39.13-30.75,36.24-26.34,38.15-33.06S327.21,258,330,252.8s21.05-14.56,23.72-19.2,2-20.36,3.75-27.85S359.9,166,359.92,165c-.37.89-14.71,36-35.55,47-12.92,6.82-13.84,22.7-16.26,26.29s-37.09,31.77-42.55,32.3-45.24-4.93-55.49-5.85-27.56,11-27.56,11c5.8-6.84,15.21-19,20-22.92s61.35,8.07,67.9,2.67,41.52-48.89,41.52-48.89-33.36,26.12-43.36,32.16-85.44-13.67-94.94-3.18-40.84,39.65-46,44.42S91.69,304.7,86,313s-4.81,59.27-1.2,74.19c4.3,17.81,25.49,48.84,25.49,48.84s35.58,28.58,74.8,29.08c7.32.1,43.32-4.3,49.92-11.87S246.17,437,250.67,430.87Zm-89.85-139s-5.36,17.46-16.14,24.45-16.64,9-21,13.57-14.39,17-14.39,17c.07-1.15,9.76-22.11,16.35-29.51C134.22,307.72,160.82,291.83,160.82,291.83Zm-71.4,69.84c-1-5.9.61-29.37,5.31-36.39s19.56-17.94,19.56-17.94-15.43,20.75-17.51,26.18,1.64,20.29.89,27.3-1.73,20.64-1.73,20.64S90.45,367.57,89.42,361.67Zm106,77.39c-12.74,9-30.56,4.92-30.56,4.92s12.79-8.5,18.86-10.64,16.67-7.29,22.74-13.86c5.85-6.32,13.08-23.17,13.6-24.41C219.41,397,207.81,430.35,195.42,439.06Z" style="fill:#C53F3F"></path><path d="M325.31,157s.33,22.19-7.58,30.7-32.46,18-38.41,25.39a79.46,79.46,0,0,0-9.7,16.06s-.76-23.09,8.44-32.07,30.72-16.21,34.52-21.28S325.31,157,325.31,157Z" style="fill:#C53F3F"></path><path d="M331,283.14s3.08-15.22,6.13-20.43,11.41-10.25,11.41-10.25,1.34,7.12-4.77,15.09S331,283.14,331,283.14Z" style="fill:#C53F3F"></path><path d="M339,170.66s-4.9-24.1,1.74-37,21.48-27.87,26.46-31.43,17.06-11.86,23-18.14S405,51.35,403.47,43.66a33.14,33.14,0,0,0-6.68-13.57s16.3,3.48,20.4,24.94-6.5,97.25-18,111.89-29,26.45-29,26.45,9-27.75,9.83-35.26-17.82-5.07-23.32-1.9S339,170.66,339,170.66Z" style="fill:#C53F3F"></path></g><g style="opacity:0.6000000000000001"><path d="M112.05,432.59s-15.88-45.81-1.48-74c9-17.67,48-33.34,53.29-36.68s20.65-21.26,28.94-26.28,77.84-4.57,84.33-7.24S329.08,233,329.08,233s-24.82,56.95-32.6,69.65-77.42,33.24-81,37-8.71,20.28-8.71,20.28,15.86-.4,23-7.23,9-13.24,14.4-17.55,29.53-7.28,29.53-7.28-18,7.8-22.08,15.33-16.38,25.27-24,29.91c-10.92,6.68-40.71,18.52-45.5,25a44.71,44.71,0,0,0-6.59,12.8s11.11-5.73,17.6-10.5,14.88-11.33,14.88-11.33-31.85,42-47.46,47.17S112.05,432.59,112.05,432.59Z" style="fill:#C53F3F"></path><path d="M358.81,149.64c-.05-1-.24-15.64,2-23s15.61-14.2,22-18.43,22.12-19.36,24.32-28.89,3.47-16.9,3.47-16.9-3.14,56.63-9.44,73-17.24,24.85-17.24,24.85,2.53-16.75-3.58-17.93C372.14,140.74,358.81,149.64,358.81,149.64Z" style="fill:#C53F3F"></path><path d="M320.77,168.25s-1.82,14.9-7.48,20.33-27.54,14.3-27.54,14.3,20.92-15.2,25-18.23S320.77,168.25,320.77,168.25Z" style="fill:#C53F3F"></path><path d="M156.68,450s24.63,2.14,30,1.63,25-12.71,27.89-16.11,12.69-21.82,16.57-25.7,26.45-8.93,26.45-8.93S241.67,411.1,239,414.78s-9.57,33.39-17.1,39.5-30.73,7.58-36.61,7.22S156.68,450,156.68,450Z" style="fill:#C53F3F"></path><path d="M135.21,292.19s26.23-36.39,33.46-42.31,47.22-10.48,47.22-10.48-37.18,13-41.19,15.67-12.18,14.72-12.18,14.72,9.82-4.73,12.94-6.94,8.23-6.19,8.23-6.19S173.77,272,165.54,277.9,135.21,292.19,135.21,292.19Z" style="fill:#C53F3F"></path></g><circle cx="175.78" cy="370.83" r="89.33" style="fill:#C53F3F;opacity:0.6000000000000001"></circle><circle cx="175.78" cy="370.83" r="82.69" style="fill:#C53F3F;opacity:0.6000000000000001"></circle><circle cx="175.78" cy="370.83" r="78.63" style="fill:#C53F3F"></circle><circle cx="175.78" cy="370.83" r="78.63" style="fill:#fff;opacity:0.4"></circle><circle cx="169.32" cy="377.29" r="65.79" style="fill:#fff;opacity:0.4"></circle><g style="opacity:0.8"><path d="M221.43,275.18s-.7-14.16,6.28-21.26,24.2-13.19,27.29-16.69,11.08-20.87,11.08-20.87-5.82,28.15-12.43,33.64-15.38,14.48-15.38,14.48,6.31-.71,9-2.92,6.72-6.35,6.72-6.35-.54,15.5-7.89,21.72-29.14,13-29.14,13A79.87,79.87,0,0,0,221.9,283C223.47,280.29,221.2,280.9,221.43,275.18Z" style="fill:#C53F3F"></path><path d="M252.39,394.15c10.17-19.57,13.4-75.13,13.51-77.1-.29,1.25-5,21.48-8.57,31.05-3.65,9.85-32.41,41.42-43.31,43.31s-36.67-.38-41.74-7.68,10.44-27.45,16.44-33.45,47.28-6.22,58.74-22.75c11.3-16.29,22.29-67.89,22.59-69.33-.54.93-23.68,41-36.88,42.49s-92.42-4.46-105.07,4.79S95.62,343,94,375.66s21.13,55.5,21.13,55.5c.79.79,2.75,2.89,2.75,2.89-6.53-15.17-16.78-39.95-14.18-50.42,3.34-13.49,15.71-31.49,20.9-34.68,8.48-5.22,24.36-5.42,33.48-11.44,3.79-2.5,9.9-17.21,9.9-17.21s4,19.26-4,27.38c-7.33,7.42-27.72,24-31.34,34.07s5,45.16,9.63,58c1.94,5.37,16.17,14.63,30.58,15h0c14,1.86,27.6.72,37.5-6.17C225.22,438.27,242.05,414.08,252.39,394.15Zm-40.71,37.34c-6.09,5.33-16.19,15.43-25.83,16.06s-31.74-9.3-32.44-9.62c.58-.18,19-5.8,25.74-6.6s16.26.65,23.29-3S226,410.79,226,410.79,217.77,426.14,211.68,431.49Z" style="fill:#C53F3F"></path><path d="M153.52,294.63s20-11.11,28.81-12.66,22.4,3,22.4,3S198,293.28,183.24,294,153.52,294.63,153.52,294.63Z" style="fill:#C53F3F"></path></g><path d="M258.43,205.35a2.82,2.82,0,1,1,0-4A2.82,2.82,0,0,1,258.43,205.35Z" style="fill:#C53F3F"></path><path d="M362.8,128.66a2.83,2.83,0,1,1,0-4A2.84,2.84,0,0,1,362.8,128.66Z" style="fill:#C53F3F"></path><path d="M323.66,295a2.82,2.82,0,1,1,3.17-2.44A2.83,2.83,0,0,1,323.66,295Z" style="fill:#C53F3F"></path><path d="M266.66,447.59a2.82,2.82,0,1,1,0-4A2.82,2.82,0,0,1,266.66,447.59Z" style="fill:#C53F3F"></path><path d="M108.19,293.12a2.82,2.82,0,1,1,0-4A2.84,2.84,0,0,1,108.19,293.12Z" style="fill:#C53F3F"></path><path d="M248.06,221.13a3.83,3.83,0,1,1,0-5.41A3.81,3.81,0,0,1,248.06,221.13Z" style="fill:#C53F3F"></path><path d="M388.62,256.92a3.83,3.83,0,1,1,4.29-3.3A3.82,3.82,0,0,1,388.62,256.92Z" style="fill:#C53F3F"></path><path d="M302.71,359.9a3.83,3.83,0,1,1,0-5.42A3.84,3.84,0,0,1,302.71,359.9Z" style="fill:#C53F3F"></path><path d="M256.23,221.56a1.65,1.65,0,1,1,0-2.34A1.65,1.65,0,0,1,256.23,221.56Z" style="fill:#C53F3F"></path><path d="M226.67,265.58a1.65,1.65,0,1,1,0-2.34A1.65,1.65,0,0,1,226.67,265.58Z" style="fill:#C53F3F"></path><path d="M377.1,73.57a1.65,1.65,0,1,1,0-2.34A1.65,1.65,0,0,1,377.1,73.57Z" style="fill:#C53F3F"></path><path d="M110.47,384.3a1.66,1.66,0,0,1-2.35-2.35,1.66,1.66,0,0,1,2.35,2.35Z" style="fill:#C53F3F"></path><path d="M109.86,273.29a1.66,1.66,0,1,1,0-2.34A1.66,1.66,0,0,1,109.86,273.29Z" style="fill:#C53F3F"></path><path d="M323.12,366.72a1.66,1.66,0,0,1-2.35,0,1.66,1.66,0,0,1,2.35-2.35A1.66,1.66,0,0,1,323.12,366.72Z" style="fill:#C53F3F"></path><path d="M366.46,213.6a1.66,1.66,0,1,1,0-2.34A1.66,1.66,0,0,1,366.46,213.6Z" style="fill:#C53F3F"></path></g></svg>