<svg xmlns="http://www.w3.org/2000/svg" viewBox="0 0 500 500"><g id="freepik--disco-ball--inject-1508"><path d="M169.88,282.32h-2.73a139.47,139.47,0,0,0,23.62,13.77h1.94A133.68,133.68,0,0,1,169.88,282.32Z" style="fill:#407BFF"></path><path d="M149.51,263.57h-3.43a139.13,139.13,0,0,0,21.07,18.75h2.73A135.49,135.49,0,0,1,149.51,263.57Z" style="fill:#407BFF"></path><path d="M190.77,296.09A139.54,139.54,0,0,0,249,308.74a131.11,131.11,0,0,1-56.29-12.65Z" style="fill:#407BFF"></path><path d="M349.55,79.07H353a139.71,139.71,0,0,0-19.85-18.26h-2.81A137,137,0,0,1,349.55,79.07Z" style="fill:#407BFF"></path><path d="M330.35,60.81h2.81a139.07,139.07,0,0,0-32.44-18.26H299A133,133,0,0,1,330.35,60.81Z" style="fill:#407BFF"></path><path d="M300.72,42.55A139.63,139.63,0,0,0,249,32.69a131.07,131.07,0,0,1,50,9.86Z" style="fill:#407BFF"></path><path d="M148.45,79.07H145a138.73,138.73,0,0,0-16.33,22.37h4A138.66,138.66,0,0,1,148.45,79.07Z" style="fill:#407BFF"></path><path d="M132.91,240.41h-4a138.23,138.23,0,0,0,17.17,23.16h3.43A137.88,137.88,0,0,1,132.91,240.41Z" style="fill:#407BFF"></path><path d="M199,42.55h-1.72a139.07,139.07,0,0,0-32.44,18.26h2.81A133,133,0,0,1,199,42.55Z" style="fill:#407BFF"></path><path d="M365.33,101.44h4A138.73,138.73,0,0,0,353,79.07h-3.46A138.66,138.66,0,0,1,365.33,101.44Z" style="fill:#407BFF"></path><path d="M167.65,60.81h-2.81A139.71,139.71,0,0,0,145,79.07h3.46A137,137,0,0,1,167.65,60.81Z" style="fill:#407BFF"></path><path d="M132.67,101.44h-4a136.39,136.39,0,0,0-12.12,27H121A139.17,139.17,0,0,1,132.67,101.44Z" style="fill:#407BFF"></path><path d="M121.52,214.77h-4.39a136.72,136.72,0,0,0,11.78,25.64h4A139.21,139.21,0,0,1,121.52,214.77Z" style="fill:#407BFF"></path><path d="M115.34,185.9h0a143.65,143.65,0,0,1-.82-15.19c0-4.61.23-9.17.66-13.67h0A140.78,140.78,0,0,1,121,128.47h-4.41a137.58,137.58,0,0,0,.59,86.3h4.39A140.5,140.5,0,0,1,115.34,185.9Z" style="fill:#407BFF"></path><path d="M249,32.69a139.63,139.63,0,0,0-51.72,9.86H199A131.07,131.07,0,0,1,249,32.69Z" style="fill:#407BFF"></path><path d="M249,308.74a139.54,139.54,0,0,0,58.23-12.65h-1.94A131.11,131.11,0,0,1,249,308.74Z" style="fill:#407BFF"></path><path d="M305.29,296.09h1.94a139.47,139.47,0,0,0,23.62-13.77h-2.73A133.68,133.68,0,0,1,305.29,296.09Z" style="fill:#407BFF"></path><path d="M348.49,263.57h3.43a138.23,138.23,0,0,0,17.17-23.16h-4A137.88,137.88,0,0,1,348.49,263.57Z" style="fill:#407BFF"></path><path d="M377.05,128.47h4.41a136.39,136.39,0,0,0-12.12-27h-4A139.17,139.17,0,0,1,377.05,128.47Z" style="fill:#407BFF"></path><path d="M365.09,240.41h4a136.72,136.72,0,0,0,11.78-25.64h-4.39A139.21,139.21,0,0,1,365.09,240.41Z" style="fill:#407BFF"></path><path d="M382.66,185.9a140.5,140.5,0,0,1-6.18,28.87h4.39a136.33,136.33,0,0,0,6.4-28.87Z" style="fill:#407BFF"></path><path d="M328.12,282.32h2.73a139.13,139.13,0,0,0,21.07-18.75h-3.43A135.49,135.49,0,0,1,328.12,282.32Z" style="fill:#407BFF"></path><path d="M383.48,170.71a143.65,143.65,0,0,1-.82,15.19h4.61a138.49,138.49,0,0,0,.84-15.19q0-6.92-.68-13.67h-4.61C383.25,161.54,383.48,166.1,383.48,170.71Z" style="fill:#407BFF"></path><path d="M382.82,157h4.61a136.42,136.42,0,0,0-6-28.57h-4.41A140.78,140.78,0,0,1,382.82,157Z" style="fill:#407BFF"></path><path d="M169.88,282.32a133.68,133.68,0,0,0,22.83,13.77h4a123.23,123.23,0,0,1-21.21-13.77Z" style="fill:#407BFF"></path><path d="M156.55,263.57h-7a135.49,135.49,0,0,0,20.37,18.75h5.6A130.49,130.49,0,0,1,156.55,263.57Z" style="fill:#407BFF"></path><path d="M368,128.47h9.07a139.17,139.17,0,0,0-11.72-27H357.1A144.9,144.9,0,0,1,368,128.47Z" style="fill:#407BFF"></path><path d="M299,42.55a131.07,131.07,0,0,0-50-9.86,114.32,114.32,0,0,1,46.46,9.86Z" style="fill:#407BFF"></path><path d="M322.52,282.32h5.6a135.49,135.49,0,0,0,20.37-18.75h-7A130.49,130.49,0,0,1,322.52,282.32Z" style="fill:#407BFF"></path><path d="M301.31,296.09h4a133.68,133.68,0,0,0,22.83-13.77h-5.6A123.23,123.23,0,0,1,301.31,296.09Z" style="fill:#407BFF"></path><path d="M341.45,263.57h7a137.88,137.88,0,0,0,16.6-23.16h-8.22A138.2,138.2,0,0,1,341.45,263.57Z" style="fill:#407BFF"></path><path d="M382.82,157h-9.47q.6,6.75.61,13.67c0,5.14-.27,10.2-.76,15.19h9.46a143.65,143.65,0,0,0,.82-15.19C383.48,166.1,383.25,161.54,382.82,157Z" style="fill:#407BFF"></path><path d="M367.45,214.77h9a140.5,140.5,0,0,0,6.18-28.87H373.2A149.9,149.9,0,0,1,367.45,214.77Z" style="fill:#407BFF"></path><path d="M356.87,240.41h8.22a139.21,139.21,0,0,0,11.39-25.64h-9A144.23,144.23,0,0,1,356.87,240.41Z" style="fill:#407BFF"></path><path d="M330.35,60.81A133,133,0,0,0,299,42.55h-3.54a122,122,0,0,1,29.13,18.26Z" style="fill:#407BFF"></path><path d="M373.35,157h9.47a140.78,140.78,0,0,0-5.77-28.57H368A149.84,149.84,0,0,1,373.35,157Z" style="fill:#407BFF"></path><path d="M155.57,79.07h-7.12a138.66,138.66,0,0,0-15.78,22.37h8.23A139.84,139.84,0,0,1,155.57,79.07Z" style="fill:#407BFF"></path><path d="M202.54,42.55H199a133,133,0,0,0-31.35,18.26h5.76A122,122,0,0,1,202.54,42.55Z" style="fill:#407BFF"></path><path d="M140.9,101.44h-8.23a139.17,139.17,0,0,0-11.72,27H130A144.9,144.9,0,0,1,140.9,101.44Z" style="fill:#407BFF"></path><path d="M173.41,60.81h-5.76a137,137,0,0,0-19.2,18.26h7.12A131.72,131.72,0,0,1,173.41,60.81Z" style="fill:#407BFF"></path><path d="M130,128.47H121A140.78,140.78,0,0,0,115.18,157h9.47A149.84,149.84,0,0,1,130,128.47Z" style="fill:#407BFF"></path><path d="M342.43,79.07h7.12a137,137,0,0,0-19.2-18.26h-5.76A131.72,131.72,0,0,1,342.43,79.07Z" style="fill:#407BFF"></path><path d="M301.31,296.09A114.72,114.72,0,0,1,249,308.74a131.11,131.11,0,0,0,56.29-12.65Z" style="fill:#407BFF"></path><path d="M357.1,101.44h8.23a138.66,138.66,0,0,0-15.78-22.37h-7.12A139.84,139.84,0,0,1,357.1,101.44Z" style="fill:#407BFF"></path><path d="M124,170.71q0-6.92.61-13.67h-9.47c-.43,4.5-.66,9.06-.66,13.67a143.65,143.65,0,0,0,.82,15.19h9.46C124.31,180.91,124,175.85,124,170.71Z" style="fill:#407BFF"></path><path d="M141.13,240.41h-8.22a137.88,137.88,0,0,0,16.6,23.16h7A138.2,138.2,0,0,1,141.13,240.41Z" style="fill:#407BFF"></path><path d="M124.8,185.9h-9.46a140.5,140.5,0,0,0,6.18,28.87h9A149.9,149.9,0,0,1,124.8,185.9Z" style="fill:#407BFF"></path><path d="M130.55,214.77h-9a139.21,139.21,0,0,0,11.39,25.64h8.22A144.23,144.23,0,0,1,130.55,214.77Z" style="fill:#407BFF"></path><path d="M192.71,296.09A131.11,131.11,0,0,0,249,308.74a114.72,114.72,0,0,1-52.31-12.65Z" style="fill:#407BFF"></path><path d="M202.54,42.55A114.32,114.32,0,0,1,249,32.69a131.07,131.07,0,0,0-50,9.86Z" style="fill:#407BFF"></path><path d="M175.48,282.32a123.23,123.23,0,0,0,21.21,13.77h6a108.56,108.56,0,0,1-18.77-13.77Z" style="fill:#407BFF"></path><path d="M143.69,128.47H130A149.84,149.84,0,0,0,124.65,157h14.29A166.89,166.89,0,0,1,143.69,128.47Z" style="fill:#407BFF"></path><path d="M167.17,263.57H156.55a130.49,130.49,0,0,0,18.93,18.75h8.45A123.77,123.77,0,0,1,167.17,263.57Z" style="fill:#407BFF"></path><path d="M138.4,170.71c0-4.61.19-9.17.54-13.67H124.65q-.6,6.75-.61,13.67c0,5.14.27,10.2.76,15.19h14.27Q138.41,178.42,138.4,170.71Z" style="fill:#407BFF"></path><path d="M144.16,214.77H130.55a144.23,144.23,0,0,0,10.58,25.64h12.39A155.5,155.5,0,0,1,144.16,214.77Z" style="fill:#407BFF"></path><path d="M139.07,185.9H124.8a149.9,149.9,0,0,0,5.75,28.87h13.61A167.26,167.26,0,0,1,139.07,185.9Z" style="fill:#407BFF"></path><path d="M153.52,240.41H141.13a138.2,138.2,0,0,0,15.42,23.16h10.62A141.89,141.89,0,0,1,153.52,240.41Z" style="fill:#407BFF"></path><path d="M153.32,101.44H140.9a144.9,144.9,0,0,0-10.88,27h13.67A155.83,155.83,0,0,1,153.32,101.44Z" style="fill:#407BFF"></path><path d="M359.6,170.71q0,7.71-.67,15.19H373.2c.49-5,.76-10.05.76-15.19q0-6.92-.61-13.67H359.06C359.41,161.54,359.6,166.1,359.6,170.71Z" style="fill:#407BFF"></path><path d="M166.3,79.07H155.57a139.84,139.84,0,0,0-14.67,22.37h12.42A142.71,142.71,0,0,1,166.3,79.07Z" style="fill:#407BFF"></path><path d="M196.69,296.09A114.72,114.72,0,0,0,249,308.74a92.29,92.29,0,0,1-46.3-12.65Z" style="fill:#407BFF"></path><path d="M344.48,240.41h12.39a144.23,144.23,0,0,0,10.58-25.64H353.84A155.5,155.5,0,0,1,344.48,240.41Z" style="fill:#407BFF"></path><path d="M330.83,263.57h10.62a138.2,138.2,0,0,0,15.42-23.16H344.48A141.89,141.89,0,0,1,330.83,263.57Z" style="fill:#407BFF"></path><path d="M207.88,42.55A91.42,91.42,0,0,1,249,32.69a114.32,114.32,0,0,0-46.46,9.86Z" style="fill:#407BFF"></path><path d="M324.59,60.81a122,122,0,0,0-29.13-18.26h-5.34a107.07,107.07,0,0,1,25.79,18.26Z" style="fill:#407BFF"></path><path d="M295.3,296.09A92.29,92.29,0,0,1,249,308.74a114.72,114.72,0,0,0,52.31-12.65Z" style="fill:#407BFF"></path><path d="M353.84,214.77h13.61a149.9,149.9,0,0,0,5.75-28.87H358.93A167.26,167.26,0,0,1,353.84,214.77Z" style="fill:#407BFF"></path><path d="M354.31,128.47A166.89,166.89,0,0,1,359.06,157h14.29A149.84,149.84,0,0,0,368,128.47Z" style="fill:#407BFF"></path><path d="M314.07,282.32h8.45a130.49,130.49,0,0,0,18.93-18.75H330.83A123.77,123.77,0,0,1,314.07,282.32Z" style="fill:#407BFF"></path><path d="M295.46,42.55A114.32,114.32,0,0,0,249,32.69a91.42,91.42,0,0,1,41.12,9.86Z" style="fill:#407BFF"></path><path d="M182.09,60.81a107.07,107.07,0,0,1,25.79-18.26h-5.34a122,122,0,0,0-29.13,18.26Z" style="fill:#407BFF"></path><path d="M182.09,60.81h-8.68a131.72,131.72,0,0,0-17.84,18.26H166.3A126.81,126.81,0,0,1,182.09,60.81Z" style="fill:#407BFF"></path><path d="M314.07,282.32a108.56,108.56,0,0,1-18.77,13.77h6a123.23,123.23,0,0,0,21.21-13.77Z" style="fill:#407BFF"></path><path d="M354.31,128.47H368a144.9,144.9,0,0,0-10.88-27H344.68A155.83,155.83,0,0,1,354.31,128.47Z" style="fill:#407BFF"></path><path d="M344.68,101.44H357.1a139.84,139.84,0,0,0-14.67-22.37H331.7A142.71,142.71,0,0,1,344.68,101.44Z" style="fill:#407BFF"></path><path d="M331.7,79.07h10.73a131.72,131.72,0,0,0-17.84-18.26h-8.68A126.81,126.81,0,0,1,331.7,79.07Z" style="fill:#407BFF"></path><path d="M330.83,263.57H317.25a119.19,119.19,0,0,1-14,18.75h10.79A123.77,123.77,0,0,0,330.83,263.57Z" style="fill:#407BFF"></path><path d="M167.17,263.57a123.77,123.77,0,0,0,16.76,18.75h10.79a119.19,119.19,0,0,1-14-18.75Z" style="fill:#407BFF"></path><path d="M153.52,240.41a141.89,141.89,0,0,0,13.65,23.16h13.58a149.74,149.74,0,0,1-11.39-23.16Z" style="fill:#407BFF"></path><path d="M161.55,214.77H144.16a155.5,155.5,0,0,0,9.36,25.64h15.84A175.72,175.72,0,0,1,161.55,214.77Z" style="fill:#407BFF"></path><path d="M156.75,170.71q0-6.92.45-13.67H138.94c-.35,4.5-.54,9.06-.54,13.67q0,7.71.67,15.19h18.24Q156.76,178.42,156.75,170.71Z" style="fill:#407BFF"></path><path d="M157.31,185.9H139.07a167.26,167.26,0,0,0,5.09,28.87h17.39A198,198,0,0,1,157.31,185.9Z" style="fill:#407BFF"></path><path d="M166.3,79.07H180a123.57,123.57,0,0,1,13.17-18.26h-11.1A126.81,126.81,0,0,0,166.3,79.07Z" style="fill:#407BFF"></path><path d="M180,79.07H166.3a142.71,142.71,0,0,0-13,22.37H169.2A151.45,151.45,0,0,1,180,79.07Z" style="fill:#407BFF"></path><path d="M169.2,101.44H153.32a155.83,155.83,0,0,0-9.63,27h17.47A177.13,177.13,0,0,1,169.2,101.44Z" style="fill:#407BFF"></path><path d="M161.16,128.47H143.69A166.89,166.89,0,0,0,138.94,157H157.2A197.22,197.22,0,0,1,161.16,128.47Z" style="fill:#407BFF"></path><path d="M328.8,101.44a177.13,177.13,0,0,1,8,27h17.47a155.83,155.83,0,0,0-9.63-27Z" style="fill:#407BFF"></path><path d="M331.7,79.07a126.81,126.81,0,0,0-15.79-18.26h-11.1A123.57,123.57,0,0,1,318,79.07Z" style="fill:#407BFF"></path><path d="M341.25,170.71q0,7.71-.56,15.19h18.24q.66-7.49.67-15.19c0-4.61-.19-9.17-.54-13.67H340.8Q341.25,163.79,341.25,170.71Z" style="fill:#407BFF"></path><path d="M317.25,263.57h13.58a141.89,141.89,0,0,0,13.65-23.16H328.64A149.74,149.74,0,0,1,317.25,263.57Z" style="fill:#407BFF"></path><path d="M328.64,240.41h15.84a155.5,155.5,0,0,0,9.36-25.64H336.45A175.72,175.72,0,0,1,328.64,240.41Z" style="fill:#407BFF"></path><path d="M336.45,214.77h17.39a167.26,167.26,0,0,0,5.09-28.87H340.69A198,198,0,0,1,336.45,214.77Z" style="fill:#407BFF"></path><path d="M340.8,157h18.26a166.89,166.89,0,0,0-4.75-28.57H336.84A197.22,197.22,0,0,1,340.8,157Z" style="fill:#407BFF"></path><path d="M287.62,296.09c-11.75,8.11-24.83,12.65-38.62,12.65a92.29,92.29,0,0,0,46.3-12.65Z" style="fill:#407BFF"></path><path d="M194.72,282.32H183.93a108.56,108.56,0,0,0,18.77,13.77h7.68A93.49,93.49,0,0,1,194.72,282.32Z" style="fill:#407BFF"></path><path d="M193.19,60.81A91.41,91.41,0,0,1,214.7,42.55h-6.82a107.07,107.07,0,0,0-25.79,18.26Z" style="fill:#407BFF"></path><path d="M214.7,42.55A66.24,66.24,0,0,1,249,32.69a91.42,91.42,0,0,0-41.12,9.86Z" style="fill:#407BFF"></path><path d="M303.28,282.32a93.49,93.49,0,0,1-15.66,13.77h7.68a108.56,108.56,0,0,0,18.77-13.77Z" style="fill:#407BFF"></path><path d="M304.81,60.81h11.1a107.07,107.07,0,0,0-25.79-18.26H283.3A91.41,91.41,0,0,1,304.81,60.81Z" style="fill:#407BFF"></path><path d="M290.12,42.55A91.42,91.42,0,0,0,249,32.69a66.24,66.24,0,0,1,34.3,9.86Z" style="fill:#407BFF"></path><path d="M344.68,101.44a142.71,142.71,0,0,0-13-22.37H318a151.45,151.45,0,0,1,10.82,22.37Z" style="fill:#407BFF"></path><path d="M202.7,296.09A92.29,92.29,0,0,0,249,308.74c-13.79,0-26.87-4.54-38.62-12.65Z" style="fill:#407BFF"></path><path d="M210.38,296.09c11.75,8.11,24.83,12.65,38.62,12.65-10.51,0-20.48-4.54-29.44-12.65Z" style="fill:#407BFF"></path><path d="M196.42,79.07a127.87,127.87,0,0,1,10-18.26H193.19A123.57,123.57,0,0,0,180,79.07Z" style="fill:#407BFF"></path><path d="M182,128.47H161.16a197.22,197.22,0,0,0-4,28.57H179A257,257,0,0,1,182,128.47Z" style="fill:#407BFF"></path><path d="M309.7,240.41A172.79,172.79,0,0,1,301,263.57h16.22a149.74,149.74,0,0,0,11.39-23.16Z" style="fill:#407BFF"></path><path d="M315.66,214.77h20.79a198,198,0,0,0,4.24-28.87h-21.8A254.25,254.25,0,0,1,315.66,214.77Z" style="fill:#407BFF"></path><path d="M309.7,240.41h18.94a175.72,175.72,0,0,0,7.81-25.64H315.66A218,218,0,0,1,309.7,240.41Z" style="fill:#407BFF"></path><path d="M318,79.07a123.57,123.57,0,0,0-13.17-18.26H291.54a127.87,127.87,0,0,1,10,18.26Z" style="fill:#407BFF"></path><path d="M169.36,240.41a149.74,149.74,0,0,0,11.39,23.16H197a172.79,172.79,0,0,1-8.67-23.16Z" style="fill:#407BFF"></path><path d="M178.68,170.71q0-6.92.34-13.67H157.2q-.45,6.75-.45,13.67,0,7.71.56,15.19h21.8Q178.69,178.42,178.68,170.71Z" style="fill:#407BFF"></path><path d="M283.3,42.55A66.24,66.24,0,0,0,249,32.69c9.24,0,18.06,3.5,26.14,9.86Z" style="fill:#407BFF"></path><path d="M291.54,60.81h13.27A91.41,91.41,0,0,0,283.3,42.55h-8.16A78.69,78.69,0,0,1,291.54,60.81Z" style="fill:#407BFF"></path><path d="M188.17,101.44h-19a177.13,177.13,0,0,0-8,27H182A222.38,222.38,0,0,1,188.17,101.44Z" style="fill:#407BFF"></path><path d="M303.28,282.32H290.37a81.91,81.91,0,0,1-11.93,13.77h9.18A93.49,93.49,0,0,0,303.28,282.32Z" style="fill:#407BFF"></path><path d="M180.75,263.57a119.19,119.19,0,0,0,14,18.75h12.91A123,123,0,0,1,197,263.57Z" style="fill:#407BFF"></path><path d="M316,128.47h20.88a177.13,177.13,0,0,0-8-27h-19A222.38,222.38,0,0,1,316,128.47Z" style="fill:#407BFF"></path><path d="M319,157H340.8a197.22,197.22,0,0,0-4-28.57H316A257,257,0,0,1,319,157Z" style="fill:#407BFF"></path><path d="M161.55,214.77a175.72,175.72,0,0,0,7.81,25.64H188.3a218,218,0,0,1-6-25.64Z" style="fill:#407BFF"></path><path d="M193.19,60.81h13.27a78.69,78.69,0,0,1,16.4-18.26H214.7A91.41,91.41,0,0,0,193.19,60.81Z" style="fill:#407BFF"></path><path d="M179.11,185.9h-21.8a198,198,0,0,0,4.24,28.87h20.79A254.25,254.25,0,0,1,179.11,185.9Z" style="fill:#407BFF"></path><path d="M301,263.57a123,123,0,0,1-10.66,18.75h12.91a119.19,119.19,0,0,0,14-18.75Z" style="fill:#407BFF"></path><path d="M207.63,282.32H194.72a93.49,93.49,0,0,0,15.66,13.77h9.18A81.91,81.91,0,0,1,207.63,282.32Z" style="fill:#407BFF"></path><path d="M188.17,101.44a175.25,175.25,0,0,1,8.25-22.37H180a151.45,151.45,0,0,0-10.82,22.37Z" style="fill:#407BFF"></path><path d="M278.44,296.09c-9,8.11-18.93,12.65-29.44,12.65,13.79,0,26.87-4.54,38.62-12.65Z" style="fill:#407BFF"></path><path d="M222.86,42.55c8.08-6.36,16.9-9.86,26.14-9.86a66.24,66.24,0,0,0-34.3,9.86Z" style="fill:#407BFF"></path><path d="M328.8,101.44A151.45,151.45,0,0,0,318,79.07h-16.4a175.25,175.25,0,0,1,8.25,22.37Z" style="fill:#407BFF"></path><path d="M319.32,170.71q0,7.71-.43,15.19h21.8q.56-7.49.56-15.19,0-6.92-.45-13.67H319Q319.31,163.79,319.32,170.71Z" style="fill:#407BFF"></path><path d="M286.66,240.41c-1.54,8.31-3.35,16.08-5.38,23.16H301a172.79,172.79,0,0,0,8.67-23.16Z" style="fill:#407BFF"></path><path d="M290.35,214.77c-1,9-2.2,17.58-3.69,25.64h23a218,218,0,0,0,6-25.64Z" style="fill:#407BFF"></path><path d="M182.34,214.77a218,218,0,0,0,6,25.64h23c-1.49-8.06-2.74-16.64-3.69-25.64Z" style="fill:#407BFF"></path><path d="M309.83,101.44a175.25,175.25,0,0,0-8.25-22.37H279.05c2.21,6.88,4.25,14.37,6.05,22.37Z" style="fill:#407BFF"></path><path d="M211.26,101.44c1.47-8,3.19-15.49,5.12-22.37h-20a175.25,175.25,0,0,0-8.25,22.37Z" style="fill:#407BFF"></path><path d="M230.74,296.09H219.56c9,8.11,18.93,12.65,29.44,12.65C242.48,308.74,236.29,304.2,230.74,296.09Z" style="fill:#407BFF"></path><path d="M267.26,296.09c-5.55,8.11-11.74,12.65-18.26,12.65,10.51,0,20.48-4.54,29.44-12.65Z" style="fill:#407BFF"></path><path d="M188.3,240.41A172.79,172.79,0,0,0,197,263.57h19.76c-2-7.08-3.85-14.85-5.39-23.16Z" style="fill:#407BFF"></path><path d="M301.58,79.07a127.87,127.87,0,0,0-10-18.26H272.2a189.79,189.79,0,0,1,6.85,18.26Z" style="fill:#407BFF"></path><path d="M197,263.57a123,123,0,0,0,10.66,18.75h15.7a153.91,153.91,0,0,1-6.6-18.75Z" style="fill:#407BFF"></path><path d="M292.33,157H319a257,257,0,0,0-3-28.57h-26.1C291.06,137.61,291.92,147.17,292.33,157Z" style="fill:#407BFF"></path><path d="M316,128.47a222.38,222.38,0,0,0-6.13-27H285.1c1.9,8.48,3.52,17.53,4.76,27Z" style="fill:#407BFF"></path><path d="M179.11,185.9a254.25,254.25,0,0,0,3.23,28.87h25.31c-1-9.23-1.66-18.89-2-28.87Z" style="fill:#407BFF"></path><path d="M205.38,170.71q0-6.92.21-13.67H179q-.33,6.75-.34,13.67,0,7.71.43,15.19h26.53Q205.39,178.42,205.38,170.71Z" style="fill:#407BFF"></path><path d="M207.63,282.32a81.91,81.91,0,0,0,11.93,13.77h11.18a83.18,83.18,0,0,1-7.41-13.77Z" style="fill:#407BFF"></path><path d="M281.28,263.57a155.57,155.57,0,0,1-6.61,18.75h15.7A123,123,0,0,0,301,263.57Z" style="fill:#407BFF"></path><path d="M291.54,60.81a78.69,78.69,0,0,0-16.4-18.26h-13A99.26,99.26,0,0,1,272.2,60.81Z" style="fill:#407BFF"></path><path d="M292.62,170.71q0,7.71-.26,15.19h26.53q.42-7.49.43-15.19,0-6.92-.34-13.67H292.33Q292.62,163.79,292.62,170.71Z" style="fill:#407BFF"></path><path d="M290.35,214.77h25.31a254.25,254.25,0,0,0,3.23-28.87H292.36C292,195.88,291.33,205.54,290.35,214.77Z" style="fill:#407BFF"></path><path d="M206.46,60.81h16.15a78,78,0,0,1,10.17-18.26h-9.92A78.69,78.69,0,0,0,206.46,60.81Z" style="fill:#407BFF"></path><path d="M207.46,128.47c1-9.5,2.25-18.55,3.8-27H188.17a222.38,222.38,0,0,0-6.13,27Z" style="fill:#407BFF"></path><path d="M207.46,128.47H182A257,257,0,0,0,179,157h26.57C205.9,147.17,206.53,137.61,207.46,128.47Z" style="fill:#407BFF"></path><path d="M232.78,42.55c5-6.36,10.49-9.86,16.22-9.86-9.24,0-18.06,3.5-26.14,9.86Z" style="fill:#407BFF"></path><path d="M216.38,79.07a163.76,163.76,0,0,1,6.23-18.26H206.46a127.87,127.87,0,0,0-10,18.26Z" style="fill:#407BFF"></path><path d="M262.13,42.55h13c-8.08-6.36-16.9-9.86-26.14-9.86C253,32.69,257.5,36.19,262.13,42.55Z" style="fill:#407BFF"></path><path d="M290.37,282.32h-15.7a83.18,83.18,0,0,1-7.41,13.77h11.18A81.91,81.91,0,0,0,290.37,282.32Z" style="fill:#407BFF"></path><path d="M265.25,185.9c-.13,10-.39,19.64-.75,28.87h25.85c1-9.23,1.66-18.89,2-28.87Z" style="fill:#407BFF"></path><path d="M232.73,157c.12-9.87.36-19.43.71-28.57h-26c-.93,9.14-1.56,18.7-1.87,28.57Z" style="fill:#407BFF"></path><path d="M207.65,214.77c.95,9,2.2,17.58,3.69,25.64h23.55c-.56-8.06-1-16.64-1.39-25.64Z" style="fill:#407BFF"></path><path d="M292.33,157c-.41-9.87-1.27-19.43-2.47-28.57H264.31c.45,9.14.77,18.7.93,28.57Z" style="fill:#407BFF"></path><path d="M289.86,128.47c-1.24-9.5-2.86-18.55-4.76-27H262.53c.71,8.48,1.31,17.53,1.78,27Z" style="fill:#407BFF"></path><path d="M232.73,157H205.59q-.21,6.75-.21,13.67,0,7.71.26,15.19h27.11q-.09-7.49-.1-15.19Q232.65,163.79,232.73,157Z" style="fill:#407BFF"></path><path d="M205.64,185.9c.35,10,1,19.64,2,28.87H233.5c-.36-9.23-.62-18.89-.75-28.87Z" style="fill:#407BFF"></path><path d="M265.35,170.71q0,7.71-.1,15.19h27.11q.25-7.49.26-15.19,0-6.92-.29-13.67H265.24Q265.35,163.79,265.35,170.71Z" style="fill:#407BFF"></path><path d="M233.44,128.47c.36-9.5.84-18.55,1.42-27h-23.6c-1.55,8.48-2.83,17.53-3.8,27Z" style="fill:#407BFF"></path><path d="M234.86,101.44c.55-8,1.19-15.49,1.92-22.37h-20.4c-1.93,6.88-3.65,14.37-5.12,22.37Z" style="fill:#407BFF"></path><path d="M261.09,263.57c-.74,6.94-1.57,13.22-2.47,18.75h16.05a155.57,155.57,0,0,0,6.61-18.75Z" style="fill:#407BFF"></path><path d="M236.78,79.07c.7-6.7,1.48-12.82,2.33-18.26h-16.5a163.76,163.76,0,0,0-6.23,18.26Z" style="fill:#407BFF"></path><path d="M232.78,42.55h10.14c1.88-6.36,3.93-9.86,6.08-9.86C243.27,32.69,237.8,36.19,232.78,42.55Z" style="fill:#407BFF"></path><path d="M242.16,296.09H230.74c5.55,8.11,11.74,12.65,18.26,12.65C246.56,308.74,244.24,304.2,242.16,296.09Z" style="fill:#407BFF"></path><path d="M216.73,263.57a153.91,153.91,0,0,0,6.6,18.75h16c-.9-5.53-1.73-11.81-2.47-18.75Z" style="fill:#407BFF"></path><path d="M258.62,282.32c-.87,5.32-1.8,9.94-2.78,13.77h11.42a83.18,83.18,0,0,0,7.41-13.77Z" style="fill:#407BFF"></path><path d="M223.33,282.32a83.18,83.18,0,0,0,7.41,13.77h11.42c-1-3.83-1.91-8.45-2.78-13.77Z" style="fill:#407BFF"></path><path d="M253.92,42.55h8.21C257.5,36.19,253,32.69,249,32.69,250.48,32.69,252.19,36.19,253.92,42.55Z" style="fill:#407BFF"></path><path d="M239.11,60.81a147.17,147.17,0,0,1,3.81-18.26H232.78a78,78,0,0,0-10.17,18.26Z" style="fill:#407BFF"></path><path d="M272.2,60.81a99.26,99.26,0,0,0-10.07-18.26h-8.21a185.6,185.6,0,0,1,3.77,18.26Z" style="fill:#407BFF"></path><path d="M264.5,214.77c-.36,9-.83,17.58-1.39,25.64h23.55c1.49-8.06,2.74-16.64,3.69-25.64Z" style="fill:#407BFF"></path><path d="M211.34,240.41c1.54,8.31,3.35,16.08,5.39,23.16h20.18c-.77-7.08-1.44-14.85-2-23.16Z" style="fill:#407BFF"></path><path d="M267.26,296.09H255.84c-2.08,8.11-4.4,12.65-6.84,12.65C255.52,308.74,261.71,304.2,267.26,296.09Z" style="fill:#407BFF"></path><path d="M285.1,101.44c-1.8-8-3.84-15.49-6.05-22.37H260.26c.83,6.88,1.59,14.37,2.27,22.37Z" style="fill:#407BFF"></path><path d="M263.11,240.41c-.58,8.31-1.25,16.08-2,23.16h20.19c2-7.08,3.84-14.85,5.38-23.16Z" style="fill:#407BFF"></path><path d="M279.05,79.07a189.79,189.79,0,0,0-6.85-18.26H257.69c.9,5.44,1.76,11.56,2.57,18.26Z" style="fill:#407BFF"></path><path d="M242.92,42.55h11c-1.73-6.36-3.44-9.86-4.92-9.86C246.85,32.69,244.8,36.19,242.92,42.55Z" style="fill:#407BFF"></path><path d="M255.84,296.09H242.16c2.08,8.11,4.4,12.65,6.84,12.65S253.76,304.2,255.84,296.09Z" style="fill:#407BFF"></path><path d="M265.24,157c-.16-9.87-.48-19.43-.93-28.57H233.44c-.35,9.14-.59,18.7-.71,28.57Z" style="fill:#407BFF"></path><path d="M233.5,214.77c.36,9,.83,17.58,1.39,25.64h28.22c.56-8.06,1-16.64,1.39-25.64Z" style="fill:#407BFF"></path><path d="M265.24,157H232.73q-.07,6.75-.08,13.67,0,7.71.1,15.19h32.5q.09-7.49.1-15.19Q265.35,163.79,265.24,157Z" style="fill:#407BFF"></path><path d="M260.26,79.07c-.81-6.7-1.67-12.82-2.57-18.26H239.11c-.85,5.44-1.63,11.56-2.33,18.26Z" style="fill:#407BFF"></path><path d="M234.89,240.41c.58,8.31,1.25,16.08,2,23.16h24.18c.77-7.08,1.44-14.85,2-23.16Z" style="fill:#407BFF"></path><path d="M264.31,128.47c-.47-9.5-1.07-18.55-1.78-27H234.86c-.58,8.48-1.06,17.53-1.42,27Z" style="fill:#407BFF"></path><path d="M262.53,101.44c-.68-8-1.44-15.49-2.27-22.37H236.78c-.73,6.88-1.37,14.37-1.92,22.37Z" style="fill:#407BFF"></path><path d="M239.38,282.32c.87,5.32,1.8,9.94,2.78,13.77h13.68c1-3.83,1.91-8.45,2.78-13.77Z" style="fill:#407BFF"></path><path d="M232.75,185.9c.13,10,.39,19.64.75,28.87h31c.36-9.23.62-18.89.75-28.87Z" style="fill:#407BFF"></path><path d="M236.91,263.57c.74,6.94,1.57,13.22,2.47,18.75h19.24c.9-5.53,1.73-11.81,2.47-18.75Z" style="fill:#407BFF"></path><path d="M257.69,60.81a185.6,185.6,0,0,0-3.77-18.26h-11a147.17,147.17,0,0,0-3.81,18.26Z" style="fill:#407BFF"></path><g style="opacity:0.30000000000000004"><path d="M169.88,282.32h-2.73a139.47,139.47,0,0,0,23.62,13.77h1.94A133.68,133.68,0,0,1,169.88,282.32Z" style="fill:#fff"></path></g><g style="opacity:0.1"><path d="M149.51,263.57h-3.43a139.13,139.13,0,0,0,21.07,18.75h2.73A135.49,135.49,0,0,1,149.51,263.57Z" style="fill:#fff"></path></g><g style="opacity:0.30000000000000004"><path d="M190.77,296.09A139.54,139.54,0,0,0,249,308.74a131.11,131.11,0,0,1-56.29-12.65Z" style="fill:#fff"></path></g><g style="opacity:0.30000000000000004"><path d="M349.55,79.07H353a139.71,139.71,0,0,0-19.85-18.26h-2.81A137,137,0,0,1,349.55,79.07Z" style="fill:#fff"></path></g><g style="opacity:0.30000000000000004"><path d="M300.72,42.55A139.63,139.63,0,0,0,249,32.69a131.07,131.07,0,0,1,50,9.86Z" style="fill:#fff"></path></g><g style="opacity:0.30000000000000004"><path d="M132.91,240.41h-4a138.23,138.23,0,0,0,17.17,23.16h3.43A137.88,137.88,0,0,1,132.91,240.41Z" style="fill:#fff"></path></g><g style="opacity:0.1"><path d="M365.33,101.44h4A138.73,138.73,0,0,0,353,79.07h-3.46A138.66,138.66,0,0,1,365.33,101.44Z"></path></g><g style="opacity:0.30000000000000004"><path d="M121.52,214.77h-4.39a136.72,136.72,0,0,0,11.78,25.64h4A139.21,139.21,0,0,1,121.52,214.77Z" style="fill:#fff"></path></g><g style="opacity:0.1"><path d="M115.34,185.9h0a143.65,143.65,0,0,1-.82-15.19c0-4.61.23-9.17.66-13.67h0A140.78,140.78,0,0,1,121,128.47h-4.41a137.58,137.58,0,0,0,.59,86.3h4.39A140.5,140.5,0,0,1,115.34,185.9Z" style="fill:#fff"></path></g><g style="opacity:0.30000000000000004"><path d="M249,308.74a139.54,139.54,0,0,0,58.23-12.65h-1.94A131.11,131.11,0,0,1,249,308.74Z" style="fill:#fff"></path></g><g style="opacity:0.30000000000000004"><path d="M305.29,296.09h1.94a139.47,139.47,0,0,0,23.62-13.77h-2.73A133.68,133.68,0,0,1,305.29,296.09Z" style="fill:#fff"></path></g><g style="opacity:0.2"><path d="M348.49,263.57h3.43a138.23,138.23,0,0,0,17.17-23.16h-4A137.88,137.88,0,0,1,348.49,263.57Z"></path></g><g style="opacity:0.1"><path d="M377.05,128.47h4.41a136.39,136.39,0,0,0-12.12-27h-4A139.17,139.17,0,0,1,377.05,128.47Z"></path></g><g style="opacity:0.4"><path d="M365.09,240.41h4a136.72,136.72,0,0,0,11.78-25.64h-4.39A139.21,139.21,0,0,1,365.09,240.41Z"></path></g><g style="opacity:0.2"><path d="M382.66,185.9a140.5,140.5,0,0,1-6.18,28.87h4.39a136.33,136.33,0,0,0,6.4-28.87Z"></path></g><g style="opacity:0.30000000000000004"><path d="M383.48,170.71a143.65,143.65,0,0,1-.82,15.19h4.61a138.49,138.49,0,0,0,.84-15.19q0-6.92-.68-13.67h-4.61C383.25,161.54,383.48,166.1,383.48,170.71Z" style="fill:#fff"></path></g><g style="opacity:0.30000000000000004"><path d="M169.88,282.32a133.68,133.68,0,0,0,22.83,13.77h4a123.23,123.23,0,0,1-21.21-13.77Z" style="fill:#fff"></path></g><g style="opacity:0.30000000000000004"><path d="M368,128.47h9.07a139.17,139.17,0,0,0-11.72-27H357.1A144.9,144.9,0,0,1,368,128.47Z"></path></g><g style="opacity:0.30000000000000004"><path d="M322.52,282.32h5.6a135.49,135.49,0,0,0,20.37-18.75h-7A130.49,130.49,0,0,1,322.52,282.32Z" style="fill:#fff"></path></g><g style="opacity:0.1"><path d="M341.45,263.57h7a137.88,137.88,0,0,0,16.6-23.16h-8.22A138.2,138.2,0,0,1,341.45,263.57Z"></path></g><g style="opacity:0.4"><path d="M367.45,214.77h9a140.5,140.5,0,0,0,6.18-28.87H373.2A149.9,149.9,0,0,1,367.45,214.77Z"></path></g><g style="opacity:0.2"><path d="M330.35,60.81A133,133,0,0,0,299,42.55h-3.54a122,122,0,0,1,29.13,18.26Z"></path></g><g style="opacity:0.4"><path d="M373.35,157h9.47a140.78,140.78,0,0,0-5.77-28.57H368A149.84,149.84,0,0,1,373.35,157Z"></path></g><g style="opacity:0.2"><path d="M155.57,79.07h-7.12a138.66,138.66,0,0,0-15.78,22.37h8.23A139.84,139.84,0,0,1,155.57,79.07Z"></path></g><g style="opacity:0.30000000000000004"><path d="M202.54,42.55H199a133,133,0,0,0-31.35,18.26h5.76A122,122,0,0,1,202.54,42.55Z" style="fill:#fff"></path></g><g style="opacity:0.5"><path d="M140.9,101.44h-8.23a139.17,139.17,0,0,0-11.72,27H130A144.9,144.9,0,0,1,140.9,101.44Z"></path></g><g style="opacity:0.30000000000000004"><path d="M173.41,60.81h-5.76a137,137,0,0,0-19.2,18.26h7.12A131.72,131.72,0,0,1,173.41,60.81Z" style="fill:#fff"></path></g><g style="opacity:0.2"><path d="M130,128.47H121A140.78,140.78,0,0,0,115.18,157h9.47A149.84,149.84,0,0,1,130,128.47Z"></path></g><g style="opacity:0.2"><path d="M342.43,79.07h7.12a137,137,0,0,0-19.2-18.26h-5.76A131.72,131.72,0,0,1,342.43,79.07Z"></path></g><g style="opacity:0.30000000000000004"><path d="M301.31,296.09A114.72,114.72,0,0,1,249,308.74a131.11,131.11,0,0,0,56.29-12.65Z" style="fill:#fff"></path></g><g style="opacity:0.2"><path d="M357.1,101.44h8.23a138.66,138.66,0,0,0-15.78-22.37h-7.12A139.84,139.84,0,0,1,357.1,101.44Z"></path></g><g style="opacity:0.30000000000000004"><path d="M124,170.71q0-6.92.61-13.67h-9.47c-.43,4.5-.66,9.06-.66,13.67a143.65,143.65,0,0,0,.82,15.19h9.46C124.31,180.91,124,175.85,124,170.71Z"></path></g><g style="opacity:0.30000000000000004"><path d="M141.13,240.41h-8.22a137.88,137.88,0,0,0,16.6,23.16h7A138.2,138.2,0,0,1,141.13,240.41Z" style="fill:#fff"></path></g><g style="opacity:0.2"><path d="M124.8,185.9h-9.46a140.5,140.5,0,0,0,6.18,28.87h9A149.9,149.9,0,0,1,124.8,185.9Z"></path></g><g style="opacity:0.30000000000000004"><path d="M130.55,214.77h-9a139.21,139.21,0,0,0,11.39,25.64h8.22A144.23,144.23,0,0,1,130.55,214.77Z" style="fill:#fff"></path></g><g style="opacity:0.30000000000000004"><path d="M192.71,296.09A131.11,131.11,0,0,0,249,308.74a114.72,114.72,0,0,1-52.31-12.65Z" style="fill:#fff"></path></g><g style="opacity:0.30000000000000004"><path d="M202.54,42.55A114.32,114.32,0,0,1,249,32.69a131.07,131.07,0,0,0-50,9.86Z" style="fill:#fff"></path></g><g style="opacity:0.30000000000000004"><path d="M167.17,263.57H156.55a130.49,130.49,0,0,0,18.93,18.75h8.45A123.77,123.77,0,0,1,167.17,263.57Z"></path></g><g style="opacity:0.2"><path d="M138.4,170.71c0-4.61.19-9.17.54-13.67H124.65q-.6,6.75-.61,13.67c0,5.14.27,10.2.76,15.19h14.27Q138.41,178.42,138.4,170.71Z"></path></g><g style="opacity:0.2"><path d="M144.16,214.77H130.55a144.23,144.23,0,0,0,10.58,25.64h12.39A155.5,155.5,0,0,1,144.16,214.77Z" style="fill:#fff"></path></g><g style="opacity:0.30000000000000004"><path d="M139.07,185.9H124.8a149.9,149.9,0,0,0,5.75,28.87h13.61A167.26,167.26,0,0,1,139.07,185.9Z"></path></g><g style="opacity:0.30000000000000004"><path d="M153.52,240.41H141.13a138.2,138.2,0,0,0,15.42,23.16h10.62A141.89,141.89,0,0,1,153.52,240.41Z" style="fill:#fff"></path></g><g style="opacity:0.2"><path d="M153.32,101.44H140.9a144.9,144.9,0,0,0-10.88,27h13.67A155.83,155.83,0,0,1,153.32,101.44Z"></path></g><g style="opacity:0.4"><path d="M359.6,170.71q0,7.71-.67,15.19H373.2c.49-5,.76-10.05.76-15.19q0-6.92-.61-13.67H359.06C359.41,161.54,359.6,166.1,359.6,170.71Z"></path></g><g style="opacity:0.2"><path d="M166.3,79.07H155.57a139.84,139.84,0,0,0-14.67,22.37h12.42A142.71,142.71,0,0,1,166.3,79.07Z" style="fill:#fff"></path></g><g style="opacity:0.6000000000000001"><path d="M196.69,296.09A114.72,114.72,0,0,0,249,308.74a92.29,92.29,0,0,1-46.3-12.65Z" style="fill:#fff"></path></g><g style="opacity:0.1"><path d="M344.48,240.41h12.39a144.23,144.23,0,0,0,10.58-25.64H353.84A155.5,155.5,0,0,1,344.48,240.41Z"></path></g><g style="opacity:0.7000000000000001"><path d="M207.88,42.55A91.42,91.42,0,0,1,249,32.69a114.32,114.32,0,0,0-46.46,9.86Z" style="fill:#fff"></path></g><g style="opacity:0.30000000000000004"><path d="M324.59,60.81a122,122,0,0,0-29.13-18.26h-5.34a107.07,107.07,0,0,1,25.79,18.26Z"></path></g><g style="opacity:0.30000000000000004"><path d="M295.3,296.09A92.29,92.29,0,0,1,249,308.74a114.72,114.72,0,0,0,52.31-12.65Z" style="fill:#fff"></path></g><g style="opacity:0.1"><path d="M353.84,214.77h13.61a149.9,149.9,0,0,0,5.75-28.87H358.93A167.26,167.26,0,0,1,353.84,214.77Z"></path></g><g style="opacity:0.30000000000000004"><path d="M354.31,128.47A166.89,166.89,0,0,1,359.06,157h14.29A149.84,149.84,0,0,0,368,128.47Z"></path></g><g style="opacity:0.2"><path d="M314.07,282.32h8.45a130.49,130.49,0,0,0,18.93-18.75H330.83A123.77,123.77,0,0,1,314.07,282.32Z"></path></g><g style="opacity:0.30000000000000004"><path d="M182.09,60.81a107.07,107.07,0,0,1,25.79-18.26h-5.34a122,122,0,0,0-29.13,18.26Z" style="fill:#fff"></path></g><g style="opacity:0.7000000000000001"><path d="M182.09,60.81h-8.68a131.72,131.72,0,0,0-17.84,18.26H166.3A126.81,126.81,0,0,1,182.09,60.81Z" style="fill:#fff"></path></g><g style="opacity:0.30000000000000004"><path d="M314.07,282.32a108.56,108.56,0,0,1-18.77,13.77h6a123.23,123.23,0,0,0,21.21-13.77Z" style="fill:#fff"></path></g><g style="opacity:0.5"><path d="M354.31,128.47H368a144.9,144.9,0,0,0-10.88-27H344.68A155.83,155.83,0,0,1,354.31,128.47Z"></path></g><g style="opacity:0.30000000000000004"><path d="M344.68,101.44H357.1a139.84,139.84,0,0,0-14.67-22.37H331.7A142.71,142.71,0,0,1,344.68,101.44Z"></path></g><g style="opacity:0.2"><path d="M331.7,79.07h10.73a131.72,131.72,0,0,0-17.84-18.26h-8.68A126.81,126.81,0,0,1,331.7,79.07Z"></path></g><g style="opacity:0.2"><path d="M167.17,263.57a123.77,123.77,0,0,0,16.76,18.75h10.79a119.19,119.19,0,0,1-14-18.75Z"></path></g><g style="opacity:0.30000000000000004"><path d="M161.55,214.77H144.16a155.5,155.5,0,0,0,9.36,25.64h15.84A175.72,175.72,0,0,1,161.55,214.77Z" style="fill:#fff"></path></g><g style="opacity:0.2"><path d="M157.31,185.9H139.07a167.26,167.26,0,0,0,5.09,28.87h17.39A198,198,0,0,1,157.31,185.9Z"></path></g><g style="opacity:0.9"><path d="M166.3,79.07H180a123.57,123.57,0,0,1,13.17-18.26h-11.1A126.81,126.81,0,0,0,166.3,79.07Z" style="fill:#fff"></path></g><g style="opacity:0.6000000000000001"><path d="M180,79.07H166.3a142.71,142.71,0,0,0-13,22.37H169.2A151.45,151.45,0,0,1,180,79.07Z" style="fill:#fff"></path></g><g style="opacity:0.2"><path d="M161.16,128.47H143.69A166.89,166.89,0,0,0,138.94,157H157.2A197.22,197.22,0,0,1,161.16,128.47Z"></path></g><g style="opacity:0.2"><path d="M328.8,101.44a177.13,177.13,0,0,1,8,27h17.47a155.83,155.83,0,0,0-9.63-27Z"></path></g><g style="opacity:0.4"><path d="M331.7,79.07a126.81,126.81,0,0,0-15.79-18.26h-11.1A123.57,123.57,0,0,1,318,79.07Z"></path></g><g style="opacity:0.1"><path d="M341.25,170.71q0,7.71-.56,15.19h18.24q.66-7.49.67-15.19c0-4.61-.19-9.17-.54-13.67H340.8Q341.25,163.79,341.25,170.71Z"></path></g><g style="opacity:0.1"><path d="M317.25,263.57h13.58a141.89,141.89,0,0,0,13.65-23.16H328.64A149.74,149.74,0,0,1,317.25,263.57Z"></path></g><g style="opacity:0.5"><path d="M328.64,240.41h15.84a155.5,155.5,0,0,0,9.36-25.64H336.45A175.72,175.72,0,0,1,328.64,240.41Z"></path></g><g style="opacity:0.6000000000000001"><path d="M287.62,296.09c-11.75,8.11-24.83,12.65-38.62,12.65a92.29,92.29,0,0,0,46.3-12.65Z" style="fill:#fff"></path></g><g style="opacity:0.2"><path d="M194.72,282.32H183.93a108.56,108.56,0,0,0,18.77,13.77h7.68A93.49,93.49,0,0,1,194.72,282.32Z"></path></g><g style="opacity:0.7000000000000001"><path d="M193.19,60.81A91.41,91.41,0,0,1,214.7,42.55h-6.82a107.07,107.07,0,0,0-25.79,18.26Z" style="fill:#fff"></path></g><g style="opacity:0.7000000000000001"><path d="M214.7,42.55A66.24,66.24,0,0,1,249,32.69a91.42,91.42,0,0,0-41.12,9.86Z" style="fill:#fff"></path></g><g style="opacity:0.5"><path d="M303.28,282.32a93.49,93.49,0,0,1-15.66,13.77h7.68a108.56,108.56,0,0,0,18.77-13.77Z" style="fill:#fff"></path></g><g style="opacity:0.1"><path d="M304.81,60.81h11.1a107.07,107.07,0,0,0-25.79-18.26H283.3A91.41,91.41,0,0,1,304.81,60.81Z"></path></g><g style="opacity:0.1"><path d="M290.12,42.55A91.42,91.42,0,0,0,249,32.69a66.24,66.24,0,0,1,34.3,9.86Z" style="fill:#fff"></path></g><g style="opacity:0.1"><path d="M344.68,101.44a142.71,142.71,0,0,0-13-22.37H318a151.45,151.45,0,0,1,10.82,22.37Z"></path></g><g style="opacity:0.30000000000000004"><path d="M202.7,296.09A92.29,92.29,0,0,0,249,308.74c-13.79,0-26.87-4.54-38.62-12.65Z" style="fill:#fff"></path></g><g style="opacity:0.2"><path d="M210.38,296.09c11.75,8.11,24.83,12.65,38.62,12.65-10.51,0-20.48-4.54-29.44-12.65Z"></path></g><g style="opacity:0.9"><path d="M196.42,79.07a127.87,127.87,0,0,1,10-18.26H193.19A123.57,123.57,0,0,0,180,79.07Z" style="fill:#fff"></path></g><g style="opacity:0.30000000000000004"><path d="M182,128.47H161.16a197.22,197.22,0,0,0-4,28.57H179A257,257,0,0,1,182,128.47Z"></path></g><g style="opacity:0.2"><path d="M309.7,240.41A172.79,172.79,0,0,1,301,263.57h16.22a149.74,149.74,0,0,0,11.39-23.16Z"></path></g><g style="opacity:0.5"><path d="M315.66,214.77h20.79a198,198,0,0,0,4.24-28.87h-21.8A254.25,254.25,0,0,1,315.66,214.77Z" style="fill:#fff"></path></g><g style="opacity:0.2"><path d="M309.7,240.41h18.94a175.72,175.72,0,0,0,7.81-25.64H315.66A218,218,0,0,1,309.7,240.41Z"></path></g><g style="opacity:0.2"><path d="M318,79.07a123.57,123.57,0,0,0-13.17-18.26H291.54a127.87,127.87,0,0,1,10,18.26Z"></path></g><g style="opacity:0.1"><path d="M169.36,240.41a149.74,149.74,0,0,0,11.39,23.16H197a172.79,172.79,0,0,1-8.67-23.16Z" style="fill:#fff"></path></g><g style="opacity:0.1"><path d="M178.68,170.71q0-6.92.34-13.67H157.2q-.45,6.75-.45,13.67,0,7.71.56,15.19h21.8Q178.69,178.42,178.68,170.71Z" style="fill:#fff"></path></g><g style="opacity:0.2"><path d="M291.54,60.81h13.27A91.41,91.41,0,0,0,283.3,42.55h-8.16A78.69,78.69,0,0,1,291.54,60.81Z"></path></g><g style="opacity:0.5"><path d="M188.17,101.44h-19a177.13,177.13,0,0,0-8,27H182A222.38,222.38,0,0,1,188.17,101.44Z"></path></g><g style="opacity:0.4"><path d="M180.75,263.57a119.19,119.19,0,0,0,14,18.75h12.91A123,123,0,0,1,197,263.57Z"></path></g><g style="opacity:0.2"><path d="M319,157H340.8a197.22,197.22,0,0,0-4-28.57H316A257,257,0,0,1,319,157Z"></path></g><g style="opacity:0.2"><path d="M161.55,214.77a175.72,175.72,0,0,0,7.81,25.64H188.3a218,218,0,0,1-6-25.64Z"></path></g><g style="opacity:0.6000000000000001"><path d="M193.19,60.81h13.27a78.69,78.69,0,0,1,16.4-18.26H214.7A91.41,91.41,0,0,0,193.19,60.81Z" style="fill:#fff"></path></g><g style="opacity:0.1"><path d="M179.11,185.9h-21.8a198,198,0,0,0,4.24,28.87h20.79A254.25,254.25,0,0,1,179.11,185.9Z" style="fill:#fff"></path></g><g style="opacity:0.30000000000000004"><path d="M207.63,282.32H194.72a93.49,93.49,0,0,0,15.66,13.77h9.18A81.91,81.91,0,0,1,207.63,282.32Z"></path></g><g style="opacity:0.7000000000000001"><path d="M188.17,101.44a175.25,175.25,0,0,1,8.25-22.37H180a151.45,151.45,0,0,0-10.82,22.37Z" style="fill:#fff"></path></g><g style="opacity:0.30000000000000004"><path d="M278.44,296.09c-9,8.11-18.93,12.65-29.44,12.65,13.79,0,26.87-4.54,38.62-12.65Z" style="fill:#fff"></path></g><g style="opacity:0.9"><path d="M222.86,42.55c8.08-6.36,16.9-9.86,26.14-9.86a66.24,66.24,0,0,0-34.3,9.86Z" style="fill:#fff"></path></g><g style="opacity:0.5"><path d="M328.8,101.44A151.45,151.45,0,0,0,318,79.07h-16.4a175.25,175.25,0,0,1,8.25,22.37Z"></path></g><g style="opacity:0.30000000000000004"><path d="M286.66,240.41c-1.54,8.31-3.35,16.08-5.38,23.16H301a172.79,172.79,0,0,0,8.67-23.16Z" style="fill:#fff"></path></g><g style="opacity:0.5"><path d="M290.35,214.77c-1,9-2.2,17.58-3.69,25.64h23a218,218,0,0,0,6-25.64Z" style="fill:#fff"></path></g><g style="opacity:0.1"><path d="M182.34,214.77a218,218,0,0,0,6,25.64h23c-1.49-8.06-2.74-16.64-3.69-25.64Z" style="fill:#fff"></path></g><g style="opacity:0.6000000000000001"><path d="M211.26,101.44c1.47-8,3.19-15.49,5.12-22.37h-20a175.25,175.25,0,0,0-8.25,22.37Z" style="fill:#fff"></path></g><g style="opacity:0.1"><path d="M267.26,296.09c-5.55,8.11-11.74,12.65-18.26,12.65,10.51,0,20.48-4.54,29.44-12.65Z"></path></g><g style="opacity:0.2"><path d="M188.3,240.41A172.79,172.79,0,0,0,197,263.57h19.76c-2-7.08-3.85-14.85-5.39-23.16Z"></path></g><g style="opacity:0.1"><path d="M301.58,79.07a127.87,127.87,0,0,0-10-18.26H272.2a189.79,189.79,0,0,1,6.85,18.26Z"></path></g><g style="opacity:0.2"><path d="M316,128.47a222.38,222.38,0,0,0-6.13-27H285.1c1.9,8.48,3.52,17.53,4.76,27Z"></path></g><g style="opacity:0.30000000000000004"><path d="M179.11,185.9a254.25,254.25,0,0,0,3.23,28.87h25.31c-1-9.23-1.66-18.89-2-28.87Z" style="fill:#fff"></path></g><g style="opacity:0.2"><path d="M205.38,170.71q0-6.92.21-13.67H179q-.33,6.75-.34,13.67,0,7.71.43,15.19h26.53Q205.39,178.42,205.38,170.71Z" style="fill:#fff"></path></g><g style="opacity:0.4"><path d="M207.63,282.32a81.91,81.91,0,0,0,11.93,13.77h11.18a83.18,83.18,0,0,1-7.41-13.77Z"></path></g><g style="opacity:0.1"><path d="M281.28,263.57a155.57,155.57,0,0,1-6.61,18.75h15.7A123,123,0,0,0,301,263.57Z"></path></g><g style="opacity:0.4"><path d="M291.54,60.81a78.69,78.69,0,0,0-16.4-18.26h-13A99.26,99.26,0,0,1,272.2,60.81Z"></path></g><g style="opacity:0.5"><path d="M292.62,170.71q0,7.71-.26,15.19h26.53q.42-7.49.43-15.19,0-6.92-.34-13.67H292.33Q292.62,163.79,292.62,170.71Z" style="fill:#fff"></path></g><g style="opacity:0.8"><path d="M290.35,214.77h25.31a254.25,254.25,0,0,0,3.23-28.87H292.36C292,195.88,291.33,205.54,290.35,214.77Z" style="fill:#fff"></path></g><g style="opacity:0.9"><path d="M206.46,60.81h16.15a78,78,0,0,1,10.17-18.26h-9.92A78.69,78.69,0,0,0,206.46,60.81Z" style="fill:#fff"></path></g><g style="opacity:0.30000000000000004"><path d="M207.46,128.47c1-9.5,2.25-18.55,3.8-27H188.17a222.38,222.38,0,0,0-6.13,27Z"></path></g><g style="opacity:0.2"><path d="M207.46,128.47H182A257,257,0,0,0,179,157h26.57C205.9,147.17,206.53,137.61,207.46,128.47Z"></path></g><g style="opacity:0.7000000000000001"><path d="M232.78,42.55c5-6.36,10.49-9.86,16.22-9.86-9.24,0-18.06,3.5-26.14,9.86Z" style="fill:#fff"></path></g><g style="opacity:0.7000000000000001"><path d="M216.38,79.07a163.76,163.76,0,0,1,6.23-18.26H206.46a127.87,127.87,0,0,0-10,18.26Z" style="fill:#fff"></path></g><g style="opacity:0.30000000000000004"><path d="M262.13,42.55h13c-8.08-6.36-16.9-9.86-26.14-9.86C253,32.69,257.5,36.19,262.13,42.55Z" style="fill:#fff"></path></g><g style="opacity:0.9"><path d="M265.25,185.9c-.13,10-.39,19.64-.75,28.87h25.85c1-9.23,1.66-18.89,2-28.87Z" style="fill:#fff"></path></g><g style="opacity:0.5"><path d="M232.73,157c.12-9.87.36-19.43.71-28.57h-26c-.93,9.14-1.56,18.7-1.87,28.57Z"></path></g><g style="opacity:0.2"><path d="M207.65,214.77c.95,9,2.2,17.58,3.69,25.64h23.55c-.56-8.06-1-16.64-1.39-25.64Z"></path></g><g style="opacity:0.1"><path d="M292.33,157c-.41-9.87-1.27-19.43-2.47-28.57H264.31c.45,9.14.77,18.7.93,28.57Z"></path></g><g style="opacity:0.4"><path d="M289.86,128.47c-1.24-9.5-2.86-18.55-4.76-27H262.53c.71,8.48,1.31,17.53,1.78,27Z"></path></g><g style="opacity:0.5"><path d="M232.73,157H205.59q-.21,6.75-.21,13.67,0,7.71.26,15.19h27.11q-.09-7.49-.1-15.19Q232.65,163.79,232.73,157Z" style="fill:#fff"></path></g><g style="opacity:0.6000000000000001"><path d="M205.64,185.9c.35,10,1,19.64,2,28.87H233.5c-.36-9.23-.62-18.89-.75-28.87Z" style="fill:#fff"></path></g><g style="opacity:0.8"><path d="M265.35,170.71q0,7.71-.1,15.19h27.11q.25-7.49.26-15.19,0-6.92-.29-13.67H265.24Q265.35,163.79,265.35,170.71Z" style="fill:#fff"></path></g><g style="opacity:0.2"><path d="M233.44,128.47c.36-9.5.84-18.55,1.42-27h-23.6c-1.55,8.48-2.83,17.53-3.8,27Z"></path></g><g style="opacity:0.30000000000000004"><path d="M234.86,101.44c.55-8,1.19-15.49,1.92-22.37h-20.4c-1.93,6.88-3.65,14.37-5.12,22.37Z"></path></g><g style="opacity:0.2"><path d="M261.09,263.57c-.74,6.94-1.57,13.22-2.47,18.75h16.05a155.57,155.57,0,0,0,6.61-18.75Z"></path></g><g style="opacity:0.4"><path d="M236.78,79.07c.7-6.7,1.48-12.82,2.33-18.26h-16.5a163.76,163.76,0,0,0-6.23,18.26Z" style="fill:#fff"></path></g><g style="opacity:0.6000000000000001"><path d="M232.78,42.55h10.14c1.88-6.36,3.93-9.86,6.08-9.86C243.27,32.69,237.8,36.19,232.78,42.55Z" style="fill:#fff"></path></g><g style="opacity:0.2"><path d="M242.16,296.09H230.74c5.55,8.11,11.74,12.65,18.26,12.65C246.56,308.74,244.24,304.2,242.16,296.09Z"></path></g><g style="opacity:0.30000000000000004"><path d="M216.73,263.57a153.91,153.91,0,0,0,6.6,18.75h16c-.9-5.53-1.73-11.81-2.47-18.75Z"></path></g><g style="opacity:0.30000000000000004"><path d="M258.62,282.32c-.87,5.32-1.8,9.94-2.78,13.77h11.42a83.18,83.18,0,0,0,7.41-13.77Z" style="fill:#fff"></path></g><g style="opacity:0.30000000000000004"><path d="M223.33,282.32a83.18,83.18,0,0,0,7.41,13.77h11.42c-1-3.83-1.91-8.45-2.78-13.77Z"></path></g><g style="opacity:0.30000000000000004"><path d="M253.92,42.55h8.21C257.5,36.19,253,32.69,249,32.69,250.48,32.69,252.19,36.19,253.92,42.55Z" style="fill:#fff"></path></g><g style="opacity:0.7000000000000001"><path d="M239.11,60.81a147.17,147.17,0,0,1,3.81-18.26H232.78a78,78,0,0,0-10.17,18.26Z" style="fill:#fff"></path></g><g style="opacity:0.2"><path d="M272.2,60.81a99.26,99.26,0,0,0-10.07-18.26h-8.21a185.6,185.6,0,0,1,3.77,18.26Z"></path></g><g style="opacity:0.9"><path d="M264.5,214.77c-.36,9-.83,17.58-1.39,25.64h23.55c1.49-8.06,2.74-16.64,3.69-25.64Z" style="fill:#fff"></path></g><g style="opacity:0.5"><path d="M211.34,240.41c1.54,8.31,3.35,16.08,5.39,23.16h20.18c-.77-7.08-1.44-14.85-2-23.16Z"></path></g><g style="opacity:0.5"><path d="M267.26,296.09H255.84c-2.08,8.11-4.4,12.65-6.84,12.65C255.52,308.74,261.71,304.2,267.26,296.09Z" style="fill:#fff"></path></g><g style="opacity:0.1"><path d="M285.1,101.44c-1.8-8-3.84-15.49-6.05-22.37H260.26c.83,6.88,1.59,14.37,2.27,22.37Z"></path></g><g style="opacity:0.5"><path d="M263.11,240.41c-.58,8.31-1.25,16.08-2,23.16h20.19c2-7.08,3.84-14.85,5.38-23.16Z" style="fill:#fff"></path></g><g style="opacity:0.30000000000000004"><path d="M279.05,79.07a189.79,189.79,0,0,0-6.85-18.26H257.69c.9,5.44,1.76,11.56,2.57,18.26Z" style="fill:#fff"></path></g><g style="opacity:0.6000000000000001"><path d="M242.92,42.55h11c-1.73-6.36-3.44-9.86-4.92-9.86C246.85,32.69,244.8,36.19,242.92,42.55Z" style="fill:#fff"></path></g><g style="opacity:0.2"><path d="M265.24,157c-.16-9.87-.48-19.43-.93-28.57H233.44c-.35,9.14-.59,18.7-.71,28.57Z"></path></g><g style="opacity:0.5"><path d="M233.5,214.77c.36,9,.83,17.58,1.39,25.64h28.22c.56-8.06,1-16.64,1.39-25.64Z" style="fill:#fff"></path></g><g style="opacity:0.6000000000000001"><path d="M265.24,157H232.73q-.07,6.75-.08,13.67,0,7.71.1,15.19h32.5q.09-7.49.1-15.19Q265.35,163.79,265.24,157Z" style="fill:#fff"></path></g><g style="opacity:0.7000000000000001"><path d="M260.26,79.07c-.81-6.7-1.67-12.82-2.57-18.26H239.11c-.85,5.44-1.63,11.56-2.33,18.26Z" style="fill:#fff"></path></g><g style="opacity:0.2"><path d="M234.89,240.41c.58,8.31,1.25,16.08,2,23.16h24.18c.77-7.08,1.44-14.85,2-23.16Z"></path></g><g style="opacity:0.1"><path d="M264.31,128.47c-.47-9.5-1.07-18.55-1.78-27H234.86c-.58,8.48-1.06,17.53-1.42,27Z"></path></g><g style="opacity:0.2"><path d="M262.53,101.44c-.68-8-1.44-15.49-2.27-22.37H236.78c-.73,6.88-1.37,14.37-1.92,22.37Z"></path></g><g style="opacity:0.1"><path d="M239.38,282.32c.87,5.32,1.8,9.94,2.78,13.77h13.68c1-3.83,1.91-8.45,2.78-13.77Z" style="fill:#fff"></path></g><g style="opacity:0.8"><path d="M232.75,185.9c.13,10,.39,19.64.75,28.87h31c.36-9.23.62-18.89.75-28.87Z" style="fill:#fff"></path></g><g style="opacity:0.5"><path d="M236.91,263.57c.74,6.94,1.57,13.22,2.47,18.75h19.24c.9-5.53,1.73-11.81,2.47-18.75Z"></path></g><g style="opacity:0.6000000000000001"><path d="M257.69,60.81a185.6,185.6,0,0,0-3.77-18.26h-11a147.17,147.17,0,0,0-3.81,18.26Z" style="fill:#fff"></path></g><path d="M388.11,170.71s0-.76-.08-2.24c0-.75,0-1.67-.09-2.77s-.06-2.38-.2-3.82-.24-3.06-.38-4.85-.47-3.71-.74-5.81a144.21,144.21,0,0,0-2.84-14.35A138.81,138.81,0,0,0,378,119.49,133.56,133.56,0,0,0,368.32,100a140.2,140.2,0,0,0-35.39-39.15,139.07,139.07,0,0,0-58.38-25.61,142.3,142.3,0,0,0-54.23.61c-3.09.72-6.21,1.36-9.28,2.3s-6.15,1.89-9.23,2.92a139.5,139.5,0,0,0-35.14,18.67A138.68,138.68,0,0,0,137.22,89a138.19,138.19,0,0,0-11.37,18.1c-.8,1.6-1.69,3.17-2.43,4.82l-2.25,4.94c-1.36,3.36-2.75,6.72-3.86,10.2l-.88,2.6-.77,2.63-.75,2.65-.38,1.32-.31,1.35q-.63,2.68-1.25,5.38l-1,5.45a147.24,147.24,0,0,0-1.83,22.26A147.37,147.37,0,0,0,112,193c.33,1.82.65,3.64,1,5.46s.83,3.59,1.25,5.38l.31,1.34.38,1.33.76,2.64.76,2.64.88,2.6c1.11,3.48,2.51,6.84,3.86,10.21l2.25,4.93c.74,1.65,1.63,3.22,2.43,4.83a138.19,138.19,0,0,0,11.37,18.1,138.15,138.15,0,0,0,29.46,29.23,140,140,0,0,0,35.14,18.68c3.08,1,6.12,2.11,9.23,2.92s6.2,1.58,9.28,2.3a142.3,142.3,0,0,0,54.23.61,139.36,139.36,0,0,0,58.39-25.62,140.29,140.29,0,0,0,35.38-39.15A133.14,133.14,0,0,0,378,221.92a136.57,136.57,0,0,0,5.74-17.37,144.62,144.62,0,0,0,2.84-14.34c.27-2.11.55-4,.74-5.82s.27-3.4.38-4.84.18-2.72.2-3.82.06-2,.09-2.77c0-1.49.08-2.25.08-2.25s0,.76,0,2.25c0,.74,0,1.67-.06,2.77s0,2.38-.17,3.82-.23,3.07-.36,4.85-.46,3.72-.71,5.83c-.58,4.2-1.5,9-2.8,14.37A135.09,135.09,0,0,1,378.27,222a133.34,133.34,0,0,1-9.7,19.52,140.08,140.08,0,0,1-35.41,39.29,139.63,139.63,0,0,1-58.53,25.75,143,143,0,0,1-54.4-.57c-3.1-.72-6.24-1.37-9.32-2.31s-6.17-1.89-9.27-2.92a146.13,146.13,0,0,1-18.1-8,144.45,144.45,0,0,1-17.17-10.74,138.47,138.47,0,0,1-29.57-29.32,138.17,138.17,0,0,1-11.41-18.17c-.81-1.61-1.71-3.19-2.45-4.84l-2.26-5c-1.36-3.38-2.75-6.75-3.87-10.25l-.89-2.6-.76-2.65-.76-2.66-.38-1.33-.32-1.34q-.61-2.7-1.25-5.41l-1-5.48a148.32,148.32,0,0,1-1.83-22.35,148.19,148.19,0,0,1,1.84-22.34l1-5.48c.42-1.8.83-3.6,1.25-5.4l.32-1.35.38-1.33.76-2.65.76-2.65.89-2.6c1.11-3.5,2.51-6.87,3.87-10.25q1.14-2.48,2.26-5c.74-1.66,1.64-3.23,2.45-4.84a138.17,138.17,0,0,1,11.41-18.17,151.86,151.86,0,0,1,13.82-15.91,149.43,149.43,0,0,1,15.75-13.4,145.06,145.06,0,0,1,17.16-10.73,146.8,146.8,0,0,1,18.1-8c3.1-1,6.15-2.12,9.27-2.93s6.22-1.58,9.31-2.3a141.44,141.44,0,0,1,18.61-2.56,139.74,139.74,0,0,1,35.79,2,139.63,139.63,0,0,1,58.53,25.75,140.12,140.12,0,0,1,35.42,39.29,133.85,133.85,0,0,1,9.7,19.52A138.26,138.26,0,0,1,384,136.82a146.4,146.4,0,0,1,2.8,14.38c.25,2.1.53,4,.71,5.82s.25,3.4.36,4.85.16,2.72.17,3.83,0,2,.06,2.77C388.11,170,388.11,170.71,388.11,170.71Z" style="fill:#263238"></path><path d="M383.48,170.71s0-.75-.08-2.21c0-.73,0-1.64-.08-2.72s-.05-2.34-.19-3.76-.23-3-.36-4.76-.45-3.65-.69-5.72c-.56-4.13-1.42-8.87-2.67-14.13-.27-1.33-.7-2.66-1.07-4s-.74-2.79-1.2-4.22c-1-2.85-1.87-5.87-3.12-8.92s-2.57-6.21-4-9.47l-2.45-4.89c-.82-1.66-1.81-3.27-2.73-5A137.91,137.91,0,0,0,331,61.58c-1.85-1.56-3.89-2.93-5.87-4.41-1-.75-2-1.41-3.08-2.1L318.88,53c-2.17-1.29-4.36-2.63-6.62-3.87l-3.45-1.82-1.74-.9-1.79-.83A131,131,0,0,0,239,33.33,127.89,127.89,0,0,0,220.82,36a138.72,138.72,0,0,0-18.13,5.36,132.53,132.53,0,0,0-34.15,19.08A144.19,144.19,0,0,0,153.47,74a138.87,138.87,0,0,0-13.14,15.93,139,139,0,0,0-18.84,37.82,140.59,140.59,0,0,0-5,21.08,156.45,156.45,0,0,0-1.71,21.9,155,155,0,0,0,1.71,21.91,140.7,140.7,0,0,0,5,21.09,138.92,138.92,0,0,0,18.84,37.83,138.12,138.12,0,0,0,13.14,15.94A145.53,145.53,0,0,0,168.54,281a132.88,132.88,0,0,0,34.15,19.08,138.86,138.86,0,0,0,18.14,5.36A131.85,131.85,0,0,0,331,279.84a138,138,0,0,0,33.84-39.33c.92-1.69,1.9-3.3,2.73-5l2.44-4.89c1.45-3.26,2.89-6.38,4-9.48s2.15-6.06,3.11-8.91c.46-1.43.81-2.85,1.21-4.22s.79-2.71,1.06-4c1.25-5.26,2.11-10,2.67-14.12.24-2.07.53-4,.69-5.73s.25-3.34.36-4.76.16-2.68.19-3.76.05-2,.08-2.72c0-1.46.08-2.21.08-2.21s0,.75,0,2.21c0,.73,0,1.64-.06,2.72s0,2.34-.15,3.77-.22,3-.34,4.77-.43,3.66-.67,5.73a140.48,140.48,0,0,1-2.63,14.15c-.26,1.33-.68,2.66-1.05,4s-.74,2.8-1.19,4.24c-1,2.85-1.86,5.88-3.1,8.93s-2.56,6.23-4,9.51c-.79,1.6-1.61,3.23-2.43,4.9s-1.81,3.28-2.73,5a138,138,0,0,1-33.86,39.48,132.38,132.38,0,0,1-110.5,25.77,138.39,138.39,0,0,1-18.21-5.38,146.34,146.34,0,0,1-17.66-8.18,149.85,149.85,0,0,1-16.63-10.95,146.44,146.44,0,0,1-15.13-13.58,139,139,0,0,1-13.2-16,133.58,133.58,0,0,1-10.83-18.11A132.16,132.16,0,0,1,121,213.85a141.79,141.79,0,0,1-5-21.17,154.51,154.51,0,0,1-1.71-22,156,156,0,0,1,1.72-22,140.44,140.44,0,0,1,5-21.16,131.43,131.43,0,0,1,8.08-19.85,133.58,133.58,0,0,1,10.83-18.11,138.85,138.85,0,0,1,13.2-16A146.44,146.44,0,0,1,168.24,60a147.45,147.45,0,0,1,16.63-10.94,145.57,145.57,0,0,1,17.65-8.19,140.2,140.2,0,0,1,18.2-5.37A127.66,127.66,0,0,1,239,32.88a131.26,131.26,0,0,1,66.45,12.34l1.79.83L309,47l3.46,1.82c2.27,1.25,4.46,2.59,6.64,3.89l3.16,2.09c1,.69,2.1,1.35,3.09,2.11,2,1.48,4,2.85,5.88,4.42a138.16,138.16,0,0,1,33.87,39.48c.92,1.69,1.9,3.31,2.72,5l2.44,4.9c1.44,3.27,2.89,6.4,4,9.51s2.14,6.08,3.1,8.93c.45,1.44.8,2.86,1.19,4.24s.79,2.71,1.05,4a140.63,140.63,0,0,1,2.63,14.16c.24,2.07.52,4,.67,5.73s.23,3.35.34,4.77.13,2.68.15,3.76,0,2,.06,2.72C383.48,170,383.48,170.71,383.48,170.71Z" style="fill:#263238"></path><path d="M374,170.71s0-.72-.08-2.13,0-3.51-.23-6.26a153,153,0,0,0-3.26-23.82c-.48-2.57-1.27-5.22-2-8-.36-1.4-.85-2.81-1.28-4.27s-.88-2.94-1.44-4.43l-1.65-4.59c-.62-1.53-1.26-3.1-1.92-4.69s-1.4-3.19-2.15-4.82l-1.14-2.45c-.4-.82-.84-1.63-1.27-2.45A134.58,134.58,0,0,0,326.93,63.1a126.53,126.53,0,0,0-24-16.7A118.45,118.45,0,0,0,273.2,35.52a114.12,114.12,0,0,0-33.82-2.16c-2.92.18-5.82.65-8.76,1.06-1.47.22-2.92.56-4.38.83l-2.2.44c-.73.16-1.46.36-2.19.54A111.61,111.61,0,0,0,204.53,42a115.32,115.32,0,0,0-16.6,8.62,118.83,118.83,0,0,0-15.42,11.34C171.3,63,170,64,168.87,65.16l-3.52,3.38c-2.25,2.36-4.56,4.69-6.67,7.23a131.22,131.22,0,0,0-11.87,16,144.26,144.26,0,0,0-16.69,37.26,162.25,162.25,0,0,0-4.35,20.48,170.91,170.91,0,0,0-1.46,21.16,169.31,169.31,0,0,0,1.46,21.18,160.88,160.88,0,0,0,4.35,20.48,143.84,143.84,0,0,0,16.69,37.27,129.47,129.47,0,0,0,11.86,16c2.11,2.53,4.42,4.87,6.67,7.23l3.53,3.38c1.15,1.14,2.43,2.14,3.63,3.22a120.29,120.29,0,0,0,15.42,11.35,116,116,0,0,0,16.61,8.62,112.38,112.38,0,0,0,17.33,5.74c.73.19,1.45.38,2.18.55l2.2.44c1.47.27,2.92.61,4.38.83,2.94.4,5.85.88,8.77,1.05a113.81,113.81,0,0,0,33.82-2.15A118.61,118.61,0,0,0,302.94,295a126.85,126.85,0,0,0,24-16.7,134.91,134.91,0,0,0,30.65-39.66c.42-.82.86-1.63,1.26-2.45s.77-1.64,1.14-2.46c.75-1.62,1.54-3.2,2.16-4.81l1.92-4.69c.56-1.56,1.1-3.09,1.64-4.59s1-3,1.44-4.43.92-2.87,1.28-4.27c.7-2.82,1.48-5.47,2-8a154,154,0,0,0,3.25-23.82c.19-2.74.16-4.85.23-6.25s.08-2.14.08-2.14,0,.73,0,2.14,0,3.51-.17,6.26A151.3,151.3,0,0,1,370.59,203c-.47,2.57-1.25,5.23-1.95,8.05-.35,1.41-.83,2.81-1.26,4.28s-.87,2.95-1.44,4.44-1.07,3-1.63,4.6-1.26,3.11-1.91,4.71-1.41,3.19-2.15,4.82l-1.14,2.47c-.4.82-.84,1.63-1.26,2.45a135,135,0,0,1-30.66,39.8,126.84,126.84,0,0,1-24.06,16.78,118.4,118.4,0,0,1-29.83,11,114.31,114.31,0,0,1-34,2.19c-2.93-.18-5.85-.65-8.8-1.06-1.47-.21-2.93-.55-4.4-.83l-2.21-.43c-.74-.17-1.46-.37-2.19-.55a111.85,111.85,0,0,1-17.4-5.76,115.83,115.83,0,0,1-16.68-8.65,119.14,119.14,0,0,1-15.49-11.38c-1.21-1.08-2.49-2.09-3.65-3.24L165,273.23c-2.26-2.37-4.58-4.71-6.7-7.25a130.55,130.55,0,0,1-11.92-16.09,144.44,144.44,0,0,1-16.75-37.39,163.91,163.91,0,0,1-4.37-20.56,174.34,174.34,0,0,1-1.47-21.25,172.34,172.34,0,0,1,1.48-21.24,160.27,160.27,0,0,1,4.37-20.55,144.19,144.19,0,0,1,16.75-37.38A130.44,130.44,0,0,1,158.3,75.44c2.11-2.54,4.43-4.89,6.69-7.25l3.55-3.39c1.15-1.15,2.43-2.16,3.64-3.24a120.51,120.51,0,0,1,15.49-11.38,114.77,114.77,0,0,1,16.68-8.64,111,111,0,0,1,17.39-5.76c.73-.19,1.46-.38,2.19-.55l2.21-.44c1.48-.27,2.93-.61,4.41-.83,2.94-.4,5.86-.88,8.8-1.05a114.58,114.58,0,0,1,33.94,2.18,118.78,118.78,0,0,1,29.83,11,126.52,126.52,0,0,1,24.06,16.78,135,135,0,0,1,30.66,39.79c.43.83.87,1.64,1.27,2.46l1.14,2.47c.74,1.63,1.52,3.21,2.14,4.82l1.92,4.71,1.63,4.6c.57,1.49,1,3,1.44,4.44s.91,2.87,1.26,4.28c.7,2.82,1.48,5.48,1.95,8a151.39,151.39,0,0,1,3.17,23.87c.17,2.74.12,4.85.17,6.26S374,170.71,374,170.71Z" style="fill:#263238"></path><path d="M359.6,170.71s0-.68-.07-2,0-3.33-.18-5.93a176.71,176.71,0,0,0-2.62-22.65c-.22-1.22-.46-2.47-.7-3.75s-.58-2.58-.89-3.92c-.56-2.7-1.38-5.46-2.16-8.37a164.32,164.32,0,0,0-6.6-18.45,138.5,138.5,0,0,0-25.86-39.88c-1.47-1.66-3.13-3.16-4.73-4.77s-3.39-3-5.11-4.59A113.22,113.22,0,0,0,299.25,48a100,100,0,0,0-13-7c-2.32-1-4.63-2-7.06-2.8s-4.88-1.57-7.38-2.3a90.16,90.16,0,0,0-31.94-2.45l-2.07.2-2.07.32c-1.37.23-2.76.4-4.13.69l-4.13.92c-1.38.31-2.73.76-4.1,1.14a91.48,91.48,0,0,0-16,6.42,104.28,104.28,0,0,0-15,9.38,122.81,122.81,0,0,0-13.6,12,136.37,136.37,0,0,0-11.86,14.25,142.5,142.5,0,0,0-9.94,16.08c-11.93,22.5-18.25,48.88-18.26,75.87s6.32,53.4,18.25,75.91a144.88,144.88,0,0,0,9.94,16.08,138.9,138.9,0,0,0,11.86,14.25,125,125,0,0,0,13.61,12,106.06,106.06,0,0,0,15,9.38,92.27,92.27,0,0,0,16,6.42c1.38.37,2.72.83,4.1,1.13l4.13.92c1.37.3,2.76.46,4.14.7l2.06.32,2.07.2a90,90,0,0,0,32-2.46c2.5-.72,5-1.38,7.38-2.3s4.74-1.83,7-2.8a98.68,98.68,0,0,0,13-7A113.37,113.37,0,0,0,310.69,285c1.72-1.55,3.48-3,5.1-4.59s3.27-3.11,4.73-4.77a138.43,138.43,0,0,0,25.86-39.88,162.36,162.36,0,0,0,6.6-18.45c.78-2.91,1.6-5.67,2.16-8.37.31-1.34.6-2.64.9-3.92s.47-2.53.69-3.75a176.79,176.79,0,0,0,2.62-22.64c.13-2.61.13-4.6.18-5.94s.07-2,.07-2,0,2.74-.14,8a174,174,0,0,1-2.53,22.68c-.22,1.22-.45,2.47-.69,3.76s-.58,2.58-.88,3.93c-.55,2.69-1.37,5.47-2.14,8.38a163.06,163.06,0,0,1-6.57,18.49,138.47,138.47,0,0,1-25.86,40c-1.47,1.67-3.13,3.18-4.74,4.79s-3.39,3.06-5.11,4.61a112.64,112.64,0,0,1-11.47,8.43,100.16,100.16,0,0,1-13,7.07c-2.32,1-4.64,2-7.08,2.82s-4.9,1.59-7.41,2.32a90.37,90.37,0,0,1-32.1,2.49l-2.09-.19-2.07-.33c-1.38-.23-2.78-.4-4.16-.69l-4.15-.92c-1.39-.31-2.74-.77-4.12-1.14a92.44,92.44,0,0,1-16.13-6.44A106.22,106.22,0,0,1,192,289.33a124,124,0,0,1-13.66-12.06A135.14,135.14,0,0,1,166.45,263a141.34,141.34,0,0,1-10-16.14c-12-22.58-18.31-49.05-18.32-76.14s6.35-53.53,18.33-76.11a143.46,143.46,0,0,1,10-16.13,136.36,136.36,0,0,1,11.91-14.3A124,124,0,0,1,192,52.1a105.23,105.23,0,0,1,15.11-9.42,91.35,91.35,0,0,1,16.13-6.44c1.38-.38,2.73-.84,4.12-1.14l4.15-.92c1.38-.3,2.78-.46,4.16-.7l2.07-.32,2.08-.2a90.58,90.58,0,0,1,32.1,2.5c2.51.72,5,1.39,7.41,2.31s4.76,1.84,7.09,2.82a100,100,0,0,1,13,7.07,111.54,111.54,0,0,1,11.47,8.43c1.72,1.55,3.49,3,5.12,4.61s3.27,3.12,4.74,4.78a138.81,138.81,0,0,1,25.86,40,165.16,165.16,0,0,1,6.57,18.5c.77,2.91,1.58,5.69,2.14,8.38.3,1.35.6,2.66.88,3.93s.47,2.55.69,3.76a174,174,0,0,1,2.53,22.68C359.61,168,359.6,170.71,359.6,170.71Z" style="fill:#263238"></path><path d="M341.25,170.71s0-.64-.06-1.88-.07-3.11-.13-5.54c-.25-4.85-.6-12-1.91-21.18a189.44,189.44,0,0,0-7.66-32.73,158,158,0,0,0-7.89-19.45,138,138,0,0,0-12-20.23,104.54,104.54,0,0,0-17.44-19.06l-1.28-1.1-1.35-1-2.72-2.08c-1.92-1.26-3.78-2.65-5.83-3.78-1-.58-2-1.24-3.06-1.75l-3.17-1.6c-1.07-.53-2.19-.95-3.29-1.43-.55-.23-1.1-.48-1.66-.7l-1.71-.59L268.38,36l-.87-.3-.88-.23-3.56-1a68,68,0,0,0-7.34-1.19,60.51,60.51,0,0,0-15.2.2,67.12,67.12,0,0,0-15.13,4,72.48,72.48,0,0,0-14.2,7.58c-9.06,6.07-17,14.18-23.81,23.3A143.18,143.18,0,0,0,178.08,83a165.06,165.06,0,0,0-7.59,15.92c-9,22-13.42,46.63-13.48,71.81s4.51,49.81,13.48,71.83a167.39,167.39,0,0,0,7.58,15.92A144.37,144.37,0,0,0,187.39,273c6.83,9.13,14.74,17.24,23.81,23.3a72.28,72.28,0,0,0,14.2,7.59,68.13,68.13,0,0,0,15.14,4,60.5,60.5,0,0,0,15.2.2,68.88,68.88,0,0,0,7.34-1.2l3.55-.94.89-.24.86-.3,1.72-.59,1.72-.59c.56-.21,1.11-.46,1.66-.69,1.1-.49,2.22-.91,3.29-1.43l3.17-1.61c1.06-.51,2-1.17,3.06-1.74,2.05-1.13,3.91-2.53,5.83-3.79l2.72-2.07,1.35-1,1.28-1.1a104.9,104.9,0,0,0,17.44-19.06,138,138,0,0,0,12-20.23A156.4,156.4,0,0,0,331.49,232a189.44,189.44,0,0,0,7.66-32.73c1.31-9.15,1.66-16.32,1.91-21.18.06-2.43.1-4.28.13-5.53s.06-1.89.06-1.89,0,.64,0,1.89,0,3.11-.07,5.53c-.22,4.86-.54,12.05-1.82,21.21a188.18,188.18,0,0,1-7.58,32.79,156.72,156.72,0,0,1-7.87,19.5,138.34,138.34,0,0,1-12,20.31,104.42,104.42,0,0,1-17.47,19.14l-1.29,1.11-1.35,1.05-2.73,2.09c-1.93,1.27-3.8,2.67-5.86,3.8-1,.58-2,1.25-3.07,1.76L277,302.51c-1.07.53-2.2,1-3.31,1.44-.55.23-1.1.49-1.67.7l-1.72.6-1.74.6-.86.3-.89.23-3.58,1a69.59,69.59,0,0,1-7.4,1.21,60.91,60.91,0,0,1-15.31-.19,67.4,67.4,0,0,1-15.24-4,72.9,72.9,0,0,1-14.3-7.62c-9.12-6.1-17.08-14.24-23.94-23.41a144.3,144.3,0,0,1-9.36-14.62,168.55,168.55,0,0,1-7.62-16c-9-22.08-13.46-46.78-13.52-72s4.53-49.93,13.53-72a169.66,169.66,0,0,1,7.61-16A145.27,145.27,0,0,1,187,68.11c6.86-9.17,14.82-17.31,23.94-23.41a73.44,73.44,0,0,1,14.3-7.62,67.91,67.91,0,0,1,15.24-4,60.91,60.91,0,0,1,15.31-.2,69.41,69.41,0,0,1,7.39,1.21l3.58,1,.89.24.87.3,1.73.6,1.72.59c.57.22,1.12.47,1.68.7,1.1.49,2.23.92,3.3,1.44l3.19,1.62c1.07.52,2.05,1.18,3.08,1.76,2.06,1.14,3.92,2.54,5.85,3.8l2.73,2.1,1.36,1,1.28,1.11a104.48,104.48,0,0,1,17.48,19.14,137.81,137.81,0,0,1,12,20.3,156,156,0,0,1,7.88,19.51,188,188,0,0,1,7.58,32.79c1.28,9.17,1.6,16.35,1.82,21.21,0,2.43.06,4.28.07,5.54S341.25,170.71,341.25,170.71Z" style="fill:#263238"></path><path d="M319.32,170.71s0-.58-.05-1.73,0-2.86-.09-5.09c-.18-4.47-.38-11.07-1.26-19.53a238,238,0,0,0-5-30.53c-1.36-5.88-3-12.12-5.23-18.6a164.36,164.36,0,0,0-8.16-20A112.09,112.09,0,0,0,287,55a75.43,75.43,0,0,0-8.57-9.29A52.77,52.77,0,0,0,267.86,38a40.63,40.63,0,0,0-12.7-4.53,36.33,36.33,0,0,0-13.89.3A42.24,42.24,0,0,0,228,39.23a58.81,58.81,0,0,0-11.44,9.36A91.86,91.86,0,0,0,207,60.41a128.32,128.32,0,0,0-7.83,13.45c-2.37,4.69-4.44,9.58-6.38,14.58s-3.59,10.15-5.06,15.41a232.18,232.18,0,0,0-6.62,32.63,269.14,269.14,0,0,0,0,68.45,232.18,232.18,0,0,0,6.62,32.63c1.48,5.26,3.2,10.4,5.07,15.42s4,9.89,6.38,14.58A127.31,127.31,0,0,0,207,281a90.35,90.35,0,0,0,9.55,11.82A58.86,58.86,0,0,0,228,302.2a42.48,42.48,0,0,0,13.26,5.46,36.53,36.53,0,0,0,13.89.3,41.19,41.19,0,0,0,12.71-4.53,53.49,53.49,0,0,0,10.6-7.68,74.56,74.56,0,0,0,8.56-9.29,111.53,111.53,0,0,0,12.5-20.23,164.36,164.36,0,0,0,8.16-20c2.19-6.48,3.87-12.72,5.23-18.6a238,238,0,0,0,5-30.53c.88-8.45,1.08-15.05,1.26-19.52,0-2.24.07-3.94.09-5.09s.05-1.74.05-1.74,0,.59,0,1.74,0,2.86,0,5.09c-.14,4.47-.31,11.08-1.16,19.54a233.9,233.9,0,0,1-4.92,30.58,189.63,189.63,0,0,1-5.2,18.63,163.9,163.9,0,0,1-8.14,20.1,111,111,0,0,1-12.51,20.31,74,74,0,0,1-8.6,9.36,53.33,53.33,0,0,1-10.68,7.74,41,41,0,0,1-12.83,4.59,36.61,36.61,0,0,1-14.06-.29,42.61,42.61,0,0,1-13.41-5.5,59.18,59.18,0,0,1-11.54-9.43,91.19,91.19,0,0,1-9.61-11.88,128.55,128.55,0,0,1-7.88-13.51c-2.38-4.7-4.46-9.61-6.41-14.62s-3.6-10.19-5.08-15.46a233.47,233.47,0,0,1-6.64-32.7,269.62,269.62,0,0,1,0-68.59,232.06,232.06,0,0,1,6.65-32.7c1.47-5.27,3.21-10.41,5.08-15.45s4-9.92,6.41-14.62a127.75,127.75,0,0,1,7.87-13.51,91.1,91.1,0,0,1,9.61-11.87,59.41,59.41,0,0,1,11.53-9.43,43.07,43.07,0,0,1,13.41-5.51A37,37,0,0,1,255.23,33a41.36,41.36,0,0,1,12.84,4.59,53,53,0,0,1,10.67,7.74,74.85,74.85,0,0,1,8.61,9.36A112.43,112.43,0,0,1,299.86,75,165.62,165.62,0,0,1,308,95.13a189.63,189.63,0,0,1,5.2,18.63,235.61,235.61,0,0,1,4.92,30.58c.85,8.47,1,15.07,1.16,19.55,0,2.23,0,3.93,0,5.09S319.32,170.71,319.32,170.71Z" style="fill:#263238"></path><path d="M292.62,170.71s0-.53,0-1.57,0-2.58-.08-4.6c-.1-4-.29-10-.87-17.68s-1.54-17-3.3-27.81a281.92,281.92,0,0,0-8.28-36.12,200.2,200.2,0,0,0-7.28-20.28,102.72,102.72,0,0,0-11.17-20.44,40.17,40.17,0,0,0-3.95-4.62,19.55,19.55,0,0,0-4.88-3.69,9.09,9.09,0,0,0-2.91-.93,6.11,6.11,0,0,0-1.54,0l-1.56.12a16.7,16.7,0,0,0-3,.87c-.49.21-1,.37-1.46.61l-1.39.79a7.86,7.86,0,0,0-1.33.88l-1.3.95c-.8.72-1.63,1.41-2.39,2.19a43.55,43.55,0,0,0-4.2,5A74.35,74.35,0,0,0,225,56c-1.92,4.11-3.61,8.39-5.15,12.77s-2.86,8.9-4.08,13.49a283.38,283.38,0,0,0-5.82,28.5,404.74,404.74,0,0,0-4.3,61,397.35,397.35,0,0,0,4.64,61,263.54,263.54,0,0,0,6,28.46c1.24,4.58,2.65,9.07,4.24,13.44a112.62,112.62,0,0,0,5.36,12.68,66.54,66.54,0,0,0,7,11.39,28.26,28.26,0,0,0,9.78,8.36,16.33,16.33,0,0,0,6.1,1.44c.52,0,1-.07,1.56-.1l.78-.06.76-.18c.5-.12,1-.23,1.5-.37l1.44-.58c.24-.1.48-.18.71-.29l.68-.38,1.34-.76c.82-.61,1.68-1.17,2.45-1.83a35.45,35.45,0,0,0,4.25-4.33,58.71,58.71,0,0,0,6.53-9.89,102,102,0,0,0,4.83-10.39,171.53,171.53,0,0,0,6.69-20.47c1.75-6.65,3.11-13.05,4.23-19.14s2-11.86,2.69-17.27c1.4-10.83,2.13-20.21,2.57-27.89s.58-13.64.66-17.68c0-2,.05-3.56.06-4.61s0-1.57,0-1.57,0,.53,0,1.57,0,2.59,0,4.61c-.05,4-.15,10-.57,17.7s-1.11,17.06-2.48,27.91c-.68,5.42-1.53,11.2-2.65,17.29s-2.46,12.51-4.2,19.17a172.82,172.82,0,0,1-6.68,20.53,99.57,99.57,0,0,1-4.83,10.43,57.4,57.4,0,0,1-6.57,10,34.92,34.92,0,0,1-4.3,4.39c-.78.68-1.65,1.25-2.49,1.87l-1.38.78-.68.39c-.24.11-.49.2-.73.3l-1.48.59c-.51.15-1,.26-1.55.39l-.78.18-.8.07c-.54,0-1.07.11-1.61.1a15.87,15.87,0,0,1-3.21-.42,16.22,16.22,0,0,1-3.08-1c-4-1.85-7.2-5-10-8.49a67.29,67.29,0,0,1-7.1-11.47,112.34,112.34,0,0,1-5.39-12.72c-1.6-4.38-3-8.89-4.26-13.48a262.08,262.08,0,0,1-6.06-28.51,395.86,395.86,0,0,1-4.66-61.05,403.27,403.27,0,0,1,4.32-61.07,281.41,281.41,0,0,1,5.84-28.54q1.83-6.91,4.1-13.53a136.5,136.5,0,0,1,5.18-12.81,74.72,74.72,0,0,1,6.74-11.68,45.19,45.19,0,0,1,4.25-5.08c.77-.79,1.62-1.49,2.43-2.22l1.32-1a10,10,0,0,1,1.36-.9l1.42-.8c.49-.24,1-.41,1.5-.63a17.76,17.76,0,0,1,3.11-.88l1.61-.13a6.28,6.28,0,0,1,1.62,0,9.3,9.3,0,0,1,3,1,20,20,0,0,1,5,3.78A40.88,40.88,0,0,1,262,42a103.63,103.63,0,0,1,11.19,20.54,204.18,204.18,0,0,1,7.27,20.33,281.83,281.83,0,0,1,8.2,36.19c1.74,10.79,2.67,20.16,3.22,27.83s.71,13.65.77,17.7S292.62,170.71,292.62,170.71Z" style="fill:#263238"></path><path d="M265.35,170.71s0-.49,0-1.45,0-2.4-.05-4.27c0-3.75-.11-9.28-.31-16.4-.42-14.24-1.23-34.86-3.84-60.21-.67-6.33-1.46-13-2.44-19.84s-2.16-14-3.82-21.31a70.73,70.73,0,0,0-3.24-10.9,11.91,11.91,0,0,0-1.36-2.51,2.4,2.4,0,0,0-1-.86,1.69,1.69,0,0,0-1.23.23,5.76,5.76,0,0,0-1.91,2.06,18.89,18.89,0,0,0-1.32,2.62,69.09,69.09,0,0,0-3.38,11.61c-.86,4-1.57,8.1-2.21,12.25-2.48,16.66-3.88,34.3-4.88,52.59s-1.42,37.28-1.42,56.71.48,38.42,1.46,56.72,2.42,35.95,4.94,52.59c.64,4.16,1.37,8.25,2.25,12.25a63.49,63.49,0,0,0,3.5,11.56,15.61,15.61,0,0,0,1.42,2.57,4.09,4.09,0,0,0,2.11,1.74,2.54,2.54,0,0,0,2.36-1,11.24,11.24,0,0,0,1.56-2.38,52.79,52.79,0,0,0,3.56-10.78c1.71-7.28,2.78-14.44,3.71-21.32s1.58-13.53,2.15-19.88c2.21-25.38,2.77-46,3.1-60.24.16-7.12.21-12.66.25-16.41,0-1.87,0-3.29,0-4.26s0-1.46,0-1.46,0,.5,0,1.46,0,2.39,0,4.26c0,3.75,0,9.29-.14,16.41-.27,14.25-.78,34.88-2.94,60.28-.56,6.34-1.23,13-2.12,19.89s-2,14.07-3.69,21.37a53.18,53.18,0,0,1-3.58,10.89,12,12,0,0,1-1.63,2.47,4.32,4.32,0,0,1-1.21.95,2.34,2.34,0,0,1-1.58.21,4.5,4.5,0,0,1-2.38-1.92,16.61,16.61,0,0,1-1.47-2.64,63.22,63.22,0,0,1-3.53-11.64c-.9-4-1.63-8.12-2.27-12.28-2.54-16.68-4-34.33-5-52.64s-1.46-37.3-1.47-56.75.46-38.43,1.43-56.74,2.42-35.95,4.92-52.63c.64-4.16,1.35-8.27,2.22-12.28a70.79,70.79,0,0,1,3.41-11.68A18.89,18.89,0,0,1,245.74,35a6.14,6.14,0,0,1,2.08-2.22,2,2,0,0,1,1.59-.25,2.82,2.82,0,0,1,1.21,1,12.64,12.64,0,0,1,1.41,2.6,71.13,71.13,0,0,1,3.25,11c1.66,7.32,2.8,14.47,3.8,21.36s1.75,13.52,2.4,19.86c2.57,25.36,3.33,46,3.68,60.23.17,7.13.21,12.66.22,16.41,0,1.87,0,3.3,0,4.27S265.35,170.71,265.35,170.71Z" style="fill:#263238"></path><path d="M387.43,157c0,.14-61.92.26-138.28.26s-138.3-.12-138.3-.26,61.91-.26,138.3-.26S387.43,156.89,387.43,157Z" style="fill:#263238"></path><path d="M387.43,185.9c0,.15-61.92.26-138.28.26s-138.3-.11-138.3-.26,61.91-.26,138.3-.26S387.43,185.76,387.43,185.9Z" style="fill:#263238"></path><path d="M380.87,214.77c0,.14-59,.26-131.86.26s-131.88-.12-131.88-.26,59-.26,131.88-.26S380.87,214.63,380.87,214.77Z" style="fill:#263238"></path><path d="M369.1,240.41c0,.14-54.07.26-120.75.26s-120.75-.12-120.75-.26,54.05-.26,120.75-.26S369.1,240.26,369.1,240.41Z" style="fill:#263238"></path><path d="M351.35,263.57c0,.14-46.2.26-103.19.26s-103.2-.12-103.2-.26,46.19-.26,103.2-.26S351.35,263.43,351.35,263.57Z" style="fill:#263238"></path><path d="M331.1,282.32a2.3,2.3,0,0,1-.43,0l-1.25,0-4.81.05-17.7.08-58.39.08-58.41-.08-17.69-.08-4.82-.05-1.25,0-.42,0,.42,0,1.25,0,4.82,0,17.69-.08,58.41-.08,58.39.08,17.7.08,4.81,0,1.25,0A2.3,2.3,0,0,1,331.1,282.32Z" style="fill:#263238"></path><path d="M307.24,296.09a1.16,1.16,0,0,1-.3,0l-.9,0-3.43.05-12.65.08-41.71.08-41.73-.08-12.64-.08-3.44-.05-.89,0a1.3,1.3,0,0,1-.31,0l.31,0,.89,0,3.44-.05,12.64-.08,41.73-.08,41.71.08,12.65.08L306,296l.9,0Z" style="fill:#263238"></path><path d="M381.47,128.47c0,.14-59.31.26-132.46.26s-132.48-.12-132.48-.26,59.3-.27,132.48-.27S381.47,128.32,381.47,128.47Z" style="fill:#263238"></path><path d="M369.35,101.44c0,.15-53.89.26-120.34.26s-120.35-.11-120.35-.26,53.87-.26,120.35-.26S369.35,101.3,369.35,101.44Z" style="fill:#263238"></path><path d="M353.82,79.07c0,.15-46.75.26-104.41.26S145,79.22,145,79.07s46.74-.26,104.42-.26S353.82,78.93,353.82,79.07Z" style="fill:#263238"></path><path d="M333.62,60.81l-.43,0-1.28,0-4.92,0L308.9,61l-59.67.08L189.55,61l-18.08-.08-4.92,0-1.28,0a2.3,2.3,0,0,1-.43,0,2.3,2.3,0,0,1,.43,0l1.28,0,4.92,0,18.08-.08,59.68-.08,59.67.08,18.09.08,4.92,0,1.28,0A2.43,2.43,0,0,1,333.62,60.81Z" style="fill:#263238"></path><path d="M300.74,42.55c0,.14-23.26.26-51.93.26s-51.94-.12-51.94-.26,23.25-.26,51.94-.26S300.74,42.4,300.74,42.55Z" style="fill:#263238"></path><path d="M210.69,73.47l10.88,4.09-9.45,2.68a9.86,9.86,0,0,0-6.68,6.42L202,108.08l-4.2-21.46A9.86,9.86,0,0,0,192,81l-9.56-3.47,10.35-4.25a9.84,9.84,0,0,0,5.45-5.58L202,50.06l2.69,17A9.86,9.86,0,0,0,210.69,73.47Z" style="fill:#fff"></path><path d="M149.59,260.21s-.11-.12-.3-.37-.49-.63-.84-1.1c-.72-1-1.86-2.38-3.15-4.31a142.48,142.48,0,0,1-10.11-16.8c-1-1.82-1.86-3.81-2.85-5.85s-1.85-4.23-2.8-6.47c-1.77-4.54-3.57-9.43-5-14.71A146.13,146.13,0,0,1,121.75,140c1.07-5.38,2.48-10.4,3.9-15.07.78-2.31,1.5-4.55,2.29-6.67s1.54-4.15,2.39-6a142.82,142.82,0,0,1,8.77-17.54c1.14-2,2.17-3.5,2.81-4.54l.75-1.16.28-.39s-.07.15-.23.42L142,90.21c-.61,1.06-1.61,2.55-2.72,4.58a151.29,151.29,0,0,0-8.61,17.58c-.84,1.89-1.54,3.94-2.35,6s-1.49,4.36-2.26,6.66c-1.39,4.66-2.79,9.67-3.84,15A147,147,0,0,0,125,210.47c1.46,5.26,3.24,10.15,5,14.68.94,2.24,1.82,4.42,2.77,6.46s1.83,4,2.81,5.85a151.73,151.73,0,0,0,9.94,16.86c1.27,1.94,2.38,3.35,3.07,4.36l.8,1.13C149.51,260.07,149.59,260.21,149.59,260.21Z" style="fill:#fff"></path><path d="M295.32,183.34a79.53,79.53,0,0,1,.24-9.25,84.75,84.75,0,0,1,.76-9.22,79.53,79.53,0,0,1-.24,9.25A84.44,84.44,0,0,1,295.32,183.34Z" style="fill:#fff"></path><path d="M324.44,180.49a13.58,13.58,0,0,1,.15-2.36c.13-1.44.29-3.43.37-5.64s.07-4.21.05-5.66a11.49,11.49,0,0,1,0-2.36,9.08,9.08,0,0,1,.33,2.34,47.69,47.69,0,0,1,.11,5.7,48.26,48.26,0,0,1-.53,5.67A8.91,8.91,0,0,1,324.44,180.49Z" style="fill:#fff"></path><path d="M347.39,179.67c-.16,0,.45-3.49.5-7.8s-.43-7.78-.28-7.81a8.21,8.21,0,0,1,.47,2.26,37.24,37.24,0,0,1,.33,5.56,38.13,38.13,0,0,1-.49,5.54A8.81,8.81,0,0,1,347.39,179.67Z" style="fill:#fff"></path></g></svg>