<svg xmlns="http://www.w3.org/2000/svg" viewBox="0 0 500 500"><g id="freepik--fire-ball--inject-708"><path d="M196.74,413.73c-1.79-14-13.14-32.26-33.82-46.08-17.51-11.7-24.18-23.06-30.57-28.18-5.31-4.26-16.42-17.63-20-22,.16-2.66,2.54-12.14-1.78-16.29-4.76-4.56-13.24-9-15.47-22.38-2.17-13-2.71-25.21.4-47.45,0,0,12-29.71,19.45-34.84,6.69-4.59,9.47-3.35,18.85-14.32s4-12.43,6.06-23.57,18.48-18.43,15-21.84-10.05,7.17-16.44,2.86-3.64-12.92,1.33-21.89,16.72-5.72,27.68-17,9.22-24.27,8.87-27.75,7.87-3.85,11-7.71-2.56-2.48-2.56-2.48c-24.11,1.78-36.86,17.73-45,28A62.48,62.48,0,0,0,128,116.38c-1.21,5.1-8.89,25.21-15.21,26.61s-6.09-5.27-5.27-10.74,10.7-12.19,14.12-17.64,2.74-9.88,1.41-11.8-5.28,5.54-11.89,12.29S94.7,118,87.82,125.74s-7,22-9.12,32.51a16.32,16.32,0,0,1-2.78,5.95,52.4,52.4,0,0,0-9.51,31.28c-1.41,2.38-4.28,6.53-9,7.24-6.31.93-8.17-1.54-8.57-5.23s2.9-10.45,2.77-14.18-3.45,2.77-8,9.67-21.27,23.35-20.35,39.54,2.71,15.46,2.69,25.33c0,9.39-10,31.63-.68,59.51.14,2.63.3,5.35.5,7.77.68,8.27.08,18.22,1.12,24.44s3.57,12.65,10.8,14.11,3.54,5.21,7,13.4c2.07,4.87,7.07,11.4,10.78,15.9,1,2.3,2,4.52,3,6.57,2.08,6.87,4.53,14.67,5.25,15.79,1.31,2,4.25,2.48,7.86,3s3.72-.14,6.64,1.92,2.85,4.12,4.66,4.39-.11-2.33-1-5.69A5.76,5.76,0,0,1,87,412.13c3,0,13.61,18.66,13.4,19.32s-.62,3.38-3.65,2a40.57,40.57,0,0,0-4.57-1.84s-1.07,5.62,1.27,8.51c1.57,1.94,6.92,3.82,10.25,4.85a7,7,0,0,0,1.89,1.36c11,5.41,33.28,18.38,47.71,18.38,22.72,0,36.89-12,42-34C196,427.17,197,415.72,196.74,413.73ZM48,217.91c-1.06,4.35-6.2,13.37-10.48,16.2s-2.93-2.06-3.79-8.58,1.08-8.93,4.64-13.72,7.44-3.33,8.6-3.63C47,208.18,49.06,213.55,48,217.91Zm57.85-45.09c2.73-5.27,21.44-29.57,27.1-24.5s-14.44,36.08-20.38,39.61l-.17.11a5.25,5.25,0,0,1-7.89-4.34C104.34,179.83,104.51,175.39,105.85,172.82Zm-31.21,134C73.32,301.52,76.18,294.05,77,296a103.68,103.68,0,0,0,6.71,12.93l3.18,13.31S76,312.16,74.64,306.84Z" style="fill:#FFC100"></path><g style="opacity:0.30000000000000004"><path d="M104.26,197.85s-.47.6-1.29,1.7A11.56,11.56,0,0,0,104.26,197.85Z" style="fill:#fff"></path><path d="M141.57,375.17c-9.23,0,1.71-15.51-5.35-21.7-21.88-19.16-19.15-10.91-19.15-10.91a76,76,0,0,1,3.86,6.68c1.94,3.79.51,22.1.51,22.1s-6.22-.57-14.54-6.45-7.33-22.61-7.33-22.61-22.11-9.34-29-22.45-2.93-24.61,3-32.32,13.39,7.19,13.39,7.19-2.84-6.47-7-33.72c-3.6-23.74,17.51-54,23-61.43a13.23,13.23,0,0,1-14,3.92c-10.46-2.87-3.49-27.41-3.49-27.41s-7.42,17-14.55,25.18-9.77,12.94-9.77,12.94,2.8,14.66,2,24-9.91,16.75-16.27,20.5-11.07-5.59-11.07-5.59a60.1,60.1,0,0,0,.84,7.91c.73,3.93,1.66,6.9.57,22.4s-.38,45.89,1.94,56.11,15.78,4.78,21.65,13.69.45,28.13,8.8,38.18,26,9.85,26.62,11.29c4.85,11.37,10.29,20,15.93,26.61h0c.8.92,1.31,5.07.61,5.72s-9.9,5.54-11.2,4.12,1.34,3.92,6.57,4.53,9.29,1.12,8.55,2.14c0,0,15.62,12.18,20.4,11.48,7.07,2.58,17,6,24.29,5.47,23.4-6.56,25.92-16.21,30.53-27.46s-.55-27.65-.55-27.65S179.26,375.32,141.57,375.17Z" style="fill:#fff"></path></g><path d="M52.9,169.48a11.94,11.94,0,0,0,0-7.89,23.34,23.34,0,0,1,1.3-16.8c2.76-5.16,4.1-4,4.1-4s-1,6.6,1.07,11.64,2.46,9.13-.73,13.71S52.9,169.48,52.9,169.48Z" style="fill:#fff"></path><path d="M227.58,112.38s-13.48-5.88-21.4,0-2.76,7.74-10.26,12.18-4,6.92-4,6.92,11,4.61,19.06-1,5.6-10,11.08-14.05Z" style="fill:#fff"></path><path d="M174.81,113.85s-5.49.39-7.87,3.28-5.37,6.3-4.31,9.29,3.5,3.76,5,1.4S174.81,113.85,174.81,113.85Z" style="fill:#fff"></path><path d="M53.77,307.89c-.42,1.17-2,12.05.38,19.9,3,9.83,5.67,18.53,11.33,18.36s8.74-3.72,11.53,1.15,6.16,11.63,3.86,12.59S68.24,358.56,67,357.11s-.44,2,2.44,6.28S80.36,371,84.92,374s9.91,9.44,11.81,8.86S93.18,372.24,90.94,369,87,358.79,87,358.79s5.09-6.63,3.59-8.64-15-8.94-21.47-12.4-6.81-2.71-9.63-10.24S53.77,307.89,53.77,307.89Z" style="fill:#fff;opacity:0.30000000000000004"></path><path d="M87,171.63s-.65-7.7-.72-13.1,4-3.3,8-9.46,6-18.55,6-18.55,3.08,19.44,2.26,21.22c0,0-5.38.74-8.16,3.74s-3.6,11.19-4.48,14S87,171.63,87,171.63Z" style="fill:#fff;opacity:0.30000000000000004"></path><path d="M101.24,397.73s.12,6.94,4.38,10,7.61,7.27,7.18,11.36,1.25,20.12,7.51,28.36,29.3,14.18,41.54,11.82c19.52-3.76,23-6.49,28.4-20.69s4.16-26.55-.36-33.42-20.7-25.68-31-26.05-17,.15-22.2-.62S124,365.46,122.53,367.09s-.84,5.67.9,9.53,11.61,11.06,11.17,14-4.52,10.48-9.91,8.4-11.54-3.67-13.81-6.13-5.65-8.65-7.53-9.94-1.53,6.82,1,10,5.93,7.4,4.35,7.7S102,399.55,101.24,397.73Z" style="fill:#fff;opacity:0.30000000000000004"></path><path d="M107.92,334.11a.94.94,0,0,1-1.43,1.05c-3.09-2.09-8.43-5.74-8.21-5.9s-6.07-8.73-6.55-13.13-1.62-8.8-1.14-10.7S98,323.2,101.72,323.52C104.38,323.75,106.78,330.38,107.92,334.11Z" style="fill:#fff;opacity:0.30000000000000004"></path><path d="M145.87,96.8s-1.9-3.45-.25-6.61,16.6-15.72,16.6-15.72l10.52-4.1-8.82,10.41s4.6,4.31,1.51,9S145.87,96.8,145.87,96.8Z" style="fill:#fff;opacity:0.30000000000000004"></path><path d="M56.74,293.67s-.67-12.13-.12-17.37,6.89-8.13,6.89-8.13,1.8-14.61,2.55-16.17S78,230.42,78,230.42,70.35,249,69.76,253.83s-1.09,20.45-1.09,20.45S58,278.18,56.74,293.67Z" style="fill:#fff;opacity:0.30000000000000004"></path><path d="M250.72,49.84s-21.69.2-24.4,6,0,4.19-3,7.94-21.94,13.57-24.84,17.84S226.6,89.31,228,88.09s-1.67-.85,2.73-3.46,16.62-3.26,21.18-6.68.81.17-6.33-2.65-7.44-9.16-5.59-13.78,5.65-3.5,8.9-7S250.72,49.84,250.72,49.84Z" style="fill:#FFC100"></path><path d="M291.25,60.76S276.12,54.43,268,65.33c0,0,6.32.31,9.61,3.84C277.59,69.17,284.73,63.1,291.25,60.76Z" style="fill:#FFC100"></path><path d="M275.1,39.12s-9.76,8.21-6.83,8.65,7.83-4.58,7.83-4.58Z" style="fill:#FFC100"></path><path d="M178.6,404c-4.18-2.09-9.4-5.22-14.62-5.22H153c-4.18,0-8.36-3.13-8.36-3.13s-3.13,4.7,1.05,9.92,10.8,6.26,12.18,9.39-.17,6.79-.17,6.79-8.36,3.66-9.92,0-7.83-3.13-7.83-3.13l-4.7,4.76-8.36-4.79c-1.56,1.59,6.79,7.86,6.79,9.95s-1,12,1,14.09,11,10,21.42,11,19.78-2.73,23.48-5.8c6.28-5.22,8.74-15.59,9.06-19.78C189.44,418.43,182.78,406.13,178.6,404Zm-20.07,5.33c-3-.28-6.32-5.5-6.32-5.5l10.45,2.2,1.92,4.53A32.5,32.5,0,0,0,158.53,409.37Z" style="fill:#fff;opacity:0.5"></path><path d="M180.8,427.66c-1.4-5.1-5-9.41-10.66-9.68-1.56,0-2.71.59-2.66,1.85s.75,2.43.86,3.69a5.91,5.91,0,0,1-2.8,5,39.58,39.58,0,0,1-5.36,2.71,8.26,8.26,0,0,0-4.26,4.05,6.17,6.17,0,0,0,.85,5.61,10,10,0,0,0,4.66,3.5A14.92,14.92,0,0,0,176.34,442,14.36,14.36,0,0,0,180.8,427.66Z" style="fill:#fff"></path><path d="M117.86,405.55s4,10.92,6.34,10.06,7.25-2.78,7.25-2.78l4.13,2.78a9.64,9.64,0,0,0-3.79-4.73c-2.63-1.42-8.18.46-8.18.46Z" style="fill:#fff;opacity:0.5"></path><path d="M101.79,107.61c-.13-.68-.65-1.13-1.09-.93h0a1.68,1.68,0,0,0-.58,1.71c.14.68.66,1.11,1.1.9A1.66,1.66,0,0,0,101.79,107.61Z" style="fill:#FFC100"></path><path d="M240,112.2c-.13-.68-.65-1.13-1.09-.93h0a1.69,1.69,0,0,0-.58,1.71c.14.68.66,1.11,1.1.9A1.66,1.66,0,0,0,240,112.2Z" style="fill:#FFC100"></path><path d="M151.1,162.22c-.13-.68-.64-1.13-1.09-.93h0a1.68,1.68,0,0,0-.57,1.71c.13.68.65,1.11,1.09.9A1.63,1.63,0,0,0,151.1,162.22Z" style="fill:#FFC100"></path><path d="M174.61,361.12c-.12-.68-.64-1.13-1.08-.93h0a1.68,1.68,0,0,0-.58,1.71c.14.68.66,1.11,1.1.9A1.64,1.64,0,0,0,174.61,361.12Z" style="fill:#FFC100"></path><path d="M82.64,434.31c-.12-.69-.64-1.13-1.08-.94h0a1.68,1.68,0,0,0-.58,1.71c.14.68.66,1.11,1.1.91A1.66,1.66,0,0,0,82.64,434.31Z" style="fill:#fff"></path><path d="M261.18,38.34c-.13-.69-.65-1.13-1.09-.94h0a1.69,1.69,0,0,0-.58,1.71c.14.68.66,1.11,1.1.91A1.68,1.68,0,0,0,261.18,38.34Z" style="fill:#FFC100"></path><path d="M192.82,51.3c-.13-.68-.65-1.13-1.09-.94l0,0a1.67,1.67,0,0,0-.58,1.7c.14.69.66,1.12,1.1.91A1.66,1.66,0,0,0,192.82,51.3Z" style="fill:#FFC100"></path><path d="M120.47,92.77v.08a.28.28,0,0,0,0,.15.27.27,0,0,0,.19.19.28.28,0,0,0,.15,0l.1,0a.32.32,0,0,0,.16-.09l.06-.08a.32.32,0,0,0,0-.19v-.08a.27.27,0,0,0,0-.15.28.28,0,0,0-.08-.12.36.36,0,0,0-.12-.08.32.32,0,0,0-.14,0l-.1,0a.4.4,0,0,0-.17.09l-.06.08a.41.41,0,0,0,0,.19Z" style="fill:#FFC100"></path><path d="M182.45,88.26v.08a.4.4,0,0,0,0,.15.42.42,0,0,0,.08.12l.12.08a.37.37,0,0,0,.15,0l.1,0a.37.37,0,0,0,.16-.09l.06-.08a.41.41,0,0,0,0-.19v-.08a.4.4,0,0,0,0-.15.42.42,0,0,0-.08-.12.24.24,0,0,0-.12-.07.23.23,0,0,0-.14,0l-.1,0a.35.35,0,0,0-.17.09l-.06.08a.41.41,0,0,0-.05.19Z" style="fill:#FFC100"></path><path d="M73.92,429.14v.39a.32.32,0,0,0,0,.14.37.37,0,0,0,.2.2.32.32,0,0,0,.14,0h.1a.37.37,0,0,0,.17-.1.36.36,0,0,0,.11-.26v-.39a.37.37,0,0,0,0-.15.37.37,0,0,0-.2-.2.37.37,0,0,0-.15,0h-.1a.39.39,0,0,0-.16.1.37.37,0,0,0-.11.27Z" style="fill:#FFC100"></path><path d="M109.24,292.47a11.91,11.91,0,0,0-1.68-7.7,23.36,23.36,0,0,1-2.29-16.7c1.59-5.62,3.15-4.78,3.15-4.78s.46,6.64,3.52,11.14,4.34,8.39,2.19,13.55S109.24,292.47,109.24,292.47Z" style="fill:#FFC100"></path><path d="M162.82,354.58s-8.41-1.95-13.78-12.3-7.27-28.18-8-30.47S137,300.38,137,300.38s15.43,11.17,19.39,21.66S162.82,354.58,162.82,354.58Z" style="fill:#FFC100"></path><path d="M22.87,369.78c-.26-.64-.86-1-1.25-.7l0,0a1.69,1.69,0,0,0-.22,1.79c.27.64.87,1,1.26.67A1.65,1.65,0,0,0,22.87,369.78Z" style="fill:#FFC100"></path><path d="M14.29,335.43l.08.38a.24.24,0,0,0,.07.13.22.22,0,0,0,.1.09.24.24,0,0,0,.14.05.26.26,0,0,0,.15,0l.09,0a.27.27,0,0,0,.13-.13l0-.09a.34.34,0,0,0,0-.2c0-.13-.05-.25-.08-.38a.31.31,0,0,0-.06-.13.52.52,0,0,0-.11-.1.33.33,0,0,0-.14,0,.26.26,0,0,0-.15,0l-.09,0a.44.44,0,0,0-.13.14l0,.09a.34.34,0,0,0,0,.2Z" style="fill:#FFC100"></path></g></svg>