<svg xmlns="http://www.w3.org/2000/svg" viewBox="0 0 500 500"><g id="freepik--background-complete--inject-690"><g style="opacity:0.4"><path d="M453,218.5c-1.47-3.34-3.08-6.66-4.69-10-3.21-6.7-6.41-13.52-9.16-20.63a165.72,165.72,0,0,1-7-22.07c-.46-1.9-.86-3.82-1.25-5.74s-.71-4-1.05-5.58c-.68-3.41-1.52-6.74-2.48-10a93,93,0,0,0-3.35-9.35,73.54,73.54,0,0,0-4.17-8.6,72.3,72.3,0,0,0-10.71-14.65c-8.08-8.68-18.7-14.83-30.5-18.72-2.94-1-6-1.78-9-2.45-1.52-.33-3-.62-4.52-.88l-2.71-.43c-1-.17-2-.31-3-.52a129.11,129.11,0,0,1-23.86-6.85,164.55,164.55,0,0,1-21.5-10.77c-6.56-3.81-12.47-7.39-18.39-10.22a97.41,97.41,0,0,0-9-3.81c-1.52-.57-3.06-1.08-4.61-1.57L279.82,55c-.66-.19-1.31-.38-2-.54a32.74,32.74,0,0,0-7.75-1,24,24,0,0,0-7.2,1.14,17.36,17.36,0,0,0-10.48,9.09,20.83,20.83,0,0,0-2,7.76,30.43,30.43,0,0,0,.89,8.92A48.52,48.52,0,0,0,260.25,98a62.15,62.15,0,0,0,15.2,14,94,94,0,0,0,19.06,9.43c6.75,2.53,13.79,4.51,21,6.56s14.65,4.19,22.13,8a47.36,47.36,0,0,1,10.86,7.45c.84.79,1.66,1.62,2.45,2.48s1.52,1.8,2.2,2.7c1.36,1.8,2.54,3.59,3.64,5.38a154.24,154.24,0,0,1,10.44,21.19c1.45,3.51,2.85,7,4.14,10.5s2.6,7,3.81,10.42c4.88,13.84,9.23,27.52,14.16,40.34a138.39,138.39,0,0,0,8.24,18,49,49,0,0,0,5,7.43,26.43,26.43,0,0,0,2.86,3c.49.47,1,.87,1.51,1.29l.78.58c.29.21.67.43,1,.64a37.61,37.61,0,0,0,17.61,6.06A25.18,25.18,0,0,0,440,270.3a27.55,27.55,0,0,0,4-2.84c5.15-4.28,8.78-10.64,10.74-17.46a55.6,55.6,0,0,0,1.54-21.4A39.46,39.46,0,0,0,453,218.5Zm5.33,32.36a47.73,47.73,0,0,1-9.56,21.24,35.08,35.08,0,0,1-4.31,4.4,34.14,34.14,0,0,1-5.09,3.7,37.19,37.19,0,0,1-12,4.54,44.71,44.71,0,0,1-12.9.58A59.39,59.39,0,0,1,402,282.7c-.51-.17-1-.31-1.53-.51l-1.69-.66a35.36,35.36,0,0,1-3.22-1.55,43.32,43.32,0,0,1-5.87-3.78,48.35,48.35,0,0,1-5.1-4.39c-1.59-1.53-3.05-3.12-4.45-4.73a104,104,0,0,1-13.26-20.57c-7.05-14.14-11.64-28.64-15.59-42.92-1-3.57-1.9-7.14-2.8-10.69l-2.66-10.54c-.91-3.47-1.76-6.93-2.73-10.27s-1.91-6.64-3.05-9.65c-.57-1.51-1.17-2.95-1.8-4.25-.31-.65-.63-1.25-.95-1.84s-.71-1.18-1.1-1.76a31,31,0,0,0-6.18-6.54c-5-4-11.45-7.27-18.1-10.13-13.36-5.82-27.93-10.41-41.22-18.44a101.69,101.69,0,0,1-9.64-6.62,86.35,86.35,0,0,1-8.78-7.92A70.45,70.45,0,0,1,238.4,85a45.8,45.8,0,0,1-3.57-12.66,37.82,37.82,0,0,1,.76-14.07,35.2,35.2,0,0,1,6.53-13.34,37.72,37.72,0,0,1,11.52-9.74,43,43,0,0,1,14-4.7,50.31,50.31,0,0,1,14.28-.15c1.17.14,2.31.33,3.46.53l3,.62c2,.45,4,.93,6,1.49a118.81,118.81,0,0,1,11.74,3.92c7.64,3,14.64,6.57,21.1,9.68a146,146,0,0,0,18.6,7.8,114.55,114.55,0,0,0,18.83,4.49l5.2.76c2.15.32,4.26.69,6.35,1.16a99.2,99.2,0,0,1,12.32,3.46,96.26,96.26,0,0,1,23.09,11.63,85,85,0,0,1,19.14,18.06A76.41,76.41,0,0,1,442.86,117a87.61,87.61,0,0,1,4.07,24.62,107,107,0,0,1-.36,12c-.16,2.08-.35,3.67-.51,5.46s-.27,3.52-.33,5.28a107.32,107.32,0,0,0,1.15,21.36c.59,3.56,1.28,7.12,2.2,10.64s2,7,3.19,10.48,2.52,6.91,3.8,10.41c.63,1.75,1.28,3.5,1.83,5.32a30.6,30.6,0,0,1,1.27,5.69A77,77,0,0,1,458.37,250.86Z" style="fill:#ebebeb"></path><path d="M142.45,432.84l-6.41-.93c-2.14-.32-4.28-.62-6.42-1s-4.28-.72-6.43-1.07-4.28-.76-6.43-1.14A212.62,212.62,0,0,1,91,422.48a120.45,120.45,0,0,1-12.77-4.85,84.31,84.31,0,0,1-12.38-6.91A73.67,73.67,0,0,1,60,406.28c-.95-.82-1.85-1.71-2.77-2.57-.46-.44-.93-.87-1.38-1.33l-1.28-1.44a52.39,52.39,0,0,1-8.84-13.23c-.57-1.25-1.13-2.5-1.65-3.77s-.85-2.62-1.27-3.94c-.2-.66-.42-1.32-.59-2l-.43-2c-.28-1.36-.59-2.72-.8-4.08l-.41-4.1c-.06-.69-.15-1.38-.17-2.06v-6.13c.09-1.33.22-2.66.34-4a67.15,67.15,0,0,1,1.17-7.85l.36-1.94.48-1.88,1-3.75c.32-1.27.71-2.44,1.09-3.62s.74-2.36,1.16-3.56c.88-2.39,1.71-4.77,2.81-7.18a76.74,76.74,0,0,1,7.89-14.35A67.17,67.17,0,0,1,68.24,298.8a85.84,85.84,0,0,1,13.23-9.11c4.41-2.47,8.68-4.57,12.84-6.43,8.33-3.76,16.2-7.08,24-10.54a416.17,416.17,0,0,0,45.19-23.34l2.75-1.64,2.73-1.69c1.81-1.14,3.64-2.24,5.44-3.41l11.11-7.18c1.92-1.26,3.91-2.43,5.87-3.65s4-2.3,6-3.45,4.05-2.21,6.09-3.29,4.13-2.07,6.21-3.08q6.27-3,12.74-5.5l3.24-1.23,3.29-1.14c2.17-.79,4.41-1.43,6.61-2.13,4.46-1.29,8.94-2.48,13.51-3.33a118.5,118.5,0,0,1,13.79-1.93,93.55,93.55,0,0,1,27.69,1.54c2.27.45,4.5,1.09,6.73,1.72l3.28,1.11c1.09.37,2.14.86,3.22,1.28a70.86,70.86,0,0,1,12.14,6.52,75,75,0,0,1,10.51,8.77c.78.83,1.58,1.62,2.36,2.49l2.26,2.74a38.67,38.67,0,0,1,3.85,6.16,33.22,33.22,0,0,1,3.41,14.53,46.75,46.75,0,0,1-2.45,14.52,91.67,91.67,0,0,1-5.49,13.08c-1,2.1-2.11,4.13-3.21,6.16l-3.38,6c-4.55,7.88-9.22,15.5-13.34,23.15-2.05,3.81-4,7.61-5.62,11.38a67.12,67.12,0,0,0-3.91,11.1A65.56,65.56,0,0,0,299.3,350a115.73,115.73,0,0,0-.17,11.82l.12,3,.18,3.08c.14,2.07.25,4.14.43,6.25l1,12.91a192.7,192.7,0,0,1,.51,27.8,91.48,91.48,0,0,1-2.25,15,65.29,65.29,0,0,1-5.61,15.12,56.54,56.54,0,0,1-9.63,13.32q-1.56,1.51-3.15,3c-1.15.92-2.33,1.82-3.5,2.68s-2.55,1.56-3.84,2.27-2.69,1.27-4.07,1.77A36.56,36.56,0,0,1,253,469.9a58,58,0,0,1-14-3.44A116.32,116.32,0,0,1,226.7,461c-3.93-1.95-7.73-4-11.54-6.05-7.57-4.09-15.07-8.09-22.87-11.42a96.12,96.12,0,0,0-24.24-7.18ZM193.68,440c8.2,2.7,16.26,5.72,24.39,8.37,4,1.36,8.12,2.58,12.17,3.68a107.43,107.43,0,0,0,12.09,2.44,44.13,44.13,0,0,0,11.37.25,21.33,21.33,0,0,0,9-3.08,21.79,21.79,0,0,0,6.26-6.38,40.75,40.75,0,0,0,4.62-9.15c2.29-6.42,3.15-13.67,3.31-21.53.36-15.75-2.08-33.33-.84-52.43.7-9.57,2.3-19.51,6.45-29.35a87.1,87.1,0,0,1,7.15-13.16c2.61-4,5.37-7.83,8.18-11.47,5.62-7.26,11.37-14.07,16.61-21,2.64-3.48,5.12-7,7.36-10.64a70.31,70.31,0,0,0,5.67-11.13,33.24,33.24,0,0,0,2.44-11.45,22.38,22.38,0,0,0-2.5-10.72,30.15,30.15,0,0,0-3-4.73l-1.91-2.16c-.67-.71-1.43-1.39-2.14-2.09a54.35,54.35,0,0,0-9.52-7.15,53.67,53.67,0,0,0-22.43-7,63.3,63.3,0,0,0-11.92,0A85.14,85.14,0,0,0,264.57,222a127.06,127.06,0,0,0-23.12,8.12c-1.87.91-3.75,1.73-5.59,2.7l-2.77,1.42-2.74,1.49c-3.67,1.94-7.25,4.12-10.83,6.26-1.78,1.1-3.54,2.24-5.31,3.36L209,248.85c-3.47,2.38-6.92,4.8-10.33,7.3L188,264c-1.83,1.35-3.7,2.63-5.55,4l-2.79,2-2.83,1.92a385.9,385.9,0,0,1-47.13,27.64c-4.05,2-8.09,4-12.11,5.81s-8,3.66-11.76,5.47c-7.64,3.6-14.42,7.11-19.35,11.11a39.31,39.31,0,0,0-6.55,6.72,52.13,52.13,0,0,0-5.32,8.79c-.84,1.61-1.56,3.4-2.34,5.13-.37.89-.71,1.82-1.07,2.73s-.73,1.84-1,2.71a75.55,75.55,0,0,0-2.91,10.48l-.5,2.58-.27,2.52-.16,1.27c0,.43,0,.83,0,1.24l-.08,2.48c0,.82.08,1.62.11,2.43l0,1.23c0,.4.12.79.17,1.19l.36,2.4c.22.77.4,1.55.58,2.35a36.81,36.81,0,0,0,3.87,9.21L72,388.5c.23.37.5.73.75,1.09l1.52,2.21c1.17,1.39,2.22,2.9,3.57,4.22a71.38,71.38,0,0,0,8.54,7.83,101.82,101.82,0,0,0,10,6.79A138.48,138.48,0,0,0,119,421.39c4,1.48,8,2.87,12,4.07,2,.61,4.07,1.24,6.14,1.76l3.08.82,3.11.75c8.3,2,16.72,3.52,25.2,4.75A152.39,152.39,0,0,1,193.68,440Z" style="fill:#ebebeb"></path><path d="M207.27,96.26a62.62,62.62,0,0,0-8.32-1.5c-1.34-.18-2.63-.28-3.94-.39s-2.59-.15-3.86-.17c-2.54-.1-5,0-7.5,0-9.83.39-19.22,1.89-28.49,3.32l-3.28.5-1.46.21-1.48.12c-1,.09-2,.06-3.06.09s-2.09-.09-3.16-.17-2.12-.19-3.21-.37-2.15-.32-3.24-.53c-2.16-.45-4.38-.92-6.56-1.53-8.82-2.32-17.53-5.77-27.26-8A49.92,49.92,0,0,0,86.74,86.7a36.58,36.58,0,0,0-8.33,1.83,39.9,39.9,0,0,0-4,1.66c-.66.32-1.32.63-2,1l-1.85,1.1a48.6,48.6,0,0,0-6.82,5.06c-1.08.94-2.1,2.07-3.15,3.13s-1.87,2.28-2.81,3.45-1.63,2.4-2.43,3.64c-.41.62-.73,1.25-1.06,1.87l-1,1.91-.49,1-.41,1-.81,2a36.41,36.41,0,0,0-1.42,3.94,64.3,64.3,0,0,0-2.87,16,76.67,76.67,0,0,0,.86,15.7,75.25,75.25,0,0,0,4,14.92c.46,1.2,1,2.39,1.45,3.56s1.11,2.33,1.67,3.48,1.16,2.29,1.79,3.4,1.25,2.22,2,3.31a94.41,94.41,0,0,0,9.1,12.23,92.25,92.25,0,0,0,10.71,10.5,78.06,78.06,0,0,0,12,8.37,49.55,49.55,0,0,0,13.45,5.17,32.23,32.23,0,0,0,14.61-.34,54.68,54.68,0,0,0,13.69-5.82,144.65,144.65,0,0,0,23.82-17.81c3.66-3.29,7.09-6.72,10.35-10.24a7,7,0,0,1,1-.94l.86-.75c.65-.44,1.16-1,1.84-1.37l.94-.66c.34-.2.69-.39,1-.62.63-.44,1.42-.8,2.08-1.23a88.7,88.7,0,0,1,10.06-4.7l6-2.37,3.23-1.26,3.36-1.39c2.27-.92,4.67-2.07,7.11-3.28a71,71,0,0,0,7.53-4.49,48.16,48.16,0,0,0,7.54-6.44,39.7,39.7,0,0,0,6.28-8.74l.66-1.21.56-1.24c.36-.83.73-1.66,1.06-2.51a42,42,0,0,0,1.48-5.06l.53-2.53.32-2.45a44.41,44.41,0,0,0,.31-4.81c0-.42,0-.74,0-1.23,0-.64,0-1.28-.08-1.91a21.67,21.67,0,0,0-.58-3.95c-.07-.32-.14-.66-.23-1l-.32-1c-.22-.67-.46-1.32-.71-2a26.6,26.6,0,0,0-1.95-3.66c-.38-.55-.76-1.1-1.16-1.63-.2-.27-.4-.54-.6-.78l-.63-.7c-.42-.45-.85-.89-1.29-1.34s-.86-.76-1.3-1.15-.89-.72-1.33-1l-1.29-.88c-.43-.28-.88-.6-1.3-.83l-1.25-.69A42.67,42.67,0,0,0,207.27,96.26Z" style="fill:#ebebeb"></path><path d="M341.24,338.68a45.43,45.43,0,0,0-.65,9.23,64.58,64.58,0,0,0,2.87,16.59A106.08,106.08,0,0,0,349,379.87a68.48,68.48,0,0,0,8.55,14,64.61,64.61,0,0,0,12.27,11.85,40.44,40.44,0,0,0,17.31,6.89,39.12,39.12,0,0,0,10,.21,31.39,31.39,0,0,0,16.57-7,63.75,63.75,0,0,0,5.64-5.29,22.93,22.93,0,0,0,2.46-3.23,25.81,25.81,0,0,0,1.73-3.73,41,41,0,0,0,1.86-8.19,70.38,70.38,0,0,0,.19-17.47,39.28,39.28,0,0,0-5.32-15.77,39.73,39.73,0,0,0-10.84-11.63c-4.32-3.16-9.4-5.42-14.38-7.47s-9.93-3.89-14.58-6.08-9.14-4.64-14.79-6.39a25.77,25.77,0,0,0-4.64-1,18.65,18.65,0,0,0-5.51.09,14.41,14.41,0,0,0-6.63,3.23,15.11,15.11,0,0,0-1.34,1.31c-.39.44-.79.9-1.16,1.38a23.36,23.36,0,0,0-1.76,2.79,28,28,0,0,0-1.28,2.75c-.32.85-.68,1.79-.9,2.61L342,335l-.3,1.25C341.52,337.08,341.39,337.86,341.24,338.68Z" style="fill:#ebebeb"></path></g><polygon points="103.53 357.3 107.4 358.02 108.27 362.1 109.13 358.02 113 357.3 109.15 356.36 108.27 352.51 107.38 356.36 103.53 357.3" style="fill:#dbdbdb"></polygon><polygon points="284.43 50.61 288.3 51.33 289.17 55.41 290.03 51.33 293.9 50.61 290.05 49.67 289.17 45.82 288.28 49.67 284.43 50.61" style="fill:#dbdbdb"></polygon><polygon points="300.18 449.39 304.05 450.1 304.92 454.18 305.78 450.1 309.65 449.39 305.8 448.44 304.92 444.59 304.04 448.44 300.18 449.39" style="fill:#dbdbdb"></polygon><polygon points="431.29 364.78 433.45 365.18 433.94 367.46 434.42 365.18 436.58 364.78 434.43 364.25 433.94 362.1 433.45 364.25 431.29 364.78" style="fill:#dbdbdb"></polygon><polygon points="401.69 100.11 403.85 100.52 404.33 102.79 404.81 100.52 406.98 100.11 404.82 99.59 404.33 97.44 403.84 99.59 401.69 100.11" style="fill:#dbdbdb"></polygon><polygon points="442.68 174.9 444.84 175.3 445.32 177.58 445.81 175.3 447.97 174.9 445.81 174.37 445.32 172.22 444.83 174.37 442.68 174.9" style="fill:#dbdbdb"></polygon><polygon points="58.95 376.06 61.11 376.46 61.59 378.74 62.08 376.46 64.24 376.06 62.09 375.53 61.59 373.38 61.1 375.53 58.95 376.06" style="fill:#dbdbdb"></polygon><polygon points="417.66 319.91 419.82 320.31 420.31 322.59 420.79 320.31 422.95 319.91 420.8 319.38 420.31 317.23 419.81 319.38 417.66 319.91" style="fill:#dbdbdb"></polygon><polygon points="122.78 389.21 124.95 389.62 125.43 391.89 125.91 389.62 128.08 389.21 125.92 388.69 125.43 386.54 124.94 388.69 122.78 389.21" style="fill:#dbdbdb"></polygon><path d="M80.28,424.29a.63.63,0,0,1,0,1.26A.63.63,0,0,1,80.28,424.29Z" style="fill:#dbdbdb"></path><path d="M373.9,338.88a.63.63,0,0,1,0,1.26A.63.63,0,0,1,373.9,338.88Z" style="fill:#dbdbdb"></path><path d="M379.82,249.26a.63.63,0,0,1,0,1.25A.63.63,0,0,1,379.82,249.26Z" style="fill:#dbdbdb"></path><path d="M142.46,423.67a.63.63,0,0,1,0,1.25A.63.63,0,0,1,142.46,423.67Z" style="fill:#dbdbdb"></path><path d="M116.75,387.34a.63.63,0,0,1,0,1.25A.63.63,0,0,1,116.75,387.34Z" style="fill:#dbdbdb"></path><path d="M403.73,347.1a.63.63,0,0,1,0,1.25A.63.63,0,0,1,403.73,347.1Z" style="fill:#dbdbdb"></path><path d="M377.5,277.76a.63.63,0,0,1,0,1.26A.63.63,0,0,1,377.5,277.76Z" style="fill:#dbdbdb"></path><path d="M368,385.65a.44.44,0,0,1,0,.88A.44.44,0,0,1,368,385.65Z" style="fill:#dbdbdb"></path><path d="M134.05,111.07a.45.45,0,0,1,0,.89A.45.45,0,0,1,134.05,111.07Z" style="fill:#dbdbdb"></path><path d="M135.17,391.45a.45.45,0,0,1,0,.89A.45.45,0,0,1,135.17,391.45Z" style="fill:#dbdbdb"></path><polygon points="56.86 254.47 60.73 255.18 61.59 259.26 62.46 255.18 66.33 254.46 62.48 253.52 61.59 249.67 60.71 253.52 56.86 254.47" style="fill:#dbdbdb"></polygon><polygon points="424.86 154.8 428.73 155.51 429.59 159.59 430.45 155.51 434.32 154.8 430.47 153.85 429.59 150 428.71 153.85 424.86 154.8" style="fill:#dbdbdb"></polygon><polygon points="260.52 69.4 262.69 69.8 263.17 72.08 263.65 69.8 265.82 69.4 263.66 68.88 263.17 66.72 262.68 68.88 260.52 69.4" style="fill:#dbdbdb"></polygon><polygon points="61.59 145.55 63.76 145.95 64.24 148.23 64.72 145.95 66.89 145.55 64.73 145.02 64.24 142.87 63.75 145.02 61.59 145.55" style="fill:#dbdbdb"></polygon><path d="M101.31,141.77a.63.63,0,0,1,0,1.25A.63.63,0,0,1,101.31,141.77Z" style="fill:#dbdbdb"></path><path d="M53.65,366.31a.63.63,0,0,1,0,1.25A.63.63,0,0,1,53.65,366.31Z" style="fill:#dbdbdb"></path><path d="M105.07,344.68a.63.63,0,0,1,0,1.26A.63.63,0,0,1,105.07,344.68Z" style="fill:#dbdbdb"></path><path d="M54.25,186a.63.63,0,0,1,0,1.25A.63.63,0,0,1,54.25,186Z" style="fill:#dbdbdb"></path><path d="M187.15,59.57a.63.63,0,0,1,0,1.26A.63.63,0,0,1,187.15,59.57Z" style="fill:#dbdbdb"></path><path d="M161.54,397.93a.44.44,0,0,1,0,.88A.44.44,0,0,1,161.54,397.93Z" style="fill:#dbdbdb"></path><polygon points="436.45 250.52 438.62 250.92 439.1 253.2 439.58 250.92 441.74 250.52 439.59 250 439.1 247.84 438.61 250 436.45 250.52" style="fill:#dbdbdb"></polygon><path d="M318,76.84a.44.44,0,0,1,0,.88A.44.44,0,0,1,318,76.84Z" style="fill:#dbdbdb"></path><path d="M223.69,439.08a.45.45,0,0,1,0,.89A.45.45,0,0,1,223.69,439.08Z" style="fill:#dbdbdb"></path><path d="M411.62,172.26a.44.44,0,0,1,0,.88A.44.44,0,0,1,411.62,172.26Z" style="fill:#dbdbdb"></path><path d="M338.88,60.38a.45.45,0,0,1,0,.89A.45.45,0,0,1,338.88,60.38Z" style="fill:#dbdbdb"></path><path d="M304.92,84.06a1.21,1.21,0,0,1,0,2.41A1.21,1.21,0,0,1,304.92,84.06Z" style="fill:#dbdbdb"></path><path d="M412.05,206.06a1.2,1.2,0,0,1,0,2.4A1.2,1.2,0,0,1,412.05,206.06Z" style="fill:#dbdbdb"></path><path d="M90.36,324.92a1.2,1.2,0,0,1,0,2.4A1.2,1.2,0,0,1,90.36,324.92Z" style="fill:#dbdbdb"></path><polygon points="150.97 90.29 153.13 90.69 153.61 92.97 154.09 90.69 156.26 90.29 154.1 89.77 153.61 87.61 153.12 89.77 150.97 90.29" style="fill:#dbdbdb"></polygon><path d="M338.68,421.1a.63.63,0,0,1,0,1.25A.63.63,0,0,1,338.68,421.1Z" style="fill:#dbdbdb"></path><path d="M297.13,415.19a.63.63,0,0,1,0,1.25A.63.63,0,0,1,297.13,415.19Z" style="fill:#dbdbdb"></path><polygon points="384.61 377.63 386.77 378.03 387.25 380.31 387.74 378.03 389.9 377.63 387.75 377.1 387.25 374.95 386.76 377.1 384.61 377.63" style="fill:#dbdbdb"></polygon><polygon points="404.33 432.26 406.49 432.66 406.98 434.94 407.46 432.66 409.62 432.25 407.47 431.73 406.98 429.58 406.48 431.73 404.33 432.26" style="fill:#dbdbdb"></polygon><path d="M389.9,406.41a.44.44,0,0,1,0,.88A.44.44,0,0,1,389.9,406.41Z" style="fill:#dbdbdb"></path><polygon points="77.64 267.96 79.8 268.36 80.28 270.64 80.76 268.36 82.93 267.96 80.77 267.43 80.28 265.28 79.79 267.43 77.64 267.96" style="fill:#dbdbdb"></polygon><path d="M52.64,314.36a.63.63,0,0,1,0,1.25A.63.63,0,0,1,52.64,314.36Z" style="fill:#dbdbdb"></path><path d="M90.36,197a.45.45,0,0,1,0,.89A.45.45,0,0,1,90.36,197Z" style="fill:#dbdbdb"></path><path d="M119.4,75.63a1.21,1.21,0,0,1,0,2.41A1.21,1.21,0,0,1,119.4,75.63Z" style="fill:#dbdbdb"></path></g><g id="freepik--Earth--inject-690"><path d="M403.22,250A152.47,152.47,0,0,1,374,340.07v0A153.24,153.24,0,1,1,250,96.78q6.3,0,12.49.5a152.23,152.23,0,0,1,67,21.73,153.84,153.84,0,0,1,40.93,36.28A152.69,152.69,0,0,1,403.22,250Z" style="fill:#FFC100"></path><g style="opacity:0.1"><path d="M283.09,322.32c-1.93,5.15,1.28,5.36,1.5,7.51s0,6.22-6.22,12.45-16.53,4.93-18.67,7.51-5.8,13.52-10.95,17.16-6,1.51-13.3,3-12.88,10.94-15,15.45.43,12-4.72,12.23-7.51-10.94-12.23-16.95-6.22-11.37-7.72-18.46.85-21.89,0-27.68-16.31-16.09-21.89-23.18-13.31-21.24-12.88-26a19.18,19.18,0,0,1,6.44-11.8c2.57-1.94,1.5-3,1.93-4.73s2.58-2.14,3-4.29-1.28-8.58-3.43-9.65-3.65,2.57-4.93,1.93-5.15-5.15-6.66-5.58-1.07,2.79-3.22-1.29-3.21-14.38-4.93-16.09-3,3-7.08,0-5.8-8.8-7.51-9.66-4.08.21-5.85-3.22,1.55-9.66,0-9-4.88,5.58-5.74.85,4.29-20.6,3.43-29.18,2.15-17.6,8.16-24.89c0,0,.85-4.72,1.71-7.73s19.32-15,21.46-18.45c.9-1.44,1.2-3.69,1.52-6.11A152.51,152.51,0,0,1,250,96.78q6.3,0,12.49.5.21.3.42.57c1.86,2.36,3.87,3.86,9.31,5.87s6.72,4.57,5.57,6.72-3,2.57-5.15,2.72-4.15-1-6.43.43-4.58,9.15-7.59,9.58-8.29-6.86-9.44-9,2.58-6.72.82-8.87-4.82-1.72-9.69-2.15-16.16,1.44-15.74,3.3,16.6-.29,17,3.43-11.87,10-14,9.44-5-4.29-8.16-4.72-5.72,2.15-7.7,2.43-4.31-2.14-7.32-1.57-3.72,3.14-5.29,4.15-5.3,1-5.72,3.29,4.72,3.58,6,5-1.57,6.29-.28,7.29,9.3-6,11.3-7.72,3.72-9.16,8-9,5.73,7.44,7.15,8.16,4.58-1.72,9.31-.72,8,11.31,8.86,14.45,2.87,6.3,1.15,7.59-9.44-.86-10.44-2.87,5.15-5,4.72-5.72-4-1.72-5.87-.6-2.72,3.46-4.72,4-7.3-5.44-8.73-3.73,1.43,7.16,2.86,8.45,6.73,2,7.16,3.43-3.58,4.57-8.45,4.29-8.86-4-10.73-2.43-.85,5.72-2.14,7.15-8.3.43-11.73,4.15-5,9.3-8.44,12.45-5-.86-9.59,3.57-5.29,14.31-5.43,17.74,0,6.15-1.15,5.72-2.72-3.43-3.15-5.29,1-5,1-6.15-6.59-7-10.45-7.58-7.3,2.57-10.15,4.86-8,1.86-9.87,3.72-3.3,18.32-1.87,22.18,3.29,3.86,7.87,1.86,2-5.87,4.72-5a6.39,6.39,0,0,1,4.15,6c0,2.29-5.43,7.72-4.72,9.3s5.44-.29,7.73.43,3.43,2.14,2.72,8-.29,10.44,3.14,12.37,5.37-2.79,6.87-2.14,3.65,4.07,5.79,3.86,1.08-2.15,5.15-3.43,2.58-2.15,3.44-4.72,3.43-4.73,6.22-3.44.86,3.22,1.07,5.37,5.15,2.36,9,3.64,6,0,13.73,2.58,8.15,10.3,11.37,11.59,13.95-.86,21.68,4.72,5.58,15.88,9.44,18.88,18.24,7.09,23.82,8.16,6.44-2.79,10.94-1.72,7.09,2.36,8.59,8.59C301.79,305.69,285,317.17,283.09,322.32Z"></path><path d="M167.78,212.59c.14,1.21,3.72,1.72,8,4.15s5.86,9.58,8.15,9.44,1.58-3.43,2.44-4.29,2.28-2.72,0-4.58-4.52-5.87-8.7-6.44-4.9-2.29-6.76-2.14A3.23,3.23,0,0,0,167.78,212.59Z"></path><path d="M191.38,224.61c-.63,1.75,0,3,4.58,4.15s8.87-1.15,7.44-2.08-3.58-.5-2.72-2.07.57-3.87-3.15-3.44S192,223,191.38,224.61Z"></path><path d="M207.41,225.09c-1.57.23-2.44,2.95-.86,4.67s1.57,1.43,3.43,0,4.72-2.15,4-3.58S209,224.87,207.41,225.09Z"></path><path d="M219.85,230.94c.7-2.15,4.29,0,5.87,2.25s.86,5.58,0,8-1.43,5.29-3.44,4.15.15-4.58-.14-6.58S219.28,232.69,219.85,230.94Z"></path><path d="M281.51,111.59c-.75,1.79,2.72,2.43,4.72,3.57s3.58,1.86,4.72,0-.42-4-2-4.43S282.23,109.87,281.51,111.59Z"></path><path d="M308.55,128.32c1.32,1.4,3.58,1.15,5.15,3.15s1,5.44,3,6.44,3.43,0,3.57-1.43-2.86-5-2.57-5.72,4.15,1,5,3.14-.86,5.15,1.14,5.73,1.57-2,2.43-2.58,2.72-.28,2.58-2-2.44-5.44-4.29-6.73-3.3-2.71-6.44-3.43-6.15-.14-7.73,1.15S307.74,127.47,308.55,128.32Z"></path><path d="M370.45,155.29a2.55,2.55,0,0,1-.81,1.5c-3,2.15-6.58-5.29-10.73-6.72s-6-6.72-6.87-5.58-.57,2.72-1.86,4.58-3.14,1.43-4,5,4,10.15,2.86,12.3-2.57,1.43-4.87,1.29-1.86,1.86-4.86,1-.43-4.58-5.15-9-6.3-5.3-5.29-7.3-.43-4.86,1.71-5.15,3.87,2.86,5.3,3.72,3.29-1.72,3.43-4-5-5.43-6.87-7.21-2-8.24-1.28-9.53,2.86-.86,3.43-4c.33-1.85-2.59-4.94-5.07-7.17A153.84,153.84,0,0,1,370.45,155.29Z"></path><path d="M391.81,283.55c.43-4.58-1.85-4.87.43-13.31s-2.43-17.45-4.14-19.31-5.44-1.29-8.45.57-.85,3.29-2.86,4-4-.43-5.86-.29-3.58,4.87-7.58,4.72-6.58-5.86-9.59-9.94-9.16-6.65-11.16-11.66,1.86-12.73,1-18.6-4.72-4.58-5.44-7.87.58-1.71,1.58-4.86-1.15-4.86.86-10.3,5.58-8.16,4.72-10.59-3.58-6.43-3.72-9.29,2.72-2.72,8.15-6.73,6.87-3.72,11-2.29a58.38,58.38,0,0,0,9.15,2.57c2.44.43,5.73,6.73,6.73,6.44s1.15-2.14,1.58-4.86a6,6,0,0,1,1.78-3.08A153.31,153.31,0,0,1,374,340.07C388.55,317.8,391.38,288.13,391.81,283.55Z"></path></g><path d="M368.7,346.89A153.23,153.23,0,1,1,250,96.78q6.3,0,12.49.5c1.14.09,2.28.19,3.41.32A140.4,140.4,0,1,0,368.7,346.89Z" style="opacity:0.1"></path><path d="M403.22,250A152.47,152.47,0,0,1,374,340.07s0,0,0,0a154,154,0,0,1-55,46.78,154.81,154.81,0,0,0,48.33-43.29l0,0a154.18,154.18,0,0,0,6.08-172.18,151.44,151.44,0,0,0-9.62-13.68,154.88,154.88,0,0,0-41.15-36.49,153.2,153.2,0,0,0-67.44-21.85c-4.13-.34-8.33-.51-12.55-.51a154.1,154.1,0,0,0-37,4.48A153,153,0,0,1,250,96.78q6.3,0,12.49.5A153.17,153.17,0,0,1,403.22,250Z" style="fill:#fff;opacity:0.30000000000000004"></path><ellipse cx="164.94" cy="215.03" rx="9.76" ry="18.44" transform="translate(-80.03 330.92) rotate(-77.83)" style="fill:#ff9cbd"></ellipse><ellipse cx="335.06" cy="215.03" rx="18.44" ry="9.76" transform="translate(-37.81 75.48) rotate(-12.17)" style="fill:#ff9cbd"></ellipse><path d="M227.34,200.94c7,12.1,23,14.77,35.18,9.67a23.64,23.64,0,0,0,10.14-8.69c-1,4.71-4.42,8.81-8.66,11.47-12.52,7.59-33.39,3.26-36.66-12.45Z" style="fill:#263238"></path><path d="M209,162.92a38.22,38.22,0,0,0-27.72,6.67,41.94,41.94,0,0,0-7.43,6.7,16.57,16.57,0,0,1,2.08-4.86c6.45-10.7,22.35-15.69,33.07-8.51Z" style="fill:#263238"></path><path d="M291,162.92c10.72-7.18,26.62-2.19,33.07,8.51a16.57,16.57,0,0,1,2.08,4.86,41.94,41.94,0,0,0-7.43-6.7A38.22,38.22,0,0,0,291,162.92Z" style="fill:#263238"></path><path d="M284.65,199.21c7.75,4.51,17.89,5.71,25.63.82A27.59,27.59,0,0,0,318,192.4c3.23,4.28,9.09,5,14.11,4.27a14.58,14.58,0,0,1-13.22.71,9.87,9.87,0,0,1-1.89-1.15l2.54-.36a22.19,22.19,0,0,1-11.8,9.8c-8.05,2.6-17.73.16-23.08-6.46Z" style="fill:#263238"></path><path d="M215.35,199.21c-5.35,6.62-15,9.06-23.08,6.46a22.23,22.23,0,0,1-11.8-9.8l2.54.36a9.87,9.87,0,0,1-1.89,1.15,14.58,14.58,0,0,1-13.22-.71c5,.71,10.88,0,14.11-4.27l1.3,1.74c7.69,10.42,21.26,11.4,32,5.07Z" style="fill:#263238"></path></g></svg>