<svg xmlns="http://www.w3.org/2000/svg" xmlns:xlink="http://www.w3.org/1999/xlink" viewBox="0 0 500 500" width="500" height="500" preserveAspectRatio="xMidYMid meet" style="width: 100%; height: 100%; transform: translate3d(0px, 0px, 0px); content-visibility: visible;"><defs><clipPath id="__lottie_element_14"><rect width="500" height="500" x="0" y="0"/></clipPath></defs><g clip-path="url(#__lottie_element_14)"><g transform="matrix(2.8658599853515625,0,0,2.8658599853515625,30.19464111328125,8.26776123046875)" opacity="1" style="display: block;"><g opacity="1" transform="matrix(1,0,0,1,76.3740005493164,79.41200256347656)"><path fill="rgb(0,0,0)" fill-opacity="1" d=" M30.5,-64.5 C49.24800109863281,-64.5 64.5,-49.24800109863281 64.5,-30.5 C64.5,-30.5 64.5,30.5 64.5,30.5 C64.5,49.24700164794922 49.24800109863281,64.5 30.5,64.5 C30.5,64.5 -30.5,64.5 -30.5,64.5 C-49.24800109863281,64.5 -64.5,49.24700164794922 -64.5,30.5 C-64.5,30.5 -64.5,-30.5 -64.5,-30.5 C-64.5,-49.24800109863281 -49.24800109863281,-64.5 -30.5,-64.5 C-30.5,-64.5 30.5,-64.5 30.5,-64.5z M30.5,-70.5 C30.5,-70.5 -30.5,-70.5 -30.5,-70.5 C-52.590999603271484,-70.5 -70.5,-52.59199905395508 -70.5,-30.5 C-70.5,-30.5 -70.5,30.5 -70.5,30.5 C-70.5,52.590999603271484 -52.590999603271484,70.5 -30.5,70.5 C-30.5,70.5 30.5,70.5 30.5,70.5 C52.590999603271484,70.5 70.5,52.590999603271484 70.5,30.5 C70.5,30.5 70.5,-30.5 70.5,-30.5 C70.5,-52.59199905395508 52.590999603271484,-70.5 30.5,-70.5z"/></g><g opacity="1" transform="matrix(1,0,0,1,76.375,79.48200225830078)"><path stroke-linecap="round" stroke-linejoin="round" fill-opacity="0" stroke="rgb(0,0,0)" stroke-opacity="1" stroke-width="6" d=" M1.3949999809265137,23.48900032043457 C4.923999786376953,18.54599952697754 24.445999145507812,-8.791999816894531 24.445999145507812,-8.791999816894531 C24.857999801635742,-9.37399959564209 24.85099983215332,-10.154000282287598 24.429000854492188,-10.729000091552734 C24.429000854492188,-10.729000091552734 24.429000854492188,-10.729000091552734 24.429000854492188,-10.729000091552734 C24.429000854492188,-10.729000091552734 14.314000129699707,-24.395999908447266 14.314000129699707,-24.395999908447266 C14.109999656677246,-24.666000366210938 13.791000366210938,-24.82699966430664 13.45199966430664,-24.82699966430664 C13.45199966430664,-24.82699966430664 5.341000080108643,-24.82699966430664 -1.9730000495910645,-24.82699966430664"/></g><g opacity="1" transform="matrix(1,0,0,1,77.88700103759766,146.343994140625)"><path stroke-linecap="butt" stroke-linejoin="miter" fill-opacity="0" stroke-miterlimit="10" stroke="rgb(0,0,0)" stroke-opacity="1" stroke-width="6" d=" M57.887001037597656,-12.343999862670898 C57.887001037597656,4.223999977111816 44.45600128173828,12.343999862670898 27.886999130249023,12.343999862670898 C27.886999130249023,12.343999862670898 -27.802000045776367,12.343999862670898 -27.802000045776367,12.343999862670898 C-44.369998931884766,12.343999862670898 -57.887001037597656,7.223999977111816 -57.887001037597656,-9.343999862670898"/></g></g><g style="display: block;" transform="matrix(0,0,0,0,150,333)" opacity="0.0100007437367519"><g opacity="1" transform="matrix(1,0,0,1,6.5,8)"><path fill="rgb(2,2,2)" fill-opacity="1" d=" M3.5,2 C3.5,2 -3.5,2 -3.5,2 C-4.599999904632568,2 -5.5,1.100000023841858 -5.5,0 C-5.5,-1.100000023841858 -4.599999904632568,-2 -3.5,-2 C-3.5,-2 3.5,-2 3.5,-2 C4.599999904632568,-2 5.5,-1.100000023841858 5.5,0 C5.5,1.100000023841858 4.599999904632568,2 3.5,2z"/></g><g opacity="1" transform="matrix(1,0,0,1,6.5,8)"><path fill="rgb(2,2,2)" fill-opacity="1" d=" M2,-3.5 C2,-3.5 2,3.5 2,3.5 C2,4.599999904632568 1.100000023841858,5.5 0,5.5 C-1.100000023841858,5.5 -2,4.599999904632568 -2,3.5 C-2,3.5 -2,-3.5 -2,-3.5 C-2,-4.599999904632568 -1.100000023841858,-5.5 0,-5.5 C1.100000023841858,-5.5 2,-4.599999904632568 2,-3.5z"/></g></g><g style="display: none;" transform="matrix(2.4824161529541016,0,0,2.4824161529541016,163.6230926513672,90.89945983886719)" opacity="0.0351674810666681"><g opacity="1" transform="matrix(1,0,0,1,7,8)"><path fill="rgb(2,2,2)" fill-opacity="1" d=" M6,0 C6,3.312999963760376 3.312999963760376,6 0,6 C-3.312999963760376,6 -6,3.312999963760376 -6,0 C-6,-3.312999963760376 -3.312999963760376,-6 0,-6 C3.312999963760376,-6 6,-3.312999963760376 6,0z"/></g></g><g style="display: none;" transform="matrix(1.7812020778656006,0,0,1.7812020778656006,346.5315856933594,317.8597717285156)" opacity="0.03546789338197371"><g opacity="1" transform="matrix(1,0,0,1,7,8)"><path fill="rgb(2,2,2)" fill-opacity="1" d=" M6,0 C6,3.312999963760376 3.312999963760376,6 0,6 C-3.312999963760376,6 -6,3.312999963760376 -6,0 C-6,-3.312999963760376 -3.312999963760376,-6 0,-6 C3.312999963760376,-6 6,-3.312999963760376 6,0z"/></g></g></g></svg>