<svg xmlns="http://www.w3.org/2000/svg" xmlns:xlink="http://www.w3.org/1999/xlink" viewBox="0 0 500 500" width="500" height="500" preserveAspectRatio="xMidYMid meet" style="width: 100%; height: 100%; transform: translate3d(0px, 0px, 0px); content-visibility: visible;"><defs><clipPath id="__lottie_element_53"><rect width="500" height="500" x="0" y="0"/></clipPath></defs><g clip-path="url(#__lottie_element_53)"><g transform="matrix(1.1799999475479126,0,0,1.1799999475479126,-43,-35)" opacity="1" style="display: block;"><g opacity="1" transform="matrix(1,0,0,1,314.8340148925781,266.9530029296875)"><path stroke-linecap="round" stroke-linejoin="round" fill-opacity="0" stroke="rgb(0,0,0)" stroke-opacity="1" stroke-width="13" d="M0 0"/></g><g opacity="1" transform="matrix(1,0,0,1,158.88099670410156,319.85101318359375)"><path stroke-linecap="round" stroke-linejoin="round" fill-opacity="0" stroke="rgb(0,0,0)" stroke-opacity="1" stroke-width="13" d="M0 0"/></g><g opacity="1" transform="matrix(1,0,0,1,217.00900268554688,130.75799560546875)"><path stroke-linecap="round" stroke-linejoin="round" fill-opacity="0" stroke="rgb(0,0,0)" stroke-opacity="1" stroke-width="13" d="M0 0"/></g><g opacity="1" transform="matrix(1,0,0,1,274.927001953125,206.49200439453125)"><path stroke-linecap="round" stroke-linejoin="round" fill-opacity="0" stroke="rgb(0,0,0)" stroke-opacity="1" stroke-width="13" d="M0 0"/></g><g opacity="1" transform="matrix(1,0,0,1,238.44700622558594,264.6400146484375)"><path stroke-linecap="round" stroke-linejoin="round" fill-opacity="0" stroke="rgb(0,0,0)" stroke-opacity="1" stroke-width="13" d=" M-74.20899963378906,-73.02799987792969 C-71.16400146484375,-88.07099914550781 -64.15599822998047,-102.1449966430664 -53.77000045776367,-113.7249984741211"/></g><g opacity="1" transform="matrix(1,0,0,1,249.54200744628906,245.19500732421875)"><path stroke-linecap="round" stroke-linejoin="round" fill-opacity="0" stroke="rgb(0,0,0)" stroke-opacity="1" stroke-width="13" d=" M-43.513999938964844,36.262001037597656 C-43.513999938964844,60.29399871826172 -24.031999588012695,79.7760009765625 0,79.7760009765625 C24.033000946044922,79.7760009765625 43.513999938964844,60.29399871826172 43.513999938964844,36.262001037597656 C43.513999938964844,36.262001037597656 43.513999938964844,-36.26100158691406 43.513999938964844,-36.26100158691406 C43.513999938964844,-60.29399871826172 24.033000946044922,-79.7760009765625 0,-79.7760009765625 C-24.031999588012695,-79.7760009765625 -43.513999938964844,-60.29399871826172 -43.513999938964844,-36.26100158691406 C-43.513999938964844,-36.26100158691406 -43.513999938964844,7.252999782562256 -43.513999938964844,7.252999782562256"/></g><g opacity="1" transform="matrix(1,0,0,1,0,0)"><path stroke-linecap="round" stroke-linejoin="round" fill-opacity="0" stroke="rgb(0,0,0)" stroke-opacity="1" stroke-width="13" d=" M249.54200744628906,208.9340057373047 C249.54200744628906,208.9340057373047 249.54200744628906,252.44900512695312 249.54200744628906,252.44900512695312"/></g><g opacity="1" transform="matrix(1,0,0,1,0,0)"><path stroke-linecap="round" stroke-linejoin="round" fill-opacity="0" stroke="rgb(0,0,0)" stroke-opacity="1" stroke-width="13" d=" M249.54200744628906,281.4570007324219 C249.54200744628906,281.4570007324219 249.54200744628906,295.9620056152344 249.54200744628906,295.9620056152344"/></g></g></g></svg>