<svg width="296" height="69" viewBox="0 0 296 69" fill="none" xmlns="http://www.w3.org/2000/svg">
<path d="M62 31C62 48.1208 48.1208 62 31 62C13.8792 62 0 48.1208 0 31C0 13.8792 13.8792 0 31 0C48.1208 0 62 13.8792 62 31Z" fill="url(#paint0_linear_1_6)"/>
<path d="M81.0455 55V8.45454H90.7273V25.9545H91.0227C91.447 25.0152 92.0606 24.0606 92.8636 23.0909C93.6818 22.1061 94.7424 21.2879 96.0455 20.6364C97.3636 19.9697 99 19.6364 100.955 19.6364C103.5 19.6364 105.848 20.303 108 21.6364C110.152 22.9545 111.871 24.947 113.159 27.6136C114.447 30.2652 115.091 33.5909 115.091 37.5909C115.091 41.4848 114.462 44.7727 113.205 47.4545C111.962 50.1212 110.265 52.1439 108.114 53.5227C105.977 54.8864 103.583 55.5682 100.932 55.5682C99.053 55.5682 97.4546 55.2576 96.1364 54.6364C94.8333 54.0152 93.7651 53.2348 92.9318 52.2955C92.0985 51.3409 91.4621 50.3788 91.0227 49.4091H90.5909V55H81.0455ZM90.5227 37.5455C90.5227 39.6212 90.8106 41.4318 91.3864 42.9773C91.9621 44.5227 92.7955 45.7273 93.8864 46.5909C94.9773 47.4394 96.303 47.8636 97.8636 47.8636C99.4394 47.8636 100.773 47.4318 101.864 46.5682C102.955 45.6894 103.78 44.4773 104.341 42.9318C104.917 41.3712 105.205 39.5758 105.205 37.5455C105.205 35.5303 104.924 33.7576 104.364 32.2273C103.803 30.697 102.977 29.5 101.886 28.6364C100.795 27.7727 99.4545 27.3409 97.8636 27.3409C96.2879 27.3409 94.9545 27.7576 93.8636 28.5909C92.7879 29.4242 91.9621 30.6061 91.3864 32.1364C90.8106 33.6667 90.5227 35.4697 90.5227 37.5455Z" fill="black"/>
<path d="M137.324 55.6818C133.794 55.6818 130.741 54.9318 128.165 53.4318C125.604 51.9167 123.627 49.8106 122.233 47.1136C120.839 44.4015 120.142 41.2576 120.142 37.6818C120.142 34.0758 120.839 30.9242 122.233 28.2273C123.627 25.5152 125.604 23.4091 128.165 21.9091C130.741 20.3939 133.794 19.6364 137.324 19.6364C140.854 19.6364 143.9 20.3939 146.46 21.9091C149.036 23.4091 151.021 25.5152 152.415 28.2273C153.809 30.9242 154.506 34.0758 154.506 37.6818C154.506 41.2576 153.809 44.4015 152.415 47.1136C151.021 49.8106 149.036 51.9167 146.46 53.4318C143.9 54.9318 140.854 55.6818 137.324 55.6818ZM137.369 48.1818C138.975 48.1818 140.316 47.7273 141.392 46.8182C142.468 45.8939 143.278 44.6364 143.824 43.0455C144.384 41.4545 144.665 39.6439 144.665 37.6136C144.665 35.5833 144.384 33.7727 143.824 32.1818C143.278 30.5909 142.468 29.3333 141.392 28.4091C140.316 27.4848 138.975 27.0227 137.369 27.0227C135.748 27.0227 134.384 27.4848 133.278 28.4091C132.188 29.3333 131.362 30.5909 130.801 32.1818C130.256 33.7727 129.983 35.5833 129.983 37.6136C129.983 39.6439 130.256 41.4545 130.801 43.0455C131.362 44.6364 132.188 45.8939 133.278 46.8182C134.384 47.7273 135.748 48.1818 137.369 48.1818Z" fill="black"/>
<path d="M160.801 55V20.0909H170.188V26.1818H170.551C171.187 24.0152 172.256 22.3788 173.756 21.2727C175.256 20.1515 176.983 19.5909 178.938 19.5909C179.422 19.5909 179.945 19.6212 180.506 19.6818C181.066 19.7424 181.559 19.8258 181.983 19.9318V28.5227C181.528 28.3864 180.9 28.2652 180.097 28.1591C179.294 28.053 178.559 28 177.892 28C176.468 28 175.195 28.3106 174.074 28.9318C172.968 29.5379 172.089 30.3864 171.438 31.4773C170.801 32.5682 170.483 33.8258 170.483 35.25V55H160.801Z" fill="black"/>
<path d="M186.989 55V20.0909H196.67V55H186.989ZM191.852 15.5909C190.413 15.5909 189.178 15.1136 188.148 14.1591C187.133 13.1894 186.625 12.0303 186.625 10.6818C186.625 9.34848 187.133 8.20454 188.148 7.25C189.178 6.2803 190.413 5.79545 191.852 5.79545C193.292 5.79545 194.519 6.2803 195.534 7.25C196.564 8.20454 197.08 9.34848 197.08 10.6818C197.08 12.0303 196.564 13.1894 195.534 14.1591C194.519 15.1136 193.292 15.5909 191.852 15.5909Z" fill="black"/>
<path d="M214.108 34.8182V55H204.426V20.0909H213.653V26.25H214.062C214.835 24.2197 216.131 22.6136 217.949 21.4318C219.767 20.2348 221.972 19.6364 224.562 19.6364C226.987 19.6364 229.1 20.1667 230.903 21.2273C232.706 22.2879 234.108 23.803 235.108 25.7727C236.108 27.7273 236.608 30.0606 236.608 32.7727V55H226.926V34.5C226.941 32.3636 226.396 30.697 225.29 29.5C224.184 28.2879 222.661 27.6818 220.722 27.6818C219.419 27.6818 218.267 27.9621 217.267 28.5227C216.282 29.0833 215.509 29.9015 214.949 30.9773C214.403 32.0379 214.123 33.3182 214.108 34.8182Z" fill="black"/>
<path d="M259.966 68.8182C256.83 68.8182 254.14 68.3864 251.898 67.5227C249.67 66.6742 247.898 65.5152 246.58 64.0455C245.261 62.5758 244.405 60.9242 244.011 59.0909L252.966 57.8864C253.239 58.5833 253.67 59.2348 254.261 59.8409C254.852 60.447 255.633 60.9318 256.602 61.2955C257.587 61.6742 258.784 61.8636 260.193 61.8636C262.299 61.8636 264.034 61.3485 265.398 60.3182C266.777 59.303 267.466 57.5985 267.466 55.2045V48.8182H267.057C266.633 49.7879 265.996 50.7045 265.148 51.5682C264.299 52.4318 263.208 53.1364 261.875 53.6818C260.542 54.2273 258.951 54.5 257.102 54.5C254.481 54.5 252.095 53.8939 249.943 52.6818C247.807 51.4545 246.102 49.5833 244.83 47.0682C243.572 44.5379 242.943 41.3409 242.943 37.4773C242.943 33.5227 243.587 30.2197 244.875 27.5682C246.163 24.9167 247.875 22.9318 250.011 21.6136C252.163 20.2955 254.519 19.6364 257.08 19.6364C259.034 19.6364 260.67 19.9697 261.989 20.6364C263.307 21.2879 264.367 22.1061 265.17 23.0909C265.989 24.0606 266.617 25.0152 267.057 25.9545H267.42V20.0909H277.034V55.3409C277.034 58.3106 276.307 60.7955 274.852 62.7955C273.398 64.7955 271.383 66.2955 268.807 67.2955C266.246 68.3106 263.299 68.8182 259.966 68.8182ZM260.17 47.2273C261.731 47.2273 263.049 46.8409 264.125 46.0682C265.216 45.2803 266.049 44.1591 266.625 42.7045C267.216 41.2348 267.511 39.4773 267.511 37.4318C267.511 35.3864 267.223 33.6136 266.648 32.1136C266.072 30.5985 265.239 29.4242 264.148 28.5909C263.057 27.7576 261.731 27.3409 260.17 27.3409C258.58 27.3409 257.239 27.7727 256.148 28.6364C255.057 29.4848 254.231 30.6667 253.67 32.1818C253.11 33.697 252.83 35.447 252.83 37.4318C252.83 39.447 253.11 41.1894 253.67 42.6591C254.246 44.1136 255.072 45.2424 256.148 46.0455C257.239 46.8333 258.58 47.2273 260.17 47.2273Z" fill="black"/>
<path d="M290.398 55.5909C288.898 55.5909 287.61 55.0606 286.534 54C285.473 52.9242 284.943 51.6364 284.943 50.1364C284.943 48.6515 285.473 47.3788 286.534 46.3182C287.61 45.2576 288.898 44.7273 290.398 44.7273C291.852 44.7273 293.125 45.2576 294.216 46.3182C295.307 47.3788 295.852 48.6515 295.852 50.1364C295.852 51.1364 295.595 52.053 295.08 52.8864C294.58 53.7045 293.92 54.3636 293.102 54.8636C292.284 55.3485 291.383 55.5909 290.398 55.5909Z" fill="black"/>
<defs>
<linearGradient id="paint0_linear_1_6" x1="147.926" y1="0" x2="147.926" y2="68.8182" gradientUnits="userSpaceOnUse">
<stop stop-color="#0EA5E9"/>
<stop offset="0.709375" stop-color="#1D4ED8"/>
<stop offset="1" stop-color="#2563EB"/>
</linearGradient>
</defs>
</svg>
