<svg width="141" height="48" viewBox="0 0 141 48" fill="none" xmlns="http://www.w3.org/2000/svg">
<path d="M20.9062 14V20.3438H14.1875V37.5312C14.1875 39.875 14.9688 40.6562 17.5312 40.6562H20.9062V47H16.1562C9.4375 47 6.28125 44.3438 6.28125 38.6875V20.3438H0.53125V14H6.28125V5H14.1875V14H20.9062Z" fill="url(#paint0_linear_13_4)"/>
<path d="M25.875 47V14H33.4688V19.4688H33.5625C34.7812 15.6875 37.3125 13.6875 41.5625 13.6875C42.625 13.6875 43.5 13.75 44.125 13.8125V20.8125C43.5312 20.7188 41.9688 20.5625 40.4062 20.5625C36.6562 20.5625 33.75 23.1562 33.75 28.3125V47H25.875Z" fill="url(#paint1_linear_13_4)"/>
<path d="M63 47.75C53.2812 47.75 46.7188 40.7812 46.7188 30.5312C46.7188 20.2812 53.2812 13.25 63 13.25C72.7188 13.25 79.2812 20.2812 79.2812 30.5312C79.2812 40.7812 72.7188 47.75 63 47.75ZM63 41.1562C68.0625 41.1562 71.2812 37.0938 71.2812 30.5312C71.2812 23.9375 68.0312 19.8438 63 19.8438C57.9375 19.8438 54.6875 23.9062 54.6875 30.5312C54.6875 37.125 57.9062 41.1562 63 41.1562Z" fill="url(#paint2_linear_13_4)"/>
<path d="M84.75 47V14H92.625V47H84.75ZM88.6875 9.09375C86 9.09375 83.9688 7.15625 83.9688 4.59375C83.9688 2.0625 86 0.125 88.6875 0.125C91.375 0.125 93.4062 2.0625 93.4062 4.59375C93.4062 7.15625 91.375 9.09375 88.6875 9.09375Z" fill="url(#paint3_linear_13_4)"/>
<path d="M112.562 47.7812C104.531 47.7812 98.5625 43.9062 98.0625 36.8125H105.844C106.188 40.0312 108.5 41.875 112.438 41.875C116.25 41.875 118.562 40.2188 118.562 37.875C118.562 35.875 116.844 34.7188 114.062 34.125L108.438 32.9688C102.125 31.6562 98.8125 28.4375 98.8125 23.4375C98.8125 17.375 104.031 13.2812 112.094 13.2812C120.094 13.2812 125.562 17.5 125.75 24.2812H118.344C118.281 21.3438 115.875 19.1875 112.281 19.1875C108.812 19.1875 106.688 20.9375 106.688 23.1875C106.688 25.1562 108.312 26.375 111.062 26.9688L117 28.1875C123.531 29.5625 126.562 32.4375 126.562 37.2812C126.562 43.7188 120.719 47.7812 112.562 47.7812Z" fill="url(#paint4_linear_13_4)"/>
<path d="M136 47.5625C133.312 47.5625 131.156 45.4062 131.156 42.7188C131.156 40.0312 133.312 37.875 136 37.875C138.688 37.875 140.844 40.0312 140.844 42.7188C140.844 45.4062 138.688 47.5625 136 47.5625Z" fill="url(#paint5_linear_13_4)"/>
<defs>
<linearGradient id="paint0_linear_13_4" x1="70.6875" y1="0.125" x2="70.6875" y2="47.7812" gradientUnits="userSpaceOnUse">
<stop stop-color="white"/>
<stop offset="1" stop-color="#C3C3C3"/>
</linearGradient>
<linearGradient id="paint1_linear_13_4" x1="70.6875" y1="0.125" x2="70.6875" y2="47.7812" gradientUnits="userSpaceOnUse">
<stop stop-color="white"/>
<stop offset="1" stop-color="#C3C3C3"/>
</linearGradient>
<linearGradient id="paint2_linear_13_4" x1="70.6875" y1="0.125" x2="70.6875" y2="47.7812" gradientUnits="userSpaceOnUse">
<stop stop-color="white"/>
<stop offset="1" stop-color="#C3C3C3"/>
</linearGradient>
<linearGradient id="paint3_linear_13_4" x1="70.6875" y1="0.125" x2="70.6875" y2="47.7812" gradientUnits="userSpaceOnUse">
<stop stop-color="white"/>
<stop offset="1" stop-color="#C3C3C3"/>
</linearGradient>
<linearGradient id="paint4_linear_13_4" x1="70.6875" y1="0.125" x2="70.6875" y2="47.7812" gradientUnits="userSpaceOnUse">
<stop stop-color="white"/>
<stop offset="1" stop-color="#C3C3C3"/>
</linearGradient>
<linearGradient id="paint5_linear_13_4" x1="70.6875" y1="0.125" x2="70.6875" y2="47.7812" gradientUnits="userSpaceOnUse">
<stop stop-color="white"/>
<stop offset="1" stop-color="#C3C3C3"/>
</linearGradient>
</defs>
</svg>
