<svg width="265" height="61" viewBox="0 0 265 61" fill="none" xmlns="http://www.w3.org/2000/svg">
<path d="M10.5455 26.8182V47H0.863636V0.454544H10.2727V18.25H10.6818C11.4697 16.1894 12.7424 14.5758 14.5 13.4091C16.2576 12.2273 18.4621 11.6364 21.1136 11.6364C23.5379 11.6364 25.6515 12.1667 27.4545 13.2273C29.2727 14.2727 30.6818 15.7803 31.6818 17.75C32.697 19.7045 33.197 22.0455 33.1818 24.7727V47H23.5V26.5C23.5152 24.3485 22.9697 22.6742 21.8636 21.4773C20.7727 20.2803 19.2424 19.6818 17.2727 19.6818C15.9545 19.6818 14.7879 19.9621 13.7727 20.5227C12.7727 21.0833 11.9848 21.9015 11.4091 22.9773C10.8485 24.0379 10.5606 25.3182 10.5455 26.8182ZM56.7102 47.6818C53.1193 47.6818 50.0284 46.9545 47.4375 45.5C44.8617 44.0303 42.8769 41.9545 41.483 39.2727C40.089 36.5758 39.392 33.3864 39.392 29.7045C39.392 26.1136 40.089 22.9621 41.483 20.25C42.8769 17.5379 44.839 15.4242 47.3693 13.9091C49.9148 12.3939 52.8996 11.6364 56.3239 11.6364C58.6269 11.6364 60.7708 12.0076 62.7557 12.75C64.7557 13.4773 66.4981 14.5758 67.983 16.0455C69.483 17.5152 70.6496 19.3636 71.483 21.5909C72.3163 23.803 72.733 26.3939 72.733 29.3636V32.0227H43.2557V26.0227H63.6193C63.6193 24.6288 63.3163 23.3939 62.7102 22.3182C62.1042 21.2424 61.2633 20.4015 60.1875 19.7955C59.1269 19.1742 57.892 18.8636 56.483 18.8636C55.0133 18.8636 53.7102 19.2045 52.5739 19.8864C51.4527 20.553 50.5739 21.4545 49.9375 22.5909C49.3011 23.7121 48.9754 24.9621 48.9602 26.3409V32.0455C48.9602 33.7727 49.2784 35.2652 49.9148 36.5227C50.5663 37.7803 51.483 38.75 52.6648 39.4318C53.8466 40.1136 55.2481 40.4545 56.8693 40.4545C57.9451 40.4545 58.9299 40.303 59.8239 40C60.7178 39.697 61.483 39.2424 62.1193 38.6364C62.7557 38.0303 63.2405 37.2879 63.5739 36.4091L72.5284 37C72.0739 39.1515 71.142 41.0303 69.733 42.6364C68.339 44.2273 66.536 45.4697 64.3239 46.3636C62.1269 47.2424 59.589 47.6818 56.7102 47.6818ZM86.517 12.0909L92.9261 24.2955L99.4943 12.0909H109.426L99.3125 29.5455L109.699 47H99.8125L92.9261 34.9318L86.1534 47H76.1534L86.517 29.5455L76.517 12.0909H86.517ZM124.943 47.6591C122.716 47.6591 120.731 47.2727 118.989 46.5C117.246 45.7121 115.867 44.553 114.852 43.0227C113.852 41.4773 113.352 39.553 113.352 37.25C113.352 35.3106 113.708 33.6818 114.42 32.3636C115.133 31.0455 116.102 29.9848 117.33 29.1818C118.557 28.3788 119.951 27.7727 121.511 27.3636C123.087 26.9545 124.739 26.6667 126.466 26.5C128.496 26.2879 130.133 26.0909 131.375 25.9091C132.617 25.7121 133.519 25.4242 134.08 25.0455C134.64 24.6667 134.92 24.1061 134.92 23.3636V23.2273C134.92 21.7879 134.466 20.6742 133.557 19.8864C132.663 19.0985 131.39 18.7045 129.739 18.7045C127.996 18.7045 126.61 19.0909 125.58 19.8636C124.549 20.6212 123.867 21.5758 123.534 22.7273L114.58 22C115.034 19.8788 115.928 18.0455 117.261 16.5C118.595 14.9394 120.314 13.7424 122.42 12.9091C124.542 12.0606 126.996 11.6364 129.784 11.6364C131.723 11.6364 133.58 11.8636 135.352 12.3182C137.14 12.7727 138.723 13.4773 140.102 14.4318C141.496 15.3864 142.595 16.6136 143.398 18.1136C144.201 19.5985 144.602 21.3788 144.602 23.4545V47H135.42V42.1591H135.148C134.587 43.25 133.837 44.2121 132.898 45.0455C131.958 45.8636 130.83 46.5076 129.511 46.9773C128.193 47.4318 126.67 47.6591 124.943 47.6591ZM127.716 40.9773C129.14 40.9773 130.398 40.697 131.489 40.1364C132.58 39.5606 133.436 38.7879 134.057 37.8182C134.678 36.8485 134.989 35.75 134.989 34.5227V30.8182C134.686 31.0152 134.269 31.197 133.739 31.3636C133.223 31.5152 132.64 31.6591 131.989 31.7955C131.337 31.9167 130.686 32.0303 130.034 32.1364C129.383 32.2273 128.792 32.3106 128.261 32.3864C127.125 32.553 126.133 32.8182 125.284 33.1818C124.436 33.5455 123.777 34.0379 123.307 34.6591C122.837 35.2652 122.602 36.0227 122.602 36.9318C122.602 38.25 123.08 39.2576 124.034 39.9545C125.004 40.6364 126.231 40.9773 127.716 40.9773ZM167.841 60.8182C164.705 60.8182 162.015 60.3864 159.773 59.5227C157.545 58.6742 155.773 57.5152 154.455 56.0455C153.136 54.5758 152.28 52.9242 151.886 51.0909L160.841 49.8864C161.114 50.5833 161.545 51.2348 162.136 51.8409C162.727 52.447 163.508 52.9318 164.477 53.2955C165.462 53.6742 166.659 53.8636 168.068 53.8636C170.174 53.8636 171.909 53.3485 173.273 52.3182C174.652 51.303 175.341 49.5985 175.341 47.2045V40.8182H174.932C174.508 41.7879 173.871 42.7045 173.023 43.5682C172.174 44.4318 171.083 45.1364 169.75 45.6818C168.417 46.2273 166.826 46.5 164.977 46.5C162.356 46.5 159.97 45.8939 157.818 44.6818C155.682 43.4545 153.977 41.5833 152.705 39.0682C151.447 36.5379 150.818 33.3409 150.818 29.4773C150.818 25.5227 151.462 22.2197 152.75 19.5682C154.038 16.9167 155.75 14.9318 157.886 13.6136C160.038 12.2955 162.394 11.6364 164.955 11.6364C166.909 11.6364 168.545 11.9697 169.864 12.6364C171.182 13.2879 172.242 14.1061 173.045 15.0909C173.864 16.0606 174.492 17.0152 174.932 17.9545H175.295V12.0909H184.909V47.3409C184.909 50.3106 184.182 52.7955 182.727 54.7955C181.273 56.7955 179.258 58.2955 176.682 59.2955C174.121 60.3106 171.174 60.8182 167.841 60.8182ZM168.045 39.2273C169.606 39.2273 170.924 38.8409 172 38.0682C173.091 37.2803 173.924 36.1591 174.5 34.7045C175.091 33.2348 175.386 31.4773 175.386 29.4318C175.386 27.3864 175.098 25.6136 174.523 24.1136C173.947 22.5985 173.114 21.4242 172.023 20.5909C170.932 19.7576 169.606 19.3409 168.045 19.3409C166.455 19.3409 165.114 19.7727 164.023 20.6364C162.932 21.4848 162.106 22.6667 161.545 24.1818C160.985 25.697 160.705 27.447 160.705 29.4318C160.705 31.447 160.985 33.1894 161.545 34.6591C162.121 36.1136 162.947 37.2424 164.023 38.0455C165.114 38.8333 166.455 39.2273 168.045 39.2273ZM208.386 47.6818C204.856 47.6818 201.803 46.9318 199.227 45.4318C196.667 43.9167 194.689 41.8106 193.295 39.1136C191.902 36.4015 191.205 33.2576 191.205 29.6818C191.205 26.0758 191.902 22.9242 193.295 20.2273C194.689 17.5152 196.667 15.4091 199.227 13.9091C201.803 12.3939 204.856 11.6364 208.386 11.6364C211.917 11.6364 214.962 12.3939 217.523 13.9091C220.098 15.4091 222.083 17.5152 223.477 20.2273C224.871 22.9242 225.568 26.0758 225.568 29.6818C225.568 33.2576 224.871 36.4015 223.477 39.1136C222.083 41.8106 220.098 43.9167 217.523 45.4318C214.962 46.9318 211.917 47.6818 208.386 47.6818ZM208.432 40.1818C210.038 40.1818 211.379 39.7273 212.455 38.8182C213.53 37.8939 214.341 36.6364 214.886 35.0455C215.447 33.4545 215.727 31.6439 215.727 29.6136C215.727 27.5833 215.447 25.7727 214.886 24.1818C214.341 22.5909 213.53 21.3333 212.455 20.4091C211.379 19.4848 210.038 19.0227 208.432 19.0227C206.811 19.0227 205.447 19.4848 204.341 20.4091C203.25 21.3333 202.424 22.5909 201.864 24.1818C201.318 25.7727 201.045 27.5833 201.045 29.6136C201.045 31.6439 201.318 33.4545 201.864 35.0455C202.424 36.6364 203.25 37.8939 204.341 38.8182C205.447 39.7273 206.811 40.1818 208.432 40.1818ZM241.545 26.8182V47H231.864V12.0909H241.091V18.25H241.5C242.273 16.2197 243.568 14.6136 245.386 13.4318C247.205 12.2348 249.409 11.6364 252 11.6364C254.424 11.6364 256.538 12.1667 258.341 13.2273C260.144 14.2879 261.545 15.803 262.545 17.7727C263.545 19.7273 264.045 22.0606 264.045 24.7727V47H254.364V26.5C254.379 24.3636 253.833 22.697 252.727 21.5C251.621 20.2879 250.098 19.6818 248.159 19.6818C246.856 19.6818 245.705 19.9621 244.705 20.5227C243.72 21.0833 242.947 21.9015 242.386 22.9773C241.841 24.0379 241.561 25.3182 241.545 26.8182Z" fill="black"/>
</svg>
