<?xml version="1.0" standalone="no"?>
<svg xmlns:xlink="http://www.w3.org/1999/xlink" id="wave" style="transform:rotate(0deg); transition: 0.3s" viewBox="0 0 1440 490" version="1.1" xmlns="http://www.w3.org/2000/svg"><defs><linearGradient id="sw-gradient-0" x1="0" x2="0" y1="1" y2="0"><stop stop-color="rgba(54, 102, 126, 1)" offset="0%"/><stop stop-color="rgba(54, 102, 126, 1)" offset="100%"/></linearGradient></defs><path style="transform:translate(0, 0px); opacity:1" fill="url(#sw-gradient-0)" d="M0,98L60,89.8C120,82,240,65,360,89.8C480,114,600,180,720,212.3C840,245,960,245,1080,236.8C1200,229,1320,212,1440,171.5C1560,131,1680,65,1800,40.8C1920,16,2040,33,2160,98C2280,163,2400,278,2520,285.8C2640,294,2760,196,2880,171.5C3000,147,3120,196,3240,245C3360,294,3480,343,3600,334.8C3720,327,3840,261,3960,196C4080,131,4200,65,4320,106.2C4440,147,4560,294,4680,294C4800,294,4920,147,5040,130.7C5160,114,5280,229,5400,245C5520,261,5640,180,5760,163.3C5880,147,6000,196,6120,245C6240,294,6360,343,6480,359.3C6600,376,6720,359,6840,294C6960,229,7080,114,7200,65.3C7320,16,7440,33,7560,98C7680,163,7800,278,7920,318.5C8040,359,8160,327,8280,334.8C8400,343,8520,392,8580,416.5L8640,441L8640,490L8580,490C8520,490,8400,490,8280,490C8160,490,8040,490,7920,490C7800,490,7680,490,7560,490C7440,490,7320,490,7200,490C7080,490,6960,490,6840,490C6720,490,6600,490,6480,490C6360,490,6240,490,6120,490C6000,490,5880,490,5760,490C5640,490,5520,490,5400,490C5280,490,5160,490,5040,490C4920,490,4800,490,4680,490C4560,490,4440,490,4320,490C4200,490,4080,490,3960,490C3840,490,3720,490,3600,490C3480,490,3360,490,3240,490C3120,490,3000,490,2880,490C2760,490,2640,490,2520,490C2400,490,2280,490,2160,490C2040,490,1920,490,1800,490C1680,490,1560,490,1440,490C1320,490,1200,490,1080,490C960,490,840,490,720,490C600,490,480,490,360,490C240,490,120,490,60,490L0,490Z"/></svg>