<svg id="visual" viewBox="0 0 960 540" width="960" height="540" xmlns="http://www.w3.org/2000/svg" xmlns:xlink="http://www.w3.org/1999/xlink" version="1.1"><rect x="0" y="0" width="960" height="540" fill="#ffffff"></rect><path d="M0 480L40 479.5C80 479 160 478 240 477C320 476 400 475 480 464.7C560 454.3 640 434.7 720 419C800 403.3 880 391.7 920 385.8L960 380L960 541L920 541C880 541 800 541 720 541C640 541 560 541 480 541C400 541 320 541 240 541C160 541 80 541 40 541L0 541Z" fill="#071d0d" stroke-linecap="round" stroke-linejoin="miter"></path></svg>