<svg width="1440" height="71" viewBox="0 0 1440 71" fill="none" xmlns="http://www.w3.org/2000/svg">
<path d="M0 28.0004L48 20.0004C96 12.0004 192 -3.99962 288 1.70038C384 7.30038 480 34.7004 576 47.5004C672 60.3004 768 58.7004 864 46.8004C960 35.0004 1056 13.0004 1152 9.70038C1248 6.30038 1344 21.7004 1392 29.3004L1440 37.0004V71.0004H1392C1344 71.0004 1248 71.0004 1152 71.0004C1056 71.0004 960 71.0004 864 71.0004C768 71.0004 672 71.0004 576 71.0004C480 71.0004 384 71.0004 288 71.0004C192 71.0004 96 71.0004 48 71.0004H0V28.0004Z" fill="#134E4A"/>
</svg>
