<svg id="visual" viewBox="0 0 1440 140" width="1440" height="140" xmlns="http://www.w3.org/2000/svg" xmlns:xlink="http://www.w3.org/1999/xlink" version="1.1"><rect x="0" y="0" width="1440" height="140" fill="#fff"></rect><path d="M0 98L48 90C96 82 192 66 288 71.7C384 77.3 480 104.7 576 117.5C672 130.3 768 128.7 864 116.8C960 105 1056 83 1152 79.7C1248 76.3 1344 91.7 1392 99.3L1440 107L1440 141L1392 141C1344 141 1248 141 1152 141C1056 141 960 141 864 141C768 141 672 141 576 141C480 141 384 141 288 141C192 141 96 141 48 141L0 141Z" fill="#071d0d" stroke-linecap="round" stroke-linejoin="miter"></path></svg>