<svg id="visual" viewBox="0 0 1440 140" width="1440" height="140" xmlns="http://www.w3.org/2000/svg" xmlns:xlink="http://www.w3.org/1999/xlink" version="1.1"><rect x="0" y="0" width="1440" height="140" fill="#071d0d"></rect><path d="M0 93L48 83.8C96 74.7 192 56.3 288 62.7C384 69 480 100 576 114.5C672 129 768 127 864 113.5C960 100 1056 75 1152 71.3C1248 67.7 1344 85.3 1392 94.2L1440 103L1440 141L1392 141C1344 141 1248 141 1152 141C1056 141 960 141 864 141C768 141 672 141 576 141C480 141 384 141 288 141C192 141 96 141 48 141L0 141Z" fill="#fff" stroke-linecap="round" stroke-linejoin="miter"></path></svg>