<svg width="588" height="402" viewBox="0 0 588 402" fill="none" xmlns="http://www.w3.org/2000/svg">
							<g clip-path="url(#clip0_565_4555)">
							<path d="M472.653 128.689C470.19 124.998 470.437 123.522 472.776 119.831C479.056 109.62 483.12 98.3019 484.721 86.3684C486.198 74.1888 486.198 60.1639 477.455 52.1672C466.373 42.4482 452.828 47.1231 448.149 61.5172C444.701 72.2204 441.622 79.3559 434.727 87.3526C433.741 88.4598 433.372 88.9519 432.017 88.0907C416.748 79.2329 401.602 72.3434 390.027 70.375C369.587 67.0533 358.381 88.5828 375.128 101.378C384.24 108.267 390.274 113.188 397.785 121.677C401.849 126.229 400.864 129.55 397.785 134.225C387.811 149.481 383.255 157.969 380.792 173.225C378.329 188.357 397.539 207.426 414.901 184.051C420.812 176.177 427.215 168.796 434.357 161.906C435.588 160.43 439.529 160.676 441.007 161.906C446.671 166.95 453.197 175.07 458.738 183.19C472.653 201.644 507.871 190.079 481.642 142.591C479.918 139.762 475.855 133.487 472.653 128.689Z" fill="url(#paint0_linear_565_4555)"/>
							<path d="M419.827 171.871C414.286 179.13 403.942 194.139 392.121 193.893C398.524 196.599 406.898 194.877 414.902 184.051C420.812 176.177 427.215 168.796 434.357 161.906C435.219 161.168 436.328 160.799 437.436 160.922C431.279 159.569 426.846 162.521 419.827 171.871Z" fill="url(#paint1_linear_565_4555)"/>
							<path d="M481.519 142.714C479.918 139.762 475.855 133.487 472.653 128.812C472.16 128.074 471.791 127.336 471.422 126.598C473.022 131.888 479.672 141.73 482.627 150.342C486.321 160.922 491.493 175.685 483.243 183.682C474.993 191.679 464.772 187.988 458.615 183.313C472.53 201.767 507.747 190.079 481.519 142.714Z" fill="url(#paint2_linear_565_4555)"/>
							<path d="M392.244 74.6809C403.942 76.6493 418.349 83.7848 433.741 92.7657C435.096 93.5039 435.465 93.1348 436.451 92.0275C443.469 84.0309 446.425 76.8954 449.873 66.1921C454.552 51.5521 468.097 47.0001 479.179 56.7192C481.273 58.6876 482.997 61.0251 484.105 63.6086C482.997 59.3027 480.78 55.2428 477.579 52.1672C466.496 42.4482 452.951 47.1231 448.272 61.5172C444.824 72.2204 441.745 79.3559 434.85 87.3526C433.865 88.4598 433.495 88.9519 432.141 88.0907C416.748 79.2329 401.602 72.3434 390.027 70.375C372.049 67.4224 361.213 83.7848 370.325 96.4565C365.892 84.646 376.236 71.9743 392.244 74.6809Z" fill="#F9FC61"/>
							<path d="M382.393 177.653C384.856 162.398 389.412 153.91 399.386 138.654C402.218 134.471 403.203 131.273 400.371 127.459C400.371 129.55 399.386 131.642 397.662 134.102C387.688 149.358 383.132 157.846 380.669 173.102C380.053 177.038 380.792 181.098 382.639 184.666C382.147 182.451 382.023 179.991 382.393 177.653Z" fill="#F9FC61"/>
							<path d="M473.268 117.002C473.392 116.141 473.392 115.279 473.392 114.418C473.268 112.204 472.776 109.989 472.037 107.898C471.175 105.191 469.821 102.608 468.22 100.27C466.619 97.9327 464.772 95.8412 462.679 93.9959C460.585 92.1505 458.246 90.5511 455.783 89.3209C453.197 88.0906 450.488 87.1064 447.656 86.4913C445.439 85.9992 443.223 85.7531 441.006 85.7531C439.282 85.7531 438.297 85.8762 438.297 85.8762C436.45 85.9992 436.204 84.7689 438.174 84.3999C438.174 84.3999 439.282 84.2768 441.006 84.1538C443.346 84.0308 445.685 84.1538 448.148 84.5229C451.227 84.892 454.182 85.7531 457.014 87.1064C459.846 88.3367 462.432 90.059 464.772 92.0274C469.205 95.8412 472.53 101.254 474.13 107.283C474.746 109.62 475.115 111.958 475.115 114.418C475.115 115.402 474.992 116.387 474.869 117.371C474.623 118.724 473.761 119.339 473.515 119.216C473.022 118.847 473.145 118.232 473.268 117.002Z" fill="black"/>
							<path d="M483.859 81.8165L483.49 81.3244C483.244 80.9553 482.997 80.5862 482.628 80.0941C481.643 78.6178 480.411 77.3875 479.18 76.1573C475.978 73.0816 472.161 70.7441 467.851 69.1448C463.541 67.7915 459.108 67.1764 454.676 67.5455C452.952 67.6685 451.105 67.9146 449.381 68.2836C448.026 68.5297 447.287 68.7757 447.287 68.7757C445.933 69.1448 445.44 68.0376 446.795 67.4225C446.795 67.4225 447.534 67.0534 448.888 66.6843C450.612 66.1922 452.459 65.7001 454.306 65.454C459.108 64.7159 464.034 65.085 468.713 66.5613C473.269 68.2836 477.333 71.1132 480.658 74.681C481.889 76.0343 482.997 77.6336 483.982 79.2329C484.352 79.8481 484.598 80.3402 484.844 80.7092L485.091 81.2013C486.076 82.9237 484.967 83.6619 483.859 81.8165Z" fill="black"/>
							<path d="M443.469 161.783H444.085C444.454 161.783 445.07 161.66 445.809 161.66C447.779 161.414 449.626 161.045 451.473 160.43C453.813 159.692 456.152 158.708 458.369 157.354C460.462 156.124 462.433 154.648 464.28 152.925C466.127 151.326 467.604 149.358 468.959 147.266C470.313 145.175 471.422 142.837 472.16 140.5C472.776 138.654 473.269 136.809 473.515 134.841C473.638 134.102 473.761 133.487 473.761 133.118L473.884 132.503C474.008 130.904 475.239 130.904 475.362 132.503C475.362 132.503 475.362 132.749 475.362 133.118C475.362 133.487 475.362 134.225 475.239 134.964C475.116 137.055 474.746 139.023 474.254 141.115C473.515 143.698 472.53 146.282 471.175 148.619C469.821 150.957 468.22 153.171 466.25 155.017C464.28 156.862 462.063 158.339 459.724 159.569C457.384 160.799 454.798 161.783 452.212 162.398C450.242 162.89 448.149 163.137 446.055 163.26C445.316 163.26 444.701 163.26 444.208 163.26H443.592C441.13 163.137 441.007 161.906 443.469 161.783Z" fill="black"/>
							<path d="M489.153 160.922L489.03 161.414C488.907 161.906 488.907 162.398 488.784 162.89C488.414 164.613 487.799 166.335 487.06 167.934C486.075 170.026 484.843 171.994 483.366 173.717C481.888 175.439 480.164 176.915 478.194 178.145C474.254 180.483 469.944 181.836 465.388 182.328C463.664 182.451 461.94 182.451 460.216 182.328C458.861 182.205 458.122 182.082 458.122 182.082C456.768 181.836 456.891 180.606 458.246 180.606C458.246 180.606 458.984 180.606 460.216 180.606C461.817 180.606 463.541 180.36 465.141 180.114C469.205 179.376 473.145 177.899 476.716 175.685C478.44 174.578 480.041 173.347 481.396 171.871C482.873 170.395 484.105 168.672 485.213 166.95C486.075 165.597 486.69 164.121 487.183 162.521C487.306 162.029 487.429 161.66 487.552 161.168C487.676 160.799 487.676 160.676 487.676 160.676C488.045 158.953 489.276 158.707 489.153 160.922Z" fill="black"/>
							<path d="M430.54 163.998C427.954 163.383 425.492 162.644 423.029 161.66C418.473 159.938 414.163 157.6 410.222 154.771C406.282 151.818 402.834 148.25 400.125 144.191C399.017 142.591 398.155 140.869 397.416 139.147C397.17 138.654 396.923 138.162 396.8 137.547C396.677 137.178 396.677 136.932 396.677 136.932C396.308 135.456 397.416 135.087 398.032 136.44C398.032 136.44 398.155 136.686 398.278 136.932C398.524 137.424 398.647 137.916 399.017 138.408C399.879 140.008 400.864 141.484 401.849 142.96C404.681 146.528 408.129 149.727 411.823 152.433C415.517 155.263 419.581 157.6 423.768 159.692C426.107 160.799 428.447 161.783 430.91 162.521C432.88 163.26 432.88 164.49 430.54 163.998Z" fill="black"/>
							<path d="M415.148 181.959H414.532C414.163 181.959 413.67 181.959 413.055 181.836C411.331 181.713 409.607 181.467 407.883 180.975C403.573 179.868 399.386 178.146 395.569 175.808C393.599 174.701 391.875 173.225 390.274 171.625C388.673 170.026 387.319 168.058 386.21 166.089C385.348 164.49 384.733 162.767 384.487 161.045C384.363 160.553 384.363 160.061 384.24 159.446C384.24 159.077 384.24 158.831 384.24 158.831C384.24 157.354 385.472 157.354 385.718 158.708C385.718 158.708 385.718 158.831 385.841 159.2C385.964 159.692 386.087 160.184 386.21 160.553C386.703 162.029 387.319 163.506 388.181 164.859C389.289 166.581 390.643 168.181 392.121 169.534C393.599 170.887 395.323 172.117 397.047 173.225C400.618 175.439 404.435 177.285 408.498 178.761C410.099 179.253 411.7 179.745 413.301 179.991C413.916 180.114 414.409 180.114 414.778 180.237L415.271 180.36C416.995 180.606 417.364 181.959 415.148 181.959Z" fill="black"/>
							<path d="M426.23 86.1222L425.614 86.2453C425.244 86.2453 424.629 86.3683 423.89 86.6143C421.92 87.1064 420.073 87.7216 418.226 88.5827C415.886 89.69 413.669 91.0433 411.699 92.6426C409.729 94.2419 407.882 96.0873 406.281 97.9327C404.557 99.7781 403.203 101.87 401.848 104.084C400.617 106.298 399.632 108.759 398.77 111.219C398.154 113.188 397.785 115.156 397.538 117.125C397.415 118.601 397.292 119.585 397.292 119.585C397.169 121.185 396.061 121.308 395.814 119.585C395.814 119.585 395.814 118.601 395.814 117.002C395.938 114.91 396.184 112.819 396.676 110.727C397.292 108.021 398.277 105.437 399.509 102.977C400.74 100.516 402.218 98.1788 404.065 96.2103C405.912 94.1189 407.882 92.2735 410.098 90.6742C412.315 89.0748 414.778 87.7216 417.364 86.7374C419.334 85.9992 421.427 85.3841 423.521 85.138C424.259 85.015 424.998 85.015 425.368 84.892H425.983C428.446 84.6459 428.692 85.8762 426.23 86.1222Z" fill="black"/>
							<path d="M399.386 74.0658L398.893 74.3118C398.524 74.4349 398.154 74.6809 397.539 74.927C396.061 75.6651 394.706 76.6493 393.475 77.6335C391.874 78.8638 390.273 80.3401 388.919 81.9394C387.564 83.5388 386.456 85.2611 385.471 86.9835C384.486 88.8289 383.747 90.6743 383.131 92.6427C382.516 94.6111 382.146 96.7025 381.9 98.794C381.777 100.393 381.777 101.993 381.9 103.715C382.023 104.945 382.146 105.683 382.146 105.683C382.393 107.037 381.161 107.283 380.669 105.929C380.669 105.929 380.422 105.191 380.176 103.838C379.807 102.116 379.684 100.393 379.684 98.6709C379.684 96.4565 379.93 94.119 380.546 91.9045C381.038 89.6901 381.9 87.5986 383.008 85.6302C384.117 83.6618 385.471 81.8164 386.949 80.2171C389.658 77.2644 393.106 74.927 396.8 73.4506C397.415 73.2046 397.908 72.9585 398.277 72.9585L398.77 72.8355C400.74 72.0974 401.233 73.3276 399.386 74.0658Z" fill="black"/>
							<path d="M443.592 124.998C443.469 123.399 441.376 124.137 441.499 121.185C441.622 120.2 441.622 118.109 441.745 117.002C441.869 116.018 442.484 115.279 443.346 114.91C444.701 114.418 446.178 115.156 446.671 116.51V116.633C447.163 118.232 447.533 119.831 447.779 121.431C448.025 123.03 448.149 124.752 448.272 126.352C448.395 127.951 448.395 129.673 448.272 131.273C448.149 132.872 448.025 134.594 447.656 136.194C447.41 137.178 446.794 137.916 445.809 138.285C444.454 138.654 442.977 137.793 442.607 136.317C442.238 134.717 441.992 133.118 441.745 131.519C441.499 130.288 441.376 129.058 441.376 127.705C441.376 126.229 443.716 125.983 443.592 124.998Z" fill="black"/>
							<path d="M431.278 125.122C431.155 123.645 429.062 124.383 429.185 121.431C429.308 120.447 429.308 118.478 429.554 117.494C429.677 116.633 430.416 115.772 431.278 115.526C432.633 115.033 434.11 115.649 434.603 117.002V117.125C435.096 118.601 435.465 120.2 435.711 121.8C435.958 123.399 436.081 124.875 436.204 126.475C436.327 128.074 436.204 129.673 436.081 131.273C435.958 132.872 435.834 134.471 435.465 136.071C435.219 137.424 433.741 138.408 432.387 138.039C431.401 137.793 430.663 137.055 430.416 136.071C430.047 134.595 429.801 132.995 429.554 131.396C429.308 130.166 429.185 128.935 429.185 127.828C429.062 126.229 431.401 125.983 431.278 125.122Z" fill="black"/>
							</g>
							<g clip-path="url(#clip1_565_4555)">
							<path d="M309.173 171.658C301.606 154.349 278.493 141.32 250.785 140.533C231.695 139.989 214.466 145.386 202.795 154.301C199.64 164.495 200.622 175.309 202.14 185.73C202.805 190.298 203.416 194.889 204.174 199.444C204.282 200.09 204.411 200.734 204.538 201.377C235.733 208.426 268.054 208.931 299.455 202.859C300.354 202.685 301.201 202.309 301.933 201.761C302.665 201.212 303.263 200.504 303.682 199.691C308.188 191.071 310.095 181.33 309.173 171.649V171.658Z" fill="url(#paint3_linear_565_4555)"/>
							<path d="M193.24 429.655C181.782 427.797 178.347 424.048 170.611 402.794C162.875 381.541 142.764 279.516 142.447 260.621C142.129 241.726 164.074 237.035 164.074 237.035L209.555 424.721L193.24 429.655Z" fill="url(#paint4_linear_565_4555)"/>
							<path d="M176.66 348.765C175.151 348.446 173.661 348.047 172.195 347.569C169.489 346.707 166.88 345.568 164.409 344.17C161.989 342.687 159.728 340.96 157.662 339.015C156.532 337.967 155.461 336.858 154.453 335.692C153.889 334.982 154.903 333.972 155.651 334.42C155.651 334.42 157.167 335.612 159.26 337.023C161.353 338.433 164.027 340.036 166.133 341.258C168.219 342.507 170.914 344.072 173.17 345.201C175.427 346.33 177.198 347.1 177.198 347.1C178.27 347.579 177.989 349.072 176.66 348.765Z" fill="black"/>
							<path d="M177.849 338.025C176.44 338.028 175.032 337.957 173.63 337.811C171.048 337.565 168.5 337.049 166.026 336.272C163.583 335.404 161.238 334.285 159.028 332.933C157.822 332.209 156.656 331.419 155.536 330.569C154.901 330.037 155.672 328.831 156.432 329.069C156.432 329.069 158.023 329.815 160.166 330.647C162.308 331.48 164.999 332.377 167.1 333.063C169.192 333.782 171.878 334.689 174.095 335.302C176.312 335.916 178.027 336.288 178.027 336.288C178.243 336.33 178.434 336.45 178.565 336.626C178.696 336.802 178.756 337.02 178.733 337.238C178.711 337.456 178.608 337.657 178.444 337.803C178.281 337.948 178.068 338.027 177.849 338.025V338.025Z" fill="black"/>
							<path d="M188.433 380.196C188.433 380.196 186.41 380.181 183.74 379.984C180.875 379.789 178.025 379.407 175.21 378.842C172.414 378.187 169.663 377.351 166.975 376.341C164.464 375.414 162.619 374.589 162.619 374.589C162.45 374.481 162.323 374.32 162.256 374.132C162.189 373.944 162.186 373.74 162.247 373.55C162.309 373.36 162.432 373.196 162.597 373.084C162.763 372.971 162.96 372.916 163.16 372.928L167.679 373.889L175.931 375.537L184.12 377.46L188.632 378.463C189.827 378.723 189.818 380.239 188.433 380.196Z" fill="black"/>
							<path d="M179.919 372.817C168.931 336.596 163.875 321.947 163.142 291.219C162.41 260.491 179.991 204.888 179.991 204.888C251.093 201.184 251.144 201.188 314.112 210.695C328.135 212.907 342.876 221.356 346.62 227.507C348.624 227.976 350.469 228.965 351.969 230.373C353.469 231.781 354.571 233.559 355.165 235.528C360.119 241.671 381.406 260.677 381.406 260.677C381.406 260.677 391.659 258.969 391.317 269.038C394.734 269.38 394.563 271.427 394.563 271.427C394.563 271.427 401.056 270.575 402.595 276.035C404.133 281.496 429.934 299.756 435.745 305.046C441.555 310.336 434.035 333.38 417.631 337.983C401.227 342.587 401.57 334.57 401.57 334.57C401.57 334.57 380.039 321.77 375.246 320.746C370.454 319.723 366.222 313.824 366.222 313.824C365.012 313.155 363.858 312.389 362.774 311.532C354.742 313.238 353.546 313.067 349.612 305.388C345.681 301.803 323.297 289.858 323.297 289.858C322.203 297.212 320.72 304.503 318.855 311.701C321.137 313.217 322.848 315.45 323.714 318.048C324.581 320.645 324.554 323.456 323.638 326.036C323.638 326.036 331.156 328.426 329.277 337.642C339.061 344.407 372.224 359.875 384.097 410.019C386.453 415.508 390.719 420.779 390.814 434.898C390.878 444.765 387.709 458.427 387.709 458.427C394.37 465.271 386.704 475.904 386.704 475.904C386.704 475.904 384.318 528.222 383.842 535.575C383.367 542.927 378.506 551.414 378.981 557.344C379.457 563.274 380.714 572.437 380.714 572.437C380.714 572.437 378.142 564.275 367.93 564.039C357.718 563.802 351.067 571.154 346.792 583.489C342.518 595.823 341.329 596.779 338.005 595.823C334.681 594.866 332.533 577.14 332.533 577.14C332.533 577.14 327.307 573.342 328.021 568.363L328.733 563.382C328.733 563.382 317.341 535.1 315.917 512.092C315.137 496.326 315.398 480.525 316.698 464.792C316.698 464.792 316.154 467.974 317.575 463.467C312.825 451.133 305.403 457.304 290.679 448.053C290.915 465.369 290.203 498.813 291.391 505.929C292.578 513.045 294.003 519.687 290.203 520.398C291.199 523.64 291.837 526.981 292.104 530.361C292.104 530.361 298.754 534.63 296.617 543.881C294.481 553.132 297.515 550.285 300.392 569.024C303.268 587.762 302.792 623.579 298.28 637.814C300.392 644.219 295.905 650.623 295.905 650.623C295.905 650.623 298.517 671.971 291.154 678.373C283.791 684.774 277.616 676.001 265.269 666.512C252.922 657.023 242.469 659.871 242.469 659.871C241.159 658.643 240.165 657.118 239.571 655.425C238.977 653.732 238.801 651.921 239.057 650.145C239.769 643.741 238.819 634.253 233.832 616.464C228.845 598.675 220.531 568.55 219.581 561.909C219.05 557.743 219.54 553.511 221.007 549.575C221.007 549.575 208.657 538.427 214.831 517.553C212.913 515.629 211.531 513.239 210.823 510.617C210.115 507.996 210.105 505.236 210.793 502.609C210.793 502.609 206.296 500.474 200.831 475.1C195.366 449.727 183.179 411.173 182.698 389.588C172.73 382.227 179.919 372.817 179.919 372.817Z" fill="url(#paint5_linear_565_4555)"/>
							<path d="M457.182 346.282C456.698 342.339 460.016 330.289 455.95 326.907C450.212 322.379 443.826 318.736 437.006 316.099C438.201 311.225 437.857 306.958 435.747 305.034C429.937 299.744 404.136 281.485 402.597 276.024C401.059 270.563 394.566 271.416 394.566 271.416C394.566 271.416 394.737 269.371 391.319 269.026C391.66 258.957 381.409 260.665 381.409 260.665C381.409 260.665 360.122 241.659 355.166 235.516C354.573 233.547 353.471 231.769 351.971 230.361C350.471 228.953 348.626 227.965 346.622 227.495C344.46 223.941 338.62 219.629 331.373 216.189C325.907 213.555 320.098 211.703 314.116 210.686C299.365 208.458 284.168 206.956 269.544 205.961L264.062 249.485V250.348C264.062 250.348 293.018 234.879 300.411 230.631C307.803 226.382 322.965 221.821 326.441 223.924C327.602 231.282 326.003 241.332 321.991 255.487C315.703 277.687 303.378 317.343 303.378 317.343C303.378 317.343 313.666 316.933 309.403 331.088C314.194 330.65 313.461 340.976 309.403 349.608C316.51 350.287 324.998 350.667 339.06 362.39C354.205 375.016 350.879 386.579 365.879 406.332L353.215 407.726C350.011 408.994 353.26 412.017 355.33 414.77C363.787 426.016 365.759 456.486 356.283 473.577C361.84 483.11 361.848 517.435 360.232 531.653C358.616 545.871 359.793 549.223 362.688 549.025C368.652 548.616 353.427 564.032 352.452 572.153V572.177C356.377 566.828 361.435 563.88 367.953 564.031C378.165 564.268 380.737 572.43 380.737 572.43C380.737 572.43 379.478 563.266 379.004 557.336C378.531 551.407 383.392 542.921 383.864 535.567C384.336 528.214 386.727 475.896 386.727 475.896C386.727 475.896 394.393 465.264 387.732 458.42C387.732 458.42 390.901 444.758 390.835 434.891C390.743 420.772 386.476 415.501 384.12 410.012C372.247 359.868 339.078 344.398 329.3 337.634C331.179 328.418 323.661 326.029 323.661 326.029C324.577 323.449 324.604 320.637 323.737 318.04C322.871 315.443 321.16 313.21 318.878 311.694C320.743 304.496 322.225 297.205 323.319 289.85C323.319 289.85 345.704 301.796 349.634 305.38C353.564 313.06 354.761 313.231 362.795 311.523C363.88 312.38 365.034 313.147 366.245 313.816C366.245 313.816 370.486 319.715 375.271 320.739C380.056 321.763 401.585 334.563 401.585 334.563C401.585 334.563 401.341 340.523 411.799 339.206C411.966 344.598 415.241 351.877 416.933 354.644C418.396 356.97 419.569 359.467 420.424 362.078C420.424 362.078 421.819 370.265 425.542 370.819C429.266 371.372 432.056 368.118 432.287 364.634C432.518 361.149 430.427 354.644 430.427 354.644C432.926 355.909 435.357 357.306 437.71 358.827C438.336 359.523 433.684 361.613 435.544 365.563C437.404 369.512 444.611 372.068 449.501 372.3C454.391 372.532 451.096 365.932 453.92 364.169C457.642 361.845 457.177 354.644 457.177 354.644C457.46 351.864 457.462 349.062 457.182 346.282V346.282Z" fill="url(#paint6_linear_565_4555)"/>
							<path d="M335.824 261.611L333.261 294.938L323.311 289.858L324.441 280.142L335.824 261.611Z" fill="url(#paint7_linear_565_4555)"/>
							<path d="M163.709 304.615C169.604 284.878 188.912 257.697 187.283 233.304C185.654 208.91 181.529 193.577 163.121 181.962C158.206 174.992 156.704 174.275 156.704 174.275C157.262 172.625 157.436 170.869 157.212 169.142C156.989 167.415 156.374 165.761 155.415 164.307C159.136 148.044 162.626 117.379 161.231 109.245C159.835 101.112 138.9 89.5004 128.664 91.3597C118.429 93.2189 114.707 99.026 112.847 104.136C110.987 109.247 100.286 152.226 98.4248 159.427C96.5632 166.629 95.8656 173.134 100.519 175.923C97.5849 181.498 96.918 187.989 98.6573 194.043C100.052 198.457 105.636 210.537 110.985 212.164C119.593 240.041 152.159 282.323 156.346 288.592C159.391 293.642 161.861 299.016 163.709 304.615V304.615Z" fill="url(#paint8_linear_565_4555)"/>
							<path d="M163.121 181.962C158.208 174.992 156.704 174.275 156.704 174.275C157.262 172.625 157.436 170.869 157.212 169.142C156.989 167.415 156.374 165.761 155.415 164.307C159.136 148.044 162.626 117.379 161.231 109.245C160.774 106.577 158.206 103.536 154.61 100.719C154.196 102.66 154.105 104.656 154.343 106.626C155.17 115.143 153.084 148.37 149.986 156.16C153.524 161.208 143.158 180.634 143.158 180.634C143.158 180.634 153.41 179.065 155.181 181.611C156.952 184.157 166.505 192.733 166.505 192.733C166.505 192.733 172.494 194.11 178.804 215.541C182.054 226.575 190.147 240.589 190.147 240.589C190.147 240.589 191.878 215.342 199.572 213.454L200.803 212.504L199.683 204.295C191.434 204.432 185.341 204.652 182.266 204.782C178.795 195.546 173.029 188.214 163.121 181.962Z" fill="url(#paint9_linear_565_4555)"/>
							<path d="M158.473 107.973C158.127 108.656 157.718 109.304 157.252 109.911C156.078 111.428 154.642 112.723 153.011 113.735C150.892 115.045 148.526 115.907 146.06 116.269C143.65 116.615 141.199 116.57 138.802 116.137C134.04 115.262 129.584 113.178 125.86 110.086C124.405 108.831 123.199 107.314 122.306 105.613C121.941 104.929 121.657 104.206 121.458 103.457C121.129 101.874 122.576 101.719 123.112 102.89C123.356 103.498 123.667 104.076 124.039 104.615C124.965 105.974 126.127 107.155 127.47 108.103C131.072 110.499 135.142 112.102 139.411 112.807C141.482 113.204 143.596 113.328 145.699 113.175C147.807 113.01 149.865 112.446 151.762 111.513C153.238 110.779 154.579 109.802 155.728 108.621C156.19 108.145 156.608 107.63 156.98 107.081C157.508 106.336 158.048 106 158.456 106.139C158.814 106.257 159.029 106.921 158.473 107.973Z" fill="black"/>
							<path d="M143.212 107.212C152.446 109.987 160.533 107.925 164.663 99.8482C168.793 91.7715 173.614 87.9917 175.163 82.6579C176.712 77.324 181.191 75.6561 182.905 74.0656C185.315 71.8325 183.937 68.5667 179.464 68.0512C174.99 67.5356 169.484 70.9722 166.56 73.7224L163.635 76.4726C163.752 69.4755 163.499 62.4771 162.876 55.5067C161.914 47.9456 162.363 42.7681 161.914 40.9015C160.881 36.6061 154.17 35.9182 153.827 39.5272C153.483 43.1361 152.623 56.1961 152.623 56.1961C152.623 56.1961 148.837 36.7828 147.977 34.8988C147.117 33.0147 139.546 31.2913 140.233 36.2746C140.921 41.2579 142.189 59.8094 142.189 59.8094C142.189 59.8094 138.341 37.2984 136.449 37.2984C134.556 37.2984 131.459 36.9537 130.081 43.8284C126.297 43.8284 123.543 45.7183 122.34 50.5293C121.136 55.3402 121.307 63.5279 121.478 70.1748C121.649 76.8216 123.888 98.4739 129.394 102.769C134.9 107.065 137.889 105.61 143.212 107.212Z" fill="url(#paint10_linear_565_4555)"/>
							<path d="M179.147 75.3553C176.353 76.4665 173.958 78.3911 172.273 80.879C170.428 83.6204 168.698 86.4742 167.028 89.3237C163.921 94.6239 161.545 100.783 156.864 104.941C155.373 106.262 153.726 107.396 151.959 108.318C154.648 108.192 157.251 107.337 159.489 105.844C161.728 104.352 163.517 102.278 164.664 99.8468C168.793 91.7701 173.611 87.9902 175.159 82.6622C176.706 77.3343 181.188 75.6605 182.902 74.07C183.037 73.9462 183.164 73.814 183.282 73.6742C181.893 74.2058 180.511 74.755 179.147 75.3553Z" fill="url(#paint11_linear_565_4555)"/>
							<path d="M162.874 55.5126C162.713 54.2419 162.602 53.0648 162.509 51.9314C162.197 54.8524 161.691 57.7735 161.314 60.769C161.204 61.6264 161.062 62.4822 160.9 63.3337C160.534 65.634 160.09 67.9124 159.584 70.2055C159.119 72.3203 158.73 74.5038 158.276 76.6756C158.594 76.5821 158.91 76.4697 159.23 76.3966C160.445 76.1202 161.696 76.0389 162.937 76.1556C163.07 75.8555 163.252 75.5792 163.475 75.3377C163.534 75.2749 163.588 75.2107 163.646 75.1479C163.742 68.5937 163.485 62.0391 162.874 55.5126V55.5126Z" fill="url(#paint12_linear_565_4555)"/>
							<path d="M314.739 202.656L314.791 210.806C308.411 216.155 278.774 239.14 264.062 250.352C252.316 243.682 208.132 218.571 184.756 204.825V198.965L314.739 202.656Z" fill="url(#paint13_linear_565_4555)"/>
							<path d="M199.055 202.653C199.042 201.559 199.064 200.462 199.09 199.371L184.19 198.787L184.183 204.901C189.083 207.635 194.144 210.321 199.571 213.462C199.39 209.855 199.104 206.259 199.055 202.653Z" fill="url(#paint14_linear_565_4555)"/>
							<path d="M263.802 209.551C264.599 217.074 264.749 244.256 264.875 249.73C279.839 238.309 308.526 216.059 314.791 210.806L314.74 202.656L260.027 201.106C260.372 204.331 263.46 206.322 263.802 209.551Z" fill="url(#paint15_linear_565_4555)"/>
							<path d="M318.978 337.227C319.575 336.958 320.186 336.719 320.808 336.513C323.059 335.633 325.535 335.499 327.868 336.132C328.51 336.27 329.145 336.441 329.769 336.644C330.132 336.807 329.991 338.231 329.623 338.385L327.782 338.677C326.743 338.844 325.479 339.063 324.488 339.126C323.498 339.189 322.216 339.088 321.166 339.034L319.304 338.934C318.81 338.914 318.441 337.449 318.978 337.227Z" fill="black"/>
							<path d="M305.377 336.758C305.872 335.456 306.444 334.183 307.089 332.948C308.27 330.562 309.91 328.431 311.915 326.679C314.089 324.948 316.727 323.899 319.496 323.665C320.57 323.579 321.649 323.65 322.702 323.875C323.122 323.96 323.535 324.075 323.939 324.218C324.763 324.586 324.232 325.926 323.525 325.915C323.174 325.875 322.82 325.856 322.467 325.858C321.595 325.857 320.726 325.968 319.883 326.188C317.738 326.793 315.75 327.855 314.056 329.301C312.257 330.774 310.641 332.458 309.242 334.315C307.878 336.097 306.92 337.566 306.92 337.566C306.798 337.742 306.616 337.868 306.408 337.919C306.2 337.97 305.98 337.943 305.79 337.844C305.601 337.745 305.454 337.579 305.378 337.379C305.301 337.179 305.301 336.958 305.377 336.758V336.758Z" fill="black"/>
							<path d="M285.48 347.718L284.958 348.123C284.482 348.502 283.985 348.855 283.47 349.18C281.729 350.312 279.86 351.232 277.901 351.921C275.363 352.819 272.715 353.364 270.029 353.543C267.369 353.731 264.696 353.574 262.078 353.074C259.488 352.54 256.964 351.726 254.552 350.645C252.143 349.555 249.833 348.258 247.648 346.77C245.971 345.632 244.36 344.4 242.822 343.079C241.67 342.094 241.007 341.473 241.007 341.473C239.837 340.304 240.806 339.251 242.126 340.131C242.126 340.131 242.837 340.665 244.045 341.503C245.253 342.342 246.97 343.474 248.994 344.604C251.162 345.823 253.417 346.881 255.741 347.771C258.012 348.622 260.349 349.287 262.728 349.758C267.493 350.741 272.418 350.648 277.142 349.487C278.983 349.012 280.765 348.333 282.455 347.462C282.957 347.212 283.445 346.935 283.917 346.633L284.439 346.314C286.168 345.114 287.442 346.035 285.48 347.718Z" fill="black"/>
							<path d="M262.182 337.922L261.12 337.655C260.43 337.491 259.435 337.225 258.205 336.849C254.927 335.86 251.719 334.651 248.603 333.229C244.577 331.395 240.693 329.263 236.983 326.853C233.319 324.481 229.808 321.881 226.471 319.068C219.889 313.331 213.761 307.093 208.143 300.412C205.502 297.344 203.25 294.594 201.644 292.628L199.085 289.468C197.384 287.29 198.5 286.386 200.41 288.329L203.157 291.317C204.876 293.179 207.273 295.782 210.044 298.695C215.916 304.964 222.131 310.903 228.659 316.487C235.114 322.076 242.178 326.922 249.717 330.932C252.669 332.463 255.715 333.806 258.836 334.954C260.005 335.392 260.959 335.711 261.614 335.911L262.63 336.238C266.183 337.249 266.336 338.833 262.182 337.922Z" fill="black"/>
							<path d="M223.734 333.43C223.734 333.43 221.15 331.189 217.934 328.002C210.932 321.238 204.894 313.546 199.989 305.141C197.649 301.262 196.096 298.219 196.096 298.219C195.413 296.829 196.659 296.125 197.595 297.32C197.595 297.32 199.484 300.13 202.119 303.731C204.755 307.333 208.155 311.703 210.841 315.1C213.5 318.518 216.932 322.861 219.814 326.272C222.697 329.682 224.966 332.191 224.966 332.191C226.351 333.735 225.477 334.992 223.734 333.43Z" fill="black"/>
							<path d="M246.458 370.264C246.458 370.264 245.512 368.11 244.041 365.399C242.569 362.688 240.55 359.45 238.887 356.982C237.256 354.491 235.085 351.358 233.144 348.949C231.204 346.541 229.604 344.826 229.604 344.826C229.458 344.664 229.378 344.453 229.38 344.235C229.382 344.017 229.464 343.808 229.612 343.647C229.76 343.487 229.963 343.388 230.18 343.369C230.398 343.349 230.615 343.412 230.788 343.544C232.271 344.691 233.687 345.921 235.029 347.229C240.103 351.958 243.985 357.819 246.36 364.332C247.038 366.079 247.619 367.862 248.1 369.673C248.479 371.119 247.097 371.733 246.458 370.264Z" fill="black"/>
							<path d="M186.027 209.526L186.793 210.679C187.46 211.763 188.064 212.885 188.604 214.038C190.324 217.974 191.44 222.147 191.913 226.416C192.525 231.885 192.521 237.405 191.9 242.873C191.267 248.248 190.165 253.558 188.606 258.742C185.631 269.101 181.981 279.256 177.681 289.141C175.986 292.994 174.097 296.76 172.021 300.422C171.242 301.804 170.571 302.886 170.088 303.619L169.357 304.76C167.309 307.59 166.201 306.679 167.877 303.829L168.529 302.68C168.968 301.95 169.563 300.859 170.259 299.467C171.678 296.705 173.501 292.748 175.326 288.14C179.016 278.927 182.695 267.109 185.354 257.797C186.886 252.783 188.041 247.663 188.808 242.477C189.554 237.243 189.743 231.945 189.373 226.671C189.091 222.612 188.213 218.616 186.768 214.812C186.314 213.714 185.801 212.641 185.23 211.599L184.57 210.487C184.044 209.488 183.491 208.815 183.263 208.215C183.007 207.639 182.945 207.239 183.074 207.076C183.203 206.912 183.526 206.988 184.036 207.368C184.358 207.614 184.661 207.883 184.943 208.172C185.364 208.573 185.728 209.028 186.027 209.526V209.526Z" fill="black"/>
							<path d="M196.226 242.697C196.226 242.697 196.606 239.606 196.673 235.541C196.761 231.226 196.397 226.913 195.588 222.674C194.896 218.503 193.392 214.509 191.16 210.917C190.284 209.573 189.182 208.391 187.903 207.423C187.535 207.156 187.149 206.915 186.748 206.7C186.62 206.634 186.488 206.577 186.352 206.531C186.156 206.46 185.98 206.346 185.836 206.196C185.692 206.047 185.585 205.866 185.522 205.669C185.389 205.304 185.828 204.709 186.777 204.836C187 204.88 187.219 204.941 187.432 205.019C187.965 205.218 188.481 205.458 188.977 205.736C190.593 206.684 192.023 207.917 193.198 209.376C196.093 213.075 198.054 217.417 198.915 222.033C199.692 226.552 199.796 231.161 199.225 235.71C198.985 237.812 198.658 239.633 198.397 240.927C198.137 242.221 197.95 242.994 197.95 242.994C197.482 244.893 195.964 244.799 196.226 242.697Z" fill="black"/>
							<path d="M170.897 204.32C170.061 199.708 168.838 195.174 167.241 190.767C165.767 186.662 164.338 183.695 164.338 183.695C163.632 182.394 162.304 182.926 162.709 184.329C162.709 184.329 163.744 187.396 164.797 191.52C165.274 193.347 165.735 195.38 166.162 197.432C165.222 196.034 164.206 194.688 163.118 193.401C161.552 191.547 160.238 190.269 160.238 190.269C159.579 189.752 158.483 190.665 158.878 191.368C158.878 191.368 159.851 192.863 161.036 194.88C162.221 196.897 163.594 199.437 164.648 201.41C165.873 203.541 166.985 205.735 167.978 207.983C168.026 208.096 168.067 208.202 168.113 208.311C168.624 211.641 169.089 215.291 169.341 218.414C169.698 222.649 169.734 225.89 169.734 225.89C169.761 228.098 171.277 227.971 171.489 225.956C171.489 225.956 171.858 222.684 171.903 218.323C171.965 213.635 171.628 208.951 170.897 204.32Z" fill="black"/>
							<path d="M117.294 212.791H118.103C118.626 212.807 119.385 212.791 120.331 212.72C129.284 212.122 137.702 208.25 143.977 201.844C146.194 199.578 148.145 197.067 149.791 194.359C151.476 191.597 152.852 188.658 153.893 185.596C154.703 183.221 155.255 180.765 155.54 178.273C155.672 177.336 155.686 176.583 155.713 176.063C155.739 175.543 155.749 175.258 155.749 175.258C155.749 173.228 157.174 173.041 157.504 175.205C157.504 175.205 157.519 175.506 157.538 176.058C157.557 176.61 157.602 177.417 157.538 178.419C157.442 181.09 157.043 183.742 156.347 186.323C155.452 189.663 154.158 192.884 152.492 195.916C150.844 198.939 148.796 201.726 146.402 204.203C143.975 206.676 141.179 208.758 138.113 210.375C135.046 212.022 131.756 213.218 128.347 213.925C125.729 214.478 123.058 214.742 120.382 214.711C119.381 214.699 118.581 214.66 118.031 214.599L117.183 214.527C114.218 214.134 114.191 212.614 117.294 212.791Z" fill="black"/>
							<path d="M143.969 185.341L142.646 186.048C141.799 186.51 140.585 187.198 139.136 188.115C137.687 189.032 135.992 190.17 134.205 191.546C133.757 191.889 133.301 192.244 132.845 192.616L132.687 192.743L132.656 192.776L132.608 192.831L132.529 192.926C132.438 193.046 132.402 193.123 132.411 193.161C132.54 193.126 132.667 193.081 132.791 193.028C132.813 193.019 132.834 193.005 132.852 192.989C132.861 192.989 132.852 192.989 132.841 192.989C133.007 192.945 133.425 192.885 133.696 192.797C138.911 191.527 143.696 188.898 147.563 185.179C149.064 183.704 150.415 182.083 151.593 180.339C152.004 179.659 152.333 179.114 152.558 178.733C152.677 178.54 152.783 178.341 152.875 178.135C153.686 176.621 155.035 177.113 154.462 178.866C154.384 179.095 154.291 179.319 154.186 179.537C153.982 179.961 153.686 180.576 153.316 181.344C152.22 183.343 150.911 185.217 149.411 186.933C147.441 189.152 145.156 191.071 142.63 192.629C140.118 194.188 137.38 195.35 134.512 196.072C134.142 196.18 133.889 196.206 133.392 196.311C132.738 196.457 132.076 196.569 131.41 196.646C130.154 196.792 129.07 196.792 128.009 196.861C125.918 196.954 124.06 196.975 123.303 196.957C125.204 195.283 126.887 193.804 128.61 192.353L129.96 191.293L130.618 190.779L131.151 190.389C131.652 190.028 132.15 189.688 132.64 189.367C134.373 188.206 136.168 187.14 138.016 186.174C139.592 185.347 140.903 184.749 141.818 184.356C142.734 183.963 143.243 183.76 143.243 183.76C145.561 182.862 146.362 184.164 143.969 185.341Z" fill="black"/>
							<path d="M156.865 174.516C155.907 175.48 154.881 176.375 153.794 177.192C151.807 178.713 149.631 179.971 147.32 180.935C144.961 181.819 142.486 182.36 139.973 182.542C138.601 182.652 137.222 182.626 135.855 182.466C135.049 182.33 135.146 180.901 135.855 180.72C137.107 180.578 138.347 180.344 139.565 180.021C141.778 179.413 143.951 178.666 146.07 177.785C148.012 177.04 150.489 176.019 152.424 175.029C154.359 174.038 155.758 173.153 155.758 173.153C155.848 173.081 155.951 173.026 156.061 172.994C156.172 172.961 156.288 172.95 156.403 172.962C156.517 172.974 156.629 173.008 156.73 173.063C156.832 173.118 156.921 173.192 156.994 173.282C157.067 173.371 157.121 173.474 157.154 173.585C157.187 173.695 157.197 173.811 157.185 173.926C157.174 174.04 157.139 174.151 157.084 174.253C157.029 174.354 156.955 174.443 156.865 174.516V174.516Z" fill="black"/>
							<path d="M149.579 141.685C149.579 141.685 149.424 142.103 149.243 142.812C148.995 143.746 148.823 144.699 148.731 145.66C148.344 150.512 149.685 155.345 152.518 159.305C153.091 160.081 153.726 160.808 154.42 161.479C154.946 161.989 155.288 162.274 155.288 162.274C155.873 162.808 155.158 164.048 154.31 163.721C154.31 163.721 153.871 163.495 153.182 163.049C150.218 161.25 147.928 158.526 146.668 155.298C145.408 152.07 145.248 148.517 146.211 145.189C146.496 144.126 146.882 143.093 147.365 142.104C147.55 141.707 147.757 141.322 147.986 140.949C148.034 140.844 148.103 140.749 148.187 140.67C148.272 140.591 148.371 140.53 148.48 140.49C148.588 140.45 148.704 140.431 148.819 140.436C148.935 140.44 149.049 140.468 149.154 140.516C149.259 140.565 149.353 140.634 149.431 140.719C149.51 140.804 149.57 140.904 149.61 141.012C149.649 141.121 149.667 141.236 149.662 141.352C149.656 141.467 149.628 141.58 149.579 141.685V141.685Z" fill="black"/>
							<path d="M289.178 446.829C289.178 446.829 288.365 445.538 287.258 443.306C285.784 440.338 284.491 437.282 283.386 434.158C282.677 432.181 282.072 430.169 281.574 428.129C280.982 425.89 280.711 423.579 280.77 421.264C280.794 420.95 280.794 420.648 280.844 420.324L281.088 419.32C281.236 418.764 281.417 418.216 281.629 417.681C281.996 416.69 282.35 415.704 282.665 414.714C283.329 412.754 283.903 410.821 284.439 409.018C286.609 401.791 289.066 392.368 291.574 384.888C292.82 381.151 294.072 377.911 295.059 375.629C296.074 373.356 296.748 372.015 296.748 372.015C298.064 369.617 299.295 370.344 298.334 372.746C298.334 372.746 297.768 374.092 296.917 376.363C296.093 378.646 295.054 381.885 294.019 385.627C291.934 393.107 289.882 402.607 287.687 409.976C287.137 411.816 286.524 413.782 285.786 415.793C285.179 417.784 283.943 420.011 283.871 421.528C283.764 423.544 283.928 425.565 284.36 427.537C284.76 429.561 285.255 431.537 285.812 433.379C286.727 436.47 287.814 439.507 289.067 442.477C290.01 444.711 290.695 445.982 290.695 445.982C291.496 447.554 291.781 448.465 291.523 448.813C291.3 449.132 290.252 448.633 289.178 446.829Z" fill="black"/>
							<path d="M207.687 394.51C206.246 393.753 204.752 393.101 203.217 392.559C200.437 391.596 197.571 390.903 194.659 390.491C191.755 390.022 188.813 389.831 185.873 389.923C184.245 389.981 182.625 390.161 181.025 390.462C180.817 390.48 180.61 390.425 180.44 390.306C180.269 390.188 180.145 390.013 180.09 389.813C180.034 389.613 180.051 389.4 180.137 389.21C180.223 389.021 180.372 388.868 180.56 388.778C182.185 388.157 183.864 387.691 185.577 387.386C188.742 386.8 191.979 386.719 195.169 387.146C198.342 387.683 201.41 388.723 204.255 390.225C205.797 391.028 207.262 391.971 208.632 393.041C209.723 393.895 208.954 395.192 207.687 394.51Z" fill="black"/>
							<path d="M394.184 273.737L393.578 274.046C393.018 274.324 392.476 274.637 391.955 274.984C390.139 276.07 388.405 277.286 386.765 278.623C378.429 285.594 372.169 294.717 368.668 304.998C368.261 306.194 368.019 307.355 367.72 308.385C367.466 309.424 367.336 310.368 367.175 311.149C367.048 311.76 366.959 312.379 366.91 313.001L366.84 313.676C366.615 315.389 365.182 315.394 365.094 313.585C365.094 313.585 365.094 313.334 365.094 312.874C365.083 312.219 365.114 311.564 365.186 310.913C365.277 310.085 365.332 309.077 365.497 307.964C365.714 306.861 365.872 305.611 366.201 304.313C368.833 293.005 375.627 283.1 385.232 276.563C387.064 275.292 388.994 274.169 391.003 273.203C391.58 272.895 392.177 272.623 392.789 272.39L393.451 272.129C395.769 271.241 396.522 272.555 394.184 273.737Z" fill="black"/>
							<path d="M358.928 311.623C358.928 311.623 359.739 310.768 360.683 309.578C361.626 308.388 362.693 306.857 363.52 305.671C364.369 304.503 365.479 303.01 366.291 301.719C367.103 300.428 367.651 299.389 367.651 299.389C367.944 298.941 369.312 299.363 369.308 299.949C369.149 300.911 368.917 301.859 368.615 302.787C367.615 306.287 365.438 309.337 362.451 311.423C361.671 312.009 360.85 312.537 359.992 313.003C359.311 313.374 358.374 312.192 358.928 311.623Z" fill="black"/>
							<path d="M384.988 289.994C385.105 289.584 385.244 289.181 385.406 288.787C385.794 287.79 386.275 286.832 386.845 285.926C388.641 283.098 391.275 280.9 394.381 279.64C397.487 278.379 400.91 278.118 404.172 278.894C404.951 279.076 405.405 279.23 405.405 279.23C406.23 279.555 405.82 280.928 405.048 280.939C405.048 280.939 404.609 280.895 403.904 280.874C402.965 280.846 402.025 280.895 401.094 281.02C396.417 281.72 392.117 283.986 388.899 287.447C388.011 288.425 387.24 289.503 386.603 290.66C386.567 290.777 386.507 290.885 386.427 290.977C386.347 291.07 386.249 291.144 386.138 291.197C386.028 291.249 385.907 291.278 385.785 291.281C385.663 291.284 385.541 291.261 385.428 291.214C385.315 291.168 385.213 291.098 385.129 291.01C385.044 290.921 384.979 290.816 384.938 290.701C384.896 290.587 384.879 290.464 384.888 290.342C384.897 290.22 384.931 290.102 384.988 289.994V289.994Z" fill="black"/>
							<path d="M347.626 230.385C347.614 229.816 347.591 229.509 347.591 229.509C347.298 227.289 345.875 227.417 345.843 229.548C345.843 229.548 345.843 229.84 345.808 230.387C345.773 230.933 345.766 231.716 345.64 232.69C345.366 235.278 344.814 237.829 343.993 240.299C342.115 246.229 338.085 253.127 335.365 258.765C333.223 263.104 330.476 268.362 328.072 273.252C329.252 268.933 330.403 264.383 331.243 260.519C332.471 254.848 333.701 247.536 334.537 241.64C335.374 235.744 335.853 231.27 335.853 231.27C336.216 228.203 334.673 228.3 334.125 231.002C334.125 231.002 333.215 235.395 332.015 241.2L327.927 259.809C326.722 265.449 325.184 272.648 323.947 278.442L321.969 287.167C321.838 287.527 321.766 287.73 321.766 287.73C321.099 289.628 321.389 290.424 321.977 290.213C322.366 290.465 322.952 290.144 323.329 289.066C323.329 289.066 323.559 288.371 323.941 287.179C324.727 285.501 326.313 282.227 328.433 278.394C331.488 272.793 335.583 265.934 338.394 260.284C341.076 254.671 344.817 247.497 346.444 241.022C347.148 238.346 347.546 235.599 347.63 232.833C347.689 231.777 347.636 230.955 347.626 230.385Z" fill="black"/>
							<path d="M131.873 64.283C131.873 64.283 130.305 58.3066 129.795 54.3953C129.315 50.4811 129.344 44.3031 129.344 44.3031C129.389 43.6006 130.806 43.4268 131.08 44.084C131.08 44.084 132.646 50.0605 133.157 53.9717C133.636 57.8859 133.607 64.0639 133.607 64.0639C133.601 64.2745 133.519 64.476 133.378 64.6319C133.236 64.7879 133.043 64.8881 132.834 64.9146C132.624 64.941 132.413 64.8919 132.236 64.7761C132.06 64.6603 131.931 64.4854 131.873 64.283Z" fill="black"/>
							<path d="M156.04 63.3177L155.724 63.2023C155.522 63.122 155.224 63.0197 154.846 62.9102C153.849 62.6138 152.826 62.4119 151.79 62.307C149.13 62.0862 146.451 62.2774 143.849 62.8737C141.151 63.4255 138.495 64.1623 135.898 65.0791L131.511 66.6506C131.314 66.6899 131.11 66.6626 130.93 66.5729C130.751 66.4833 130.607 66.3365 130.52 66.1557C130.433 65.9749 130.41 65.7705 130.452 65.5747C130.495 65.3789 130.602 65.203 130.756 65.0747C130.756 65.0747 132.473 64.0056 134.874 62.7378C137.48 61.307 140.269 60.2377 143.165 59.5597C146.176 58.9658 149.281 59.0476 152.257 59.7993C153.412 60.0994 154.532 60.5224 155.597 61.0612C155.911 61.216 156.217 61.3866 156.514 61.5723L156.838 61.7695C157.958 62.5304 157.205 63.8391 156.04 63.3177Z" fill="black"/>
							<path d="M314.793 202.658C314.939 197.521 285.821 192.526 249.756 191.502C213.69 190.477 184.335 193.811 184.189 198.948C184.042 204.085 213.161 209.08 249.226 210.104C285.291 211.128 314.647 207.794 314.793 202.658Z" fill="url(#paint16_linear_565_4555)"/>
							<path d="M249.755 191.501C213.691 190.478 184.336 193.811 184.188 198.949C184.125 201.212 189.745 203.445 199.131 205.324L245.063 206.218C245.469 206.214 245.87 206.294 246.244 206.452C246.244 206.452 314.792 207.742 314.792 202.655C314.792 197.518 285.819 192.526 249.755 191.501Z" fill="url(#paint17_linear_565_4555)"/>
							<path d="M299.455 202.859C300.354 202.684 301.201 202.309 301.933 201.76C302.665 201.211 303.264 200.504 303.683 199.691C307.214 192.911 309.164 185.422 309.386 177.783C310.245 147.6 284.255 122.375 251.329 121.439C218.403 120.503 191.032 144.22 190.167 174.404C189.951 182.044 191.47 189.633 194.609 196.603C194.981 197.439 195.538 198.179 196.238 198.768C196.938 199.357 197.763 199.78 198.65 200.005C231.633 208.347 266.052 209.322 299.455 202.859V202.859Z" fill="url(#paint18_linear_565_4555)"/>
							<path d="M204.618 200.002C203.731 199.777 202.906 199.354 202.207 198.765C201.507 198.176 200.95 197.436 200.577 196.601C196.482 187.551 195.164 177.492 196.791 167.695C196.534 167.356 196.366 166.958 196.303 166.537C196.24 166.116 196.284 165.687 196.43 165.287C198.565 158.551 199.818 151.545 202.502 144.986C203.186 143.31 203.944 141.673 204.738 140.058C195.78 149.302 190.586 161.544 190.167 174.402C189.951 182.042 191.47 189.631 194.608 196.602C194.98 197.437 195.537 198.177 196.238 198.767C196.938 199.356 197.762 199.779 198.65 200.004C218.167 204.923 238.242 207.288 258.37 207.037C240.24 206.79 222.2 204.429 204.618 200.002V200.002Z" fill="url(#paint19_linear_565_4555)"/>
							<path d="M299.456 202.859C300.355 202.685 301.202 202.309 301.934 201.76C302.666 201.212 303.264 200.504 303.682 199.691C308.189 191.07 310.096 181.33 309.174 171.649C301.607 154.34 278.494 141.311 250.786 140.524C223.078 139.737 199.262 151.448 190.723 168.294C189.253 177.906 190.603 187.738 194.609 196.601C194.981 197.436 195.539 198.176 196.239 198.765C196.939 199.354 197.764 199.777 198.651 200.002C231.634 208.345 266.053 209.321 299.456 202.859V202.859Z" fill="url(#paint20_linear_565_4555)"/>
							<path d="M309.173 171.658C301.607 154.349 278.494 141.32 250.785 140.532C231.242 139.977 213.662 145.644 201.987 154.943C202.009 155.255 201.984 155.568 201.91 155.872C199.612 165.88 198.762 176.166 199.388 186.415C199.597 191.219 200.288 195.991 201.451 200.658C233.586 208.378 267.005 209.129 299.456 202.859C300.354 202.685 301.202 202.309 301.934 201.76C302.666 201.212 303.264 200.504 303.682 199.691C308.188 191.07 310.096 181.33 309.173 171.649V171.658Z" fill="url(#paint21_linear_565_4555)"/>
							<path d="M244.599 140.572C228.102 141.213 213.4 146.307 203.017 154.155C202.709 155.349 202.375 156.541 202.084 157.746C201.297 161.036 200.711 164.371 200.329 167.732C199.578 174.511 199.349 181.338 199.646 188.153C199.787 192.354 200.346 196.531 201.315 200.621C203.108 201.046 204.899 201.463 206.694 201.847C217.015 197.701 226.373 191.48 234.187 183.571C239.827 177.745 243.916 170.602 246.082 162.792C248.056 155.716 248.776 147.026 244.599 140.572Z" fill="#F9FC61"/>
							<path fill-rule="evenodd" clip-rule="evenodd" d="M232.858 249.476C233.605 248.626 234.514 247.934 235.532 247.44C236.55 246.945 237.656 246.659 238.786 246.596C239.917 246.534 241.048 246.698 242.114 247.077C243.18 247.457 244.16 248.045 244.996 248.807L258.218 260.783L246.766 273.728L233.544 261.752C231.842 260.203 230.817 258.049 230.688 255.754C230.56 253.458 231.339 251.204 232.858 249.476V249.476Z" fill="black"/>
							<path fill-rule="evenodd" clip-rule="evenodd" d="M280.425 280.143L293.235 291.748C294.936 293.297 295.96 295.451 296.087 297.747C296.214 300.043 295.435 302.296 293.915 304.024C293.169 304.873 292.26 305.566 291.242 306.06C290.224 306.555 289.118 306.842 287.987 306.904C286.857 306.967 285.726 306.803 284.659 306.424C283.593 306.044 282.613 305.456 281.777 304.694L268.967 293.089L280.425 280.143Z" fill="black"/>
							<path fill-rule="evenodd" clip-rule="evenodd" d="M290.737 246.282C292.437 247.83 293.461 249.983 293.588 252.277C293.715 254.571 292.936 256.824 291.417 258.55L248.999 306.498C248.252 307.347 247.343 308.04 246.325 308.534C245.307 309.029 244.201 309.315 243.071 309.378C241.94 309.44 240.809 309.277 239.743 308.897C238.677 308.517 237.697 307.929 236.861 307.167C235.162 305.618 234.139 303.465 234.011 301.171C233.884 298.877 234.663 296.625 236.181 294.898L278.599 246.951C279.346 246.101 280.255 245.408 281.273 244.914C282.291 244.419 283.397 244.132 284.528 244.07C285.658 244.008 286.789 244.171 287.856 244.551C288.922 244.931 289.902 245.519 290.737 246.282V246.282Z" fill="black"/>
							<path d="M438.292 313.949L438.283 314.481C438.283 314.825 438.266 315.326 438.213 315.952C437.914 319.809 436.792 323.558 434.923 326.946C433.874 328.854 432.581 330.618 431.077 332.193C429.546 333.741 427.823 335.088 425.951 336.202C424.069 337.312 422.062 338.194 419.971 338.831C418.367 339.321 416.72 339.657 415.052 339.834C413.804 339.968 413.05 339.98 413.05 339.98C411.671 339.949 411.662 338.519 412.884 338.241C412.884 338.241 413.583 338.134 414.717 337.865C416.218 337.514 417.686 337.034 419.104 336.429C420.917 335.658 422.646 334.703 424.265 333.58C425.838 332.473 427.304 331.22 428.642 329.838C431.369 327.048 433.508 323.738 434.93 320.107C435.486 318.67 435.921 317.189 436.229 315.68C436.35 315.11 436.428 314.649 436.468 314.33L436.545 313.838C436.739 312.144 438.26 311.871 438.292 313.949Z" fill="black"/>
							<path d="M426.132 348.805C426.132 348.805 432.128 353.436 435.91 356.174C438.121 357.705 440.25 359.35 442.289 361.102C443.444 362.135 444.461 363.314 445.313 364.607C445.763 365.425 444.551 366.196 443.941 365.69C442.959 364.715 441.874 363.849 440.706 363.106C438.718 361.78 435.989 360.416 433.902 358.898C430.641 356.24 427.636 353.283 424.926 350.066C424.167 349.167 425.132 348.001 426.132 348.805Z" fill="black"/>
							<path d="M452.274 348.965C452.814 349.774 453.291 350.623 453.7 351.505C455.349 354.746 455.79 358.467 454.943 362.003C454.753 362.957 454.487 363.893 454.148 364.805C453.911 365.332 452.516 365.005 452.431 364.47C452.431 364.47 452.48 363.302 452.396 361.796C452.311 360.29 452.075 358.459 451.894 357.04C451.748 355.618 451.549 353.785 451.27 352.3C450.99 350.814 450.685 349.69 450.685 349.69C450.506 349.005 451.815 348.238 452.274 348.965Z" fill="black"/>
							<path d="M340.892 261.674C342.213 260.632 343.446 259.481 344.576 258.235C346.606 255.972 348.372 253.487 349.841 250.827C351.356 248.194 352.571 245.399 353.463 242.495C353.946 240.884 354.288 239.235 354.487 237.565C354.496 237.333 354.598 237.114 354.769 236.956C354.94 236.799 355.167 236.715 355.4 236.725C355.633 236.734 355.852 236.836 356.01 237.007C356.168 237.178 356.251 237.405 356.242 237.637L356.258 238.047C356.281 238.425 356.285 238.804 356.269 239.182C356.214 243.834 355.02 248.402 352.792 252.488C351.098 255.374 348.914 257.944 346.337 260.082C344.952 261.246 343.452 262.265 341.86 263.123C340.588 263.814 339.716 262.583 340.892 261.674Z" fill="black"/>
							<path d="M355.056 271.534C355.056 271.534 356.53 270.204 358.591 268.536C360.806 266.7 363.197 265.085 365.729 263.716C368.355 262.406 371.166 261.503 374.064 261.037C375.646 260.777 377.251 260.684 378.852 260.761C379.797 260.865 379.768 262.296 378.935 262.507C377.479 262.726 376.043 263.068 374.643 263.529C372.098 264.39 369.63 265.463 367.264 266.735C365.07 267.826 362.28 269.335 360.037 270.642L356.078 272.951C355.024 273.558 354.023 272.419 355.056 271.534Z" fill="black"/>
							<path d="M413.865 331.766C413.341 332.246 412.788 332.692 412.208 333.103C410.133 334.731 407.557 335.592 404.918 335.539C404.208 335.56 403.497 335.535 402.79 335.466C402.369 335.384 402.232 333.961 402.578 333.732L404.427 333.032C405.467 332.626 406.708 332.085 407.7 331.743C408.691 331.401 410.016 331.106 411.091 330.807L412.992 330.255C413.494 330.107 414.342 331.359 413.865 331.766Z" fill="black"/>
							<path d="M123.138 184.576C118.468 184.917 113.775 184.363 109.312 182.946C106.461 181.917 103.752 180.532 101.249 178.823C99.887 177.906 98.5929 176.893 97.3763 175.791C96.6846 175.118 97.5839 174.005 98.4146 174.387C99.7489 175.199 101.124 175.943 102.534 176.615C105.092 177.817 107.722 178.862 110.408 179.743C113.072 180.69 115.792 181.47 118.553 182.08C121.151 182.632 123.175 182.835 123.175 182.835C124.404 182.98 124.589 184.49 123.138 184.576Z" fill="black"/>
							<path d="M192.62 159.54C194.406 159.54 192.983 168.228 192.983 178.446C192.983 188.664 194.406 196.539 192.62 196.539C191.921 196.539 189.341 193.837 189.327 193.823C188.011 192.53 187.006 185.955 187.006 178.039C187.006 170.006 188.04 163.344 189.388 162.199C189.523 162.084 191.921 159.54 192.62 159.54Z" fill="url(#paint22_linear_565_4555)"/>
							<path d="M188.362 165.234C189.832 165.234 191.023 170.968 191.023 178.04C191.023 185.112 189.832 190.846 188.362 190.846C187.786 190.846 185.661 188.977 185.649 188.966C184.563 188.071 183.736 183.52 183.736 178.04C183.736 172.476 184.589 167.869 185.699 167.076C185.81 166.996 187.786 165.234 188.362 165.234Z" fill="url(#paint23_linear_565_4555)"/>
							<path d="M309.173 171.658C301.607 154.349 278.494 141.318 250.786 140.533C224.54 139.786 201.795 150.247 192.209 165.676C203.701 154.666 222.864 147.748 244.376 148.36C246.264 148.412 248.121 148.542 249.961 148.707C252.354 149.298 254.714 150.018 257.03 150.863C263.384 153.172 269.431 156.249 275.037 160.025C277.799 161.877 280.4 163.959 282.811 166.25C285.259 168.57 287.473 171.125 289.421 173.878C290.932 176.016 292.253 178.282 293.369 180.65C294.191 182.442 294.592 183.571 294.592 183.571C295.637 186.638 297.027 186.005 296.252 183.024C296.252 183.024 295.933 181.823 295.213 179.883C294.228 177.309 293.004 174.832 291.557 172.484C289.685 169.447 287.491 166.619 285.012 164.051C282.566 161.505 279.861 159.221 276.941 157.235C274.115 155.335 271.135 153.674 268.032 152.269C271.199 153.249 274.299 154.434 277.312 155.818C285.941 159.825 292.859 166.769 296.828 175.406C300.796 184.043 301.556 193.81 298.97 202.955C299.133 202.925 299.292 202.9 299.454 202.869C300.353 202.695 301.2 202.319 301.932 201.771C302.664 201.222 303.262 200.514 303.681 199.701C308.187 191.081 310.095 181.34 309.172 171.659L309.173 171.658Z" fill="black"/>
							<path d="M306.111 158.554C304.04 158.554 302.361 166.838 302.361 177.054C302.361 187.271 304.04 195.555 306.111 195.555C306.923 195.555 309.913 192.853 309.935 192.838C311.466 191.546 312.63 184.97 312.63 177.054C312.63 169.022 311.43 162.36 309.863 161.215C309.707 161.1 306.923 158.554 306.111 158.554Z" fill="url(#paint24_linear_565_4555)"/>
							<path d="M310.727 163.802C309.435 163.802 308.387 169.736 308.387 177.054C308.387 184.373 309.434 190.307 310.727 190.307C311.233 190.307 313.101 188.372 313.112 188.362C314.065 187.436 314.792 182.726 314.792 177.054C314.792 171.296 314.043 166.528 313.066 165.708C312.97 165.626 311.233 163.802 310.727 163.802Z" fill="url(#paint25_linear_565_4555)"/>
							<path d="M304.118 195.264C303.627 194.763 303.215 194.192 302.894 193.569C302.143 192.121 301.578 190.584 301.21 188.996C300.311 185.072 299.821 181.066 299.748 177.041C299.742 172.955 300.368 168.893 301.602 164.998C302.082 163.457 302.723 161.971 303.517 160.565C303.847 159.98 304.23 159.427 304.662 158.912C305.697 157.873 306.585 159.042 306.066 159.952C305.769 160.431 305.513 160.934 305.301 161.456C304.758 162.811 304.346 164.214 304.071 165.648C303.363 169.378 303.048 173.172 303.134 176.968C303.119 180.819 303.314 184.668 303.719 188.498C303.884 189.93 304.212 191.339 304.697 192.697C304.867 193.202 305.114 193.679 305.428 194.11C305.527 194.238 305.607 194.379 305.665 194.53C305.731 194.638 305.781 194.755 305.811 194.879C305.878 195.101 305.871 195.34 305.789 195.558C305.739 195.661 305.657 195.746 305.554 195.798C305.452 195.851 305.335 195.869 305.222 195.85C304.791 195.808 304.394 195.598 304.118 195.264Z" fill="black"/>
							<path d="M311.389 188.856C310.423 187.672 309.639 186.352 309.064 184.937C308.016 182.367 307.465 179.622 307.44 176.847C307.477 174.151 307.802 171.466 308.41 168.839C308.657 167.786 308.997 166.757 309.425 165.763C309.597 165.363 309.792 164.972 310.01 164.595C310.516 163.825 311.756 164.551 311.61 165.299C311.229 166.582 311.001 167.906 310.93 169.242C310.783 171.545 310.803 174.582 310.823 176.819C310.76 179.275 310.981 181.729 311.483 184.134C311.775 185.438 312.231 186.7 312.838 187.89C313.328 188.802 312.266 189.903 311.389 188.856Z" fill="black"/>
							<path d="M194.675 197.792C194.675 197.792 193.772 195.017 192.951 191.248C192.056 187.196 191.506 183.075 191.305 178.931C191.209 174.783 191.46 170.634 192.057 166.528C192.6 162.706 193.301 159.877 193.301 159.877C193.641 158.599 195.046 158.872 195.027 160.155C195.027 160.155 194.735 163 194.603 166.758C194.471 170.516 194.545 175.173 194.695 178.808C194.803 182.447 195.062 187.097 195.479 190.834C195.896 194.572 196.38 197.389 196.38 197.389C196.659 199.117 195.248 199.706 194.675 197.792Z" fill="black"/>
							<path d="M187.109 189.971C186.559 188.683 186.115 187.352 185.783 185.991C185.168 183.516 184.847 180.976 184.825 178.426C184.889 175.902 185.187 173.389 185.714 170.92C186.188 168.624 186.707 166.931 186.707 166.931C186.975 166.169 188.38 166.451 188.429 167.234C188.429 167.234 188.313 168.956 188.253 171.218C188.193 173.48 188.208 176.274 188.212 178.44C188.181 180.609 188.149 183.37 188.307 185.585C188.39 186.883 188.548 188.176 188.781 189.456C188.829 189.671 188.795 189.896 188.684 190.087C188.573 190.278 188.395 190.42 188.184 190.485C187.973 190.55 187.745 190.533 187.546 190.438C187.347 190.343 187.191 190.176 187.109 189.971V189.971Z" fill="black"/>
							<path d="M141.209 37.0105C141.209 37.0105 142.886 43.91 143.429 48.4245C143.687 50.6839 143.815 53.5919 143.856 55.9389C143.897 58.286 143.838 60.0839 143.838 60.0839C143.762 60.9135 142.329 60.9602 142.095 60.2095L141.311 56.2047C140.872 53.9175 140.336 51.0695 140.064 48.8203C139.553 44.319 139.479 37.2281 139.479 37.2281C139.476 37.0129 139.553 36.8041 139.694 36.6418C139.836 36.4794 140.032 36.3748 140.246 36.3479C140.46 36.321 140.677 36.3737 140.854 36.4959C141.031 36.6181 141.158 36.8013 141.209 37.0105V37.0105Z" fill="black"/>
							<path d="M145.823 82.4197C146.413 81.3214 147.143 80.3042 147.995 79.3935C149.538 77.6229 151.516 76.2845 153.734 75.5102C155.953 74.736 158.335 74.5527 160.646 74.9783C161.527 75.1161 162.394 75.3306 163.238 75.6195C163.868 75.8356 164.232 75.9963 164.232 75.9963C164.89 76.3366 164.396 77.6803 163.751 77.6759C162.672 77.518 161.579 77.4691 160.49 77.5299C158.563 77.6439 156.662 78.0406 154.851 78.707C153.018 79.3117 151.284 80.1833 149.706 81.2936C148.816 81.9239 147.992 82.6417 147.246 83.4362C146.664 84.0628 145.297 83.388 145.823 82.4197Z" fill="black"/>
							<path d="M320.95 344.245C319.595 344.736 318.285 345.341 317.032 346.053C312.563 348.708 308.675 352.235 305.599 356.423C304.766 357.598 304.039 358.844 303.426 360.147C303.309 360.305 303.145 360.421 302.956 360.478C302.768 360.535 302.567 360.53 302.382 360.463C302.197 360.396 302.039 360.272 301.93 360.108C301.822 359.944 301.77 359.75 301.781 359.554C301.877 359.117 301.999 358.686 302.145 358.263C302.487 357.196 302.901 356.153 303.386 355.143C304.609 352.496 306.352 350.121 308.513 348.16C310.673 346.2 313.207 344.694 315.963 343.732C317.433 343.178 318.958 342.783 320.513 342.555C321.759 342.371 322.151 343.826 320.95 344.245Z" fill="black"/>
							<path d="M313.921 313.548C312.456 314.758 310.885 315.833 309.226 316.761C303.109 320.362 295.933 321.738 288.916 320.658C287.571 320.468 286.238 320.201 284.923 319.857C284.395 319.73 283.873 319.577 283.36 319.399C283.153 319.33 282.979 319.186 282.872 318.996C282.765 318.806 282.733 318.582 282.782 318.37C282.831 318.157 282.958 317.971 283.138 317.846C283.317 317.722 283.537 317.67 283.753 317.698C285.526 317.97 287.316 318.108 289.109 318.112C292.353 318.105 295.589 317.78 298.769 317.143C301.961 316.561 305.087 315.665 308.102 314.468C309.766 313.798 311.379 313.008 312.928 312.106C314.157 311.408 315.235 312.493 313.921 313.548Z" fill="black"/>
							<path d="M314.257 212.068C314.257 212.068 308.444 217.666 304.404 220.864C300.345 224.039 293.537 228.374 293.537 228.374C293.355 228.458 293.151 228.479 292.956 228.435C292.762 228.39 292.587 228.283 292.46 228.129C292.333 227.974 292.261 227.783 292.254 227.583C292.248 227.384 292.308 227.188 292.425 227.026C292.425 227.026 298.24 221.428 302.307 218.208C306.401 215.01 313.203 210.674 313.203 210.674C314.251 210.016 315.268 211.128 314.257 212.068Z" fill="black"/>
							<path d="M156.298 255.308C156.298 255.308 156.181 252.111 155.905 247.903C155.628 243.695 155.174 238.481 154.808 234.403C154.479 230.324 154.077 225.107 153.638 220.911C153.199 216.715 152.787 213.544 152.787 213.544C152.648 212.104 154.056 211.84 154.505 213.22C154.505 213.22 155.327 216.341 156.167 220.523C157.08 225.014 157.755 229.551 158.188 234.114C158.525 238.686 158.617 243.272 158.465 247.853C158.337 252.122 158.05 255.337 158.05 255.337C157.88 257.322 156.374 257.496 156.298 255.308Z" fill="black"/>
							<path d="M172.252 249.092C172.082 247.4 170.65 247.411 170.497 249.071C170.497 249.071 170.27 252.765 169.619 257.621C168.995 262.48 167.948 268.487 167.133 273.192C166.493 277.045 165.709 281.765 164.94 286.002C164.931 285.792 164.926 285.574 164.918 285.371C164.689 281.337 164.253 277.318 163.613 273.329C163.028 269.609 162.443 266.824 162.443 266.824C162.073 264.909 160.606 265.325 160.71 267.055C160.71 267.055 160.867 269.869 161.073 273.588C161.219 277.3 161.396 281.913 161.537 285.524C161.724 289.133 161.965 293.743 162.158 297.454C162.29 301.175 162.389 303.993 162.389 303.993C162.522 305.255 163.951 305.344 164.135 304.066C164.135 304.066 164.473 301.24 164.72 297.482C164.742 297.152 164.761 296.807 164.782 296.459C165.247 295.027 166.061 292.441 166.924 289.329C168.261 284.544 169.675 278.521 170.484 273.753C171.347 268.488 171.909 263.179 172.168 257.85C172.426 252.873 172.252 249.092 172.252 249.092Z" fill="black"/>
							</g>
							<defs>
							<linearGradient id="paint0_linear_565_4555" x1="425.386" y1="32.2395" x2="430.33" y2="165.318" gradientUnits="userSpaceOnUse">
							<stop stop-color="#F9FC61"/>
							<stop offset="1" stop-color="#DE9AFF"/>
							</linearGradient>
							<linearGradient id="paint1_linear_565_4555" x1="449.274" y1="184.127" x2="370.933" y2="169.068" gradientUnits="userSpaceOnUse">
							<stop stop-color="#1D4AC4"/>
							<stop offset="1" stop-color="#DE9AFF"/>
							</linearGradient>
							<linearGradient id="paint2_linear_565_4555" x1="505.79" y1="165.506" x2="443.888" y2="153.607" gradientUnits="userSpaceOnUse">
							<stop stop-color="#1D4AC4"/>
							<stop offset="1" stop-color="#DE9AFF"/>
							</linearGradient>
							<linearGradient id="paint3_linear_565_4555" x1="253.818" y1="175.819" x2="236.745" y2="215.438" gradientUnits="userSpaceOnUse">
							<stop stop-color="#DE9AFF" stop-opacity="0"/>
							<stop offset="1" stop-color="#F9FC61"/>
							</linearGradient>
							<linearGradient id="paint4_linear_565_4555" x1="55.9463" y1="227.193" x2="537.724" y2="655.565" gradientUnits="userSpaceOnUse">
							<stop stop-color="white"/>
							<stop offset="1" stop-color="#DE9AFF"/>
							</linearGradient>
							<linearGradient id="paint5_linear_565_4555" x1="159.782" y1="367.733" x2="779.801" y2="711.053" gradientUnits="userSpaceOnUse">
							<stop stop-color="white"/>
							<stop offset="1" stop-color="#DE9AFF"/>
							</linearGradient>
							<linearGradient id="paint6_linear_565_4555" x1="593.869" y1="563.614" x2="226.116" y2="315.06" gradientUnits="userSpaceOnUse">
							<stop stop-color="#1D4AC4"/>
							<stop offset="1" stop-color="#DE9AFF"/>
							</linearGradient>
							<linearGradient id="paint7_linear_565_4555" x1="316.019" y1="300.26" x2="408.323" y2="190.424" gradientUnits="userSpaceOnUse">
							<stop stop-color="#1D4AC4"/>
							<stop offset="1" stop-color="#DE9AFF"/>
							</linearGradient>
							<linearGradient id="paint8_linear_565_4555" x1="114.741" y1="244.44" x2="343.628" y2="-149.926" gradientUnits="userSpaceOnUse">
							<stop stop-color="white"/>
							<stop offset="1" stop-color="#DE9AFF"/>
							</linearGradient>
							<linearGradient id="paint9_linear_565_4555" x1="120.893" y1="71.6951" x2="187.17" y2="226.724" gradientUnits="userSpaceOnUse">
							<stop stop-color="#1D4AC4"/>
							<stop offset="1" stop-color="#DE9AFF"/>
							</linearGradient>
							<linearGradient id="paint10_linear_565_4555" x1="63.6855" y1="214.809" x2="292.573" y2="-179.557" gradientUnits="userSpaceOnUse">
							<stop stop-color="white"/>
							<stop offset="1" stop-color="#DE9AFF"/>
							</linearGradient>
							<linearGradient id="paint11_linear_565_4555" x1="87.5255" y1="228.644" x2="316.413" y2="-165.72" gradientUnits="userSpaceOnUse">
							<stop stop-color="#1D4AC4"/>
							<stop offset="1" stop-color="#DE9AFF"/>
							</linearGradient>
							<linearGradient id="paint12_linear_565_4555" x1="72.1861" y1="219.743" x2="301.072" y2="-174.624" gradientUnits="userSpaceOnUse">
							<stop stop-color="#1D4AC4"/>
							<stop offset="1" stop-color="#DE9AFF"/>
							</linearGradient>
							<linearGradient id="paint13_linear_565_4555" x1="192.521" y1="222.186" x2="511.471" y2="236.439" gradientUnits="userSpaceOnUse">
							<stop stop-color="white"/>
							<stop offset="1" stop-color="#DE9AFF"/>
							</linearGradient>
							<linearGradient id="paint14_linear_565_4555" x1="187.932" y1="166.163" x2="191.984" y2="205.61" gradientUnits="userSpaceOnUse">
							<stop stop-color="#1D4AC4"/>
							<stop offset="1" stop-color="#DE9AFF"/>
							</linearGradient>
							<linearGradient id="paint15_linear_565_4555" x1="289.916" y1="195.333" x2="277.551" y2="247.86" gradientUnits="userSpaceOnUse">
							<stop stop-color="#1D4AC4"/>
							<stop offset="1" stop-color="#DE9AFF"/>
							</linearGradient>
							<linearGradient id="paint16_linear_565_4555" x1="197.081" y1="232.207" x2="355.328" y2="137.136" gradientUnits="userSpaceOnUse">
							<stop stop-color="white"/>
							<stop offset="1" stop-color="#DE9AFF"/>
							</linearGradient>
							<linearGradient id="paint17_linear_565_4555" x1="325.243" y1="184.675" x2="195.763" y2="210.965" gradientUnits="userSpaceOnUse">
							<stop stop-color="#1D4AC4"/>
							<stop offset="1" stop-color="#DE9AFF"/>
							</linearGradient>
							<linearGradient id="paint18_linear_565_4555" x1="204.522" y1="152.779" x2="327.378" y2="192.433" gradientUnits="userSpaceOnUse">
							<stop stop-color="white"/>
							<stop offset="1" stop-color="#DE9AFF"/>
							</linearGradient>
							<linearGradient id="paint19_linear_565_4555" x1="295.233" y1="152.764" x2="183.463" y2="189.338" gradientUnits="userSpaceOnUse">
							<stop stop-color="#1D4AC4"/>
							<stop offset="1" stop-color="#DE9AFF"/>
							</linearGradient>
							<linearGradient id="paint20_linear_565_4555" x1="309.267" y1="241.017" x2="233.277" y2="163.52" gradientUnits="userSpaceOnUse">
							<stop stop-color="#1D4AC4"/>
							<stop offset="1" stop-color="#DE9AFF"/>
							</linearGradient>
							<linearGradient id="paint21_linear_565_4555" x1="264.789" y1="194.756" x2="237.785" y2="165.785" gradientUnits="userSpaceOnUse">
							<stop stop-color="#DE9AFF" stop-opacity="0"/>
							<stop offset="1" stop-color="#F9FC61"/>
							</linearGradient>
							<linearGradient id="paint22_linear_565_4555" x1="273.709" y1="151.577" x2="181.647" y2="181.702" gradientUnits="userSpaceOnUse">
							<stop stop-color="#1D4AC4"/>
							<stop offset="1" stop-color="#DE9AFF"/>
							</linearGradient>
							<linearGradient id="paint23_linear_565_4555" x1="319.62" y1="135.205" x2="178.394" y2="181.416" gradientUnits="userSpaceOnUse">
							<stop stop-color="#1D4AC4"/>
							<stop offset="1" stop-color="#DE9AFF"/>
							</linearGradient>
							<linearGradient id="paint24_linear_565_4555" x1="323.057" y1="176.364" x2="235.574" y2="179.942" gradientUnits="userSpaceOnUse">
							<stop stop-color="#1D4AC4"/>
							<stop offset="1" stop-color="#DE9AFF"/>
							</linearGradient>
							<linearGradient id="paint25_linear_565_4555" x1="326.061" y1="176.429" x2="215.545" y2="180.95" gradientUnits="userSpaceOnUse">
							<stop stop-color="#1D4AC4"/>
							<stop offset="1" stop-color="#DE9AFF"/>
							</linearGradient>
							<clipPath id="clip0_565_4555">
							<rect width="124" height="148" fill="white" transform="translate(367 47)"/>
							</clipPath>
							<clipPath id="clip1_565_4555">
							<rect width="361" height="685" fill="white" transform="translate(97 33)"/>
							</clipPath>
							</defs>
							</svg>