<svg width="241" height="48" viewBox="0 0 241 48" fill="none" xmlns="http://www.w3.org/2000/svg">
<path d="M5.25 0C6.375 0.0416667 7.33333 0.458333 8.125 1.25C8.91667 2 9.33333 2.9375 9.375 4.0625V9.5H28.75C31.6667 9.54167 34.0625 10.375 35.9375 12C37.8542 13.5833 39.2083 15.375 40 17.375C40.8333 19.4167 41.25 21.5208 41.25 23.6875H41.3125V34.5625C41.3125 35.7292 40.875 36.7083 40 37.5C39.1667 38.25 38.1667 38.625 37 38.625C34.5 38.4167 33.125 37.0625 32.875 34.5625V23.625C32.875 22.8333 32.7083 22 32.375 21.125C32.0833 20.25 31.6458 19.5 31.0625 18.875C30.4792 18.2083 29.7917 17.875 29 17.875H9.375V34.6875C9.125 37.1875 7.75 38.5417 5.25 38.75C4.08333 38.75 3.0625 38.375 2.1875 37.625C1.35417 36.8333 0.9375 35.8542 0.9375 34.6875V4.0625C0.979167 2.89583 1.41667 1.9375 2.25 1.1875C3.08333 0.395833 4.08333 0 5.25 0ZM62 37.875C58.3333 37.75 55.5625 36.8958 53.6875 35.3125C51.8125 33.6875 50.4583 31.875 49.625 29.875C48.7917 27.8333 48.375 25.7708 48.375 23.6875C48.375 21.5208 48.7708 19.4375 49.5625 17.4375C50.3958 15.3958 51.75 13.5833 53.625 12C55.5417 10.375 57.9583 9.54167 60.875 9.5H84.625C85.7917 9.5 86.7708 9.89583 87.5625 10.6875C88.3958 11.4375 88.8125 12.3542 88.8125 13.4375C88.8125 14.5625 88.3958 15.5208 87.5625 16.3125C86.7708 17.0625 85.7917 17.4375 84.625 17.4375H61.25C60.3333 17.4375 59.5208 17.75 58.8125 18.375C58.1458 19 57.6458 19.8125 57.3125 20.8125C57.0208 21.8125 56.875 22.7917 56.875 23.75C56.875 24.7917 57.0208 25.8125 57.3125 26.8125C57.6458 27.8125 58.1458 28.625 58.8125 29.25C59.5208 29.8333 60.3333 30.1458 61.25 30.1875H84.625C85.7917 30.1875 86.7708 30.5625 87.5625 31.3125C88.3958 32.0625 88.8125 32.9583 88.8125 34C88.8125 35.0833 88.3958 36 87.5625 36.75C86.7708 37.5 85.7917 37.875 84.625 37.875H62ZM88.0625 23.5625C88.0625 24.3542 87.7083 25.0417 87 25.625C86.375 26.1667 85.5833 26.4375 84.625 26.4375H64.1875C63.2292 26.4375 62.4167 26.1667 61.75 25.625C61.0833 25.0417 60.75 24.3542 60.75 23.5625C60.75 22.8125 61.0833 22.1458 61.75 21.5625C62.4167 21.0208 63.2292 20.75 64.1875 20.75H84.625C85.5833 20.75 86.3958 21.0417 87.0625 21.625C87.7292 22.1667 88.0625 22.8125 88.0625 23.5625ZM104.438 43.3125C104.188 45.8125 102.812 47.1667 100.312 47.375C99.1458 47.375 98.125 46.9792 97.25 46.1875C96.4167 45.4375 96 44.4792 96 43.3125V13.5625C96.0417 12.3958 96.4792 11.4375 97.3125 10.6875C98.1458 9.89583 99.1458 9.5 100.312 9.5H126.562C130.229 9.625 133 10.5 134.875 12.125C136.75 13.7083 138.104 15.5208 138.938 17.5625C139.771 19.5625 140.188 21.6042 140.188 23.6875C140.188 25.8542 139.771 27.9583 138.938 30C138.146 32 136.792 33.8125 134.875 35.4375C133 37.0208 130.604 37.8333 127.688 37.875H111.938C110.771 37.875 109.792 37.4583 109 36.625C108.167 35.8333 107.75 34.8542 107.75 33.6875C107.75 32.5208 108.146 31.5417 108.938 30.75C109.771 29.9167 110.771 29.5 111.938 29.5H127.938C128.729 29.5 129.417 29.1875 130 28.5625C130.583 27.8958 131 27.1458 131.25 26.3125C131.542 25.4375 131.688 24.5833 131.688 23.75C131.688 22.875 131.542 22.0208 131.25 21.1875C131 20.3125 130.583 19.5625 130 18.9375C129.417 18.2708 128.729 17.9167 127.938 17.875H106.062C104.979 17.9167 104.438 18.4583 104.438 19.5V43.3125ZM161.375 0C162.542 0 163.542 0.395833 164.375 1.1875C165.208 1.9375 165.646 2.89583 165.688 4.0625V9.5H186.938C188.104 9.5 189.104 9.89583 189.938 10.6875C190.729 11.5208 191.125 12.5208 191.125 13.6875C191.125 14.8542 190.708 15.8542 189.875 16.6875C189.083 17.4792 188.104 17.875 186.938 17.875H165.688V19.125C165.646 20.8333 165.75 22.4167 166 23.875C166.292 25.2917 166.958 26.5625 168 27.6875C169.042 28.8125 170.354 29.4167 171.938 29.5H187.188C188.354 29.5417 189.312 29.9792 190.062 30.8125C190.854 31.6458 191.25 32.6458 191.25 33.8125C191.208 34.9375 190.792 35.8958 190 36.6875C189.25 37.4375 188.312 37.8333 187.188 37.875H169.812C166.896 37.7083 164.479 36.7292 162.562 34.9375C160.688 33.1042 159.333 30.875 158.5 28.25C157.708 25.625 157.292 22.8333 157.25 19.875V17.875H150.062C148.896 17.875 147.917 17.4583 147.125 16.625C146.292 15.8333 145.875 14.8542 145.875 13.6875C145.875 12.5208 146.271 11.5417 147.062 10.75C147.896 9.91667 148.896 9.5 150.062 9.5H157.25V4.0625C157.292 2.9375 157.708 2 158.5 1.25C159.292 0.458333 160.25 0.0416667 161.375 0ZM232.188 34.5625V19.5C232.188 18.4583 231.646 17.9167 230.562 17.875H208.688C207.896 17.9167 207.208 18.2708 206.625 18.9375C206.042 19.5625 205.604 20.3125 205.312 21.1875C205.062 22.0208 204.938 22.875 204.938 23.75C204.938 24.5833 205.062 25.4375 205.312 26.3125C205.604 27.1458 206.042 27.8958 206.625 28.5625C207.208 29.1875 207.896 29.5 208.688 29.5H224.688C225.854 29.5 226.833 29.9167 227.625 30.75C228.458 31.5417 228.875 32.5208 228.875 33.6875C228.875 34.8542 228.458 35.8333 227.625 36.625C226.833 37.4583 225.854 37.875 224.688 37.875H208.938C206.021 37.8333 203.604 37.0208 201.688 35.4375C199.812 33.8125 198.458 32 197.625 30C196.833 27.9583 196.438 25.8542 196.438 23.6875C196.438 21.6042 196.854 19.5625 197.688 17.5625C198.521 15.5208 199.875 13.7083 201.75 12.125C203.625 10.5 206.396 9.625 210.062 9.5H236.312C237.479 9.5 238.479 9.89583 239.312 10.6875C240.146 11.4375 240.583 12.3958 240.625 13.5625V34.5625C240.625 35.7292 240.188 36.7083 239.312 37.5C238.479 38.25 237.479 38.625 236.312 38.625C233.812 38.4167 232.438 37.0625 232.188 34.5625Z" fill="white"/>
</svg>
