<svg width="63" height="62" viewBox="0 0 63 62" fill="none" xmlns="http://www.w3.org/2000/svg">
<g filter="url(#filter0_i_4_7)">
<path d="M28.0289 1.67158C30.2224 0.615246 32.7776 0.615247 34.9711 1.67158L53.4385 10.565C55.632 11.6213 57.2251 13.619 57.7668 15.9926L62.3279 35.9759C62.8696 38.3495 62.301 40.8406 60.7831 42.744L48.0033 58.7694C46.4853 60.6729 44.1832 61.7815 41.7486 61.7815H21.2514C18.8168 61.7815 16.5147 60.6728 14.9967 58.7694L2.2169 42.744C0.698951 40.8406 0.130377 38.3495 0.672126 35.9759L5.23319 15.9926C5.77494 13.619 7.36805 11.6213 9.56155 10.565L28.0289 1.67158Z" fill="url(#paint0_linear_4_7)"/>
</g>
<defs>
<filter id="filter0_i_4_7" x="0.471466" y="0.879333" width="62.0571" height="64.9022" filterUnits="userSpaceOnUse" color-interpolation-filters="sRGB">
<feFlood flood-opacity="0" result="BackgroundImageFix"/>
<feBlend mode="normal" in="SourceGraphic" in2="BackgroundImageFix" result="shape"/>
<feColorMatrix in="SourceAlpha" type="matrix" values="0 0 0 0 0 0 0 0 0 0 0 0 0 0 0 0 0 0 127 0" result="hardAlpha"/>
<feOffset dy="4"/>
<feGaussianBlur stdDeviation="2"/>
<feComposite in2="hardAlpha" operator="arithmetic" k2="-1" k3="1"/>
<feColorMatrix type="matrix" values="0 0 0 0 0 0 0 0 0 0 0 0 0 0 0 0 0 0 0.25 0"/>
<feBlend mode="normal" in2="shape" result="effect1_innerShadow_4_7"/>
</filter>
<linearGradient id="paint0_linear_4_7" x1="-1" y1="5" x2="56" y2="70" gradientUnits="userSpaceOnUse">
<stop stop-color="#DE9AFF"/>
<stop offset="0.665" stop-color="#1D4AC4"/>
</linearGradient>
</defs>
</svg>
