<svg viewBox="0 0 674 402" fill="none" xmlns="http://www.w3.org/2000/svg">
								<g clip-path="url(#clip0_1423_2801)">
									<g opacity="0.75">
										<path opacity="0.75" d="M388.55 338.5C417.404 366.06 476.111 404.039 568.728 445.857C661.344 487.675 698.422 443.256 578.622 377.272C458.822 311.288 428.504 263.659 402.351 256.787C372.591 249.001 341.848 293.78 388.55 338.5Z" fill="url(#paint0_linear_1423_2801)"/>
										<path opacity="0.75" d="M347.875 361.754C376.729 389.314 435.436 427.293 528.052 469.111C620.669 510.929 657.747 466.51 537.946 400.526C467.174 361.58 418.567 326.637 390.53 304.508C357.482 278.383 314.405 321.883 341.124 354.534C343.27 357.03 345.537 359.477 347.875 361.754Z" fill="url(#paint1_linear_1423_2801)"/>
										<path opacity="0.75" d="M382.118 432.381C460.031 478.811 504.316 499.071 560.426 520.397C616.536 541.724 676.614 511.935 623.652 494.522C570.691 477.11 490.123 434.157 411.574 377.584C333.025 321.011 346.783 404.1 382.118 432.381Z" fill="url(#paint2_linear_1423_2801)"/>
									</g>
									<path d="M365.811 308.016C361.339 310.83 362.298 319.015 370.176 322.118C378.054 325.22 382.019 331.472 386.798 336.967C391.578 342.463 399.423 344.455 406.529 344.64C413.635 344.825 418.803 341.304 420.149 337.379C421.495 333.454 415.122 325.095 415.122 325.095L427.323 318.836C427.422 319.077 376.825 301.259 365.811 308.016Z" fill="url(#paint3_linear_1423_2801)"/>
									<path d="M420.879 316.834C412.46 321.685 399.635 328.48 393.794 329.324C401.217 333.035 417.494 340.856 415.31 342.734C417.549 341.677 419.273 339.706 420.198 337.5C421.593 333.695 415.171 325.216 415.171 325.216L427.372 318.957C427.422 319.077 424.925 318.13 420.879 316.834Z" fill="black"/>
									<path d="M373.16 320.475C373.089 320.645 373.089 320.645 373.138 320.765C373.116 321.055 373.094 321.345 373.122 321.756C373.324 322.938 374.009 323.924 374.956 324.52C376.292 325.38 377.891 325.85 379.582 325.861C381.274 325.872 383.015 326.003 384.613 326.473C386.091 326.993 387.433 328.553 389.327 329.746C391.172 330.819 393.231 331.383 395.453 331.317C398.787 331.218 401.995 330.467 404.907 328.994C405.991 328.551 406.659 327.434 406.243 326.761C405.827 326.087 404.737 325.83 403.653 326.274C401.173 327.429 398.546 328.223 395.891 328.607C394.248 328.717 392.458 328.465 390.931 327.825C389.403 327.184 388.062 325.624 385.856 324.699C383.918 324.087 381.837 323.813 379.834 324.071C378.482 324.202 377.102 323.923 375.914 323.425C375.186 323.02 374.649 322.396 374.474 321.624C374.375 321.383 374.397 321.093 374.468 320.924C374.747 319.544 375.569 319.489 375.421 319.128C375.371 319.007 375.152 318.816 374.621 318.893C373.85 319.068 373.275 319.725 373.16 320.475Z" fill="black"/>
									<path d="M396.923 324.949L396.365 324.616C396.026 324.473 395.588 324.09 395.029 323.756C393.644 322.777 392.281 321.507 391.087 320.308C389.746 318.748 388.645 317.089 387.665 315.381C386.953 313.986 386.362 312.54 385.891 311.046C385.644 310.444 384.965 310.159 384.073 310.384C383.422 310.51 382.847 311.167 383.022 311.939C383.542 313.554 384.304 315.07 385.185 316.537C387.364 320.144 390.409 323.116 394.099 325.262C394.827 325.667 395.336 325.88 395.725 326.143L396.404 326.428C398.462 326.991 398.67 325.781 396.923 324.949Z" fill="black"/>
									<path d="M281.198 139.054C298.076 146.628 308.134 156.432 310.21 162.19C312.285 167.949 313.808 170.982 313.808 170.982C313.808 170.982 327.764 184.814 329.22 185.624C330.676 186.434 338.029 187.221 339.825 194.36C344.698 199.395 345.92 204.098 345.673 203.496C345.427 202.893 359.239 207.786 370.042 220.096C380.845 232.407 382.717 236.983 382.717 236.983C382.717 236.983 388.192 235.586 391.822 242.396C395.453 249.206 394.385 248.659 394.385 248.659C394.385 248.659 349.906 255.754 327.641 248.416C305.375 241.077 284.743 162.489 281.198 139.054Z" fill="url(#paint4_linear_1423_2801)"/>
									<path d="M372.355 243.614C369.464 241.704 366.935 239.646 364.044 237.736C361.542 236.088 358.991 234.32 356.489 232.673C352.333 229.734 343.968 223.034 340.841 218.83C340.097 219.416 339.845 221.206 339.101 221.792C337.924 222.696 336.254 222.395 335.351 221.218C335.252 220.977 335.082 220.906 334.984 220.665C333.828 218.185 334.441 216.247 333.576 213.789C332.043 215.541 327.358 221.958 326.236 220.589C321.74 214.415 319.675 206.964 317.66 199.634C316.137 193.509 314.012 187.63 311.165 182.046C308.493 177.234 305.509 172.691 302.092 168.465C297.109 161.787 290.829 156.062 283.641 151.552C290.51 182.766 308.452 242.068 327.761 248.366C343.025 253.368 368.65 251.739 383.305 250.1C379.544 248.124 375.854 245.979 372.355 243.614Z" fill="black"/>
									<path d="M334.928 207.471L334.95 207.181C334.972 206.891 335.163 206.672 335.185 206.382C335.371 205.462 335.388 204.471 335.453 203.601C335.338 201.258 334.883 198.773 333.996 196.605C333.18 194.267 332.123 192.029 330.946 189.839C329.818 187.77 328.887 186.182 328.887 186.182C328.739 185.821 328.953 185.312 329.314 185.164C329.555 185.065 329.845 185.087 330.064 185.279C330.064 185.279 331.186 186.647 332.725 188.689C334.313 190.851 335.709 193.232 336.695 195.641C337.609 198.219 337.922 201.044 337.654 203.825C337.517 204.865 337.26 205.955 336.833 206.973C336.691 207.312 336.669 207.603 336.477 207.822L336.335 208.161C335.738 209.108 334.501 208.49 334.928 207.471Z" fill="black"/>
									<path d="M332.67 227.377L333.463 226.911C333.896 226.594 334.689 226.128 335.554 225.493C337.716 223.905 339.61 222.006 341.285 219.914C343.223 217.434 344.772 214.691 345.932 211.685C346.808 209.359 347.294 206.769 347.541 204.278C347.606 203.408 347.02 202.663 346.221 202.428C346.221 202.428 346.221 202.428 346.1 202.477C345.279 202.532 344.584 203.239 344.519 204.109C344.049 211.894 340.53 219.098 334.651 224.316C333.906 224.902 333.162 225.488 332.73 225.806L331.985 226.392C329.363 227.886 330.168 228.822 332.67 227.377Z" fill="black"/>
									<path d="M286.428 353.158C273.044 359.619 265.675 356.73 257.085 355.324C248.496 353.918 237.836 344.361 231.512 339.216C227.23 335.625 223.141 331.816 219.363 327.738L217.933 324.245C217.933 324.245 215.574 322.258 211.046 318.066C206.518 313.873 183.801 289.285 183.1 289.29C182.4 289.296 181.375 285.075 181.375 285.075L176.831 281.873C176.831 281.873 169.982 274.412 163.877 266.366C157.772 258.319 149.799 243.304 150.717 234.211C151.636 225.118 175.643 199.264 209.738 195.997C243.832 192.73 332.284 330.876 286.428 353.158Z" fill="url(#paint5_linear_1423_2801)"/>
									<path d="M210.581 195.652C176.486 198.919 152.359 224.822 151.561 233.866C151.446 234.616 151.451 235.316 151.457 236.017C151.907 243.988 156.868 250.956 164.237 253.846C171.923 257.168 178.942 261.606 185.052 267.261C201.724 282.231 213.162 301.593 228.082 318.123C229.106 319.251 221.481 323.637 222.455 324.644C223.797 326.204 235.249 326.016 235.249 326.016C242.416 333.91 250.35 340.927 259.049 347.068C262.039 349.219 265.17 351.031 268.302 352.842C270.996 354.271 273.831 355.36 276.788 356.399C280.286 355.671 283.756 354.532 287.03 352.911C333.127 330.531 244.675 192.385 210.581 195.652Z" fill="url(#paint6_linear_1423_2801)"/>
									<path d="M216.473 295.598C215.822 295.724 215.121 295.729 214.59 295.806C213.89 295.811 213.189 295.817 212.368 295.872C211.497 295.806 210.506 295.79 209.636 295.724C205.525 295.298 201.506 294.412 197.63 293.186C193.825 291.79 189.971 290.274 186.308 288.54C182.865 286.996 180.341 285.639 180.341 285.639C179.224 284.971 179.771 283.904 180.91 284.281L187.162 286.503C190.748 287.707 195.062 289.316 198.599 290.399C202.354 291.674 206.181 292.78 210.03 293.595C210.949 293.781 211.82 293.846 212.57 293.961C213.2 294.125 213.9 294.12 214.601 294.114C215.181 294.158 215.762 294.202 216.462 294.196C218.055 293.966 218.597 295.291 216.473 295.598Z" fill="black"/>
									<path d="M263.908 325.958C263.908 325.958 249.614 327.449 240.412 327.981C235.244 328.409 230.021 328.015 224.913 326.872C222.855 326.308 220.988 325.526 219.192 324.573C218.634 324.239 218.076 323.905 217.638 323.522L217.079 323.188C215.765 322.039 216.772 321.064 217.988 321.973L218.546 322.307C218.935 322.57 219.493 322.903 220.002 323.117C221.749 323.949 223.517 324.491 225.477 324.813C230.026 325.623 235.824 325.359 240.34 325.058C249.543 324.525 263.897 324.556 263.897 324.556C265.949 324.419 266.322 325.673 263.908 325.958Z" fill="black"/>
									<path d="M237.706 318.965C236.693 319.239 235.56 319.562 234.547 319.836C232.642 320.334 230.639 320.592 228.536 320.609C226.555 320.576 224.474 320.303 222.586 319.81C221.496 319.553 220.407 319.296 219.438 318.989C218.808 318.825 219.136 317.566 219.788 317.44C219.788 317.44 221.118 317.599 222.93 317.56C224.742 317.522 226.844 317.505 228.536 317.516C230.228 317.526 232.499 317.581 234.191 317.592C235.883 317.602 237.355 317.421 237.355 317.421C237.766 317.394 238.155 317.657 238.182 318.067C238.45 318.379 238.188 318.768 237.706 318.965Z" fill="black"/>
									<path d="M464.214 436.466C457.25 435.941 453.271 436.867 451.618 441.761C449.965 446.656 455.753 454.27 455.753 454.27C453.563 455.447 451.198 455.852 448.707 455.606C444.766 455.251 428.271 450.332 424.669 450.119C421.066 449.906 421.077 445.121 421.077 445.121C421.077 445.121 390.561 436.519 382.07 432.261C373.578 428.003 364.221 415.101 362.189 408.762C357.24 409.382 351.425 398.264 351.425 398.264C351.425 398.264 345.869 401.522 337.848 398.758C329.828 395.995 328.7 390.833 328.7 390.833C328.7 390.833 317.914 386.81 299.655 372.771C281.396 358.731 267.194 347.39 244.374 324.954C221.553 302.517 204.033 284.098 204.033 284.098C193.434 282.249 183.344 277.52 175.241 270.432C161.542 258.604 153.948 245.543 153.269 245.258C143.327 240.891 133.883 235.335 125.396 228.685C113.625 219.161 104.979 204.562 98.0965 195.99C84.9842 187.999 82.9794 178.978 80.537 172.666C75.1223 169.398 73.5945 165.665 73.5945 165.665C73.5945 165.665 63.3455 159.174 59.8244 150.913C56.3032 142.653 51.3305 128.097 51.1826 127.736C51.0348 127.374 37.3795 111.873 36.7924 101.849C36.2053 91.8255 35.6958 88.519 41.2133 83.449C46.7309 78.3789 59.4353 65.4467 73.007 70.4375C86.5788 75.4284 89.7498 85.2381 95.4935 93.4326C101.237 101.627 107.293 109.553 113.036 114.655C116.442 117.479 118.479 121.426 118.731 125.822C118.731 125.822 124.764 127.852 131.149 137.612C137.533 147.372 155.897 165.446 155.897 165.446C155.897 165.446 158.563 163.371 166.178 169.956C172.989 175.604 180.304 180.766 187.974 185.079C193.29 188.105 194.117 188.751 210.601 192.269C227.085 195.787 246.234 194.136 259.396 165.832C272.559 137.527 272.52 135.715 279.057 137.258C285.593 138.801 295.027 149.141 301.604 164.868C308.181 180.596 320.498 222.375 320.548 222.495C320.597 222.616 329.422 226.315 333.047 229.331C336.381 229.232 339.343 230.972 341.867 235.423C350.412 234.316 397.252 241.58 423.494 259.664C431.586 265.351 434.515 269.073 434.515 269.073C434.515 269.073 445.673 277.442 448.324 291.823C450.976 306.204 442.404 313.086 432.769 317.029C423.135 320.972 412.22 324.877 397.525 318.517C385.936 316.652 374.122 316.987 362.785 319.518C362.785 319.518 378.751 339.979 387.441 353.998C392.204 357.392 395.889 361.93 398.227 367.3C398.227 367.3 413.573 376.626 421.047 383.55C428.52 390.474 435.376 401.729 441.672 406.463C447.968 411.198 454.291 413.25 456.728 415.768C459.164 418.286 465.724 428.818 467.536 431.872C468.664 433.941 469.721 436.18 470.608 438.348C468.643 437.325 466.535 436.641 464.214 436.466Z" fill="url(#paint7_linear_1423_2801)"/>
									<path d="M445.472 291.724C444.198 298.573 440.109 304.043 434.925 308.554C431.614 311.456 427.935 313.805 423.939 315.722C420.354 317.611 416.5 319.188 412.498 320.404C411.245 320.776 409.821 321.077 408.447 321.499C417.809 322.73 425.615 319.816 432.6 316.958C442.234 313.015 450.566 306.231 447.914 291.85C447.459 289.365 446.714 286.857 445.658 284.619C445.943 287.033 445.817 289.474 445.472 291.724Z" fill="url(#paint8_linear_1423_2801)"/>
									<path d="M486.512 441.822C481.902 439.491 477.271 440.542 470.411 437.866C469.573 435.819 468.615 433.821 467.536 431.872C465.724 428.818 459.213 418.406 456.728 415.768C454.242 413.13 447.968 411.198 441.672 406.463C435.376 401.729 428.569 390.595 421.047 383.55C413.524 376.506 398.178 367.179 398.178 367.179C395.96 361.76 392.275 357.222 387.391 353.878C378.581 339.908 362.736 319.398 362.736 319.398C362.736 319.398 363.628 319.173 365.051 318.872L359.258 310.557L360.869 321.708C360.869 321.708 383.061 350.167 385.744 359.473C394.986 366.939 392.617 379.016 388.523 383.784C385.004 387.896 362.576 393.56 356.258 395.301C355.684 395.958 350.675 398.149 351.299 397.612C351.49 397.393 351.042 398.702 351.989 399.298C353.533 402.041 358.231 409.398 362.189 408.762C364.1 415.151 373.458 428.053 382.07 432.261C390.682 436.47 421.077 445.121 421.077 445.121C421.077 445.121 421.116 450.026 424.669 450.119C428.221 450.211 444.596 455.18 448.707 455.606C450.569 455.688 452.332 455.529 454.067 454.96C460.582 459.886 467.793 467.199 475.359 470.57C483.724 474.176 492.478 471.859 496.56 462.596C500.643 453.333 491.171 444.274 486.512 441.822Z" fill="url(#paint9_linear_1423_2801)"/>
									<path d="M344.374 316.789C346.708 330.737 350.266 328.438 351.94 320.16C353.642 312.293 357.758 310.327 362.905 319.469C362.998 319.009 377.795 317.031 383.96 317.32C356.415 293.302 353.843 261.595 373.095 251.607C378.75 248.589 384.87 246.366 391.165 244.915C369.239 237.719 347.276 234.897 341.626 235.521C339.222 231.022 336.189 229.451 332.806 229.43C329.182 226.414 320.406 222.835 320.307 222.594C320.208 222.353 308.011 180.524 301.363 164.967C294.715 149.41 285.353 138.9 278.816 137.357C272.279 135.814 272.438 137.577 259.156 165.931C258.729 166.949 258.181 168.017 257.705 168.914C269.816 181.674 278.933 191.581 278.933 191.581C280.245 177.265 284.668 177.424 287.27 191.684C289.872 205.945 305.688 250.088 301.51 280.762C297.332 311.436 304.769 295.597 309.745 292.295C314.721 288.994 315.515 288.528 317.886 295.01C320.257 301.491 321.056 295.54 323.907 292.545C326.759 289.551 341.991 302.72 344.374 316.789Z" fill="url(#paint10_linear_1423_2801)"/>
									<path d="M294.582 169.008C294.582 169.008 293.404 166.818 291.882 163.786C290.19 160.682 288.378 157.627 286.374 154.792C284.49 151.907 282.174 149.34 279.546 147.041C278.5 146.204 277.454 145.366 276.288 144.578C275.39 144.102 274.832 143.768 274.832 143.768C273.885 143.171 274.262 142.033 275.522 142.361C275.522 142.361 276.151 142.525 277.169 142.952C278.527 143.521 279.814 144.26 280.98 145.048C284.09 147.15 286.745 149.86 288.848 152.936C290.95 156.012 292.571 159.286 293.951 162.658C295.233 165.789 296.098 168.247 296.098 168.247C296.498 169.911 295.343 170.524 294.582 169.008Z" fill="black"/>
									<path d="M270.559 126.114C275.011 132.868 278.116 140.456 279.677 148.393C281.288 156.451 281.631 181.338 276.707 206.412C240.838 205.343 202.314 198.473 189.667 194.368C177.021 190.264 270.559 126.114 270.559 126.114Z" fill="url(#paint11_linear_1423_2801)"/>
									<path d="M270.56 126.114C270.56 126.114 250.493 139.95 230.146 155.166C237.669 162.211 244.435 162.254 251.526 169.616C256.667 174.964 276.417 206.39 276.707 206.412C281.631 181.338 281.288 156.451 279.678 148.393C278.117 140.456 275.061 132.989 270.56 126.114Z" fill="url(#paint12_linear_1423_2801)"/>
									<path d="M201.719 120.402C230.501 105.53 261.208 107.726 270.265 125.391C279.442 143.007 263.559 169.472 234.897 184.295C206.235 199.118 175.408 196.971 166.351 179.306C157.294 161.641 172.936 135.274 201.719 120.402Z" fill="url(#paint13_linear_1423_2801)"/>
									<path d="M177.113 189.805C191.319 183.288 215.91 185.316 230.285 178.871C247.26 171.221 258.459 160.451 270.874 147.497C273.687 139.597 273.746 131.839 270.384 125.342C261.206 107.726 230.45 105.409 201.838 120.353C173.225 135.296 157.292 161.641 166.47 179.257C168.753 183.806 172.504 187.473 177.113 189.805Z" fill="url(#paint14_linear_1423_2801)"/>
									<path d="M260.743 116.212C273.234 140.204 258.948 164.047 230.286 178.87C201.624 193.694 169.32 194.119 156.829 170.127C144.339 146.134 157.523 114.446 186.185 99.6231C214.847 84.8001 248.204 92.0985 260.743 116.212Z" fill="url(#paint15_linear_1423_2801)"/>
									<path d="M158.017 173.718L157.7 173.285C157.382 172.853 157.065 172.42 156.747 171.988C155.696 170.45 154.765 168.862 153.954 167.226C149.705 158.56 148.926 148.756 151.657 139.624C151.914 138.534 152.39 137.637 152.576 136.717C152.932 135.868 153.337 135.14 153.501 134.511C153.715 134.001 153.928 133.492 154.191 133.104L154.404 132.594C155.143 131.308 156.26 131.976 155.811 133.284L155.598 133.793C155.384 134.302 155.171 134.811 155.078 135.271C154.914 135.901 154.629 136.58 154.323 137.549C154.137 138.468 153.781 139.317 153.644 140.357C151.877 149.095 152.65 158.198 155.81 166.607C156.451 168.172 157.141 169.858 158.022 171.325C158.22 171.807 158.537 172.24 158.734 172.721C158.882 173.083 159.052 173.154 159.052 173.154C160.295 174.473 159.408 175.398 158.017 173.718Z" fill="black"/>
									<path d="M178.255 166.138C175.775 164.201 173.032 162.652 170.196 161.563C166.829 160.551 163.227 160.338 159.778 161.187C157.704 161.614 155.946 162.474 154.167 163.623C154.934 165.84 155.821 168.008 156.829 170.127C165.639 187.189 184.308 191.922 204.672 188.087C196.224 180.156 187.491 172.904 178.255 166.138Z" fill="url(#paint16_linear_1423_2801)"/>
									<path d="M230.406 178.821C259.068 163.998 273.353 140.155 260.863 116.162C259.122 112.938 257.019 109.862 254.533 107.224C238.766 96.5232 224.034 97.631 202.581 110.488C175.742 126.674 158.125 159.895 168.156 175.474C170.582 179.683 173.56 183.526 176.971 187.051C192.065 191.981 211.948 188.344 230.406 178.821Z" fill="url(#paint17_linear_1423_2801)"/>
									<path d="M230.406 178.821C259.068 163.998 273.353 140.155 260.863 116.162C259.122 112.938 257.019 109.862 254.533 107.224C238.766 96.5232 224.034 97.631 202.581 110.488C175.742 126.674 158.125 159.895 168.156 175.474C170.582 179.683 173.56 183.526 176.971 187.051C192.065 191.981 211.948 188.344 230.406 178.821Z" fill="url(#paint18_linear_1423_2801)"/>
									<path d="M260.983 116.113C259.242 112.889 257.14 109.813 254.654 107.174C238.886 96.474 224.155 97.5817 202.702 110.439C182.043 122.83 166.926 145.326 165.538 162.204C165.658 162.155 165.828 162.226 165.997 162.297C167.273 161.635 168.751 162.154 169.414 163.43L169.463 163.55C169.759 164.273 170.777 164.7 171.456 164.984C172.693 165.603 173.859 166.391 174.976 167.059C177.549 168.536 180.024 169.773 182.548 171.131C187.596 173.845 192.594 176.439 197.642 179.154C201.792 181.393 205.728 184.14 209.785 186.839C216.924 185.042 223.837 182.353 230.406 178.821C259.189 163.949 273.353 140.155 260.983 116.113Z" fill="url(#paint19_linear_1423_2801)"/>
									<path d="M207.008 135.39C204.33 129.878 200.738 124.88 196.331 120.638C195.017 119.489 193.752 118.46 192.296 117.65C177.412 130.067 167.063 147.379 165.504 161.093C166.615 161.06 167.683 161.607 168.127 162.691C168.077 162.57 168.904 163.216 169.123 163.408C169.731 163.862 170.459 164.267 171.067 164.721C172.403 165.581 173.738 166.44 175.145 167.13C177.719 168.607 180.292 170.085 182.673 171.782C187.776 175.318 192.999 178.804 198.222 182.291C199.777 183.342 201.283 184.272 202.837 185.323C203.932 183.188 205.076 181.173 206.001 178.967C209.684 171.132 211.67 162.586 211.674 154.008C211.646 147.411 210.074 141.165 207.008 135.39Z" fill="#F9FC61"/>
									<path d="M168.424 175.786C165.296 159.209 182.887 131.764 207.684 117.116C225.458 106.609 238.7 103.58 251.276 107.853C253.553 108.609 255.688 109.703 257.703 110.847C256.701 109.429 255.628 108.181 254.555 106.933C238.787 96.2329 224.055 97.3407 202.603 110.197C175.764 126.383 158.146 159.605 168.177 175.183C168.276 175.424 168.375 175.665 168.424 175.786Z" fill="black"/>
									<path d="M60.1142 150.935C63.6354 159.195 73.8844 165.687 73.8844 165.687C73.8844 165.687 75.4122 169.42 80.8269 172.688C83.22 178.879 85.2248 187.9 98.3864 196.012C105.269 204.584 113.915 219.183 125.686 228.707C134.172 235.357 143.617 240.912 153.559 245.28C154.358 245.515 186.232 257.779 186.62 258.042C191.236 261.074 202.951 260.497 207.817 255.553C212.875 250.39 213.414 230.064 212.537 223.111C211.671 217.56 209.454 212.141 206.179 207.576C202.779 202.359 213.767 207.564 209.814 202.714C208.056 200.481 199.887 194.263 198.371 191.931C197.862 191.717 188.702 185.483 188.144 185.149C180.424 180.716 173.159 175.675 166.348 170.027C158.732 163.442 156.066 165.517 156.066 165.517C156.066 165.517 137.582 147.492 131.318 137.683C125.054 127.874 118.901 125.893 118.901 125.893C118.528 121.546 116.442 117.479 113.206 114.726C107.413 109.504 101.407 101.698 95.663 93.5035C89.9192 85.3091 86.7483 75.4993 73.1765 70.5085C59.6048 65.5176 46.7799 78.4992 41.3828 83.5199C35.9857 88.5407 36.4952 91.8472 36.9619 101.92C37.4286 111.993 51.4451 127.347 51.593 127.708C51.7408 128.069 56.4727 142.724 60.1142 150.935Z" fill="url(#paint20_linear_1423_2801)"/>
									<path d="M166.108 170.125C158.492 163.541 155.826 165.616 155.826 165.616C155.826 165.616 137.342 147.591 131.078 137.782C124.814 127.972 118.66 125.991 118.66 125.991C118.288 121.645 116.201 117.577 112.966 114.824C107.173 109.602 101.167 101.797 95.4227 93.6023C90.336 85.9826 87.2473 77.4045 76.6207 72.052L62.0268 78.3057C56.7119 84.5582 62.9108 98.331 62.9108 98.331C62.9108 98.331 62.9005 103.116 67.1211 102.091C71.3418 101.067 74.2925 101.406 81.6237 108.67C88.9549 115.933 113.669 136.47 114.359 138.156C120.348 134.58 123.853 143.832 123.853 143.832C123.853 143.832 139.297 153.399 163.87 180.461C164.734 173.64 176.736 190.943 176.736 190.943C176.736 190.943 174.594 179.869 180.644 180.908C175.519 177.662 170.657 174.028 166.108 170.125Z" fill="url(#paint21_linear_1423_2801)"/>
									<path d="M65.2142 44.5227C65.0663 44.1614 64.8473 43.9698 64.6994 43.6086C61.5619 38.0032 57.7398 31.4125 53.9624 30.4276C50.0152 29.3715 31.9664 32.6805 24.2211 40.2088C20.5538 43.9593 20.7983 71.6982 22.3429 77.5337C23.8874 83.3692 31.7171 92.5378 40.0225 97.7155C48.3278 102.893 55.6085 100.757 63.7048 97.8657C71.8011 94.9741 76.6008 84.7144 75.8551 76.0211C79.9164 70.1411 82.4009 63.5003 74.8828 50.9703C67.3648 38.4403 65.2142 44.5227 65.2142 44.5227Z" fill="url(#paint22_linear_1423_2801)"/>
									<path d="M74.9322 51.0907C67.4142 38.5608 65.2142 44.5227 65.2142 44.5227C65.0664 44.1614 64.8474 43.9698 64.6995 43.6085C62.0274 38.7969 58.8186 33.3612 55.7089 31.2594C57.6855 33.6843 58.2884 39.624 54.6099 41.973C58.1358 44.7481 57.9065 49.3412 53.4073 54.8381C60.9249 64.275 50.639 68.3438 50.639 68.3438C55.9444 73.0621 43.0805 81.1386 40.9347 81.7356C43.2065 81.79 44.7781 84.943 47.2034 86.0595C53.2639 88.5003 60.1182 90.4757 61.394 92.9061C62.5439 94.6852 62.8507 96.8092 62.1174 98.7965C62.7196 98.5501 63.371 98.4241 63.9732 98.1777C72.0695 95.2861 76.8692 85.0264 76.1235 76.3331C79.9657 70.2615 82.401 63.5002 74.9322 51.0907Z" fill="url(#paint23_linear_1423_2801)"/>
									<path d="M206.481 251.601C206.481 251.601 208.442 255.017 210.966 259.468C213.808 264.35 216.168 269.43 218.167 274.658C218.589 276.032 218.961 277.286 219.383 278.66C219.733 280.204 219.963 281.797 219.783 283.417C219.767 284.408 219.411 285.256 218.765 286.083C218.19 286.74 217.616 287.397 216.942 287.813C216.318 288.35 215.475 288.695 214.583 288.919C213.811 289.095 212.99 289.15 212.24 289.035C211.03 288.827 209.771 288.499 208.534 287.88C207.515 287.453 206.667 287.098 205.867 286.862C205.068 286.627 204.22 286.271 203.42 286.036C201.822 285.565 201.909 284.405 203.77 284.487C204.69 284.673 205.489 284.908 206.409 285.094C207.209 285.329 208.178 285.636 209.147 285.942C210.165 286.369 211.254 286.626 212.415 286.714C213.455 286.85 214.588 286.527 215.404 285.772C215.836 285.454 216.219 285.016 216.553 284.458C216.816 284.069 216.909 283.609 216.953 283.029C216.991 281.748 216.739 280.445 216.416 279.312C216.043 278.058 215.671 276.804 215.348 275.671C213.716 270.996 211.06 265.194 208.897 260.596C207.791 258.236 206.832 256.238 206.192 254.673C205.551 253.107 205.086 252.313 205.086 252.313C204.149 250.025 205.255 249.291 206.481 251.601Z" fill="black"/>
									<path d="M128.012 135.1L127.777 135.899C127.564 136.408 127.449 137.158 127.142 138.127C125.232 144.111 122.425 149.619 118.599 154.699C116.519 157.519 114.05 160.076 111.313 162.321C108.576 164.566 105.692 166.449 102.539 168.021C99.3856 169.592 96.1339 170.923 92.7345 171.892C90.1068 172.687 87.5011 173.191 84.7968 173.454C83.7347 173.607 82.9136 173.662 82.3826 173.739L81.5614 173.794C79.3388 173.859 79.377 172.578 81.501 172.272L82.3222 172.217C82.8532 172.14 83.6743 172.085 84.5666 171.861C87.1724 171.357 89.7288 170.732 92.1867 169.867C95.3672 168.706 98.4491 167.304 101.312 165.711C104.175 164.117 106.89 162.162 109.435 160.137C111.931 157.99 114.378 155.724 116.436 153.194C118.615 150.615 120.454 147.894 122.194 144.932C123.53 142.699 124.646 140.273 125.472 137.826C125.828 136.978 126.063 136.178 126.277 135.669L126.512 134.87C127.262 131.892 128.663 131.881 128.012 135.1Z" fill="black"/>
									<path d="M175.278 253.686C175.278 253.686 167.581 252.055 162.785 250.644C157.989 249.232 150.691 246.173 150.691 246.173C150.302 245.91 150.155 245.549 150.368 245.039C150.51 244.7 150.872 244.552 151.162 244.574C151.162 244.574 158.859 246.204 163.655 247.616C168.451 249.028 175.748 252.087 175.748 252.087C176.865 252.755 176.537 254.014 175.278 253.686Z" fill="black"/>
									<path d="M187.412 229.739C187.412 229.739 185.462 224.632 182.39 218.156C179.438 211.631 175.195 203.666 171.86 197.579C168.476 191.371 164.161 183.576 160.487 177.347C156.813 171.118 154.141 166.306 154.141 166.306C152.963 164.116 153.998 163.552 155.487 165.474C155.487 165.474 158.471 170.017 162.507 176.098C166.542 182.18 171.098 189.876 174.482 196.084C178.162 203.014 181.551 209.922 184.388 217.198C187.148 223.942 188.736 229.197 188.736 229.197C189.897 232.377 188.671 233.16 187.412 229.739Z" fill="black"/>
									<path d="M111.855 203.154C111.028 202.508 110.201 201.863 109.304 201.386C107.628 200.385 105.811 199.723 103.944 198.94C102.247 198.229 100.161 197.254 98.3649 196.302C97.2973 195.755 96.3502 195.158 95.403 194.562C94.7953 194.107 95.5123 193.111 96.0926 193.155C96.0926 193.155 97.4011 193.603 99.2187 194.266C101.036 194.928 103.336 195.393 105.082 196.225C107.119 197.078 108.964 198.151 110.546 199.613C111.422 200.379 112.227 201.315 112.911 202.3C113.18 202.612 113.087 203.072 112.775 203.34C112.534 203.439 112.123 203.466 111.855 203.154Z" fill="black"/>
									<path d="M201.026 221.777C201.026 221.777 198.152 218.876 194.543 214.87C190.935 210.863 186.593 205.75 183.467 201.546C180.34 197.342 176.551 191.863 173.808 187.221C171.065 182.579 168.935 179.092 168.935 179.092C168.004 177.505 169.159 176.891 170.281 178.26C170.281 178.26 172.483 181.577 175.658 185.901C178.834 190.226 182.694 195.535 185.941 199.69C189.068 203.894 193.048 209.154 196.295 213.309C199.542 217.464 202.225 220.584 202.225 220.584C203.813 222.746 202.975 223.792 201.026 221.777Z" fill="black"/>
									<path d="M158.603 180.648C158.603 180.648 159.655 182.186 160.783 184.256C163.477 188.777 165.016 193.912 165.443 199.08C165.728 201.494 165.647 203.355 165.647 203.355C165.554 203.815 165.242 204.083 164.782 203.99C164.492 203.969 164.273 203.777 164.125 203.416C164.125 203.416 163.845 201.702 163.199 199.436C162.553 197.17 161.709 194.422 161.112 192.276C160.515 190.13 159.551 187.431 158.735 185.093C157.919 182.756 157.158 181.24 157.158 181.24C156.813 180.397 157.87 179.542 158.603 180.648Z" fill="black"/>
									<path d="M336.279 243.756C336.372 243.296 336.465 242.836 336.728 242.447C337.155 241.429 337.751 240.482 338.348 239.535C339.59 237.761 341.172 236.129 342.951 234.979C343.192 234.881 343.137 234.06 342.841 233.337C342.546 232.614 341.818 232.209 341.336 232.406C340.471 233.042 339.535 233.846 338.889 234.673C337.931 235.768 337.192 237.055 336.574 238.292C336.027 239.36 335.578 240.668 335.2 241.807C334.987 242.316 334.943 242.896 334.899 243.477C334.889 245.168 336.142 244.796 336.279 243.756Z" fill="black"/>
									<path d="M346.82 393.54C345.802 393.113 344.663 392.736 343.404 392.407C342.435 392.101 341.444 392.084 340.453 392.068C339.391 392.222 338.329 392.375 337.267 392.528C334.853 392.813 332.63 392.879 330.21 392.464C329.001 392.256 327.621 391.977 326.482 391.599C325.803 391.315 326.132 390.055 326.832 390.05C327.993 390.137 329.154 390.225 330.385 390.142C332.608 390.077 334.732 389.77 336.856 389.463C338.038 389.26 339.15 389.227 340.431 389.265C341.712 389.303 343.02 389.752 344.208 390.25C345.396 390.748 346.513 391.416 347.51 392.133C347.898 392.396 347.926 392.806 347.663 393.195C347.57 393.655 347.159 393.682 346.82 393.54Z" fill="black"/>
									<path d="M70.7193 150.392C68.7098 146.856 66.5797 143.369 64.2582 140.101C60.7156 135.223 56.8609 130.615 52.5028 126.493C51.9169 125.748 50.8056 125.781 50.0612 126.367C49.5357 127.145 49.6891 128.207 50.4666 128.732C54.7262 132.613 58.6738 136.762 62.3094 141.179C64.8719 144.349 67.3632 147.688 69.6629 151.246C71.3768 154.06 72.2635 153.134 70.7193 150.392Z" fill="black"/>
									<path d="M161.191 165.67C161.191 165.67 161.87 165.954 162.938 166.502C164.394 167.312 165.899 168.242 167.213 169.392C168.867 170.683 170.909 172.238 173.291 173.935C175.672 175.631 178.344 177.35 181.185 179.14C187.476 183.174 193.575 187.426 199.291 192.117C205.346 196.95 211.161 201.882 216.149 206.168C221.136 210.454 227.071 215.336 233.149 219.879C239.056 224.351 245.177 228.313 251.49 232.057C256.346 234.991 261.465 237.536 266.726 239.741C270.629 241.378 273.076 242.204 273.076 242.204C277.462 243.643 277.133 244.902 272.557 243.682C272.557 243.682 269.989 242.905 266.014 241.438C260.633 239.282 255.443 236.907 250.346 234.072C243.792 230.427 237.551 226.513 231.523 222.091C225.205 217.646 219.27 212.764 214.162 208.528C209.054 204.291 203.31 199.19 197.425 194.428C191.829 189.688 185.922 185.216 179.751 181.133C176.861 179.222 174.14 177.383 171.878 175.637C169.497 173.941 167.526 172.216 165.872 170.925C164.608 169.896 163.223 168.916 161.887 168.057C160.939 167.46 160.261 167.175 160.261 167.175C159.193 166.628 158.175 166.201 157.085 165.944C156.335 165.829 155.875 165.736 155.706 165.665C155.536 165.594 155.87 165.036 156.811 164.931C158.454 164.822 159.954 165.051 161.191 165.67Z" fill="black"/>
									<path d="M307.838 271.143C307.838 271.143 307.143 268.756 306.151 265.646C305.16 262.537 303.753 258.755 302.52 255.744C301.458 252.804 299.881 248.95 298.528 245.989C297.176 243.027 296.119 240.788 296.119 240.788C295.675 239.705 296.71 239.141 297.465 239.956C297.465 239.956 298.884 242.047 300.597 244.861C302.41 247.915 304.031 251.189 305.29 254.61C306.55 258.032 307.519 261.431 308.248 264.929C308.878 268.186 309.212 270.721 309.212 270.721C309.492 272.434 308.238 272.807 307.838 271.143Z" fill="black"/>
									<path d="M322.56 284.099C322.56 284.099 321.848 282.703 320.939 280.825C320.03 278.947 318.732 276.807 317.752 275.099C317.287 274.306 316.652 273.441 316.066 272.696C315.529 272.072 314.801 271.667 313.931 271.602C313.35 271.558 312.869 271.755 312.485 272.193C312.294 272.412 312.223 272.582 312.152 272.751C311.96 272.97 311.768 273.189 311.478 273.168C311.117 273.315 310.728 273.053 310.63 272.812L310.58 272.691C310.531 272.571 310.602 272.401 310.553 272.281C310.575 271.991 310.668 271.531 310.859 271.312C311.073 270.803 311.456 270.365 311.888 270.047C312.441 269.68 312.994 269.313 313.815 269.259C315.288 269.078 316.766 269.598 317.981 270.506C319.027 271.344 319.832 272.28 320.445 273.435C321.694 275.455 322.581 277.622 323.227 279.889C323.895 281.865 324.295 283.529 324.295 283.529C324.443 283.89 324.23 284.399 323.819 284.427C323.217 284.673 322.708 284.46 322.56 284.099Z" fill="black"/>
									<path d="M315.621 256.147C315.621 256.147 316.398 253.579 316.95 250.119C317.574 246.49 318.028 242.789 318.312 239.017C318.596 235.245 318.64 231.572 318.513 227.827C318.365 224.373 317.981 221.718 317.981 221.718C317.899 220.486 319.081 220.284 319.525 221.367C320.073 223.393 320.5 225.468 320.807 227.592C321.979 235.267 321.389 243.101 319.129 250.634C318.566 252.692 317.832 254.679 317.05 256.546C316.338 258.243 315.079 257.915 315.621 256.147Z" fill="black"/>
									<path d="M325.839 240.576C325.839 240.576 325.785 242.848 325.736 245.821C325.687 248.794 325.764 252.418 325.836 255.341C325.907 258.264 325.864 261.938 326.056 264.812C326.248 267.686 326.363 270.029 326.363 270.029C326.39 270.439 326.128 270.828 325.597 270.905C325.186 270.932 324.918 270.62 324.77 270.259C324.77 270.259 324.293 268.064 323.762 265.047C322.672 258.604 322.523 252.057 323.415 245.646C323.754 242.695 324.219 240.396 324.219 240.396C324.618 238.967 325.899 239.005 325.839 240.576Z" fill="black"/>
									<path d="M340.451 288.306C340.451 288.306 340.276 287.534 340.024 286.231C339.772 284.928 339.273 283.023 338.627 280.757C337.981 278.491 337.137 275.743 336.124 272.923C335.828 272.201 335.533 271.478 335.237 270.756C335.089 270.394 334.941 270.033 334.793 269.672L334.744 269.551L334.695 269.431C334.646 269.31 334.596 269.19 334.476 269.239C334.525 269.36 334.454 269.529 334.503 269.65L334.481 269.94L334.514 271.051C334.422 274.604 334.619 278.179 334.937 281.704C335.305 285.35 336.033 288.848 336.932 292.418C337.928 296.228 339.166 299.939 340.814 303.623C341.702 305.791 340.667 306.355 339.419 304.335C337.529 300.75 336.002 297.016 334.835 293.135C333.647 289.544 332.869 285.926 332.332 282.208C331.795 278.491 331.548 274.796 331.591 271.123L331.679 269.962L331.744 269.092C331.717 268.681 331.859 268.342 331.832 267.931C331.941 266.481 332.099 265.15 332.258 263.82C332.504 261.329 332.728 259.128 332.865 258.088C334.267 261.17 335.4 263.94 336.583 266.83L337.027 267.914L337.421 268.878C337.569 269.239 337.717 269.6 337.914 270.082C338.21 270.804 338.385 271.576 338.681 272.299C339.623 275.288 340.346 278.085 340.921 280.521C341.496 282.957 341.825 284.791 342.005 286.264C342.186 287.736 342.312 288.388 342.312 288.388C342.335 291.191 341.01 291.733 340.451 288.306Z" fill="black"/>
									<path d="M351.338 314.221C350.5 312.173 349.662 310.126 348.632 308.298C346.793 304.833 344.422 301.444 341.908 298.395C339.395 295.346 336.641 292.396 333.696 289.665C333.039 289.09 332.261 288.564 331.725 287.94C331.117 287.486 330.509 287.032 330.071 286.649C329.633 286.265 329.244 286.003 328.905 285.86L328.516 285.598C327.52 284.881 328.018 283.693 329.376 284.262L329.885 284.475C330.224 284.618 330.613 284.88 331.171 285.214C331.73 285.548 332.288 285.882 333.016 286.287C333.745 286.692 334.522 287.217 335.299 287.743C342.176 292.521 347.618 299.292 350.822 307.12C351.709 309.288 352.427 311.385 353.024 313.531C353.281 315.534 352.077 316.027 351.338 314.221Z" fill="black"/>
									<path d="M351.384 335.292C351.384 335.292 351.11 331.186 350.753 325.848C350.397 320.511 349.788 313.87 349.311 308.582C348.884 303.414 348.275 296.774 347.508 291.464C346.741 286.154 345.936 282.125 345.936 282.125C345.607 280.291 346.91 280.039 347.479 281.774C347.479 281.774 348.695 285.776 349.753 291.108C350.958 296.801 351.801 302.642 352.355 308.461C352.832 313.75 353.03 320.417 353.025 325.903C353.021 331.388 353.005 335.472 353.005 335.472C352.83 337.793 351.527 338.045 351.384 335.292Z" fill="black"/>
									<path d="M367.092 347.563C367.092 347.563 365.093 342.335 363.056 335.295C358.417 320.181 355.683 304.569 354.882 288.868C354.438 281.598 354.513 275.943 354.513 275.943C354.59 273.381 355.871 273.419 356.035 275.882C356.035 275.882 356.321 281.39 357.176 288.632C357.91 295.924 359.285 304.782 360.452 311.756C361.619 318.73 363.405 327.56 365.202 334.698C366.998 341.837 368.587 347.092 368.587 347.092C369.507 350.371 368.33 351.275 367.092 347.563Z" fill="black"/>
									<path d="M330.136 328.38L326.414 328.216C324.092 328.041 320.78 327.85 317.107 327.807C309.202 327.386 301.182 327.716 293.359 328.527C289.472 328.993 285.684 329.7 281.825 330.576C277.894 331.622 273.843 332.718 270.959 334.601C269.612 335.433 268.364 336.507 267.505 337.843C266.837 338.959 266.459 340.098 266.252 341.308C266.186 342.178 266.241 343 266.416 343.771C266.515 344.012 266.613 344.253 266.761 344.615C267.155 345.578 267.402 346.18 267.09 346.448C266.898 346.667 265.978 346.481 265.316 345.206C265.168 344.845 265.02 344.483 264.872 344.122C264.598 343.109 264.445 342.047 264.461 341.056C264.521 339.485 265.041 338.007 265.78 336.72C266.782 335.045 268.052 333.682 269.59 332.631C273.197 330.451 277.002 328.754 281.102 327.779C284.983 326.612 289.012 325.807 293.069 325.412C301.182 324.623 309.18 324.583 317.353 325.316C321.125 325.6 324.366 325.961 326.736 326.256L330.437 326.71C333.777 327.312 334.029 328.615 330.136 328.38Z" fill="black"/>
									<path d="M341.267 248.042L342.023 251.95C342.499 254.145 343.053 256.872 343.48 258.946C343.787 261.07 344.22 263.846 344.696 266.041C345.173 268.236 345.332 269.999 345.332 269.999C345.359 270.409 344.976 270.847 344.516 270.754C344.226 270.733 344.007 270.541 343.788 270.349C343.788 270.349 343.147 268.784 342.381 266.567C340.749 261.892 339.889 257.042 339.729 252.186C339.663 249.963 339.625 248.151 339.625 248.151C339.761 247.111 341.064 246.859 341.267 248.042Z" fill="black"/>
									<path d="M243.666 263.098C243.666 263.098 240.895 261.139 237.44 258.194C233.986 255.249 229.633 251.828 226.419 248.785C223.205 245.741 219.236 241.883 216.164 238.5C213.093 235.117 210.826 232.67 210.826 232.67C209.802 231.543 210.689 230.617 211.904 231.526L228.406 246.425C234.785 252.391 244.716 261.543 244.716 261.543C246.156 263.344 245.489 264.461 243.666 263.098Z" fill="black"/>
									<path d="M364.17 396.423C364.17 396.423 365.856 395.733 368.845 394.791C370.339 394.32 372.124 393.871 374.27 393.274C375.283 393 376.465 392.797 377.648 392.594C378.299 392.468 378.83 392.392 379.481 392.266C380.423 392.162 381.463 392.298 382.29 392.944C382.898 393.398 383.363 394.192 383.418 395.013C383.495 395.544 383.402 396.004 383.309 396.464C383.095 396.973 382.882 397.482 382.499 397.92C381.803 398.627 381.059 399.212 380.216 399.557C379.493 399.853 378.7 400.319 377.977 400.614C375.328 401.699 372.651 402.372 369.875 402.805C367.05 403.118 364.248 403.14 361.346 402.921C359.145 402.697 356.966 402.183 355.028 401.57C354.229 401.335 353.381 400.979 352.532 400.623C352.362 400.552 352.313 400.432 352.193 400.481C352.023 400.41 351.902 400.459 351.853 400.339C351.683 400.268 351.634 400.147 351.585 400.027C351.536 399.906 351.607 399.737 351.727 399.687C351.798 399.518 351.99 399.298 352.231 399.2C352.521 399.222 352.811 399.244 353.15 399.386C353.15 399.386 353.999 399.742 355.548 400.092C357.557 400.535 359.638 400.808 361.669 400.961C364.231 401.038 366.984 400.895 369.59 400.391C372.076 399.936 374.583 399.191 376.991 398.206C378.245 397.833 379.4 397.22 380.456 396.366C380.577 396.317 380.648 396.147 380.719 395.977C380.79 395.807 380.79 395.807 380.741 395.687C380.692 395.567 380.692 395.567 380.763 395.397C380.763 395.397 380.423 395.255 380.013 395.282C379.602 395.309 378.951 395.435 378.299 395.561C377.117 395.764 376.055 395.918 374.993 396.071C372.918 396.498 371.205 396.778 369.661 397.128C366.694 397.78 364.959 398.35 364.959 398.35C362.375 398.564 361.641 397.458 364.17 396.423Z" fill="black"/>
									<path d="M398.76 370.316C398.76 370.316 399.904 374.487 401.35 380.082C402.073 382.879 402.895 385.918 403.645 389.126C404.215 390.861 404.182 392.843 403.641 394.611C402.929 396.308 401.659 397.671 400.192 398.553C398.846 399.385 397.45 400.097 396.005 400.688C394.559 401.28 392.994 401.921 391.499 402.392C388.56 403.454 385.522 404.276 382.385 404.856C380.02 405.262 377.655 405.667 375.192 405.832C374.25 405.936 373.549 405.941 373.018 406.018L372.148 405.953C370.166 405.92 370.084 404.688 372.087 404.431L372.859 404.255C373.39 404.179 374.042 404.053 374.983 403.949C376.697 403.669 379.182 403.214 381.859 402.541C384.777 401.768 387.645 400.876 390.536 399.693C391.981 399.101 393.426 398.51 394.822 397.798C396.147 397.256 397.302 396.643 398.528 395.86C399.562 395.296 400.329 394.42 400.876 393.352C401.204 392.093 401.363 390.763 400.99 389.509C400.41 386.372 399.709 383.285 399.226 380.389C398.191 374.767 397.408 370.448 397.408 370.448C396.712 368.061 397.987 367.398 398.76 370.316Z" fill="black"/>
									<path d="M375.094 378.454C375.094 378.454 373.78 380.398 371.673 382.807C367.365 388.085 362.302 392.547 356.554 396.024C353.861 397.689 351.792 398.817 351.792 398.817C350.878 399.331 350.144 398.225 350.96 397.47C350.96 397.47 352.761 396.03 355.185 394.053C357.61 392.077 360.418 389.662 362.674 387.614C364.978 385.687 367.737 383.152 370.113 381.055C372.488 378.958 374.07 377.326 374.07 377.326C374.957 376.401 376.123 377.189 375.094 378.454Z" fill="black"/>
									<path d="M383.238 366.404C383.622 365.966 383.884 365.577 384.267 365.139C384.985 364.143 385.652 363.026 386.15 361.838C387.217 359.292 387.825 356.653 387.682 353.9C387.605 353.369 386.926 353.084 386.155 353.259C385.383 353.435 384.709 353.851 384.688 354.141C384.923 356.435 384.748 358.756 384.234 360.935C383.763 362.533 383.123 364.061 382.313 365.517C381.454 366.853 382.401 367.45 383.238 366.404Z" fill="black"/>
									<path d="M433.429 296.653C433.949 295.175 434.299 293.625 434.529 292.125C434.918 289.295 435.065 286.563 434.873 283.689C434.851 280.886 434.418 278.111 433.695 275.314C433.344 273.77 432.873 272.275 432.282 270.83C432.134 270.469 432.347 269.96 432.709 269.812C433.07 269.664 433.409 269.806 433.678 270.118C433.995 270.551 434.143 270.912 434.34 271.394C434.904 272.428 435.348 273.512 435.791 274.596C438.157 280.377 438.377 286.755 436.538 292.569C436.068 294.167 435.427 295.695 434.787 297.222C434.289 298.41 433.15 298.033 433.429 296.653Z" fill="black"/>
									<path d="M422.773 308.748C421.574 309.941 420.375 311.135 419.078 312.087C414.228 316.041 408.376 318.576 402.147 319.157C400.554 319.387 398.742 319.426 397.05 319.415C396.639 319.443 396.322 319.01 396.294 318.599C396.267 318.189 396.579 317.921 396.99 317.893C398.583 317.663 400.126 317.312 401.67 316.962C404.467 316.239 407.287 315.226 409.936 314.142C412.586 313.057 415.257 311.683 417.759 310.237C419.105 309.405 420.452 308.573 421.7 307.499C422.734 306.935 423.78 307.773 422.773 308.748Z" fill="black"/>
									<path d="M78.7619 80.0334C78.8605 80.2743 79.0795 80.4659 79.178 80.7068C79.5942 81.3801 79.8406 81.9822 80.0159 82.7541C80.8319 85.0915 81.0457 87.6754 80.63 90.0952C80.2798 91.6445 79.8093 93.2431 79.0704 94.5297C78.2604 95.986 77.2806 97.3711 76.2023 98.5154C74.0457 100.804 71.4511 102.709 68.61 104.013C65.769 105.316 62.7308 106.138 59.6159 106.428C54.0868 107.004 48.4973 106.057 43.4058 103.923C42.5572 103.567 41.9988 103.233 41.4896 103.02L40.7615 102.615C39.0862 101.613 39.7539 100.497 41.4511 101.208L42.1299 101.493C42.5186 101.755 43.1482 101.919 43.9968 102.275C48.8912 103.928 54.0427 104.491 59.2323 103.773C62.0078 103.34 64.8051 102.617 67.2849 101.462C69.7646 100.306 72.0473 98.6693 74.0616 96.7201C75.0687 95.7455 75.9773 94.5301 76.7655 93.3639C77.4332 92.2471 78.0517 91.0098 78.3307 89.6302C79.0803 86.652 78.62 83.4659 77.366 80.7453C76.802 79.7107 76.6267 78.9388 76.9387 78.6706C77.1303 78.4516 77.9789 78.8073 78.7619 80.0334Z" fill="black"/>
									<path d="M62.0168 37.3954C60.8129 40.9813 59.7693 55.6091 65.1346 58.7562C70.5 61.9033 75.7385 58.2128 77.692 51.6487C79.6455 45.0846 80.0827 39.2817 76.8906 35.9482C73.6986 32.6147 64.0033 31.9426 62.0168 37.3954Z" fill="url(#paint24_linear_1423_2801)"/>
									<path d="M314.458 207.272C314.458 207.272 313.987 205.777 313.412 203.341C312.837 200.905 311.818 197.385 310.652 193.504C309.485 189.623 308.001 185.309 306.397 181.045C304.792 176.781 302.996 172.735 301.348 169.051C299.699 165.367 297.903 161.322 295.937 157.205C294.311 153.231 292.203 149.454 289.733 145.825C287.779 143.11 285.37 141.002 282.457 139.382C281.559 138.906 280.71 138.55 279.791 138.364C279.161 138.2 278.822 138.058 278.822 138.058C277.563 137.73 276.884 137.445 276.906 137.155C276.927 136.865 277.601 136.449 279.051 136.558C279.051 136.558 279.511 136.651 280.141 136.815C281.23 137.072 282.199 137.379 283.097 137.855C286.371 139.327 289.289 141.648 291.414 144.434C294.124 147.965 296.451 151.933 298.368 155.929C300.454 159.997 302.42 164.113 304.068 167.797C305.716 171.481 307.441 175.696 308.926 180.01C310.41 184.324 311.702 188.856 312.748 192.787C313.795 196.717 314.572 200.336 315.148 202.772C315.723 205.208 315.953 206.801 315.953 206.801C316.829 210.66 315.554 211.323 314.458 207.272Z" fill="black"/>
									<path d="M307.437 181.181C307.437 181.181 307.153 178.767 306.501 175.8C305.849 172.833 304.852 169.023 304.03 165.985C303.258 163.067 302.141 159.306 300.958 156.416C299.775 153.526 298.888 151.358 298.888 151.358C298.494 150.394 299.649 149.781 300.284 150.646C300.284 150.646 301.532 152.666 303.005 155.578C306.22 161.715 308.158 168.514 308.625 175.493C308.965 178.729 308.839 181.17 308.839 181.17C308.97 182.522 307.547 182.824 307.437 181.181Z" fill="black"/>
									<path d="M313.511 200.489L313.445 195.173L313.175 185.582L313.196 176.013L313.179 170.818C313.151 170.407 313.535 169.969 313.994 170.062C314.405 170.035 314.673 170.347 314.821 170.708C314.821 170.708 315.177 172.952 315.588 176.018C315.999 179.084 316.246 182.779 316.318 185.702C316.389 188.626 316.105 192.397 315.815 195.469C315.526 198.54 315.181 200.79 315.181 200.79C314.803 201.929 313.451 202.06 313.511 200.489Z" fill="black"/>
									<path d="M117.73 124.404C117.747 126.506 117.643 128.658 117.37 130.738C116.845 134.608 115.86 138.386 114.415 142.07C112.921 145.634 110.918 148.985 108.526 152.073C107.426 153.507 106.347 154.652 105.581 155.528C104.815 156.404 104.311 156.891 104.311 156.891C103.375 157.696 102.45 156.809 103.167 155.813C104.459 154.159 105.63 152.555 106.752 150.83C108.684 147.65 110.277 144.326 111.699 140.932C113.122 137.538 114.326 133.952 115.12 130.393C115.563 128.384 115.885 126.424 116.159 124.344C116.339 122.723 117.692 122.592 117.73 124.404Z" fill="black"/>
									<path d="M99.0672 159.881C95.3668 162.52 91.3215 164.316 86.9093 165.559C84.0626 166.162 81.1175 166.524 78.2653 166.425C76.6941 166.365 75.1229 166.305 73.5025 166.125C73.0426 166.032 72.7743 165.72 72.8673 165.26C72.8892 164.97 73.1519 164.581 73.5625 164.554C73.5625 164.554 75.4949 164.466 78.0296 164.132C80.6846 163.748 83.4108 163.195 86.0877 162.521C88.7646 161.847 91.3922 161.053 93.9705 160.139C96.4284 159.273 98.1856 158.414 98.1856 158.414C99.4392 158.041 100.173 159.147 99.0672 159.881Z" fill="black"/>
									<path d="M418.859 321.175L417.097 321.334C415.985 321.367 414.223 321.526 412.241 321.493C409.969 321.439 407.549 321.023 405.321 320.388C402.803 319.732 400.087 318.593 396.989 317.893C390.819 316.903 384.556 316.373 378.299 316.543C372.403 316.566 367.016 316.802 363.633 316.781C362.932 316.786 362.111 316.841 361.339 317.016C360.857 317.214 360.496 317.361 360.233 317.75C359.971 318.139 360.338 318.692 361.066 319.097C361.794 319.502 362.763 319.808 363.705 319.704C366.847 319.824 371.774 319.495 377.62 319.352C383.779 318.94 389.943 319.23 395.965 319.859C398.845 320.367 401.703 321.166 404.56 321.965C407.079 322.622 409.619 322.988 412.132 322.944C413.823 322.955 415.635 322.916 417.349 322.637L419.232 322.428C425.363 321.606 424.509 320.55 418.859 321.175Z" fill="black"/>
									<path fill-rule="evenodd" clip-rule="evenodd" d="M253.891 217.999C254.466 214.249 258.046 211.659 261.796 212.233C261.965 212.304 262.086 212.255 262.255 212.326L276.999 215.713L274.384 230.281L259.69 227.014C255.743 225.958 253.295 222.039 253.891 217.999Z" fill="black"/>
									<path fill-rule="evenodd" clip-rule="evenodd" d="M301.299 220.812L310.935 223.055C314.882 224.111 317.45 227.981 316.684 231.95C316.11 235.7 312.53 238.29 308.78 237.716C308.61 237.645 308.49 237.694 308.32 237.623L298.685 235.379L301.299 220.812Z" fill="black"/>
									<path fill-rule="evenodd" clip-rule="evenodd" d="M293.982 190.906C297.929 191.962 300.497 195.832 299.731 199.801L290.279 254.005C289.704 257.755 286.125 260.345 282.374 259.77C282.205 259.699 282.084 259.748 281.915 259.677C277.967 258.621 275.399 254.751 276.165 250.782L285.788 196.65C286.362 192.9 289.942 190.31 293.692 190.884C293.692 190.884 293.812 190.835 293.982 190.906Z" fill="black"/>
									<path d="M44.2744 85.4303C42.8404 87.4232 40.6289 88.8906 38.264 89.2961C36.671 89.5262 35.0505 89.3457 33.5231 88.7054C32.7238 88.4701 31.9956 88.0651 31.2182 87.5397C30.8295 87.277 31.4972 86.1601 31.9078 86.1327C32.5374 86.2968 33.2874 86.4117 34.0374 86.5266C35.3184 86.5647 36.5502 86.4824 37.7326 86.2797C38.9151 86.077 40.1686 85.7046 41.2525 85.261C41.8547 85.0146 42.528 84.5984 43.0808 84.2316C43.683 83.9851 44.7287 84.8226 44.2744 85.4303Z" fill="black"/>
									<path d="M42.993 82.2992C42.3909 82.5456 41.8599 82.6223 41.2084 82.7483C40.026 82.9511 38.9147 82.984 37.8745 82.8473C36.7851 82.5902 35.6464 82.2126 34.6992 81.616C34.1901 81.4026 33.752 81.0194 33.4345 80.587C33.2155 80.3954 33.1169 80.1545 33.0183 79.9137C32.9416 79.3827 34.2445 79.1307 34.4142 79.2018L34.5839 79.273C34.8741 79.2948 35.0931 79.4864 35.3832 79.5083C36.2537 79.5738 37.4143 79.6613 38.2136 79.8966L41.1425 80.5257C42.0622 80.7117 42.8122 80.8266 42.8122 80.8266C43.2721 80.9196 43.5241 82.2225 42.993 82.2992Z" fill="black"/>
									<path d="M38.4476 66.7249C38.4476 66.7249 39.3399 66.5003 40.8836 66.1497C42.9584 65.7224 45.0113 65.5853 47.0916 65.8587C48.4219 66.0173 49.7796 66.5865 51.0169 67.2049C52.3035 67.9438 53.4478 69.0221 54.2308 70.2483C55.1342 71.4252 55.6983 72.4598 56.5031 73.3958C57.308 74.3318 58.0636 75.1474 58.9177 76.2038C59.8704 77.5011 60.3414 78.9956 60.2814 80.5668C60.101 82.1872 59.4607 83.7147 58.2619 84.9083C57.1836 86.0525 55.837 86.8848 54.2933 87.2354C52.9193 87.6571 51.5178 87.6683 50.1875 87.5097C48.036 87.4059 45.9283 86.7219 44.1051 85.359C43.6179 84.8554 43.1306 84.3519 42.7637 83.799C42.6651 83.5581 42.5666 83.3173 42.468 83.0764C42.0737 82.113 42.4569 81.675 42.8181 81.5271C43.2287 81.4997 43.497 81.8117 43.8639 82.3646C43.9132 82.485 44.0117 82.7258 44.1814 82.797C44.499 83.2294 44.7673 83.5414 45.2765 83.7549C46.782 84.6853 48.6215 85.0573 50.4335 85.0188C52.6343 85.2429 54.802 84.3558 56.3839 82.7242C57.0791 82.0179 57.3855 81.0489 57.5222 80.0087C57.5878 79.1383 57.2428 78.2953 56.6569 77.5508C56.0711 76.8064 55.2662 75.8704 54.4121 74.8139C53.5579 73.7575 52.8954 72.482 52.2109 71.4967C51.6469 70.4621 50.7709 69.6958 49.9442 69.05C48.997 68.4534 47.9787 68.0265 46.8893 67.7693C45.0498 67.3973 43.1885 67.3155 41.3546 67.6442C39.882 67.825 39.1102 68.0003 39.1102 68.0003C36.6741 68.5754 36.0608 67.4204 38.4476 66.7249Z" fill="black"/>
									<path d="M59.5252 76.6582L60.1274 76.4117C60.6091 76.2146 61.0416 75.897 61.474 75.5794C62.1473 75.1633 62.7713 74.6267 63.346 73.9697C63.9208 73.3127 64.4462 72.5353 64.6322 71.6156C64.8182 70.6958 64.4239 69.7324 63.8874 69.1084C63.2029 68.1231 62.2776 67.2363 61.4016 66.47C60.427 65.4629 59.5017 64.5761 58.6476 63.5197C57.9139 62.4139 57.1802 61.3082 56.7366 60.2243C56.3423 59.2609 55.7072 58.396 55.072 57.5311C54.3657 56.836 53.4678 56.3598 52.4277 56.2231C51.2178 56.0152 49.9368 55.9771 48.7051 56.0594C47.424 56.0212 46.143 55.9831 44.9331 55.7752C42.9021 55.6222 40.9422 55.2994 38.9331 54.8563C37.3838 54.5061 36.5845 54.2708 36.5845 54.2708C34.9859 53.8002 35.3142 52.5411 36.9346 52.7215C36.9346 52.7215 37.8543 52.9075 39.1846 53.0661C41.0952 53.2684 43.0058 53.4707 44.9876 53.5033C46.1482 53.5907 47.3799 53.5085 48.6116 53.4262C49.9638 53.2946 51.3653 53.2835 52.6956 53.4421C53.4456 53.5569 54.1956 53.6718 55.0442 54.0275C55.723 54.3121 56.5005 54.8375 56.9878 55.3411C57.9623 56.3483 58.6961 57.454 59.3586 58.7295C59.8022 59.8133 60.3169 60.7275 61.0014 61.7128C61.6858 62.6981 62.4907 63.6341 63.4159 64.5209C64.3905 65.528 65.2447 66.5845 66.0277 67.8106C66.4438 68.4839 66.7395 69.2065 66.9148 69.9784C67.0901 70.7503 67.0245 71.6207 66.9097 72.3707C66.5814 73.6299 65.7439 74.6756 64.8079 75.4805C64.1127 76.1868 63.319 76.6522 62.5253 77.1176C61.9231 77.3641 61.321 77.6105 60.7188 77.8569L60.1167 78.1033C58.9835 78.4265 58.3046 78.1419 58.2061 77.901C58.0089 77.4193 58.4414 77.1017 59.5252 76.6582Z" fill="black"/>
									<path d="M60.5464 62.3205C60.9625 62.9938 61.4991 63.6178 62.1561 64.1925C62.4244 64.5045 62.6434 64.6961 63.0321 64.9588C63.2018 65.03 63.3004 65.2708 63.4208 65.2216C63.5412 65.1723 63.7328 64.9533 63.804 64.7836C63.9463 64.4441 64.0393 63.9843 64.0118 63.5737C63.9351 63.0427 63.8091 62.3912 63.7324 61.8602C63.6064 61.2088 63.4804 60.5573 63.3544 59.9059C62.982 58.6523 62.6096 57.3987 61.947 56.1233C61.7006 55.5211 61.4048 54.7985 61.2296 54.0267C61.0817 53.6654 61.0543 53.2548 60.9557 53.0139C60.9064 52.8935 60.9064 52.8935 60.9064 52.8935L60.5888 52.4611C59.8058 51.2349 59.313 50.0306 58.749 48.996C58.185 47.9614 57.5717 46.8064 56.9584 45.6514C56.2958 44.3759 55.2008 43.418 53.8924 42.9693C53.7719 43.0186 53.7227 42.8981 53.6022 42.9474L53.1424 42.8544C52.5621 42.8107 51.8613 42.8163 51.281 42.7726C50.0493 42.8548 48.6971 42.9864 47.4654 43.0687L41.1645 43.8195C39.5714 44.0497 38.5806 44.0334 38.5806 44.0334C37.7594 44.0882 37.201 43.7543 37.1735 43.3438C37.1461 42.9332 37.5785 42.6156 38.3504 42.4403C38.3504 42.4403 39.292 42.3362 40.8357 41.9856C42.3083 41.8048 44.5035 41.3282 46.9888 40.8735C48.2917 40.6215 49.5946 40.3695 50.9468 40.2379C51.7679 40.1831 52.4686 40.1775 53.1694 40.172L53.7497 40.2157C54.0398 40.2375 54.2095 40.3087 54.4997 40.3305C54.8391 40.4728 55.299 40.5658 55.6384 40.7081C56.487 41.0639 57.0947 41.5181 57.7517 42.0929C58.2883 42.7169 58.8249 43.3409 59.241 44.0142C59.9747 45.1199 60.588 46.275 61.2506 47.5504C61.8639 48.7054 62.3075 49.7893 62.9207 50.9443L63.1179 51.4261C63.1672 51.5465 63.2657 51.7873 63.315 51.9078L63.3425 52.3184C63.441 52.5592 63.4685 52.9698 63.567 53.2107C63.693 53.8621 63.9395 54.4642 64.1859 55.0664C64.728 56.3911 65.0293 57.8144 65.451 59.1885C65.6263 59.9603 65.5826 60.5406 65.7086 61.1921C65.8346 61.8435 65.8402 62.5442 65.8457 63.245C65.9006 64.0661 65.6653 64.8654 65.2603 65.5936C64.7348 66.371 64.1601 67.028 63.3664 67.4934C63.1748 67.7125 63.0762 67.4716 62.9065 67.4004C62.7368 67.3293 62.5671 67.2582 62.3481 67.0666C61.9594 66.8039 61.7404 66.6123 61.4721 66.3003C61.2038 65.9883 60.7658 65.6051 60.4975 65.2931C59.9609 64.6691 59.4955 63.8754 59.03 63.0816C58.0718 61.0836 59.1282 60.2294 60.5464 62.3205Z" fill="black"/>
									<path d="M79.771 48.8293C79.7765 49.53 79.6617 50.28 79.6179 50.8603C79.3664 52.6505 78.7753 54.2983 77.8942 55.9244C77.2976 56.8715 76.6517 57.6982 75.8854 58.5742C75.5023 59.0122 75.1191 59.4503 74.6867 59.7678C74.3747 60.0361 74.0627 60.3044 73.7014 60.4523C73.3401 60.6001 72.9788 60.748 72.7379 60.8465C71.4843 61.219 70.2526 61.3013 68.9716 61.2631C67.811 61.1757 66.6011 60.9678 65.5828 60.5409C64.2744 60.0922 63.1793 59.1343 62.5661 57.9793C62.4182 57.618 62.2703 57.2567 62.1718 57.0159L61.9472 56.1236C61.8705 55.5925 61.6241 54.9904 61.5473 54.4594C61.0708 52.2642 60.8844 50.0909 60.8184 47.8683C60.8291 46.1767 60.8398 44.4851 61.1407 42.8153C61.2993 41.485 61.4634 40.8555 61.4634 40.8555C61.7424 39.4759 62.9523 39.6837 62.9635 41.0852C62.9635 41.0852 62.8486 41.8352 62.9309 43.0669C62.8709 44.6381 62.9806 46.2804 63.0903 47.9227C63.3478 49.9263 63.6547 52.0504 64.3228 54.0265C64.3995 54.5575 64.5967 55.0393 64.7938 55.521L65.0895 56.2436C65.1388 56.364 65.2374 56.6049 65.2867 56.7253C65.6535 57.2782 66.2613 57.7325 66.9401 58.017C68.6373 58.7285 70.4986 58.8104 72.2121 58.5309C72.3325 58.4817 72.5734 58.3831 72.6938 58.3338C72.8142 58.2845 72.8142 58.2845 72.9347 58.2352C73.0551 58.1859 73.0551 58.1859 73.1755 58.1367C73.6079 57.8191 73.9911 57.3811 74.3031 57.1128C74.9983 56.4065 75.6934 55.7002 76.2189 54.9228C77.1275 53.7073 77.8171 52.3003 78.1672 50.751C78.4244 49.6615 78.5392 48.9115 78.5392 48.9115C78.5225 46.8094 79.8747 46.6778 79.771 48.8293Z" fill="black"/>
									<path d="M69.5964 66.9124C71.633 67.7661 73.385 69.2987 74.7046 71.1489C75.4876 72.3751 76.0297 73.6998 76.331 75.1231C76.5063 75.895 76.5612 76.7162 76.5667 77.4169C76.4737 77.8767 75.2913 78.0795 75.023 77.7674C74.7766 77.1653 74.4809 76.4427 74.114 75.8898C73.55 74.8553 72.8163 73.7495 72.1318 72.7642C71.4474 71.7789 70.7137 70.6732 70.0293 69.6879C69.542 69.1843 69.1751 68.6314 68.6878 68.1278C68.2498 67.7447 68.9175 66.6278 69.5964 66.9124Z" fill="black"/>
									<path d="M76.605 79.2288C76.605 79.2288 76.5339 79.3986 76.5613 79.8091C76.5887 80.2197 76.3753 80.7289 76.2604 81.4789C75.8884 83.3183 75.3467 85.0867 74.5641 86.9535C73.6885 89.2803 72.3038 91.3936 70.7 93.3153C69.0963 95.2371 67.2242 96.8468 65.0839 98.1445C62.9436 99.4422 60.6554 100.379 58.3891 101.025C55.953 101.6 53.5881 102.005 51.0261 101.929C49.1648 101.847 47.2542 101.645 45.4147 101.273C44.0351 100.994 43.1865 100.638 43.1865 100.638C41.7084 100.118 42.2064 98.9304 43.5367 99.089C43.5367 99.089 44.2867 99.2038 45.617 99.3624C47.4072 99.614 49.0988 99.6247 50.8615 99.4657C53.0348 99.2793 55.3997 98.8739 57.4963 98.1565C59.593 97.439 61.591 96.4807 63.5397 95.402C67.388 93.1242 70.382 89.7898 72.4289 85.8589C73.1897 84.2822 73.9504 82.7055 74.3717 80.9864C74.5359 80.3569 74.7493 79.8477 74.7219 79.4371C74.6944 79.0266 74.886 78.8075 74.886 78.8075C75.4277 77.0392 76.9003 76.8584 76.605 79.2288Z" fill="black"/>
									<path d="M272.483 143.183C272.39 143.642 272.248 143.982 272.155 144.442L271.755 145.871L271.143 147.809C269.818 151.444 268.083 155.106 266.08 158.457C263.48 162.755 260.371 166.839 256.824 170.54C254.931 172.44 252.938 174.099 250.896 175.638C248.855 177.176 246.884 178.545 244.985 179.744C240.753 182.46 236.325 184.694 231.677 186.737C226.909 188.829 222.043 190.68 217.559 192.093C213.848 193.331 210.038 194.327 206.25 195.034C203.354 195.516 201.591 195.675 201.591 195.675C199.949 195.785 199.149 195.55 199.122 195.139C199.094 194.729 199.817 194.433 201.361 194.082C201.361 194.082 203.074 193.803 205.8 193.25C209.539 192.422 213.13 191.234 216.793 189.876C221.057 188.271 225.874 186.3 230.472 184.137C234.83 182.072 239.089 179.767 243.249 177.221C245.148 176.022 247.119 174.653 249.089 173.284C251.181 171.866 253.053 170.256 254.875 168.526C258.4 165.115 261.487 161.321 264.186 157.264C266.288 154.154 268.121 150.732 269.495 147.218L270.157 145.4C270.37 144.891 270.463 144.431 270.606 144.092C270.748 143.752 270.841 143.292 270.983 142.953C271.076 142.493 271.29 141.984 271.432 141.644C271.574 141.305 271.596 141.015 271.738 140.675C271.952 140.166 272.094 139.827 272.384 139.849C272.674 139.871 272.773 140.111 272.85 140.642C272.877 141.053 272.855 141.343 272.883 141.754C272.74 142.093 272.647 142.553 272.483 143.183Z" fill="black"/>
									<path d="M227.689 201.727L229.649 202.049C230.858 202.257 232.649 202.509 234.849 202.733C239.251 203.181 245.634 203.662 252.838 204.088C256.441 204.301 260.163 204.465 264.176 204.651L270.171 204.869L275.755 205.114C275.875 205.065 275.683 205.284 276.012 204.025C276.318 203.056 276.504 202.136 276.69 201.216L277.319 198.288C277.505 197.368 277.642 196.328 277.828 195.408C278.523 191.609 278.977 187.908 279.239 184.426C279.928 176.833 279.916 169.245 279.203 161.663C278.858 157.727 278.343 153.72 277.636 149.932C276.929 146.144 276.102 142.405 275.133 139.005C274.262 135.847 273.15 132.787 271.748 129.705C270.642 127.345 269.415 125.035 267.948 122.824C267.066 121.357 266.064 119.939 264.871 118.74C264.433 118.357 263.946 117.854 263.508 117.47C261.635 115.987 260.639 115.27 260.901 114.881C261.044 114.542 262.374 114.701 264.537 116.206C265.095 116.54 265.582 117.043 266.07 117.547C267.433 118.817 268.605 120.306 269.536 121.893C271.003 124.105 272.399 126.486 273.675 128.916C275.077 131.998 276.358 135.129 277.399 138.359C278.538 141.83 279.365 145.569 280.242 149.428C280.998 153.337 281.633 157.295 282.028 161.351C282.79 169.053 282.9 176.882 282.261 184.595C281.999 188.077 281.474 191.948 280.779 195.747L280.27 198.627L279.641 201.555C279.455 202.475 279.198 203.565 278.891 204.534L278.399 206.422C278.306 206.882 278.213 207.342 277.999 207.851L276.549 207.742L270.094 207.431L264.171 207.043C260.279 206.808 256.507 206.524 252.855 206.19C245.722 205.595 239.41 204.944 234.91 204.255C232.66 203.91 230.87 203.659 229.66 203.451L227.7 203.128C224.311 202.406 222.636 201.404 222.658 201.114C222.729 200.944 223.139 200.917 224.01 200.983C224.519 201.196 225.849 201.355 227.689 201.727Z" fill="black"/>
									<path d="M253.889 159.931L254.535 159.105C254.869 158.546 255.564 157.84 256.111 156.772C257.83 154.1 259.499 151.308 260.659 148.303C262.224 144.569 263.28 140.622 263.707 136.51C264.062 132.569 263.667 128.512 262.55 124.751C261.553 120.941 259.905 117.257 257.655 113.82C257.019 112.955 256.434 112.21 255.727 111.515C255.021 110.82 254.244 110.295 253.296 109.698C251.621 108.696 249.825 107.744 248.03 106.792C245.216 105.413 242.09 104.302 239.062 103.432C238.142 103.246 237.223 103.06 236.303 102.874L235.263 102.737C234.803 102.644 234.343 102.551 233.883 102.458C233.544 102.316 233.374 102.244 233.325 102.124C233.275 102.004 233.467 101.785 233.779 101.516C234.261 101.319 234.792 101.242 235.323 101.166L236.483 101.253C237.524 101.39 238.394 101.456 239.483 101.713C242.702 102.364 245.949 103.425 249.004 104.706C250.871 105.489 252.787 106.392 254.632 107.464C255.699 108.012 256.575 108.778 257.402 109.424C258.278 110.19 259.083 111.126 259.718 111.991C261.038 113.841 262.237 115.741 263.075 117.788C263.984 119.666 264.652 121.642 265.2 123.667C266.344 127.839 266.767 132.306 266.269 136.587C265.771 140.868 264.573 145.154 262.646 149.036C261.196 152.02 259.406 154.861 257.398 157.511C256.681 158.508 256.035 159.334 255.531 159.822L254.885 160.648C252.614 163.687 251.377 163.068 253.889 159.931Z" fill="black"/>
									<path d="M229.006 106.001L229.416 105.973C229.827 105.946 230.188 105.798 230.599 105.771C231.951 105.639 233.352 105.628 234.754 105.617C242.15 105.824 249.108 108.741 254.2 113.968C254.857 114.543 255.394 115.167 255.881 115.67C256.368 116.174 256.735 116.727 257.053 117.159C257.321 117.471 257.589 117.783 257.737 118.145C257.836 118.386 258.005 118.457 258.005 118.457C258.69 119.442 257.584 120.176 256.828 119.36L256.56 119.048C256.292 118.736 256.024 118.424 255.805 118.233L254.491 117.083C254.053 116.7 253.396 116.125 252.788 115.671C250.138 113.662 247.225 112.042 244.121 110.641C241.066 109.36 237.869 108.419 234.53 107.818C233.199 107.659 231.869 107.5 230.588 107.462C230.177 107.49 229.887 107.468 229.477 107.495L229.066 107.523C227.714 107.654 227.292 106.28 229.006 106.001Z" fill="black"/>
									<path d="M208.85 114.812C210.317 113.93 211.954 113.12 213.519 112.479C219.492 109.894 225.962 109.215 232.351 110.396C234.021 110.697 235.74 111.118 237.339 111.589C237.798 111.682 237.996 112.164 237.853 112.503C237.711 112.843 237.399 113.111 236.939 113.018C235.269 112.717 233.698 112.657 231.957 112.526C228.985 112.477 225.941 112.598 222.996 112.96C220.001 113.201 217.034 113.853 214.067 114.505C212.403 114.904 210.908 115.375 209.343 116.016C208.237 116.75 207.503 115.644 208.85 114.812Z" fill="black"/>
									<path d="M393.832 245.932C393.832 245.932 390.367 244.679 385.571 243.267C380.775 241.855 374.819 240.356 370.171 239.306C365.523 238.255 359.496 236.926 354.536 236.144C349.576 235.361 345.924 235.028 345.924 235.028C344.255 234.727 344.342 233.567 345.984 233.457C345.984 233.457 349.778 233.451 354.76 233.943C365.495 234.752 376.171 237.132 386.255 241.159C390.909 242.911 394.402 244.574 394.402 244.574C396.608 245.499 396.329 246.879 393.832 245.932Z" fill="black"/>
									<path d="M306.997 286.953C306.795 288.863 306.423 290.703 305.881 292.471C304.267 299.177 300.934 305.462 296.287 310.598C295.066 312.082 293.747 313.325 292.307 314.617C291.492 315.372 290.567 314.486 291.163 313.539C291.163 313.539 292.696 311.787 294.464 309.235C296.303 306.514 297.972 303.722 299.543 300.689C301.163 297.776 302.493 294.842 303.724 291.667C304.813 288.831 305.399 286.482 305.399 286.482C305.847 285.174 307.298 285.283 306.997 286.953Z" fill="black"/>
									<path d="M310.026 342.797C310.026 342.797 312.061 328.185 313.751 318.917C315.562 309.599 318.976 295.267 318.976 295.267C319.447 293.668 320.657 293.876 320.476 295.497C320.476 295.497 318.442 310.108 316.751 319.377C314.94 328.694 311.526 343.027 311.526 343.027C311.455 343.196 311.504 343.317 311.384 343.366L310.842 345.134L310.13 343.739C309.2 342.151 310.015 341.395 311.307 342.835L310.004 343.087L310.026 342.797Z" fill="black"/>
									<path d="M252.256 106.468C252.256 106.468 251.988 106.156 251.38 105.702C251.112 105.39 250.723 105.127 250.285 104.744L248.681 103.573C245.642 101.301 242.27 99.5883 238.826 98.045C225.178 92.5231 210.145 92.2076 196.339 97.2951C191.664 98.9271 187.186 101.041 182.977 103.467C179.681 105.378 176.435 107.409 173.288 109.681C172.062 110.464 171.246 111.22 170.622 111.756L169.637 112.441C167.212 114.418 166.358 113.361 168.613 111.313L169.549 110.508C170.173 109.972 170.989 109.216 172.165 108.313C175.264 105.92 178.411 103.648 181.778 101.567C186.058 98.9717 190.607 96.6882 195.304 94.7661C200.001 92.8439 204.873 91.6937 209.991 91.1456C220.157 90.219 230.367 91.8053 239.68 96.0084C243.293 97.6228 246.693 99.7465 249.781 102.138C250.389 102.593 250.876 103.096 251.265 103.359C251.703 103.742 252.02 104.175 252.36 104.317L253.285 105.204C256.357 108.586 255.568 109.753 252.256 106.468Z" fill="black"/>
									<path d="M99.831 104.03C99.831 104.03 100.882 105.569 102.06 107.758C103.286 110.068 104.392 112.428 105.186 115.055C105.931 117.562 106.435 120.168 106.649 122.752C106.934 125.166 106.852 127.028 106.852 127.028C106.759 127.487 106.447 127.756 105.987 127.663C105.697 127.641 105.478 127.449 105.33 127.088C105.33 127.088 105.002 125.254 104.355 122.988C103.709 120.721 102.986 117.924 102.219 115.707C101.622 113.561 100.73 110.693 99.8426 108.525C98.9554 106.357 98.3859 104.622 98.3859 104.622C98.0409 103.779 99.1466 103.045 99.831 104.03Z" fill="black"/>
									<path d="M164.017 217.239C164.017 217.239 165.934 221.235 168.442 226.676C168.738 227.398 169.154 228.072 169.45 228.794C169.795 229.637 170.019 230.53 170.123 231.471C170.2 232.002 170.156 232.583 169.992 233.212C169.828 233.842 169.374 234.449 168.941 234.767C167.956 235.451 166.823 235.775 165.613 235.567C164.742 235.501 163.773 235.195 162.974 234.959L160.697 234.204C159.219 233.684 157.74 233.164 156.383 232.595C150.443 230.105 144.716 227.106 139.372 223.669C134.297 220.544 130.629 218.108 130.629 218.108C128.904 216.986 129.572 215.869 131.488 216.772C131.488 216.772 135.469 218.939 140.566 221.774C146.123 224.703 151.751 227.461 157.641 229.831C158.999 230.4 160.357 230.969 161.835 231.489C163.193 232.058 164.671 232.578 166.22 232.928C166.68 233.021 167.211 232.944 167.572 232.796C167.884 232.528 167.956 232.358 167.999 231.778C167.698 230.355 167.326 229.101 166.783 227.776C164.637 222.187 162.961 218.093 162.961 218.093C161.537 215.301 162.643 214.567 164.017 217.239Z" fill="black"/>
									<path d="M121.753 168.593C121.753 168.593 121.682 168.763 121.419 169.151C121.206 169.661 120.823 170.099 120.489 170.657C119.318 172.261 117.927 173.674 116.269 174.774C114.227 176.313 111.868 177.419 109.36 178.164C106.974 178.859 104.368 179.363 101.806 179.287C99.2438 179.211 96.8733 178.916 94.4043 178.379C91.9353 177.843 89.6578 177.088 87.2818 176.092C85.1247 175.288 83.3783 174.456 82.0206 173.886L79.9347 172.912C78.5277 172.223 79.0257 171.035 80.4546 171.434L82.5623 172.118C83.8707 172.567 85.8088 173.18 87.9165 173.864C90.1447 174.499 92.4933 175.084 94.913 175.5C97.1631 175.844 99.5335 176.14 101.805 176.194C106.349 176.303 110.931 175.131 114.9 172.804C116.487 171.873 117.856 170.75 119.005 169.436C119.388 168.998 119.651 168.61 120.034 168.172L120.417 167.734C121.419 166.058 122.799 166.337 121.753 168.593Z" fill="black"/>
									<path d="M127.558 132.614C128.122 133.649 128.494 134.903 128.938 135.986C130.422 140.3 130.773 144.937 129.744 149.295C129.536 150.505 129.159 151.643 128.781 152.782C128.497 153.461 127.237 153.133 127.232 152.432C127.232 152.432 127.462 150.932 127.494 148.95C127.527 146.968 127.412 144.625 127.324 142.693C127.236 140.76 127.121 138.417 126.743 136.463C126.485 134.459 126.184 133.036 126.184 133.036L127.558 132.614C127.585 133.025 127.202 133.463 126.791 133.49C126.501 133.469 126.162 133.326 126.014 132.965L127.558 132.614Z" fill="black"/>
									<path d="M94.0093 125.535C94.6989 124.128 95.1695 122.529 95.6894 121.051C96.4883 118.193 96.8766 115.363 96.9747 112.511C97.1933 109.609 97.0013 106.735 96.5192 103.839C96.3165 102.657 96.0426 101.644 95.7195 100.511C95.6921 100.1 95.5442 99.7392 95.4456 99.4983C95.3471 99.2575 95.2978 99.137 95.2978 99.137C95.1499 98.7757 95.3634 98.2666 95.7246 98.1187C96.0859 97.9709 96.5951 98.1843 96.7429 98.5456C96.7429 98.5456 96.7922 98.666 96.8908 98.9069C96.9894 99.1478 97.1372 99.5091 97.2851 99.8704C97.7287 100.954 98.2215 102.159 98.5447 103.292C99.4867 106.281 99.8265 109.516 99.7065 112.658C99.466 115.85 98.7657 118.949 97.5563 121.834C96.9159 123.361 96.1552 124.938 95.1755 126.323C94.6282 127.391 93.4402 126.893 94.0093 125.535Z" fill="black"/>
								</g>
							<path opacity="0.75" d="M441.682 162.613C460.684 178.301 498.537 199.075 557.448 220.701C616.359 242.326 637.215 213.313 560.483 178.016C515.154 157.184 483.657 137.83 465.401 125.45C443.881 110.833 419.288 139.548 437.202 158.467C438.635 159.909 440.141 161.315 441.682 162.613Z" fill="url(#paint25_linear_1423_2801)"/>
							<path opacity="0.75" d="M451.365 203.908C501.425 229.03 529.605 239.533 565.117 250.166C600.628 260.799 636.303 239.771 602.906 231.408C569.508 223.046 517.968 200.184 467.063 168.842C416.159 137.5 428.339 188.064 451.365 203.908Z" fill="url(#paint26_linear_1423_2801)"/>
							<path opacity="0.75" d="M460.799 143.711C482.028 158.435 523.401 176.818 586.85 194.244C650.298 211.67 669.543 179.527 586.275 149.38C537.087 131.592 502.48 114.134 482.32 102.802C458.553 89.4179 435.377 121.577 455.754 139.772C457.378 141.153 459.074 142.49 460.799 143.711Z" fill="url(#paint27_linear_1423_2801)"/>
							<g clip-path="url(#clip1_1423_2801)">
								<path d="M482.938 104.462C478.856 103.101 478.165 101.824 477.757 97.6052C476.48 86.0485 472.848 74.9628 466.966 64.8715C460.843 54.665 452.49 43.9245 441.038 43.0027C426.77 42.1541 419.191 53.7941 424.183 67.6015C427.92 77.8498 429.814 85.146 429.301 95.3731C429.207 96.8072 429.217 97.4039 427.668 97.5504C410.71 99.8525 395.018 103.589 384.99 108.969C367.372 118.588 371.62 141.743 392.054 141.577C403.129 141.431 410.676 141.609 421.479 143.64C427.299 144.708 428.524 147.838 428.953 153.25C430.407 170.868 431.977 180.08 439.178 193.228C446.306 206.282 472.36 209.455 471.723 181.223C471.556 171.676 472.059 162.213 473.42 152.687C473.483 150.824 476.645 148.668 478.508 148.731C485.846 149.223 495.675 151.558 504.751 154.479C526.388 160.331 546.446 130.52 498.095 109.759C495.091 108.618 488.245 106.231 482.938 104.462Z" fill="url(#paint28_linear_1423_2801)"/>
								<path d="M468.238 168.965C468.321 177.82 469.346 195.469 460.155 202.315C466.666 200.578 472.047 194.276 471.723 181.223C471.556 171.676 472.059 162.213 473.42 152.687C473.64 151.609 474.268 150.667 475.189 150.102C469.673 152.729 468.04 157.628 468.238 168.965Z" fill="url(#paint29_linear_1423_2801)"/>
								<path d="M498.075 109.927C495.091 108.618 488.245 106.231 483.012 104.556C482.195 104.284 481.473 103.938 480.75 103.593C485.126 106.692 496.075 110.272 503.465 115.109C512.593 121.013 525.343 129.242 523.793 140.275C522.243 151.308 512.225 154.563 504.73 154.646C526.367 160.499 546.352 130.593 498.075 109.927Z" fill="url(#paint30_linear_1423_2801)"/>
								<path d="M389.249 110.948C399.372 105.494 414.645 102.386 431.771 100.105C433.247 99.8642 433.31 99.3618 433.404 97.9276C434.011 87.6273 432.023 80.4043 428.286 70.156C423.147 56.1602 430.8 44.6144 445.068 45.463C447.842 45.7249 450.553 46.4892 452.939 47.8082C449.527 45.1702 445.413 43.3799 441.132 42.9296C426.864 42.081 419.285 53.721 424.277 67.5284C428.014 77.7767 429.908 85.0729 429.395 95.3C429.3 96.7341 429.311 97.3308 427.762 97.4773C410.709 99.8526 395.018 103.589 384.989 108.969C369.475 117.405 370.929 136.384 385.448 140.666C375.022 134.259 375.39 118.4 389.249 110.948Z" fill="#F9FC61"/>
								<path d="M443.039 195.667C435.838 182.519 434.268 173.307 432.814 155.689C432.49 150.801 431.339 147.765 426.9 146.53C428.146 148.131 428.638 150.319 428.784 153.229C430.238 170.847 431.808 180.059 439.009 193.207C440.883 196.588 443.866 199.257 447.404 200.891C445.709 199.488 444.149 197.677 443.039 195.667Z" fill="#F9FC61"/>
								<path d="M476.448 95.1451C476.029 94.4123 475.516 93.7528 475.003 93.0933C473.59 91.4707 471.894 90.0679 470.084 88.9059C467.812 87.3461 465.237 86.1736 462.62 85.336C460.003 84.4984 457.344 83.9958 454.644 83.8282C451.943 83.6606 449.2 83.828 446.583 84.3512C443.872 84.9478 441.213 85.806 438.68 87.0202C436.691 87.9622 434.849 89.0926 433.153 90.4115C431.834 91.4373 431.153 92.1177 431.153 92.1177C429.813 93.3109 428.892 92.5153 430.18 91.0604C430.18 91.0604 430.954 90.3067 432.2 89.1867C433.917 87.7003 435.78 86.4024 437.884 85.2196C440.46 83.6705 443.234 82.5715 446.207 81.9226C449.106 81.1796 452.111 80.9599 455.073 81.0752C460.736 81.3581 466.504 83.5252 471.319 87.1892C473.182 88.613 474.857 90.1832 476.322 92.0675C476.908 92.8213 477.4 93.6482 477.892 94.4752C478.51 95.6581 478.217 96.6421 477.955 96.6944C477.358 96.7049 477.086 96.1605 476.448 95.1451Z" fill="black"/>
								<path d="M463.596 61.8983L463.02 61.7413C462.612 61.6052 462.203 61.4691 461.628 61.312C459.995 60.7676 458.32 60.5582 456.645 60.3487C452.364 59.8984 448.051 60.3797 443.801 61.7194C439.697 63.2475 435.939 65.4142 432.767 68.3346C431.522 69.4546 430.255 70.7421 429.156 72.0505C428.266 73.0449 427.847 73.673 427.847 73.673C427.031 74.7616 425.994 74.2067 426.664 72.9297C426.664 72.9297 427.01 72.2074 427.826 71.1188C428.852 69.7161 429.972 68.2402 431.239 66.9527C434.474 63.5299 438.462 60.8817 442.922 59.228C447.433 57.836 452.228 57.585 456.896 58.3389C458.645 58.6425 460.445 59.2079 462.151 59.8465C462.8 60.0978 463.282 60.3281 463.69 60.4642L464.171 60.6945C465.951 61.4274 465.543 62.6521 463.596 61.8983Z" fill="black"/>
								<path d="M480.319 147.171L480.79 146.804C481.072 146.585 481.47 146.124 482.035 145.684C483.396 144.324 484.59 142.942 485.637 141.372C486.987 139.414 488.191 137.269 489.081 134.913C489.95 132.726 490.578 130.423 490.965 128.005C491.426 125.681 491.384 123.294 491.175 120.886C490.966 118.479 490.422 116.029 489.595 113.8C488.967 112.02 488.245 110.314 487.261 108.66C486.915 108.021 486.643 107.477 486.423 107.194L486.151 106.65C485.293 105.352 486.235 104.619 487.282 105.771C487.282 105.771 487.428 105.959 487.648 106.242C487.868 106.524 488.308 107.09 488.653 107.728C489.804 109.403 490.694 111.13 491.563 113.025C492.536 115.443 493.321 118.008 493.677 120.604C494.033 123.2 494.127 125.848 493.719 128.434C493.31 131.019 492.494 133.469 491.436 135.803C490.379 138.138 488.986 140.43 487.374 142.44C486.16 143.989 484.705 145.423 483.176 146.763C482.611 147.202 482.14 147.569 481.763 147.862L481.292 148.228C479.335 149.599 478.508 148.73 480.319 147.171Z" fill="black"/>
								<path d="M514.76 119.328L514.959 119.778C515.158 120.228 515.451 120.605 515.65 121.055C516.393 122.594 516.948 124.279 517.335 125.944C517.827 128.132 518.057 130.372 517.952 132.57C517.848 134.768 517.408 136.925 516.633 139.039C515.01 143.174 512.519 146.775 509.326 149.863C508.08 150.983 506.761 152.008 505.369 152.94C504.259 153.652 503.621 153.997 503.621 153.997C502.438 154.615 501.799 153.599 502.836 152.793C502.836 152.793 503.401 152.354 504.343 151.621C505.568 150.668 506.741 149.454 507.819 148.313C510.488 145.33 512.624 141.855 514.037 138.034C514.697 136.16 515.189 134.266 515.346 132.329C515.597 130.319 515.514 128.268 515.336 126.289C515.189 124.74 514.781 123.243 514.206 121.725C514.007 121.275 513.881 120.919 513.682 120.469C513.557 120.113 513.483 120.019 513.483 120.019C512.74 118.48 513.536 117.559 514.76 119.328Z" fill="black"/>
								<path d="M471.745 156.56C469.4 157.628 467.076 158.528 464.606 159.24C460.094 160.632 455.405 161.406 450.704 161.584C445.931 161.667 441.168 160.987 436.678 159.489C434.877 158.924 433.192 158.118 431.601 157.239C431.119 157.008 430.638 156.778 430.177 156.38C429.863 156.171 429.717 155.982 429.717 155.982C428.555 155.072 429.183 154.129 430.46 154.799C430.46 154.799 430.701 154.915 430.941 155.03C431.423 155.26 431.81 155.564 432.386 155.721C433.998 156.433 435.631 156.977 437.264 157.521C441.556 158.568 446.099 158.966 450.537 158.841C455.049 158.81 459.55 158.182 463.999 157.292C466.448 156.748 468.825 156.11 471.149 155.21C473.096 154.603 473.828 155.545 471.745 156.56Z" fill="black"/>
								<path d="M470.666 179.474L470.195 179.841C469.912 180.061 469.535 180.354 468.991 180.626C467.599 181.557 466.133 182.395 464.521 183.044C460.564 184.76 456.335 185.932 452.022 186.414C449.855 186.738 447.657 186.633 445.48 186.361C443.302 186.089 441.094 185.387 439.074 184.539C437.462 183.827 435.965 182.875 434.75 181.702C434.363 181.399 434.07 181.022 433.609 180.624C433.39 180.341 433.243 180.153 433.243 180.153C432.364 179.022 433.306 178.29 434.3 179.18C434.3 179.18 434.374 179.274 434.688 179.483C435.075 179.787 435.462 180.09 435.776 180.3C437.032 181.137 438.383 181.901 439.848 182.425C441.722 183.084 443.711 183.503 445.647 183.66C447.584 183.817 449.636 183.734 451.614 183.556C455.665 183.127 459.685 182.269 463.673 180.981C465.191 180.406 466.709 179.83 468.08 179.066C468.625 178.794 469.002 178.501 469.358 178.375L469.808 178.176C471.273 177.339 472.362 178.155 470.666 179.474Z" fill="black"/>
								<path d="M422.068 99.4867L421.67 99.9473C421.388 100.167 420.99 100.628 420.571 101.256C419.357 102.805 418.31 104.375 417.409 106.134C416.279 108.374 415.389 110.729 414.834 113.126C414.279 115.523 413.965 118.035 413.839 120.401C413.619 122.84 413.828 125.248 414.111 127.75C414.488 130.178 415.199 132.649 416.005 135.046C416.707 136.92 417.596 138.647 418.58 140.301C419.365 141.505 419.857 142.332 419.857 142.332C420.715 143.63 419.941 144.384 418.727 143.211C418.727 143.211 418.14 142.457 417.188 141.233C416.036 139.558 414.979 137.809 414.111 135.915C412.97 133.476 412.185 130.911 411.661 128.294C411.138 125.677 410.877 123.008 411.118 120.401C411.285 117.7 411.693 115.115 412.437 112.571C413.18 110.027 414.259 107.526 415.651 105.233C416.719 103.496 417.954 101.779 419.409 100.345C419.901 99.8111 420.466 99.3715 420.676 99.0575L421.147 98.6911C422.885 97.0373 423.806 97.8329 422.068 99.4867Z" fill="black"/>
								<path d="M394.348 106.227L394.118 106.708C393.908 107.022 393.772 107.43 393.448 107.985C392.757 109.43 392.306 110.989 391.95 112.476C391.458 114.37 391.113 116.454 391.029 118.484C390.945 120.515 391.123 122.494 391.395 124.399C391.74 126.398 392.274 128.251 392.975 130.125C393.677 131.999 394.64 133.82 395.697 135.568C396.555 136.866 397.508 138.091 398.628 139.337C399.455 140.206 399.988 140.698 399.988 140.698C400.983 141.588 400.187 142.509 399.004 141.765C399.004 141.765 398.376 141.347 397.382 140.457C396.074 139.358 394.953 138.112 393.928 136.793C392.609 135.097 391.405 133.16 390.557 131.098C389.615 129.109 389.029 126.995 388.705 124.828C388.38 122.661 388.318 120.442 388.496 118.338C388.81 114.465 390.056 110.623 392.003 107.294C392.328 106.739 392.558 106.258 392.841 106.038L393.144 105.651C394.212 103.913 395.322 104.562 394.348 106.227Z" fill="black"/>
								<path d="M458.506 118.927C457.459 117.776 456.297 119.587 454.633 117.252C454.141 116.425 452.896 114.824 452.33 113.903C451.838 113.076 451.87 112.144 452.309 111.348C453.053 110.166 454.623 109.852 455.806 110.595L455.879 110.689C457.208 111.621 458.444 112.626 459.585 113.704C460.726 114.782 461.846 116.028 462.892 117.18C463.939 118.331 464.965 119.65 465.823 120.948C466.681 122.246 467.613 123.638 468.283 125.083C468.681 125.983 468.649 126.915 468.115 127.784C467.299 128.872 465.655 129.092 464.493 128.181C463.258 127.176 462.117 126.098 460.976 125.02C460.055 124.224 459.228 123.355 458.422 122.319C457.543 121.188 459.186 119.608 458.506 118.927Z" fill="black"/>
								<path d="M449.158 126.349C448.185 125.292 447.023 127.103 445.359 124.768C444.867 123.941 443.694 122.434 443.297 121.534C442.878 120.801 442.93 119.702 443.443 119C444.186 117.818 445.683 117.409 446.866 118.153L446.94 118.247C448.196 119.084 449.431 120.089 450.572 121.168C451.713 122.246 452.686 123.303 453.733 124.455C454.78 125.606 455.638 126.904 456.496 128.202C457.355 129.5 458.213 130.798 458.883 132.243C459.5 133.426 458.956 135.059 457.7 135.582C456.799 135.98 455.795 135.854 455.02 135.247C453.858 134.336 452.717 133.258 451.576 132.18C450.655 131.384 449.828 130.515 449.169 129.667C448.122 128.516 449.765 126.935 449.158 126.349Z" fill="black"/>
							</g>
							<defs>
								<linearGradient id="paint0_linear_1423_2801" x1="515.751" y1="361.866" x2="212.833" y2="265.49" gradientUnits="userSpaceOnUse">
									<stop stop-color="#DE9AFF" stop-opacity="0"/>
									<stop offset="1" stop-color="#DE9AFF"/>
								</linearGradient>
								<linearGradient id="paint1_linear_1423_2801" x1="563.322" y1="428.175" x2="74.625" y2="230.354" gradientUnits="userSpaceOnUse">
								<stop stop-color="#DE9AFF" stop-opacity="0"/>
								<stop offset="1" stop-color="#DE9AFF"/>
								</linearGradient>
								<linearGradient id="paint2_linear_1423_2801" x1="588.378" y1="512.197" x2="235.133" y2="307.482" gradientUnits="userSpaceOnUse">
								<stop offset="0.234" stop-color="#DE9AFF" stop-opacity="0"/>
								<stop offset="1" stop-color="#DE9AFF"/>
								</linearGradient>
								<linearGradient id="paint3_linear_1423_2801" x1="435.941" y1="330.609" x2="370.554" y2="323.422" gradientUnits="userSpaceOnUse">
								<stop stop-color="#1D4AC4"/>
								<stop offset="1" stop-color="#DE9AFF"/>
								</linearGradient>
								<linearGradient id="paint4_linear_1423_2801" x1="296.479" y1="191.927" x2="417.079" y2="219.699" gradientUnits="userSpaceOnUse">
								<stop stop-color="#1D4AC4"/>
								<stop offset="1" stop-color="#DE9AFF"/>
								</linearGradient>
								<linearGradient id="paint5_linear_1423_2801" x1="127.742" y1="302.316" x2="265.538" y2="270.945" gradientUnits="userSpaceOnUse">
								<stop stop-color="white"/>
								<stop offset="1" stop-color="#DE9AFF"/>
								</linearGradient>
								<linearGradient id="paint6_linear_1423_2801" x1="225.941" y1="284.331" x2="171.49" y2="408.958" gradientUnits="userSpaceOnUse">
								<stop stop-color="#1D4AC4"/>
								<stop offset="1" stop-color="#DE9AFF"/>
								</linearGradient>
								<linearGradient id="paint7_linear_1423_2801" x1="228.112" y1="250.176" x2="685.695" y2="411.714" gradientUnits="userSpaceOnUse">
								<stop stop-color="white"/>
								<stop offset="1" stop-color="#DE9AFF"/>
								</linearGradient>
								<linearGradient id="paint8_linear_1423_2801" x1="233.554" y1="234.763" x2="691.137" y2="396.301" gradientUnits="userSpaceOnUse">
								<stop stop-color="#1D4AC4"/>
								<stop offset="1" stop-color="#DE9AFF"/>
								</linearGradient>
								<linearGradient id="paint9_linear_1423_2801" x1="345.392" y1="423.007" x2="464.371" y2="374.315" gradientUnits="userSpaceOnUse">
								<stop stop-color="#1D4AC4"/>
								<stop offset="1" stop-color="#DE9AFF"/>
								</linearGradient>
								<linearGradient id="paint10_linear_1423_2801" x1="36.1815" y1="368.151" x2="459.62" y2="164.753" gradientUnits="userSpaceOnUse">
								<stop stop-color="#1D4AC4"/>
								<stop offset="1" stop-color="#DE9AFF"/>
								</linearGradient>
								<linearGradient id="paint11_linear_1423_2801" x1="223.955" y1="195.442" x2="406.388" y2="88.6417" gradientUnits="userSpaceOnUse">
								<stop stop-color="white"/>
								<stop offset="1" stop-color="#DE9AFF"/>
								</linearGradient>
								<linearGradient id="paint12_linear_1423_2801" x1="127.73" y1="236.44" x2="328.508" y2="139.996" gradientUnits="userSpaceOnUse">
								<stop stop-color="#1D4AC4"/>
								<stop offset="1" stop-color="#DE9AFF"/>
								</linearGradient>
								<linearGradient id="paint13_linear_1423_2801" x1="258.325" y1="133.863" x2="401.925" y2="67.5364" gradientUnits="userSpaceOnUse">
								<stop stop-color="white"/>
								<stop offset="1" stop-color="#DE9AFF"/>
								</linearGradient>
								<linearGradient id="paint14_linear_1423_2801" x1="256.854" y1="130.681" x2="400.452" y2="64.3538" gradientUnits="userSpaceOnUse">
								<stop stop-color="#1D4AC4"/>
								<stop offset="1" stop-color="#DE9AFF"/>
								</linearGradient>
								<linearGradient id="paint15_linear_1423_2801" x1="149.493" y1="139.733" x2="314.322" y2="142.272" gradientUnits="userSpaceOnUse">
								<stop stop-color="white"/>
								<stop offset="1" stop-color="#DE9AFF"/>
								</linearGradient>
								<linearGradient id="paint16_linear_1423_2801" x1="148.955" y1="174.557" x2="313.785" y2="177.097" gradientUnits="userSpaceOnUse">
								<stop stop-color="#1D4AC4"/>
								<stop offset="1" stop-color="#DE9AFF"/>
								</linearGradient>
								<linearGradient id="paint17_linear_1423_2801" x1="274.842" y1="144.102" x2="194.01" y2="144.581" gradientUnits="userSpaceOnUse">
								<stop stop-color="#1D4AC4"/>
								<stop offset="1" stop-color="#DE9AFF"/>
								</linearGradient>
								<linearGradient id="paint18_linear_1423_2801" x1="217.719" y1="156.685" x2="224.956" y2="182.477" gradientUnits="userSpaceOnUse">
								<stop stop-color="#DE9AFF" stop-opacity="0"/>
								<stop offset="1" stop-color="#F9FC61"/>
								</linearGradient>
								<linearGradient id="paint19_linear_1423_2801" x1="261.005" y1="138.136" x2="189.127" y2="147.219" gradientUnits="userSpaceOnUse">
								<stop stop-color="#DE9AFF" stop-opacity="0"/>
								<stop offset="1" stop-color="#F9FC61"/>
								</linearGradient>
								<linearGradient id="paint20_linear_1423_2801" x1="136.374" y1="160.636" x2="-21.6533" y2="270.348" gradientUnits="userSpaceOnUse">
								<stop stop-color="white"/>
								<stop offset="1" stop-color="#DE9AFF"/>
								</linearGradient>
								<linearGradient id="paint21_linear_1423_2801" x1="83.2725" y1="149.273" x2="155.582" y2="119.681" gradientUnits="userSpaceOnUse">
								<stop stop-color="#1D4AC4"/>
								<stop offset="1" stop-color="#DE9AFF"/>
								</linearGradient>
								<linearGradient id="paint22_linear_1423_2801" x1="63.536" y1="55.7187" x2="-94.4924" y2="165.431" gradientUnits="userSpaceOnUse">
								<stop stop-color="white"/>
								<stop offset="1" stop-color="#DE9AFF"/>
								</linearGradient>
								<linearGradient id="paint23_linear_1423_2801" x1="37.4514" y1="73.7155" x2="78.0145" y2="57.1152" gradientUnits="userSpaceOnUse">
								<stop stop-color="#1D4AC4"/>
								<stop offset="1" stop-color="#DE9AFF"/>
								</linearGradient>
								<linearGradient id="paint24_linear_1423_2801" x1="62.804" y1="52.8862" x2="126.728" y2="-14.0909" gradientUnits="userSpaceOnUse">
								<stop stop-color="white"/>
								<stop offset="1" stop-color="#DE9AFF"/>
								</linearGradient>
								<linearGradient id="paint25_linear_1423_2801" x1="577.346" y1="193.914" x2="267.517" y2="93.8676" gradientUnits="userSpaceOnUse">
								<stop stop-color="#DE9AFF" stop-opacity="0"/>
								<stop offset="1" stop-color="#DE9AFF"/>
								</linearGradient>
								<linearGradient id="paint26_linear_1423_2801" x1="581.967" y1="243.868" x2="355.26" y2="133.534" gradientUnits="userSpaceOnUse">
								<stop offset="0.234" stop-color="#DE9AFF" stop-opacity="0"/>
								<stop offset="1" stop-color="#DE9AFF"/>
								</linearGradient>
								<linearGradient id="paint27_linear_1423_2801" x1="605.289" y1="164.511" x2="272.796" y2="87.1668" gradientUnits="userSpaceOnUse">
								<stop stop-color="#DE9AFF" stop-opacity="0"/>
								<stop offset="1" stop-color="#DE9AFF"/>
								</linearGradient>
								<linearGradient id="paint28_linear_1423_2801" x1="389.33" y1="58.7249" x2="472.378" y2="157.69" gradientUnits="userSpaceOnUse">
								<stop stop-color="#F9FC61"/>
								<stop offset="1" stop-color="#DE9AFF"/>
								</linearGradient>
								<linearGradient id="paint29_linear_1423_2801" x1="498.068" y1="160.828" x2="429.171" y2="195.935" gradientUnits="userSpaceOnUse">
								<stop stop-color="#1D4AC4"/>
								<stop offset="1" stop-color="#DE9AFF"/>
								</linearGradient>
								<linearGradient id="paint30_linear_1423_2801" x1="530.219" y1="112.939" x2="475.78" y2="140.678" gradientUnits="userSpaceOnUse">
								<stop stop-color="#1D4AC4"/>
								<stop offset="1" stop-color="#DE9AFF"/>
								</linearGradient>
								<clipPath id="clip0_1423_2801">
								<rect width="440.865" height="698.774" fill="white" transform="translate(0.550781 47.6462) rotate(-22.2566)"/>
								</clipPath>
								<clipPath id="clip1_1423_2801">
								<rect width="120.188" height="143.581" fill="white" transform="translate(353.45 104.77) rotate(-37.8722)"/>
								</clipPath>
								</defs>
							</svg>